<svg xmlns="http://www.w3.org/2000/svg" width="644.768" height="437.447" viewBox="0 0 644.768 437.447"><defs><style>.a{fill:#e8e8e8;}.b{fill:#ec615b;}.c{fill:#5222d0;}.d,.j{fill:#fff;}.e,.k{fill:#161616;}.f,.g,.h,.i,.l,.n,.o{fill:#6d6c6c;}.f{opacity:0.12;}.g{opacity:0.13;}.h{opacity:0.1;}.i{opacity:0.11;}.j,.k{stroke:#161616;stroke-miterlimit:10;stroke-width:2px;}.l{opacity:0.22;}.m{fill:#321693;}.n{opacity:0.05;}.o{opacity:0.14;}</style></defs><g transform="translate(0)"><g transform="translate(0 0)"><g transform="translate(43.705 312.986)"><path class="a" d="M186.141,860.373c29.926-14.831,64.34-8.934,95.806-3.345,16.767,2.993,33.49,5.765,50.477,7.173a411.919,411.919,0,0,0,54.658.968c35.251-1.76,69.885-8.714,104.652-14.479,34.767-5.721,70.237-10.21,105.444-6.029,34.282,4.093,67.729,18.571,102.671,15.667a95.419,95.419,0,0,0,11.662-1.672c.836-.176.484-1.452-.352-1.276-35.163,7.129-69.709-6.953-103.992-12.63-34.326-5.677-69.225-2.553-103.375,2.685-35.471,5.413-70.633,13.07-106.456,15.755-36.131,2.684-72.086.132-107.732-6.161-30.5-5.413-63.416-12.542-93.694-2.2a89.91,89.91,0,0,0-10.43,4.357.681.681,0,0,0,.66,1.188Z" transform="translate(-185.152 -841.723)"/></g><g transform="translate(451.403 324.586)"><path class="a" d="M1118.842,933.09c-1.629-3.432-10.958-25.613-2.464-25.085a.633.633,0,0,0,.616-.836,57.84,57.84,0,0,1,.44-20.772,55.864,55.864,0,0,1,2.772-9.242c1.056-2.684,3.565-10.3,7.614-6.733,2.464,2.2,2.2,6.953,2.464,9.946.264,3.521.4,7.041.4,10.606a132.983,132.983,0,0,1-1.848,21.3c-.66,3.741-1.452,7.482-2.42,11.134-.528,1.98-1.1,3.917-1.672,5.853-.572,1.76-1.012,4.445-3.036,5.1-.792.264-.44,1.54.352,1.276,2.816-.968,3.432-4.313,4.181-6.821,1.276-4.137,2.332-8.362,3.213-12.631a132.55,132.55,0,0,0,2.552-25.7c0-4.489-.22-8.978-.66-13.422-.308-2.817-.528-6.249-3.081-8.053-6.117-4.313-9.374,7.525-10.562,11.354a58.729,58.729,0,0,0-1.936,27.065,10.176,10.176,0,0,0,.616-.836c-5.281-.308-5.149,5.985-4.489,9.506a70.951,70.951,0,0,0,5.809,17.559c.4.88,1.5.176,1.144-.572Z" transform="translate(-1111.566 -868.082)"/></g><g transform="translate(470.576 330.771)"><path class="a" d="M1156.526,904.741a27.225,27.225,0,0,1,1.012-8.846,29.388,29.388,0,0,1,1.54-4.137c.308-.616.616-1.232.968-1.8.22-.308.484-.572.7-.88,1.32-1.32,2.421-1.1,3.256.7a.662.662,0,0,0,1.276.352c.88-2.9,2.6-6.513,6.117-6.689,3.741-.176,4.753,3.609,4.885,6.6a55.531,55.531,0,0,1-2.2,17.207c-3.08,11.31-8.758,21.74-14.391,31.994-.4.748.748,1.409,1.144.66,7-12.763,14.215-26.009,16.239-40.576a46.568,46.568,0,0,0,.484-9.9c-.176-2.288-.792-4.841-2.728-6.293a5.909,5.909,0,0,0-6.293-.176c-2.509,1.408-3.785,4.137-4.577,6.777.44.132.836.22,1.276.352a2.683,2.683,0,0,0-2.156-3.125c-1.672-.4-3.125.7-4.049,2.025-3.125,4.357-4.093,10.518-3.873,15.711.044.88,1.364.88,1.364.044Z" transform="translate(-1155.132 -882.137)"/></g><g transform="translate(439.911 400.976)"><path class="a" d="M1086.441,1051.625c18.924-10.342,41.368-9.682,62.1-6.689,22.576,3.257,45.284,9.242,68.213,6.381,12.718-1.584,25.613-5.941,38.463-2.9a.662.662,0,0,0,.352-1.276c-11.134-2.641-22.312.132-33.314,2.024a124.284,124.284,0,0,1-35.911.4c-22.532-2.684-44.756-8.934-67.641-7.746-11.442.572-22.8,3.125-32.918,8.626a.681.681,0,0,0,.66,1.188Z" transform="translate(-1085.452 -1041.662)"/></g><g transform="translate(498.237 368.461)"><path class="a" d="M1218.609,979.934c16.855,1.54,33.226-3.389,49.509-7.085,8.582-1.937,17.3-3.609,26.1-3.7,9.2-.132,18.22,1.716,27.241,3.257,9.594,1.672,19.276,2.9,28.958,1.1.836-.176.484-1.408-.352-1.276-18,3.345-35.6-4.137-53.514-4.445-16.767-.264-32.918,5.1-49.157,8.494-9.462,1.98-19.056,3.213-28.737,2.332a.661.661,0,0,0-.044,1.32Z" transform="translate(-1217.987 -967.779)"/></g><g transform="translate(100.463 247.603)"><path class="a" d="M321.286,767.68a23.907,23.907,0,0,1-3.917-5.633,19.217,19.217,0,0,1-1.232-3.125,5.157,5.157,0,0,1-.352-2.552c.176-.968,1.232-3.125,2.773-1.716a.668.668,0,0,0,1.1-.66c-2.42-8.714-2.993-17.559-3.609-26.537-.616-8.934-1.276-18.087.484-26.933.44-2.112.748-5.193,3.125-5.941,2.949-.968,5.017,2.156,5.853,4.489a103.38,103.38,0,0,1,3.389,12.674,203.962,203.962,0,0,1,4.313,27.241,210.767,210.767,0,0,1,.44,30.278c-.044.836,1.276.836,1.32,0a205.573,205.573,0,0,0-5.589-61.127c-.616-2.464-1.232-4.885-1.936-7.305a15,15,0,0,0-2.464-5.457c-1.716-2.024-4.973-3.125-7.217-1.276-1.32,1.1-1.76,2.949-2.112,4.533a54.571,54.571,0,0,0-1.144,7.041,98.23,98.23,0,0,0-.176,15.271c.616,11.222,1.1,22.62,4.093,33.49.352-.22.748-.44,1.1-.66-2.42-2.244-5.193.616-5.061,3.257.176,4.269,3.169,8.626,5.941,11.618.528.616,1.452-.308.88-.968Z" transform="translate(-314.123 -693.154)"/></g><g transform="translate(118.212 235.916)"><path class="a" d="M356.763,714.788c-1.8-4.181-.792-8.67.308-12.894a46.833,46.833,0,0,0,1.936-11.53c.044-4.489-.264-8.846.88-13.247a31.329,31.329,0,0,1,2.2-5.853,9.253,9.253,0,0,1,1.54-2.641c1.98-1.76,2.993,1.5,3.433,2.728,2.992,8.23,3.521,17.119,3.653,25.789q.264,13.664-.748,27.285a310.51,310.51,0,0,1-3.873,31.158c-.132.836,1.144,1.188,1.276.352A297.224,297.224,0,0,0,371.9,693.18a88.817,88.817,0,0,0-1.54-14.479,53.125,53.125,0,0,0-1.8-6.909c-.528-1.54-1.056-3.653-2.464-4.665-3.081-2.244-5.149,3.257-5.985,5.237a31.919,31.919,0,0,0-2.552,12.63,82.223,82.223,0,0,1-.088,8.714,65.306,65.306,0,0,1-1.8,8.229c-1.144,4.533-1.98,9.11-.088,13.555.4.7,1.54.044,1.188-.7Z" transform="translate(-354.455 -666.598)"/></g><g transform="translate(59.884 162.644)"><path class="a" d="M222.877,562.9c25.085-18.7,50.7-37.539,79.787-49.685a147.931,147.931,0,0,1,45.064-11.4c17.163-1.364,34.414.924,51.05,5.237,33.974,8.89,64.824,26.053,96.95,39.7,31.114,13.246,63.724,21.916,96.994,27.593,33.314,5.677,67.025,8.626,100.691,11.222,4.181.308,8.362.66,12.542.968.836.044.836-1.276,0-1.32-34.458-2.6-68.961-5.237-103.111-10.562-33.754-5.237-67.245-13.114-98.975-25.921-32.214-12.983-62.668-30.278-95.982-40.444-16.2-4.929-33.006-8.185-49.993-8.185a139.781,139.781,0,0,0-45.769,8.1c-29.53,10.3-55.67,28.3-80.667,46.693l-9.242,6.865c-.7.528-.044,1.672.66,1.144Z" transform="translate(-221.916 -500.1)"/></g><g transform="translate(439.916 212.059)"><path class="a" d="M1086.1,636.421c26.977.572,53.03-7.261,78.907-13.863,13.29-3.389,26.669-6.513,40.312-7.966a137.876,137.876,0,0,1,40.8,1.408,134.519,134.519,0,0,1,43.216,16.239.661.661,0,0,0,.66-1.144,136.376,136.376,0,0,0-77.323-18.44c-27.461,1.716-53.646,10.738-80.315,16.811-15.183,3.477-30.674,5.985-46.3,5.677-.792-.044-.792,1.276.044,1.276Z" transform="translate(-1085.462 -612.387)"/></g><g transform="translate(579.752 324.065)"><path class="a" d="M1404.044,870.375a192.95,192.95,0,0,1,56.947-.176c.836.132,1.188-1.144.352-1.276a197.732,197.732,0,0,0-57.651.176c-.836.132-.484,1.364.352,1.276Z" transform="translate(-1403.214 -866.897)"/></g><g transform="translate(0 237.454)"><path class="a" d="M86.924,719.824A481.212,481.212,0,0,1,133,671.2c.616-.572-.308-1.5-.924-.924A467.136,467.136,0,0,0,86,718.9c-.528.66.4,1.584.924.924Z" transform="translate(-85.842 -670.091)"/></g><g transform="translate(492.658 0)"><path class="a" d="M1225.109,177.867c-5.941,2.068-10.606-2.9-13.51-7.437-2.861-4.4-4.929-9.2-4.929-14.567.044-10.078,6.777-18.924,16.107-22.444,8.626-3.213,19.144-1.5,25.833,5.017a22.046,22.046,0,0,1,4.313,25.745,53.931,53.931,0,0,1-4.4,6.909,17.647,17.647,0,0,1-3.08,3.7,9.5,9.5,0,0,1-4.973,1.584c-6.161.748-12.366,1.408-18.571,2.112-.836.088-.836,1.408,0,1.32,6.689-.748,13.51-1.232,20.156-2.288,5.413-.88,8.318-6.337,10.87-10.694,5.193-8.846,4.8-19.628-1.893-27.637-6.645-7.966-18.351-10.562-28.033-7.261-9.726,3.345-16.987,12.1-17.647,22.488-.4,6.557,2.2,12.586,5.853,17.867,3.169,4.577,8.23,8.89,14.171,6.821.88-.22.528-1.5-.264-1.232Z" transform="translate(-1205.309 -130.525)"/></g><g transform="translate(108.731 48.247)"><path class="a" d="M334.623,255.8c-1.848-4.533,2.993-8.23,7.085-8.538,4.357-.308,8.538,1.54,12.762,2.332a47.225,47.225,0,0,0,23.852-1.628c7.393-2.464,14.611-6.513,22.576-6.689,8.185-.132,15.491,4.709,23.764,3.7,4-.484,7.877-1.76,11.926-2.068,3.741-.308,9.374.4,10.694,4.665s-4.665,7.833-7.834,9.374a26.685,26.685,0,0,1-11.31,2.684c-4.137,0-7.833-1.232-11.706-2.508a31.419,31.419,0,0,0-10.826-1.8c-7.129.132-13.995,2.42-20.816,4.313a68.183,68.183,0,0,1-12.938,2.64,40.647,40.647,0,0,1-13.026-1.5c-4.313-1.056-8.1-.66-12.454-.044-2.6.352-5.325.572-7.745-.7-2.156-1.144-3.917-3.169-3.389-5.765.176-.836-1.1-1.188-1.276-.352-.66,3.037,1.1,5.589,3.741,7.085,3.565,2.024,7.525,1.188,11.4.616a22.557,22.557,0,0,1,7.877.044c2.376.484,4.709,1.276,7.129,1.672a36.682,36.682,0,0,0,11.4-.176c8.626-1.408,16.767-4.885,25.393-6.117a31.287,31.287,0,0,1,13.687.88c4.181,1.276,8.142,2.9,12.542,3.037,7.085.264,16.371-2.552,20.508-8.714a5.9,5.9,0,0,0-1.232-8.1c-2.772-2.421-6.645-2.817-10.166-2.464-4.533.44-8.89,1.98-13.423,2.2-5.061.264-9.726-1.672-14.567-2.9-9.022-2.288-16.943.66-25.3,3.917a57.055,57.055,0,0,1-15.711,4.093,51.273,51.273,0,0,1-17.515-1.848c-4.137-1.056-8.89-2.156-12.762.264-2.949,1.848-4.973,5.325-3.609,8.758.308.748,1.584.44,1.276-.352Z" transform="translate(-332.912 -240.156)"/></g><g transform="translate(477.058 125.697)"><path class="a" d="M1171.2,427c6.337-6.161,15.535-6.073,23.808-5.281,9.682.924,19.056,2.156,28.826,1.1a105.814,105.814,0,0,0,14.787-2.9c5.1-1.32,10.342-2.729,15.711-2.552,5.413.176,10.474,2.332,15.8,3.081a44.821,44.821,0,0,0,14.523-.836c4.313-.792,8.582-2.112,13.026-1.892,3.917.176,8.714,2.156,8.362,6.909-.352,4.445-5.369,7.525-9.374,8.185-5.105.792-10.3-1.056-15.359-1.452-9.506-.748-16.679,5.633-25.7,7.261-9.506,1.716-18.439-3.521-27.461-5.457-11.09-2.332-21.608,2.508-32.434,4.269-5.413.88-11.706,2.068-17.163.968-2.685-.572-5.237-1.892-6.557-4.4-1.188-2.332-1.232-5.149.748-7.041.616-.572-.308-1.54-.924-.924-2.552,2.42-2.42,6.249-.66,9.154,2.113,3.477,6.161,4.665,9.99,4.885,11.266.66,22.268-3.169,33.094-5.457a35.107,35.107,0,0,1,17.471.836c4.929,1.408,9.682,3.345,14.743,4.269a26.109,26.109,0,0,0,13.995-1.056c4.8-1.716,9.286-4.4,14.3-5.545,9.506-2.156,20.2,4.841,28.738-1.848,2.86-2.244,4.841-5.853,3.477-9.462-1.188-3.125-4.225-4.665-7.349-5.1-4.049-.616-7.966.264-11.926,1.1-6.293,1.32-12.718,2.376-19.144,1.144-5.545-1.056-10.782-3.037-16.547-2.772-5.457.264-10.738,1.848-16.019,3.169a91.275,91.275,0,0,1-20.42,2.773,142.22,142.22,0,0,1-17.823-1.32c-9.374-1.056-20.068-1.716-27.373,5.369-.7.484.22,1.408.836.836Z" transform="translate(-1169.861 -416.146)"/></g><g transform="translate(182.974 404.951)"><path class="a" d="M510.409,1081.5a28.365,28.365,0,0,1-5.1-6.117,24.25,24.25,0,0,1-1.76-3.344,5.6,5.6,0,0,1-.616-2.376c.132-1.276,1.364-3.213,2.86-2.025a.668.668,0,0,0,1.056-.792,21.523,21.523,0,0,1-2.509-10.694,6.369,6.369,0,0,1,.4-2.025,5.752,5.752,0,0,1,.924-1.584c.792-.792,1.5-.792,2.112.088,1.628,1.188,2.288,3.477,3.037,5.281a105.148,105.148,0,0,1,6.029,19.936c.44-.132.836-.22,1.276-.352a57.641,57.641,0,0,1-2.685-10.166c-.4-2.464-1.1-10.65,3.961-7.921,3.257,1.76,3.873,7,3.873,10.3a52.412,52.412,0,0,1-1.364,10.782c-.176.836,1.1,1.188,1.276.352.88-4.533,1.8-9.242,1.232-13.907-.44-3.389-1.936-8.8-6.029-9.33-3.257-.4-4.577,2.9-4.665,5.589-.176,4.885,1.5,10.166,3.125,14.7a.662.662,0,0,0,1.276-.352,104.476,104.476,0,0,0-4.181-15.051c-.792-2.2-1.628-4.357-2.6-6.513-.7-1.628-1.408-3.961-3.125-4.885-2.728-1.5-4.665,1.54-5.1,3.829-.792,4.181.66,8.978,2.509,12.674l1.056-.792c-2.684-2.245-5.413.968-5.017,3.785.66,4.488,4.621,8.933,7.79,11.926.66.484,1.584-.44.968-1.012Z" transform="translate(-501.613 -1050.694)"/></g><g transform="translate(137.954 99.96)"><path class="a" d="M400.144,362.213c9.77-1.98,19.716-3.961,29.75-3.081,9.638.836,18.747,4.269,28.077,6.645,18.219,4.577,37.1,6.205,55.846,6.161,10.738-.044,21.432-.572,32.126-1.452.836-.088.836-1.408,0-1.32-19.1,1.5-38.375,2.112-57.519.352a200.97,200.97,0,0,1-28.913-4.709c-9.066-2.2-17.867-5.5-27.153-6.689-10.958-1.408-21.872.7-32.566,2.861-.836.132-.484,1.408.352,1.232Z" transform="translate(-399.314 -357.665)"/></g><g transform="translate(241.103 92.38)"><path class="a" d="M634.36,352.656c32.3-1.672,63.68-12.674,96.246-10.65.836.044.836-1.276,0-1.32-32.522-2.024-63.944,9.022-96.246,10.65-.88.044-.88,1.364,0,1.32Z" transform="translate(-633.7 -340.439)"/></g><g transform="translate(504.404 263.603)"><path class="a" d="M1235.124,790.193a26.281,26.281,0,0,1-1.892-10.078,23.339,23.339,0,0,1,.616-5.237c.352-1.584,2.113-5.677,4.137-3.081a.677.677,0,0,0,1.144-.484,37.492,37.492,0,0,1,.352-11.31,31.605,31.605,0,0,1,1.32-4.841,24.344,24.344,0,0,1,1.188-2.949,5.114,5.114,0,0,1,2.817-2.333c2.376-1.1,2.42-3.961,2.992-6.249a28.308,28.308,0,0,1,3.521-8.978c1.056-1.584,3.036-4.137,5.193-3.565,1.716.44,2.333,2.289,2.641,3.873.7,3.477.22,7.349.044,10.87a152.042,152.042,0,0,1-2.993,23.192,154.068,154.068,0,0,1-7.394,24.513c-.308.792.968,1.144,1.276.352a151.071,151.071,0,0,0,10.606-51.754c.088-3.433.528-14.875-6.249-12.234-2.86,1.144-4.8,4.621-5.941,7.305a37.038,37.038,0,0,0-1.585,4.709c-.66,2.42-.66,5.413-2.992,6.821-1.364.836-2.244,1.188-3.036,2.772a29.933,29.933,0,0,0-2.112,5.853,37.005,37.005,0,0,0-.924,13.907c.4-.176.748-.308,1.144-.484a2.97,2.97,0,0,0-3.609-.792c-1.716.792-2.332,2.773-2.729,4.445a27.337,27.337,0,0,0,1.276,16.019c.22.88,1.5.528,1.188-.264Z" transform="translate(-1231.999 -729.51)"/></g><g transform="translate(487.818 257.948)"><path class="a" d="M1201.523,780.709a35.894,35.894,0,0,1-4.709-9.462,15.093,15.093,0,0,1-.616-4.841,17.443,17.443,0,0,1,1.5-4.885c.968-2.685-.572-5.237-1.188-7.834-.308-1.232-2.112-12.19,1.76-10.694a.644.644,0,0,0,.792-.792c-1.276-5.677-2.6-11.706-.792-17.383.792-2.508,4-9.022,7.306-6.029,2.024,1.848,3.168,5.281,4.093,7.746,4.049,11.134,5.809,23.5,6.6,35.294.044.836,1.364.836,1.32,0a160,160,0,0,0-3.213-22.884c-1.408-6.6-2.948-13.951-6.777-19.672-1.188-1.76-2.9-3.257-5.149-2.333-2.376.968-4,3.873-4.929,6.073-2.6,6.293-1.144,13.158.264,19.584l.792-.792c-2.333-.924-3.741,1.716-4.093,3.7-.7,4.4.925,8.494,1.937,12.674.616,2.552-.924,4.357-1.364,6.733a12.836,12.836,0,0,0,.044,5.017c.748,4.181,3.037,8.01,5.281,11.574.44.572,1.584-.088,1.144-.792Z" transform="translate(-1194.311 -716.659)"/></g><g transform="translate(529.057 270.016)"><path class="a" d="M1289.331,773.928c1.188-4.093,2.42-8.186,4.929-11.662,2.42-3.345,5.237-6.513,7.922-9.638,1.408-1.584,2.817-3.169,4.357-4.621a11.935,11.935,0,0,1,2.6-2.068c1.98-1.056,3.3.308,3.829,2.112,1.188,4.137.22,8.625-.836,12.718a129.393,129.393,0,0,1-20.508,43.128c-.484.7.66,1.364,1.144.66a130.742,130.742,0,0,0,19.5-39.387,56.312,56.312,0,0,0,2.376-10.386c.308-2.861.4-6.821-1.32-9.286-3.609-5.105-11.09,5.061-13.07,7.393a116.837,116.837,0,0,0-7.526,9.242c-2.332,3.433-3.521,7.437-4.665,11.4a.669.669,0,0,0,1.276.4Z" transform="translate(-1288.019 -744.083)"/></g><g transform="translate(514.699 265.084)"><path class="a" d="M1268.51,733.5a231.3,231.3,0,0,1-13.07,59.983c-.308.792.968,1.144,1.276.352A232.536,232.536,0,0,0,1269.83,733.5c.044-.836-1.276-.836-1.32,0Z" transform="translate(-1255.392 -732.875)"/></g><g transform="translate(515.821 282.616)"><path class="a" d="M1257.968,773.544a109.859,109.859,0,0,1,3.7,27.285.661.661,0,0,0,1.32,0,110.656,110.656,0,0,0-3.741-27.637.662.662,0,0,0-1.276.352Z" transform="translate(-1257.942 -772.714)"/></g><g transform="translate(521.806 272.626)"><path class="a" d="M1271.568,750.844a77.446,77.446,0,0,1,2.333,18.528.661.661,0,0,0,1.32,0,80.089,80.089,0,0,0-2.376-18.88.662.662,0,0,0-1.276.352Z" transform="translate(-1271.542 -750.014)"/></g><g transform="translate(516.94 310.768)"><path class="a" d="M1261.635,846.857a53.292,53.292,0,0,0,9.066-9.022c.528-.66-.4-1.584-.924-.924a53.3,53.3,0,0,1-9.066,9.022c-.66.528.264,1.452.924.924Z" transform="translate(-1260.484 -836.684)"/></g><g transform="translate(495.146 258.544)"><path class="a" d="M1210.979,718.844a452.158,452.158,0,0,1,8.89,48.409c.088.836,1.408.836,1.32,0a467.912,467.912,0,0,0-8.934-48.761c-.176-.836-1.452-.484-1.276.352Z" transform="translate(-1210.962 -718.014)"/></g><g transform="translate(489.598 273.295)"><path class="a" d="M1198.683,752.751a32.567,32.567,0,0,1,9.814,9.022c.484.7,1.628.044,1.144-.66a33.936,33.936,0,0,0-10.254-9.462.653.653,0,1,0-.7,1.1Z" transform="translate(-1198.355 -751.534)"/></g><g transform="translate(502.935 283.264)"><path class="a" d="M1232.507,774.632a83.368,83.368,0,0,0-3.829,12.19.662.662,0,0,0,1.276.352,85.073,85.073,0,0,1,3.829-12.19c.308-.792-.968-1.144-1.276-.352Z" transform="translate(-1228.661 -774.185)"/></g><g transform="translate(489.359 302.388)"><path class="a" d="M1198.292,818.944a145.831,145.831,0,0,1,14.215,4.8c.792.308,1.144-.968.352-1.276a149.815,149.815,0,0,0-14.215-4.8.662.662,0,0,0-.352,1.276Z" transform="translate(-1197.814 -817.642)"/></g><g transform="translate(524.579 271.79)"><path class="a" d="M1305.109,748.592c-5.853,20.376-22.048,36-27.241,56.639a.662.662,0,0,0,1.276.352c5.193-20.64,21.388-36.263,27.241-56.639a.662.662,0,0,0-1.276-.352Z" transform="translate(-1277.842 -748.114)"/></g><g transform="translate(536.697 280.372)"><path class="a" d="M1308.732,768.092c-1.1,7.129-2.244,14.259-3.344,21.388-.132.836,1.144,1.188,1.276.352,1.1-7.129,2.245-14.259,3.345-21.388.132-.836-1.144-1.188-1.276-.352Z" transform="translate(-1305.378 -767.614)"/></g><g transform="translate(540.41 287.589)"><path class="a" d="M1314.777,792.941a117.353,117.353,0,0,1,12.278-7.7c.748-.4.088-1.54-.66-1.144a104.338,104.338,0,0,0-12.278,7.7c-.7.528-.044,1.672.66,1.144Z" transform="translate(-1313.816 -784.013)"/></g><g transform="translate(527.637 311.388)"><path class="a" d="M1285.9,848.745c4-4.709,9.726-7.085,15.359-9.33.792-.308.44-1.584-.352-1.276-5.809,2.333-11.75,4.8-15.931,9.682-.572.66.352,1.584.924.924Z" transform="translate(-1284.791 -838.092)"/></g><g transform="translate(459.022 325.401)"><path class="a" d="M1134.653,870.755c1.628,10.3.264,20.64-1.276,30.894-1.5,10.078-2.993,20.2-4.489,30.278-.132.836,1.144,1.188,1.276.352,1.584-10.65,3.213-21.3,4.753-31.95,1.452-9.9,2.6-19.936,1.012-29.882-.176-.88-1.409-.528-1.276.308Z" transform="translate(-1128.878 -869.935)"/></g><g transform="translate(456.19 344.215)"><path class="a" d="M1122.468,913.484a107.782,107.782,0,0,0,6.073,17.955c.352.792,1.5.088,1.144-.66a112.4,112.4,0,0,1-5.941-17.647.664.664,0,0,0-1.276.352Z" transform="translate(-1122.442 -912.685)"/></g><g transform="translate(464.988 332.034)"><path class="a" d="M1146.908,885.488a25.889,25.889,0,0,1-4.357,10.958c-.484.7.66,1.364,1.144.66a26.955,26.955,0,0,0,4.489-11.31c.088-.792-1.188-1.144-1.276-.308Z" transform="translate(-1142.434 -885.007)"/></g><g transform="translate(466.975 332.729)"><path class="a" d="M1167.611,887.032a375.631,375.631,0,0,1-20.6,54.834c-.352.748.792,1.452,1.144.66a379.913,379.913,0,0,0,20.728-55.142.663.663,0,0,0-1.276-.352Z" transform="translate(-1146.949 -886.585)"/></g><g transform="translate(483.675 331.756)"><path class="a" d="M1185.383,885c-.176,4.269-.308,8.494-.484,12.763-.044.836,1.276.836,1.32,0,.176-4.269.308-8.494.484-12.763.044-.836-1.276-.836-1.32,0Z" transform="translate(-1184.897 -884.375)"/></g><g transform="translate(473.38 337.626)"><path class="a" d="M1162.514,898.192c-2.376,9.946,0,20.332,1.409,30.278.132.836,1.408.484,1.276-.352-1.364-9.682-3.7-19.848-1.409-29.574a.662.662,0,0,0-1.276-.352Z" transform="translate(-1161.504 -897.714)"/></g><g transform="translate(471.624 371.962)"><path class="a" d="M1158.344,982.408A34.258,34.258,0,0,0,1170.138,977c.7-.484.044-1.628-.66-1.144a34.143,34.143,0,0,1-11.486,5.281c-.836.176-.484,1.452.352,1.276Z" transform="translate(-1157.514 -975.734)"/></g><g transform="translate(105.629 248.774)"><path class="a" d="M325.879,696.644a518.421,518.421,0,0,1,8.23,72.746c.044.836,1.364.836,1.32,0a515.459,515.459,0,0,0-8.274-73.1c-.176-.836-1.452-.484-1.276.352Z" transform="translate(-325.862 -695.814)"/></g><g transform="translate(100.696 276.354)"><path class="a" d="M314.806,759.635a74.582,74.582,0,0,1,11.134,19.276c.308.792,1.584.44,1.276-.352a76.918,76.918,0,0,0-11.442-19.848c-.528-.66-1.5.264-.968.924Z" transform="translate(-314.653 -758.484)"/></g><g transform="translate(110.438 260.876)"><path class="a" d="M340.4,723.792a179.448,179.448,0,0,0-3.609,19.892c-.088.836,1.232.836,1.32,0a165.539,165.539,0,0,1,3.565-19.54c.176-.836-1.1-1.188-1.276-.352Z" transform="translate(-336.79 -723.314)"/></g><g transform="translate(123.641 237.094)"><path class="a" d="M371.019,669.9a561.577,561.577,0,0,1-4.225,85.992c-.088.836,1.232.836,1.32,0A561.569,561.569,0,0,0,372.34,669.9c-.044-.836-1.364-.836-1.32,0Z" transform="translate(-366.79 -669.275)"/></g><g transform="translate(120.415 267.176)"><path class="a" d="M359.523,738.408a96.654,96.654,0,0,1,6.557,23.5c.132.836,1.408.484,1.276-.352a96.653,96.653,0,0,0-6.557-23.5c-.352-.748-1.628-.44-1.276.352Z" transform="translate(-359.462 -737.629)"/></g><g transform="translate(124.311 306.943)"><path class="a" d="M369.54,838.777a33.433,33.433,0,0,1,7.481-9.682c.616-.572-.308-1.5-.924-.924a33.956,33.956,0,0,0-7.7,9.946c-.4.748.748,1.408,1.144.66Z" transform="translate(-368.313 -827.991)"/></g><g transform="translate(123.609 241.776)"><path class="a" d="M366.755,680.744c1.144,3.653,2.42,7.217,3.829,10.782.308.792,1.584.44,1.276-.352-1.452-3.521-2.729-7.129-3.829-10.782a.662.662,0,0,0-1.276.352Z" transform="translate(-366.719 -679.914)"/></g><g transform="translate(28.471 413.051)"><path class="a" d="M151.181,1072.049a336.424,336.424,0,0,1,86.7,2.729c8.053,1.32,16.107,2.948,24.073,4.841a.662.662,0,0,0,.352-1.276,338.351,338.351,0,0,0-86.212-9.154c-8.318.22-16.635.7-24.909,1.54-.836.044-.88,1.365,0,1.32Z" transform="translate(-150.537 -1069.101)"/></g><g transform="translate(286.563 425.135)"><g transform="translate(0 0)"><path class="a" d="M738.32,1100.054c.044-1.892,4.753-2.244,5.9-2.112a6.476,6.476,0,0,1,4.841,2.817c3.477,5.369-3.565,7.525-7.614,6.2-.792-.264-1.144,1.012-.352,1.276,2.817.968,6.557.836,8.846-1.408,1.936-1.892,1.54-4.929.088-7a7.969,7.969,0,0,0-7.085-3.256c-1.936.132-5.9,1.012-5.941,3.476a.661.661,0,0,0,1.32,0Z" transform="translate(-737 -1096.56)"/></g></g><g transform="translate(286.402 416.702)"><g transform="translate(0)"><path class="a" d="M737.9,1088.621c2.817-3.961,8.714-5.765,13.114-7.173a60.452,60.452,0,0,1,15.095-2.729c.836-.044.836-1.364,0-1.32a61.8,61.8,0,0,0-16.943,3.257c-4.4,1.54-9.594,3.345-12.41,7.306-.484.7.66,1.364,1.144.66Z" transform="translate(-736.634 -1077.397)"/></g></g><g transform="translate(315.889 416.875)"><path class="a" d="M804.281,1079.115a7.948,7.948,0,0,1,6.777,6.337c.176.836,1.452.484,1.276-.352a9.259,9.259,0,0,0-8.053-7.305c-.88-.088-.836,1.232,0,1.32Z" transform="translate(-803.637 -1077.79)"/></g><g transform="translate(317.2 414.421)"><path class="a" d="M807.577,1074.628c4.929-3.081,9.726.88,10.738,5.853.176.836,1.452.484,1.276-.352-1.232-5.853-7.041-10.166-12.674-6.645-.7.484-.044,1.628.66,1.144Z" transform="translate(-806.616 -1072.214)"/></g><g transform="translate(323.14 421.362)"><g transform="translate(0)"><path class="a" d="M820.592,1092.085a5.351,5.351,0,0,0,6.6-3.3c.308-.792-.968-1.144-1.276-.352a4,4,0,0,1-4.973,2.377.662.662,0,0,0-.352,1.276Z" transform="translate(-820.114 -1087.985)"/></g></g><g transform="translate(285.621 427.166)"><path class="a" d="M736.725,1101.274c-2.289,1.32-2.156,4.445-1.276,6.6a5.17,5.17,0,0,0,6.029,3.432.662.662,0,0,0-.352-1.276,3.833,3.833,0,0,1-4.445-2.685c-.572-1.5-.968-3.961.748-4.929a.673.673,0,0,0-.7-1.144Z" transform="translate(-734.859 -1101.175)"/></g><g transform="translate(286.604 426.472)"><g transform="translate(0 0)"><path class="a" d="M738.592,1105.408c-1.32-3.564,5.1-5.721,7.349-3.7a2.741,2.741,0,0,1-.44,4.357,3,3,0,0,1-2.332.66c-2.949-.572-.528-3.961.924-2.025.528.66,1.672,0,1.144-.66-1.716-2.245-5.5-1.1-4.8,1.936.748,3.345,5.5,2.156,6.953.088a4.113,4.113,0,0,0-3.521-6.469c-3.169-.044-7.966,2.245-6.513,6.117.264.836,1.541.484,1.232-.308Z" transform="translate(-737.093 -1099.599)"/></g></g><g transform="translate(297.791 424.394)"><g transform="translate(0 0)"><path class="a" d="M763.344,1106.2a90.514,90.514,0,0,0,26.229-10.078.661.661,0,0,0-.66-1.144,90.108,90.108,0,0,1-25.921,9.946c-.836.176-.484,1.452.352,1.276Z" transform="translate(-762.514 -1094.875)"/></g></g><g transform="translate(322.297 396.829)"><path class="a" d="M819.343,1050.178c7.482-6.293,14.963-13.775,24.557-16.635a.662.662,0,0,0-.352-1.276c-9.814,2.949-17.471,10.562-25.129,16.987-.66.528.308,1.452.924.924Z" transform="translate(-818.197 -1032.24)"/></g><g transform="translate(347.464 397.304)"><g transform="translate(0)"><path class="a" d="M875.832,1034.631a13.378,13.378,0,0,1,9.022,11.266c.088.836,1.408.836,1.32,0a14.672,14.672,0,0,0-9.99-12.542c-.792-.264-1.144,1.012-.352,1.276Z" transform="translate(-875.385 -1033.319)"/></g></g><g transform="translate(329.079 409.683)"><path class="a" d="M834.617,1075.2q13.533-6.007,26.889-12.543c.748-.352.088-1.5-.66-1.144-8.89,4.357-17.867,8.494-26.889,12.542-.792.352-.088,1.5.66,1.144Z" transform="translate(-833.608 -1061.449)"/></g><g transform="translate(316.732 415.582)"><g transform="translate(0)"><path class="a" d="M806.585,1076.721c.308-.22.616-.4.88-.616a.672.672,0,1,0-.7-1.144c-.308.22-.616.4-.88.616a.655.655,0,0,0-.22.924.694.694,0,0,0,.924.22Z" transform="translate(-805.552 -1074.852)"/></g></g><g transform="translate(187.192 405.91)"><path class="a" d="M511.2,1053.5a103.466,103.466,0,0,0,6.6,28.693c.308.792,1.584.44,1.276-.352a101.372,101.372,0,0,1-6.557-28.341c-.044-.836-1.364-.836-1.32,0Z" transform="translate(-511.197 -1052.875)"/></g><g transform="translate(184.575 425.098)"><g transform="translate(0 0)"><path class="a" d="M505.581,1097.674a27.734,27.734,0,0,1,7.305,5.5c.572.616,1.5-.308.924-.924a27.333,27.333,0,0,0-7.569-5.677c-.748-.44-1.408.7-.66,1.1Z" transform="translate(-505.252 -1096.475)"/></g></g><g transform="translate(192.059 419.422)"><path class="a" d="M524.741,1083.852a13.689,13.689,0,0,0-2.421,9.2c.088.836,1.408.836,1.32,0a12.873,12.873,0,0,1,2.244-8.538c.44-.66-.7-1.32-1.144-.66Z" transform="translate(-522.258 -1083.579)"/></g><g transform="translate(198.442 415.245)"><path class="a" d="M536.779,1074.884a50.087,50.087,0,0,1,1.1,16.591c-.088.836,1.232.836,1.32,0a52.325,52.325,0,0,0-1.188-16.943c-.132-.792-1.408-.44-1.232.352Z" transform="translate(-536.762 -1074.085)"/></g><g transform="translate(196.44 416.99)"><path class="a" d="M532.3,1079.041c1.056,2.024,2.112,4.093,3.169,6.117.4.748,1.54.088,1.144-.66-1.056-2.025-2.112-4.093-3.169-6.117-.4-.748-1.54-.088-1.144.66Z" transform="translate(-532.213 -1078.052)"/></g></g><g transform="translate(110.398 33.127)"><circle class="b" cx="7.437" cy="7.437" r="7.437" transform="translate(104.74 94.222)"/><circle class="b" cx="5.369" cy="5.369" r="5.369" transform="translate(346.477 256.832)"/><circle class="b" cx="2.2" cy="2.2" r="2.2" transform="translate(357.479 252.783)"/><circle class="b" cx="3.785" cy="3.785" r="3.785" transform="translate(0 116.006)"/><circle class="c" cx="4.137" cy="4.137" r="4.137" transform="translate(13.907 123.487)"/><circle class="c" cx="2.288" cy="2.288" r="2.288" transform="translate(146.151 219.205)"/><circle class="c" cx="3.961" cy="3.961" r="3.961" transform="translate(322.933 0)"/><circle class="c" cx="2.993" cy="2.993" r="2.993" transform="translate(341.504 15.579)"/><circle class="c" cx="3.081" cy="3.081" r="3.081" transform="translate(338.335 239.317)"/><circle class="c" cx="1.98" cy="1.98" r="1.98" transform="translate(133.257 3.961)"/><g transform="translate(84.796 156.757)"><path class="c" d="M531.018,578.459a1.826,1.826,0,0,1,.66-2.332,3.784,3.784,0,0,1,2.861-.044c.924.22,1.76.66,2.64.88a5.8,5.8,0,0,0,3.565,0,3.409,3.409,0,0,0,2.112-2.685c.264-1.056.176-2.376,1.056-3.213a4.523,4.523,0,0,1,3.257-.924c2.817.044,5.589,1.628,7.129-1.628.792-1.76.924-3.7,2.861-4.709,2.333-1.232,5.149-.176,7.437.616.792.264,1.144-.968.352-1.276-3.477-1.232-8.494-2.376-10.65,1.716a22.508,22.508,0,0,0-.836,2.2c-.264.66-.572,1.8-1.276,2.112-.792.352-2.245-.044-3.081-.176a8.96,8.96,0,0,0-4.929.308c-1.584.748-2.112,2.024-2.42,3.7-.792,4.445-4.313,2.376-7.217,1.672a4.165,4.165,0,0,0-4.4,1.056,2.611,2.611,0,0,0-.264,3.345c.484.748,1.628.088,1.144-.616Z" transform="translate(-529.382 -561.999)"/></g><g transform="translate(95.356 162.689)"><path class="c" d="M554.664,593.135a4.484,4.484,0,0,1,4.973-3.829c1.408.044,2.948.528,4.357.088a3.346,3.346,0,0,0,2.112-1.892c.924-2.024.924-3.741,2.9-5.237a6.583,6.583,0,0,1,5.677-1.188c1.276.308,2.64.88,3.961.4,1.408-.528,2.068-2.156,3.345-2.993a14.138,14.138,0,0,1,5.457-1.716c.836-.132.484-1.408-.352-1.276a18.975,18.975,0,0,0-4.973,1.408,7.939,7.939,0,0,0-1.892,1.276c-1.144,1.056-1.628,2.112-3.521,2.024-1.628-.044-2.9-.836-4.621-.616a8.582,8.582,0,0,0-4.181,1.848,7.592,7.592,0,0,0-2.42,3.521c-.484,1.452-.792,3.213-2.772,3.257-.924.044-1.848-.176-2.773-.22-3.213-.264-5.985,1.5-6.557,4.753-.132.88,1.1,1.232,1.276.4Z" transform="translate(-553.377 -575.478)"/></g><g transform="translate(328.129 166.43)"><path class="c" d="M1082.788,585.308c2.861.528,4.357,4.269,7.614,3.036,1.892-.7,3.037-2.464,5.237-2.508,2.421-.044,3.521,1.98,5.589,2.64,3.432,1.1,6.161-2.684,9.462-2.068,2.992.572,4.841,4.181,8.186,3.213a.662.662,0,0,0-.352-1.276c-2.948.836-5.237-3.256-8.274-3.344a9.09,9.09,0,0,0-3.873,1.056c-2.509,1.144-4.093,1.848-6.513.044a6.351,6.351,0,0,0-7.789-.4,8.319,8.319,0,0,1-2.333,1.364c-1.364.4-2.244-.308-3.256-1.144a7.941,7.941,0,0,0-3.389-1.936c-.792-.132-1.144,1.144-.308,1.32Z" transform="translate(-1082.307 -583.978)"/></g><g transform="translate(337.448 162.211)"><path class="c" d="M1103.711,575.583c2.245,1.8,4.841-.7,7.217.792,2.244,1.408,3.52,1.848,6.073.968,1.408-.484,2.817-1.188,4.357-.968,1.232.22,2.2,1.144,3.477,1.276a6.293,6.293,0,0,0,3.256-1.012,6.183,6.183,0,0,1,6.161.44c.7.484,1.364-.66.66-1.144a7.419,7.419,0,0,0-6.777-.792,15.347,15.347,0,0,1-2.289,1.056,5.015,5.015,0,0,1-2.948-.748,5.105,5.105,0,0,0-2.684-.44,20.511,20.511,0,0,0-3.565,1.012,4.64,4.64,0,0,1-4.8-.66,4.375,4.375,0,0,0-2.9-.968c-1.32.044-3.125,1.144-4.313.22-.66-.484-1.584.44-.924.968Z" transform="translate(-1103.484 -574.392)"/></g><g transform="translate(191.788 200.253)"><path class="a" d="M773.2,663.46c.176-2.332,2.86-2.244,4.269-1.452a8.824,8.824,0,0,1,1.848,1.54,13.587,13.587,0,0,0,3.257,2.684c2.377,1.056,3.829-.22,5.809-1.364,6.249-3.521,10.87,7.922,17.163,3.917a.336.336,0,0,0-.352-.572c-4.181,2.685-8.1-2.508-11.574-4.049a6.079,6.079,0,0,0-3.609-.616c-1.8.308-2.992,1.892-4.709,2.332-4.049,1.1-5.589-4.621-9.242-5.017a3.013,3.013,0,0,0-3.565,2.64c0,.4.66.4.7-.044Z" transform="translate(-772.5 -660.834)"/></g><g transform="translate(303.516 213.607)"><path class="a" d="M1027.049,705.668a5.936,5.936,0,0,1,6.6-4.489c1.584.132,2.861.088,3.917-1.276,1.232-1.628,1.276-3.829,2.772-5.369,1.76-1.76,4.445-2.288,6.821-2.729.4-.088.22-.7-.176-.616-2.2.4-4.577.88-6.382,2.244-1.716,1.32-2.156,3.125-2.993,5.017-1.1,2.42-2.772,1.98-5.017,2.024a6.151,6.151,0,0,0-2.508.572,6.761,6.761,0,0,0-3.7,4.489.337.337,0,0,0,.66.132Z" transform="translate(-1026.38 -691.18)"/></g><g transform="translate(318.532 215.33)"><path class="a" d="M1061.2,705.4a5.334,5.334,0,0,1,3.52-5.1c1.54-.528,3.169.088,4.709-.44,2.464-.88,3.7-3.961,6.469-4.093.44-.044.44-.7,0-.66a5.544,5.544,0,0,0-3.389,1.584,15.429,15.429,0,0,1-2.42,2.068c-1.453.924-2.773.528-4.313.66a5.932,5.932,0,0,0-5.281,5.985c.044.44.7.44.7,0Z" transform="translate(-1060.5 -695.095)"/></g><g transform="translate(157.206 33.481)"><path class="b" d="M693.954,283.208c.7,2.112,2.244,4.885,4.885,3.565,1.584-.792,2.332-2.509,4.225-2.861a5.054,5.054,0,0,1,5.325,2.553.653.653,0,0,0,1.188-.176,4.376,4.376,0,0,1,8.1-.66c.4.748,1.54.088,1.144-.66a5.664,5.664,0,0,0-10.474.968,11.057,11.057,0,0,0,1.188-.176,6.2,6.2,0,0,0-5.853-3.257,5.344,5.344,0,0,0-3.037,1.012c-.572.4-1.012,1.144-1.628,1.5a3.818,3.818,0,0,1-3.081-.44,4.183,4.183,0,0,1-.7-1.716c-.264-.792-1.54-.44-1.276.352Z" transform="translate(-693.919 -281.878)"/></g><g transform="translate(176.272 27.414)"><path class="b" d="M737.488,269.681a2.59,2.59,0,0,0,2.641.352c1.364-.4,2.244-1.232,3.433.308.4.528.528,1.232,1.056,1.716a4.436,4.436,0,0,0,3.7.968c1.54-.132,5.941-1.188,5.721,1.672-.044.836,1.276.836,1.32,0,.308-4.049-5.017-3.037-7.349-2.949-1.716.044-2.509-.66-3.3-2.068a3.121,3.121,0,0,0-1.364-1.452c-1.5-.66-3.785,1.364-4.929.484-.66-.484-1.628.44-.924.968Z" transform="translate(-737.242 -268.094)"/></g><g transform="translate(36.969 247.157)"><path class="b" d="M422.33,788.841a5.344,5.344,0,0,1,.44-4.489c.88-1.408,2.244-1.848,3.521-2.685a5.884,5.884,0,0,0,2.508-4.489,23.858,23.858,0,0,1,.4-3.037c.484-1.76,1.584-2.553,3.213-3.257a7.8,7.8,0,0,0,3.829-2.509c.484-.7-.66-1.364-1.144-.66-1.408,1.936-4.181,1.892-5.853,3.521-1.672,1.672-1.408,4.049-1.8,6.161-.572,3.213-3.477,3.388-5.281,5.545a6.552,6.552,0,0,0-1.1,6.249c.264.792,1.54.44,1.276-.352Z" transform="translate(-420.704 -767.416)"/></g><g transform="translate(38.207 236.152)"><path class="b" d="M424.523,760.228c3.257-1.936.528-6.689,3.829-8.538,1.76-1.012,3.345-1.452,4.753-3.037a21.717,21.717,0,0,0,3.125-5.237c.352-.748-.792-1.452-1.144-.66a19.571,19.571,0,0,1-3.169,5.193c-1.5,1.628-3.521,1.8-5.149,3.125-2.421,1.98-.484,6.513-2.949,8.009a.673.673,0,0,0,.7,1.144Z" transform="translate(-423.519 -742.408)"/></g><g transform="translate(212.272 187.843)"><g transform="translate(0)"><path class="b" d="M824.879,643.446a4.044,4.044,0,0,1-4.4-4.753,5.992,5.992,0,0,1,5.413-4.709,5.49,5.49,0,0,1,5.369,2.684,4.413,4.413,0,0,1-2.157,5.941c-.792.308-.44,1.584.352,1.276a5.728,5.728,0,0,0,3.389-6.777c-.836-3.257-4.4-4.841-7.569-4.4a7.282,7.282,0,0,0-6.205,6.161,5.365,5.365,0,0,0,5.765,5.853c.88-.044.88-1.364.044-1.276Z" transform="translate(-819.047 -632.636)"/></g></g></g><g transform="translate(127.089 333.182)"><path class="d" d="M377.3,932.127a95.784,95.784,0,0,1,12.674-11.442,110.153,110.153,0,0,1,13.863-8.758c7.173-4,16.107-8.89,26.537-14.479,16.019-1.5,29.486-2.552,39.519-3.3,18.659-1.408,48.629-3.653,82.956-4.533,7.085-.176,13.863-.308,13.863-.308,19.188-.352,24.029-.044,44.052-.308,14.7-.176,14.611-.352,22.62-.308,12.058.088,21.96.528,28.649.924,4,.308,12.146.924,20.2,1.8a50.663,50.663,0,0,1,6.953,1.188,44.383,44.383,0,0,1,8.449,3.037c-2.376,3.609-4.8,7.217-7.217,10.87-7.965,11.794-16.063,23.016-24.117,33.8a32.568,32.568,0,0,1-6.645,3.036,35.132,35.132,0,0,1-13.863,1.5c-7.921-.572-27.153-.22-55.186.616l-37.407-.924c-3.609,5.545-7.217,11.046-10.87,16.591q-36.175-1.98-72.394-3.917c4.841-5.325,9.638-10.65,14.479-15.975Q430.814,936.616,377.3,932.127Z" transform="translate(-376.123 -888.213)"/><g transform="translate(25.855 34.847)"><path class="e" d="M434,968.119q32.61,2.178,65.132,5.061c.836.088.836-1.232,0-1.32Q466.59,968.955,434,966.8c-.836-.044-.836,1.276,0,1.32Z" transform="translate(-433.375 -966.797)"/></g><g transform="translate(193.262 45.771)"><path class="e" d="M814.4,992.975q34.062-.264,68.169,1.452c.836.044.836-1.276,0-1.32q-34.062-1.716-68.169-1.452a.661.661,0,0,0,0,1.32Z" transform="translate(-813.775 -991.62)"/></g><g transform="translate(65.359 21.585)"><path class="e" d="M523.607,937.911c11,1.936,22.18,1.672,33.314,1.584,11.794-.088,23.588.176,35.383.572,23.28.836,46.561,2.376,69.841,3.344,13.378.572,26.8.924,40.18.924a.661.661,0,0,0,0-1.32c-46.649.132-93.122-4.8-139.726-4.841-12.895,0-25.877.748-38.639-1.5-.792-.176-1.188,1.1-.352,1.232Z" transform="translate(-523.142 -936.662)"/></g><g transform="translate(171.258 12.096)"><path class="e" d="M764.4,916.42q49.641.066,99.239,2.9c.836.044.836-1.276,0-1.32q-49.575-2.838-99.239-2.9a.661.661,0,0,0,0,1.32Z" transform="translate(-763.775 -915.1)"/></g><g transform="translate(290.263 6.734)"><path class="e" d="M1065,903.217q-14.655,22.378-30.674,43.7c-.528.66.616,1.32,1.144.66,10.694-14.215,20.948-28.825,30.674-43.7.484-.7-.66-1.364-1.144-.66Z" transform="translate(-1034.191 -902.916)"/></g><g transform="translate(11.511 8.308)"><path class="e" d="M401.758,932.9c13.555-9.374,27.285-18.792,42.6-25.085.792-.308.44-1.584-.352-1.276-15.447,6.337-29.265,15.8-42.952,25.217-.66.484,0,1.628.7,1.144Z" transform="translate(-400.781 -906.492)"/></g><g transform="translate(53.145)"><path class="e" d="M496.053,897.422q52.414-4.819,104.96-6.909c35.031-1.364,70.105-1.892,105.18-1.364,9.814.132,19.628.4,29.4,1.276,9.418.836,19.276,1.8,28.077,5.457.792.308,1.144-.968.352-1.276-7.481-3.125-15.711-4.137-23.721-5.017-8.758-.968-17.559-1.408-26.361-1.628-17.559-.44-35.163-.4-52.722-.22q-52.81.462-105.576,3.785-29.838,1.849-59.631,4.621c-.836.044-.836,1.364.044,1.276Z" transform="translate(-495.387 -887.614)"/></g><g transform="translate(177.325 50.082)"><path class="e" d="M778.195,1008.362c32.786,1.1,65.572,1.144,98.314-.088,5.633-.22,11.926-.88,15.4-5.9.484-.7-.66-1.364-1.144-.66-3.477,4.973-10.21,5.1-15.667,5.281-7.526.22-15.051.528-22.62.66q-23.765.462-47.529.044c-8.934-.132-17.867-.4-26.8-.66-.792-.044-.792,1.276.044,1.32Z" transform="translate(-777.562 -1001.416)"/></g><g transform="translate(0 33.349)"><path class="e" d="M386.453,963.571l-11.618,10.166c-.484.4-.044,1.1.484,1.144,35.6,3.08,71.205,6.161,106.808,8.538.836.044.836-1.276,0-1.32-35.647-2.421-71.249-5.457-106.808-8.538.176.4.308.748.484,1.144l11.618-10.166a.687.687,0,0,0-.968-.968Z" transform="translate(-374.626 -963.392)"/></g><g transform="translate(93.414 39.069)"><path class="e" d="M615.94,976.571a314.065,314.065,0,0,0-28.87,28.914c-.572.616.352,1.584.924.924A314.07,314.07,0,0,1,616.865,977.5c.66-.572-.264-1.5-.924-.924Z" transform="translate(-586.891 -976.391)"/></g><g transform="translate(122.321 37.604)"><path class="e" d="M653.2,975.631a264.188,264.188,0,0,1,64.3,1.628c.836.132,1.188-1.144.352-1.276a262.655,262.655,0,0,0-64.648-1.672c-.836.088-.836,1.408,0,1.32Z" transform="translate(-652.575 -973.061)"/></g><g transform="translate(164.771 41.061)"><path class="e" d="M770.847,981.217c-7.217,10.342-14.479,20.684-21.7,31.026-.484.7.66,1.364,1.144.66q10.826-15.513,21.7-31.026c.484-.7-.66-1.365-1.144-.66Z" transform="translate(-749.034 -980.916)"/></g><g transform="translate(93.143 68.382)"><path class="e" d="M586.9,1044.319q35.647,1.782,71.337,3.521c.836.044.836-1.276,0-1.32q-35.647-1.782-71.337-3.521c-.836-.044-.836,1.276,0,1.32Z" transform="translate(-586.275 -1042.997)"/></g><g transform="translate(111.732 60.144)"><path class="e" d="M628.992,1025.564c3.7.661,7.349,1.276,11.046,1.937.836.132,1.188-1.144.352-1.276-3.7-.661-7.349-1.276-11.046-1.937-.836-.132-1.188,1.144-.352,1.276Z" transform="translate(-628.514 -1024.278)"/></g><g transform="translate(114.318 57.183)"><path class="e" d="M640.864,1017.748a85.017,85.017,0,0,0-6.337,7.393c-.528.66.616,1.32,1.144.66a94.134,94.134,0,0,1,6.161-7.129c.528-.572-.4-1.54-.968-.924Z" transform="translate(-634.391 -1017.55)"/></g><g transform="translate(125.76 44.469)"><path class="e" d="M661.627,1002.232a3.723,3.723,0,0,1,4-3.741,19.668,19.668,0,0,0,3.213.176,6.447,6.447,0,0,0,4.709-3.344c.66-1.188.836-2.552,1.848-3.521a6.789,6.789,0,0,1,4.137-1.672,9.658,9.658,0,0,1,4.181.44,3.163,3.163,0,0,1,2.288,2.6,1.9,1.9,0,0,1-1.716,2.113c.044.44.132.88.176,1.276,1.188-.176,2.509,1.1,2.861,2.112a3.912,3.912,0,0,1,.176,1.584,5.545,5.545,0,0,1-1.364,3.213,5.845,5.845,0,0,1-2.816,1.892c-.968.264-1.144.308-1.848-.484-.792-.924-.44-1.1.4-1.8,3.785-3.168,6.909.968,10.782,1.1a5.443,5.443,0,0,0,5.677-4.225,5.289,5.289,0,0,0-.792-3.7c-.748-1.32-1.188-1.584-.88-3.213q-.33-1.452.924-1.452a1.275,1.275,0,0,1,1.364.088,4.464,4.464,0,0,1,2.333,1.892c.484.66,1.628.044,1.144-.66-1.364-1.892-3.741-3.7-6.117-2.289-2.244,1.32-1.452,3.653-.352,5.457,1.144,1.936,1.936,3.961-.088,5.721-2.288,1.98-4.885.66-7.129-.44a6.956,6.956,0,0,0-7.041.22c-1.32.836-3.257,3.036-1.8,4.621,1.584,1.672,4.885.264,6.293-.88a6.98,6.98,0,0,0,2.641-6.249c-.4-2.376-2.244-4.224-4.665-3.829a.65.65,0,0,0,.176,1.276c2.685-.044,3.829-3.3,2.421-5.369-1.936-2.861-6.777-2.9-9.682-1.849a6.559,6.559,0,0,0-3.521,2.817c-.572.968-.748,2.156-1.364,3.08a5.4,5.4,0,0,1-4.4,2.244c-2.024-.044-3.609-.616-5.369.7a5.006,5.006,0,0,0-2.024,4.137c-.088.836,1.232.836,1.232-.044Z" transform="translate(-660.39 -988.66)"/></g></g><g transform="translate(306.191 65.121)"><path class="c" d="M822.608,455.032c-.088,10.518-.22,20.992-.308,31.51q37.1-1.056,74.154-2.156c5.061,3.917,10.078,7.833,15.139,11.75-1.32-7.745-2.685-15.447-4-23.192-.4-6.381-.836-12.762-1.232-19.144Q864.5,454.394,822.608,455.032Z" transform="translate(-804.388 -376.654)"/><path class="b" d="M797.135,278.808c-.836,15.227-1.672,30.41-2.464,45.637-4.357,5.413-8.714,10.87-13.07,16.283l15.579-4.225,92.682-3.169q-1.254-27.4-2.465-54.834Q842.177,278.632,797.135,278.808Z" transform="translate(-781.6 -278.5)"/><g transform="translate(67.416 19.892)"><path class="a" d="M934.794,324.36a23.614,23.614,0,0,0,19.276,22c.836.132,1.188-1.1.352-1.276a22.254,22.254,0,0,1-18.307-20.728c-.088-.88-1.408-.88-1.32,0Z" transform="translate(-934.79 -323.7)"/></g><g transform="translate(86.377 18.93)"><path class="a" d="M978.5,345.1c4.225.308,8.009-5.9,9.55-9.154a22.775,22.775,0,0,0,1.716-13.951c-.176-.836-1.452-.484-1.276.352a21.264,21.264,0,0,1-1.232,12.146,20.64,20.64,0,0,1-3.125,5.281c-1.276,1.584-3.389,4.181-5.633,4-.836-.088-.836,1.232,0,1.32Z" transform="translate(-977.875 -321.514)"/></g><g transform="translate(90.543 40.002)"><path class="a" d="M987.5,370.542a13.356,13.356,0,0,0,6.821,4.4.662.662,0,0,0,.352-1.276,12.217,12.217,0,0,1-6.249-4.049c-.528-.66-1.452.308-.924.924Z" transform="translate(-987.342 -369.397)"/></g><g transform="translate(96.129 31.65)"><path class="a" d="M1000.151,351.423a18.451,18.451,0,0,0,1.761,2.376c.616.66,1.716,1.232,2.244,1.936,1.54,2.068-1.408,6.073-2.685,7.657-.528.66.616,1.32,1.144.66,1.452-1.892,3.477-5.061,3.389-7.613a2.218,2.218,0,0,0-.792-1.584c-1.408-1.5-2.817-2.332-3.961-4.137a.653.653,0,0,0-1.1.7Z" transform="translate(-1000.034 -350.419)"/></g><g transform="translate(91.426 33.342)"><path class="a" d="M993.331,354.895a18.365,18.365,0,0,1-1.672,6.073,11.16,11.16,0,0,0-.528,1.012c-.22.792.352-.484.484-.66.528-.924.968-1.892,1.408-2.817l-1.188-.528a6.312,6.312,0,0,1-2.113,3.125l1.056.792c.924-1.54,1.8-3.081,2.728-4.665.44-.748-.66-1.32-1.144-.66-.968,1.32-1.936,2.641-2.9,3.917-.44.616.528,1.364,1.056.792a12.578,12.578,0,0,0,2.376-4.049c.308-.792-.968-1.144-1.276-.352a10.731,10.731,0,0,1-2.068,3.477l1.056.792c.968-1.32,1.936-2.641,2.9-3.917-.4-.22-.748-.44-1.144-.66-.924,1.54-1.8,3.081-2.729,4.665-.4.7.484,1.232,1.056.792a7.088,7.088,0,0,0,2.464-3.7c.22-.7-.88-1.188-1.188-.528-.484.924-.968,1.892-1.408,2.817a3.419,3.419,0,0,0-.616,1.8,1.247,1.247,0,0,0,1.584,1.144c1.056-.352,1.584-2.289,1.936-3.213a21.374,21.374,0,0,0,1.32-5.5c-.044-.792-1.364-.792-1.452.044Z" transform="translate(-989.347 -354.262)"/></g><g transform="translate(68.504 40.446)"><path class="a" d="M951.933,370.49c-3.653-.572-6.733,1.8-9.2,4.269a18.843,18.843,0,0,0-5.457,9.814c-.176.836,1.1,1.188,1.276.352a16.909,16.909,0,0,1,4.181-8.23c2.112-2.42,5.369-5.5,8.846-4.929.836.132,1.188-1.144.352-1.276Z" transform="translate(-937.262 -370.404)"/></g><g transform="translate(78.727 21.284)"><path class="a" d="M960.539,327.671c1.364,3.565,2.9,7.085,4.533,10.518a.651.651,0,0,0,1.188-.176,15.744,15.744,0,0,0,.484-4.753c-.044-.836-1.364-.836-1.32,0a13.5,13.5,0,0,1-.44,4.4,11.057,11.057,0,0,0,1.188-.176c-1.584-3.345-3.081-6.733-4.4-10.21-.264-.748-1.54-.4-1.232.4Z" transform="translate(-960.492 -326.863)"/></g><g transform="translate(71.29 24.121)"><path class="a" d="M944.96,336.078c-.308-.572.264-1.188.792-1.364a4.2,4.2,0,0,1,2.42.264c.792.264,1.144-1.012.352-1.276-1.276-.4-2.817-.7-3.961.176a2.227,2.227,0,0,0-.7,2.861c.352.748,1.5.088,1.1-.66Z" transform="translate(-943.592 -333.31)"/></g><g transform="translate(85.183 20.551)"><path class="a" d="M976.455,328.543a2.457,2.457,0,0,1,4.137-1.364c.616.572,1.584-.352.924-.924a3.788,3.788,0,0,0-6.337,1.936c-.176.836,1.1,1.188,1.276.352Z" transform="translate(-975.162 -325.198)"/></g><g transform="translate(88.919 25.151)"><path class="a" d="M984.024,335.848l-.176.176a.654.654,0,0,0,.924.924l.176-.176a.653.653,0,1,0-.924-.924Z" transform="translate(-983.65 -335.65)"/></g><g transform="translate(92.152 23.103)"><path class="a" d="M991.086,332.01c.044.132.132.22.176.352a.694.694,0,0,0,.924.22.683.683,0,0,0,.22-.924c-.044-.132-.132-.22-.176-.352a.694.694,0,0,0-.924-.22.683.683,0,0,0-.22.924Z" transform="translate(-990.996 -330.996)"/></g><g transform="translate(91.647 25.987)"><path class="a" d="M990.048,338.672l.176.176a.653.653,0,0,0,.924-.924l-.176-.176a.653.653,0,1,0-.924.924Z" transform="translate(-989.85 -337.55)"/></g><g transform="translate(73.67 29.398)"><path class="a" d="M949,345.96v.176a.66.66,0,1,0,1.32,0v-.176a.677.677,0,0,0-.66-.66.624.624,0,0,0-.66.66Z" transform="translate(-949 -345.3)"/></g><g transform="translate(75.512 27.637)"><path class="a" d="M954.337,342.488h-.616a.679.679,0,0,0,.924,0,.638.638,0,0,0,0-.924.9.9,0,0,0-1.276,0,.679.679,0,0,0,0,.924.736.736,0,0,0,.968,0Z" transform="translate(-953.186 -341.3)"/></g><g transform="translate(76.046 30.234)"><path class="a" d="M955.72,348.036v-.176a.66.66,0,0,0-1.32,0v.176a.677.677,0,0,0,.66.66.71.71,0,0,0,.66-.66Z" transform="translate(-954.4 -347.2)"/></g><g transform="translate(70.754 18.863)"><path class="a" d="M945.774,321.731a2.493,2.493,0,0,0-3.3.66.7.7,0,0,0,.22.924.694.694,0,0,0,.924-.22,1.088,1.088,0,0,1,1.452-.176c.792.4,1.452-.748.7-1.188Z" transform="translate(-942.373 -321.363)"/></g><g transform="translate(83.702 16.018)"><path class="a" d="M972.766,316.615a5.439,5.439,0,0,1,1.716-.4c.836-.044.836-1.364,0-1.32a6.28,6.28,0,0,0-2.376.572.683.683,0,0,0-.22.924.671.671,0,0,0,.88.22Z" transform="translate(-971.796 -314.898)"/></g><g transform="translate(84.353 32.472)"><path class="a" d="M973.9,356.033a4.271,4.271,0,0,0,4.357-2.949c.264-.792-1.012-1.144-1.276-.352a2.92,2.92,0,0,1-3.081,1.98c-.836-.088-.836,1.232,0,1.32Z" transform="translate(-973.275 -352.285)"/></g><g transform="translate(101.34 36.471)"><path class="a" d="M1012.5,362.7a7.384,7.384,0,0,1,4.093.924c.748.4,1.408-.748.66-1.144a9.012,9.012,0,0,0-4.753-1.1c-.836.044-.836,1.364,0,1.32Z" transform="translate(-1011.875 -361.373)"/></g><g transform="translate(58.633 6.063)"><path class="a" d="M925.6,292.332a13.544,13.544,0,0,0-7.57,8.89c-.616,2.42-.176,4.8-.264,7.261-.132,2.773-1.408,5.237-2.244,7.834A14.31,14.31,0,0,0,924.9,334.4a.662.662,0,0,0,.352-1.276,13.073,13.073,0,0,1-8.142-7.261c-1.672-3.829-1.012-7.437.4-11.222a21.877,21.877,0,0,0,1.452-5.017c.264-2.112-.176-4.225.044-6.337a12.176,12.176,0,0,1,7.261-9.814c.748-.352.088-1.452-.66-1.144Z" transform="translate(-914.831 -292.278)"/></g><g transform="translate(67.38 8.795)"><path class="a" d="M935.716,310.154a19.542,19.542,0,0,0,10.078-10.87c.308-.792-.968-1.144-1.276-.352a18.313,18.313,0,0,1-9.462,10.078c-.792.352-.088,1.5.66,1.144Z" transform="translate(-934.708 -298.485)"/></g><g transform="translate(78.957 8.326)"><path class="a" d="M961.1,298.423c1.452,2.552,4.489,3.7,7.174,4.577a31.62,31.62,0,0,0,10.518,1.584.661.661,0,0,0,0-1.32,30.247,30.247,0,0,1-8.67-1.1c-2.728-.748-6.381-1.8-7.878-4.445-.4-.7-1.54-.044-1.144.7Z" transform="translate(-961.013 -297.419)"/></g><g transform="translate(95.809 13.751)"><path class="a" d="M1000.537,312.235a2.278,2.278,0,0,1,4.225.484c.616,2.024-1.056,3.7-2.993,3.917-.836.088-.836,1.408,0,1.32,2.949-.352,5.413-3.125,4.049-6.117a3.6,3.6,0,0,0-6.425-.22c-.4.66.7,1.32,1.144.616Z" transform="translate(-999.308 -309.747)"/></g><g transform="translate(97.479 20.649)"><path class="a" d="M1003.5,325.9c-.968,5.633-.4,13.246,4.445,17.075.66.528,1.584-.4.924-.924-4.4-3.477-5.017-10.562-4.093-15.755.176-.88-1.1-1.232-1.276-.4Z" transform="translate(-1003.102 -325.42)"/></g><g transform="translate(68.206 1.969)"><path class="a" d="M937.559,288.619c2.9-1.5,5.985-3.125,9.33-3.081,2.86.044,5.237,1.364,8.142.836,3.037-.528,5.809-1.936,8.978-2.112,3.257-.176,6.778.352,9.066,2.861.572.616,1.5-.308.924-.924-4.445-4.841-11.574-3.213-17.075-1.628a11.258,11.258,0,0,1-6.381.264,14.123,14.123,0,0,0-4.709-.572c-3.169.308-6.117,1.76-8.89,3.213-.792.4-.132,1.54.616,1.144Z" transform="translate(-936.584 -282.975)"/></g><g transform="translate(67.777 47.028)"><path class="a" d="M936.529,385.379a1.563,1.563,0,0,1-.44.088.665.665,0,0,0,0,1.276,6.5,6.5,0,0,0,3.3.44c.836-.088.836-1.408,0-1.32a5.674,5.674,0,0,1-2.949-.4v1.276a1.563,1.563,0,0,1,.44-.088c.792-.176.44-1.452-.352-1.276Z" transform="translate(-935.61 -385.362)"/></g><g transform="translate(23.407 15.532)"><path class="a" d="M834.837,314.632a1.342,1.342,0,0,0,2.464-.44c.088-.4-.528-.572-.616-.176a.71.71,0,0,1-1.276.308c-.22-.352-.792-.044-.572.308Z" transform="translate(-834.787 -313.793)"/></g><g transform="translate(28.468 15.365)"><path class="a" d="M846.337,313.936a1.75,1.75,0,0,0,1.144,1.012.938.938,0,0,0,1.1-.616c.132-.4-.484-.572-.616-.176-.088.176-.352.132-.484.044a1.523,1.523,0,0,1-.484-.66c-.308-.308-.88,0-.66.4Z" transform="translate(-846.288 -313.415)"/></g><g transform="translate(25.69 16.865)"><path class="a" d="M841.395,317.032h0l.132.264v-.044c-.044.088-.044.176-.088.22a.043.043,0,0,1,.044-.044c-.088.044-.176.044-.22.088h.044a.919.919,0,0,1-.264-.176c-.088-.132-.132.132-.132.22,0,.176.044.4.044.572a.87.87,0,0,1-.088.484c-.044.088-.22.22-.308.132-.308-.264-.792.176-.484.484a.8.8,0,0,0,1.012.044,1.169,1.169,0,0,0,.484-1.056,2.337,2.337,0,0,1,.044-.792.505.505,0,0,0-.044-.44c-.264-.352-.66-.088-.7.264a.362.362,0,0,0,.176.264h.044c.352.308.7-.264.308-.484Z" transform="translate(-839.976 -316.822)"/></g><g transform="translate(26.792 16.94)"><path class="a" d="M842.489,317.392c.132.616-.044,1.276.44,1.8a.92.92,0,0,0,1.32.132c.308-.264-.132-.748-.484-.484-.264.22-.528-.44-.528-.572-.044-.352-.044-.7-.088-1.056a.343.343,0,0,0-.66.176Z" transform="translate(-842.48 -316.993)"/></g><g transform="translate(23.918 13.555)"><path class="a" d="M836.28,309.96h.968a.33.33,0,0,0,0-.66h-.968a.33.33,0,0,0,0,.66Z" transform="translate(-835.95 -309.3)"/></g><g transform="translate(28.721 13.687)"><path class="a" d="M847.187,310.26a1.408,1.408,0,0,1,.836.22c.352.22.7-.352.352-.572a2.132,2.132,0,0,0-1.144-.308.331.331,0,1,0-.044.66Z" transform="translate(-846.862 -309.6)"/></g><g transform="translate(19.734 9.084)"><path class="a" d="M833.552,311.8c-4.313.264-3.917-4.313-4.929-7.129-.264-.836-.748-1.54-1.056-2.376-1.144-3.257,1.364-.968,2.2.22.264.352.836,0,.572-.352-.484-.7-2.244-3.3-3.3-2.993-1.1.308-.4,2.641-.132,3.3a22.988,22.988,0,0,1,1.408,3.785,10.868,10.868,0,0,0,.924,3.741,4.484,4.484,0,0,0,4.269,2.421.309.309,0,1,0,.044-.616Z" transform="translate(-826.441 -299.143)"/></g><g transform="translate(23.287 9.24)"><path class="a" d="M835.036,302.93a6.88,6.88,0,0,1,6.469-.22.305.305,0,0,0,.44-.132,7.366,7.366,0,0,1,2.244-2.552,3.051,3.051,0,0,0-.572-.22,37.233,37.233,0,0,1-.22,7.349c-.572,3.345-2.773,4.577-5.941,4.973-.4.044-.44.7,0,.66,2.6-.352,4.973-.968,6.073-3.565,1.188-2.817.88-6.425.748-9.418a.335.335,0,0,0-.572-.22c-.616.484-1.32,1.76-1.98,2.112-.748.4-1.629-.176-2.464-.264a8.075,8.075,0,0,0-4.621.968c-.308.176,0,.748.4.528Z" transform="translate(-834.515 -299.496)"/></g><g transform="translate(22.681 20.538)"><path class="a" d="M833.913,325.314c-1.188,1.936-.748,4.269-.4,6.425a72.591,72.591,0,0,0,2.465,9.682c.132.4.748.22.616-.176-.7-2.376-1.452-4.8-1.98-7.217-.572-2.509-1.584-6.029-.132-8.362.22-.352-.352-.7-.572-.352Z" transform="translate(-833.137 -325.169)"/></g><g transform="translate(22.637 36.518)"><path class="a" d="M835.882,361.489c-.836.132-3.521,1.012-2.685,2.332a1.871,1.871,0,0,0,1.5.616,7.7,7.7,0,0,0,2.993-.4c.4-.132.22-.748-.176-.616a5.757,5.757,0,0,1-3.213.352c-.176-.088-.528-.4-.44-.616.044-.132.44-.308.616-.4a5.527,5.527,0,0,1,1.628-.572.371.371,0,0,0-.22-.7Z" transform="translate(-833.038 -361.481)"/></g><g transform="translate(27.417 25.987)"><path class="a" d="M843.9,337.88c.308,3.609.7,7.173,1.232,10.782.044.44.7.22.616-.176-.528-3.521-.924-7.041-1.232-10.606.044-.44-.616-.44-.616,0Z" transform="translate(-843.9 -337.55)"/></g><g transform="translate(26.866 36.833)"><path class="a" d="M844.695,362.2c-.968.132-2.685.968-1.8,2.244.968,1.364,3.7.22,4.841-.22.4-.132.22-.792-.176-.616a10.577,10.577,0,0,1-2.288.7,2.861,2.861,0,0,1-1.364,0c-.572-.66-.528-1.1.132-1.276a1.767,1.767,0,0,1,.66-.132c.4-.088.4-.748,0-.7Z" transform="translate(-842.647 -362.195)"/></g><g transform="translate(31.929 18.346)"><path class="a" d="M854.305,320.809c1.76,1.056,2.156,2.861,2.948,4.621a8.43,8.43,0,0,0,2.333,3.081c1.54,1.32,2.949,2.332,3.521,4.445a12.492,12.492,0,0,1-.528,6.6c-.132.4.528.572.616.176,1.056-3.653,1.452-7.657-1.628-10.474-.7-.66-1.54-1.188-2.2-1.848a9.495,9.495,0,0,1-1.937-3.433,6.913,6.913,0,0,0-2.728-3.741c-.44-.22-.748.352-.4.572Z" transform="translate(-854.153 -320.188)"/></g><g transform="translate(32.663 29.988)"><path class="a" d="M860.52,346.667c-1.452-.22-2.64,1.012-3.081,2.376-.616,1.848.968,3.7,2.025,5.017a3.059,3.059,0,0,0,.22-.572,7.078,7.078,0,0,0-3.7,1.408.357.357,0,0,0-.132.44c1.1,1.408,3.609.792,5.149.792,1.628-.044,3.256-.176,3.213-2.244a.33.33,0,0,0-.66,0c.044,2.112-4.137,1.628-5.281,1.628h-.748q-1.254-.2-.528-.528c.22-.572,2.2-.792,2.685-.836a.34.34,0,0,0,.22-.572,9.841,9.841,0,0,1-1.672-2.552c-.44-1.188.088-4.049,2.112-3.741.44.088.616-.528.176-.616Z" transform="translate(-855.819 -346.642)"/></g><g transform="translate(31.464 32.753)"><path class="a" d="M853.1,353.222c.176,1.76.264,3.521.308,5.281a.33.33,0,1,0,.66,0c-.044-1.76-.132-3.521-.308-5.281-.044-.4-.7-.4-.66,0Z" transform="translate(-853.095 -352.925)"/></g><g transform="translate(31.995 36.494)"><path class="a" d="M854.478,362.03a5.652,5.652,0,0,0,4.225.352c.4-.132.22-.748-.176-.616a5.233,5.233,0,0,1-3.741-.308c-.352-.176-.7.4-.308.572Z" transform="translate(-854.302 -361.424)"/></g><g transform="translate(40.992 9.22)"><path class="a" d="M875.21,325.173a5.392,5.392,0,0,0,2.42-3.433c.484-2.376-1.012-4.577.044-6.909.836-1.8,2.244-3.169,2.64-5.149.44-2.244-.44-4.533.088-6.777a4,4,0,0,1,.7-1.672c.4-.88,1.012-.66,1.76.7l-.264.66c-.132,1.1-.968,2.244-1.188,3.389-.176,1.012-.088,2.024-.22,3.037a11.931,11.931,0,0,1-1.54,3.917c-.924,1.892-.748,3.565-.66,5.633a7.3,7.3,0,0,1-3.917,7.217c-.4.22-.044.792.352.572a7.885,7.885,0,0,0,3.917-4.577c.968-3.081-.352-6.029,1.188-9.066a11.371,11.371,0,0,0,1.32-3.521,25.127,25.127,0,0,1,.572-4.4c.352-1.1,2.332-4.093.836-5.149-.968-.66-2.244.484-2.729,1.188-1.32,1.848-.924,4.225-.836,6.381a8.3,8.3,0,0,1-1.32,5.193,13.117,13.117,0,0,0-1.54,2.772c-1.188,3.433,1.892,6.821-1.936,9.462-.352.22-.044.792.308.528Z" transform="translate(-874.747 -299.45)"/></g><g transform="translate(50.371 46.336)"><path class="a" d="M902.062,383.883a4.925,4.925,0,0,0-4.137,1.144c-.88.66-2.024,1.628-1.848,2.861.528,3.213,5.589,1.32,7.173.264.7-.484.044-1.628-.66-1.144a7.524,7.524,0,0,1-2.068,1.012,5.615,5.615,0,0,1-1.452.264c-.66.044-.924.088-1.276-.572s-.176-.66.308-1.144a8.448,8.448,0,0,1,.968-.792,3.538,3.538,0,0,1,2.641-.66c.836.22,1.188-1.056.352-1.232Z" transform="translate(-896.059 -383.79)"/></g><g transform="translate(48.15 36.558)"><path class="a" d="M897.915,371.045a15.181,15.181,0,0,0-1.849-5.633c-.66-1.144-2.112-3.653-3.653-3.829-3.345-.4.264,8.362.836,9.55.4.748,1.5.088,1.144-.66a20.779,20.779,0,0,1-1.54-4.181,8.89,8.89,0,0,1-.44-2.553c0-.22-.044-.4-.044-.616a3.014,3.014,0,0,1,.924.748,12.878,12.878,0,0,1,3.3,7.173c.132.792,1.452.836,1.32,0Z" transform="translate(-891.011 -361.57)"/></g><g transform="translate(43.065 39.19)"><path class="a" d="M887.969,373.778c-.968-1.848-4.973-8.1-7.7-5.677s2.156,7.657,3.873,9.242c.616.572,1.54-.352.924-.924a18.858,18.858,0,0,1-2.509-2.816c-.4-.572-2.332-3.433-1.672-4.049l1.584-.264a10.7,10.7,0,0,1,1.1.88c.4.352.792.792,1.188,1.188a14.518,14.518,0,0,1,2.068,3.081c.4.792,1.54.132,1.144-.66Z" transform="translate(-879.456 -367.551)"/></g><g transform="translate(44.091 47.958)"><path class="a" d="M885.357,387.97a2.2,2.2,0,0,0-3.565,1.892c.176,2.553,3.037,3.081,5.017,2.509a.662.662,0,0,0-.352-1.276c-1.056.308-2.509.4-3.169-.748a1,1,0,0,1,.088-1.32.813.813,0,0,1,1.056-.132c.616.572,1.54-.352.924-.924Z" transform="translate(-881.787 -387.475)"/></g><g transform="translate(43.295 50.31)"><path class="a" d="M881.484,392.854c-1.848.572-1.848,2.772-.792,4.093s3.081,2.2,4.577,1.056c.66-.528-.264-1.452-.924-.924-.7.528-1.848-.176-2.332-.66-.528-.528-1.232-1.936-.132-2.288a.669.669,0,0,0-.4-1.276Z" transform="translate(-879.978 -392.819)"/></g><g transform="translate(54.966 45.196)"><path class="a" d="M907.16,382.52c3.213,0,4.181,6.029,3.565,8.273a.662.662,0,0,0,1.276.352c.88-3.169-.616-9.946-4.841-9.946a.66.66,0,0,0,0,1.32Z" transform="translate(-906.5 -381.2)"/></g><g transform="translate(23.577 91.053)"><path class="a" d="M835.8,486.72h45.549a.661.661,0,0,0,0-1.32H835.8a.661.661,0,0,0,0,1.32Z" transform="translate(-835.175 -485.4)"/></g><g transform="translate(35.24 96.95)"><path class="a" d="M862.3,500.12h41.94a.661.661,0,0,0,0-1.32H862.3a.661.661,0,0,0,0,1.32Z" transform="translate(-861.675 -498.8)"/></g><g transform="translate(74.627 90.833)"><path class="a" d="M951.8,486.22h5.281a.661.661,0,0,0,0-1.32H951.8a.661.661,0,0,0,0,1.32Z" transform="translate(-951.175 -484.9)"/></g><g transform="translate(85.41 87.427)"><path class="a" d="M980.528,485.848a5.75,5.75,0,0,1-3.3-3.829,3.482,3.482,0,0,1,.176-2.816c1.1-1.54,2.42.572,2.772,1.672.176.572,1.144.66,1.276,0a7.023,7.023,0,0,1,.22-.924c.352-1.32,1.188-1.188,2.552.308a4.721,4.721,0,0,1-.66,2.772,7.441,7.441,0,0,1-3.477,3.3c-.748.352-.088,1.5.66,1.144,2.816-1.32,5.9-5.193,4.489-8.494a2.582,2.582,0,0,0-2.641-1.628c-1.54.22-2.2,1.848-2.464,3.169h1.276c-.748-2.421-3.917-5.237-5.369-1.672-1.276,3.125,1.012,6.821,3.829,8.142.748.352,1.408-.792.66-1.144Z" transform="translate(-975.676 -477.161)"/></g></g><g transform="translate(134.545 210.672)"><g transform="translate(46.652 47.646)"><path class="e" d="M528,863.292c-1.012,6.865-2.024,13.775-3.037,20.64-18.615,5.677-27.725,9.374-27.373,11,.44,2.025,14.787,1.056,43.128-2.9.4-9.858.836-19.672,1.232-29.529Z" transform="translate(-497.578 -798.688)"/><path class="d" d="M560.772,719.4c-.924.7-1.452,1.5-3.433,5.325-1.584,3.037-2.332,4.577-2.861,5.721-3.565,8.1-7.041,20.816-7.041,20.816-2.773,10.078-4.181,15.095-5.149,20.42A155.657,155.657,0,0,0,540,790.212a50.618,50.618,0,0,0,30.366,3.829c.88-6.205,2.112-12.938,3.829-20.024,1.5-6.337,3.213-12.19,4.973-17.559,1.892,1.188,4.665,3.037,8.009,5.325,10.958,7.613,14.391,11.31,20.816,15.447a75.549,75.549,0,0,0,19.1,8.8,21.356,21.356,0,0,0,12.014-5.721c6.953-6.821,6.249-16.063,6.117-17.383a151.163,151.163,0,0,0-12.234-11.662,159.644,159.644,0,0,0-22.884-16.019c-4.577-2.729-9.682-5.237-19.848-10.3,0,0-11.926-5.9-22.884-6.865C565.437,717.906,562.84,717.818,560.772,719.4Z" transform="translate(-521.331 -717.774)"/><g transform="translate(17.832)"><path class="e" d="M539.463,789.365a207.3,207.3,0,0,1,6.293-34.062q2.244-8.186,5.149-16.239c1.936-5.325,3.873-10.914,6.6-15.931,1.628-2.993,3.829-4,7.129-4.137a31.859,31.859,0,0,1,8.89.968,92.508,92.508,0,0,1,15.491,5.457,161.683,161.683,0,0,1,27.241,14.831A164.24,164.24,0,0,1,643.19,763c.572.616,1.54-.308.924-.924a166.294,166.294,0,0,0-54.438-37.759,100.747,100.747,0,0,0-15.447-5.5c-4.4-1.056-11.222-2.508-15.227.352-1.716,1.232-2.685,3.213-3.565,5.1-1.144,2.508-2.2,5.061-3.257,7.613-2.332,5.765-4.4,11.618-6.205,17.6a208.3,208.3,0,0,0-7.878,39.872c-.044.836,1.276.836,1.364,0Z" transform="translate(-538.098 -717.5)"/></g><g transform="translate(18.604 71.253)"><path class="e" d="M540.181,880.636a40.761,40.761,0,0,0,29.837,4.049.662.662,0,0,0-.352-1.276,39.2,39.2,0,0,1-28.826-3.917.661.661,0,0,0-.66,1.144Z" transform="translate(-539.852 -879.408)"/></g><g transform="translate(48.767 37.841)"><path class="e" d="M609.715,841.207a193.211,193.211,0,0,1,8.318-36.923c.264-.792-1.012-1.144-1.276-.352a196.819,196.819,0,0,0-8.362,37.275c-.088.836,1.232.836,1.32,0Z" transform="translate(-608.39 -803.485)"/></g><g transform="translate(53.987 36.137)"><path class="e" d="M620.581,800.84c17.647,8.978,30.806,26.229,50.654,30.85.836.176,1.188-1.1.352-1.276-19.716-4.621-32.83-21.784-50.345-30.718-.748-.4-1.408.748-.66,1.144Z" transform="translate(-620.252 -799.613)"/></g><path class="f" d="M575.2,823.642q6.733-21.388,14.831-43.568c1.276-3.521,2.6-7,3.917-10.474,9.2,4.841,18.439,9.682,27.637,14.523q19.276,10.166,38.551,20.464c-.352,1.628-1.628,6.073-5.633,8.45-2.992,1.76-6.293,1.628-9.814.924-10.914-2.2-17.779-8.8-31.51-19.056-3.125-2.333-7.921-5.853-14.039-9.99-1.188,3.345-2.332,6.821-3.433,10.474a192.787,192.787,0,0,0-6.073,27.637,34.672,34.672,0,0,1-9.814,1.1A42.738,42.738,0,0,1,575.2,823.642Z" transform="translate(-541.04 -746.672)"/><path class="f" d="M603.147,803.278c-1.1-.44-5.545,7.834-6.865,10.3A174.422,174.422,0,0,0,584.4,841.522a12.566,12.566,0,0,0,3.124.924,13.555,13.555,0,0,0,7.349-.792c2.333-12.234,4.709-21.96,6.557-28.869C602.575,808.471,603.94,803.631,603.147,803.278Z" transform="translate(-546.191 -765.519)"/></g><g transform="translate(0 38.7)"><path class="e" d="M426.306,876.4c-2.993,7.834-6.029,15.711-9.022,23.544-17.559,5.853-26.1,9.726-25.7,11.618q.726,3.3,37.759-1.364c2.948-9.55,5.9-19.056,8.89-28.605C434.227,879.877,430.267,878.16,426.306,876.4Z" transform="translate(-391.57 -797.525)"/><path class="d" d="M485.3,699.732a23.622,23.622,0,0,0-6.293,6.689c-4.225,6.381-6.381,9.594-7.833,12.41a164.027,164.027,0,0,0-8.009,17.955,215.96,215.96,0,0,0-8.23,28.077c-1.408,6.029-2.42,11.046-3.037,14.523a36.251,36.251,0,0,0,7.613,6.865,37.754,37.754,0,0,0,17.955,6.117c3.213-9.286,6.249-17.119,8.8-23.28,2.685-6.6,4.665-11,8.23-16.019a64.821,64.821,0,0,1,6.865-8.23,125.741,125.741,0,0,0,8.582,10.694,110.9,110.9,0,0,0,26.713,22.532c11.046,6.557,19.716,8.89,28.429,11.266,9.066,2.464,11.838,2.2,13.951.968,8.67-5.1,4.269-25.481,4-26.713a224.8,224.8,0,0,1-19.1-16.415c-3.873-3.741-8.229-8.274-15.843-15.095-2.024-1.8-4.137-3.7-7.041-6.117-1.364-1.144-6.425-5.281-15.095-11.266a230.49,230.49,0,0,0-21.74-13.159,49.761,49.761,0,0,0-7.437-2.86c-3.917-1.188-5.545-1.276-7.041-.968A10.412,10.412,0,0,0,485.3,699.732Z" transform="translate(-425.35 -697.387)"/><g transform="translate(25.697 2.256)"><path class="e" d="M482.941,702.518c-19.408,21.564-27.593,50.257-32.962,78.115-.176.836,1.1,1.188,1.276.352,5.325-27.637,13.379-56.155,32.61-77.543.616-.616-.352-1.584-.924-.924Z" transform="translate(-449.962 -702.297)"/></g><g transform="translate(25.996 80.981)"><path class="e" d="M450.8,882.335a41.988,41.988,0,0,0,24.953,13.995c.836.132,1.188-1.144.352-1.276a40.883,40.883,0,0,1-24.381-13.643c-.528-.66-1.452.264-.924.924Z" transform="translate(-450.642 -881.184)"/></g><g transform="translate(51.103 47.053)"><path class="e" d="M508.971,852.548a206.477,206.477,0,0,1,10.122-25.613c3.609-7.526,7.305-16.2,13.775-21.74.66-.572-.308-1.5-.924-.924-6.557,5.633-10.342,14.391-13.951,22A211.506,211.506,0,0,0,507.739,852.2c-.308.792.968,1.144,1.232.352Z" transform="translate(-507.692 -804.091)"/></g><g transform="translate(71.479 41.591)"><path class="e" d="M554.127,792.612c18.087,24.909,42.732,47.265,74.418,51.49.836.132.836-1.188,0-1.32-31.158-4.137-55.45-26.317-73.274-50.83-.528-.66-1.672,0-1.144.66Z" transform="translate(-553.991 -791.679)"/></g><g transform="translate(58.843)"><path class="e" d="M526.212,700.529c7.261-5.325,16.5.572,23.192,4.181a211.682,211.682,0,0,1,20.024,12.234A215.4,215.4,0,0,1,605.207,748.1c.572.616,1.5-.308.924-.924a211.706,211.706,0,0,0-62.448-46.869c-5.633-2.772-12.542-4.973-18.131-.88-.66.44,0,1.584.66,1.1Z" transform="translate(-525.279 -697.172)"/></g><path class="g" d="M474.6,819.3c2.9-5.985,8.01-16.547,14.3-29.882,12.1-25.481,14.127-30.41,19.672-32.3,9.594-3.213,18.7,6.425,39.783,21.476a392.6,392.6,0,0,0,48.761,29.75c.4,2.288,1.232,8.538-2.42,12.5-1.628,1.716-5.325,4.357-16.767,2.421-4.4-.748-25-4.665-49.993-29.574A154.014,154.014,0,0,1,513.9,777.666a85.706,85.706,0,0,0-5.325,7c-3.7,5.457-6.161,10.43-11.882,24.2-1.848,4.4-4.137,10.034-6.689,16.591a19.157,19.157,0,0,1-8.362-1.364A18.533,18.533,0,0,1,474.6,819.3Z" transform="translate(-438.06 -730.388)"/><path class="f" d="M556,791.2c1.716.88,4.225,2.2,7.173,3.961,18.615,11.09,19.055,17.823,32.918,26.053,10.782,6.381,14.831,4.885,25.921,13.246A80.549,80.549,0,0,1,631.606,843a78.347,78.347,0,0,1-16.9-3.345,83.541,83.541,0,0,1-19.364-9.154,118.089,118.089,0,0,1-21.784-17.383A123.66,123.66,0,0,1,556,791.2Z" transform="translate(-483.637 -749.82)"/><path class="f" d="M516.714,804.777c-.616-.792-5.237,1.188-9.286,4.269-7.305,5.5-9.374,11.882-16.151,24.381-1.98,3.653-4.973,8.978-8.978,15.227,3.917,1.584,7.833,3.169,11.75,4.709.88-2.376,7.613-20.376,12.63-31.246a79.865,79.865,0,0,1,4.093-8.054C514.294,808.254,517.286,805.525,516.714,804.777Z" transform="translate(-442.371 -757.324)"/></g><g transform="translate(239.975 9.42)"><path class="d" d="M954.582,632.614c1.144.616,1.1,1.276,2.553,2.508,1.188,1.012,1.628.88,2.112,1.716a5.474,5.474,0,0,1,.616,2.684,4.014,4.014,0,0,1,2.288.792,6.426,6.426,0,0,1,2.553,4.225,7.879,7.879,0,0,1-.308,4.049,4.617,4.617,0,0,1,1.5,2.509,7.817,7.817,0,0,1-.748,4.621c-1.8,4.445-3.432,6.293-5.281,10.034a43.106,43.106,0,0,0-2.112,5.017,58.485,58.485,0,0,0,.308,7.7,61.33,61.33,0,0,0,1.8,9.638,149.272,149.272,0,0,1,4.533,31.378c.132,6.293.264,16.371-4.093,26.669-1.628,3.873-4.049,9.33-8.934,11.574-.792.352-6.469,2.949-10.43-1.144a10.892,10.892,0,0,1-2.552-4.621,17.472,17.472,0,0,1-.132-2.9,20.9,20.9,0,0,1,3.476-10.606c2.992-5.061,3.917-10.694,5.457-20.244.968-5.9.748-11,.308-21.036-.308-6.865-.968-16.151-2.42-27.2a4.231,4.231,0,0,1-2.421-1.716c-1.056-1.628-.44-3.125-1.232-5.985-.616-2.156-1.1-1.76-2.112-4.621-.748-2.068-1.452-3.961-1.056-6.161.088-.44.484-3.037,1.98-3.653,1.892-.836,4,2.156,4.533,2.9a11.815,11.815,0,0,1,1.8,4.049,45.355,45.355,0,0,0,3.169-6.381c.484-1.144.88-2.244,1.232-3.3-.176-.968-.4-2.376-.572-4.093a17.127,17.127,0,0,1-.044-4.973c.176-1.012.616-3.257,1.98-3.873A2.873,2.873,0,0,1,954.582,632.614Z" transform="translate(-937.58 -631.443)"/><g transform="translate(20.072 16.273)"><path class="e" d="M983.718,689.173c2.156-3.873,4.709-7.746,6.469-11.838,1.276-2.993,1.8-6.6-.176-9.418-.484-.7-1.628-.044-1.144.66,2.288,3.213.748,7.217-.924,10.342-1.76,3.213-3.565,6.381-5.369,9.594a.661.661,0,0,0,1.144.66Z" transform="translate(-982.475 -667.616)"/></g><g transform="translate(21.937 7.623)"><path class="e" d="M989.216,664.218c3.213-4.269,5.809-14.567-1.672-16.239-.836-.176-1.188,1.1-.352,1.276,6.513,1.452,3.565,10.694.88,14.3-.484.66.66,1.32,1.144.66Z" transform="translate(-986.714 -647.962)"/></g><g transform="translate(19.702 4.582)"><path class="e" d="M982.9,656.432a15.1,15.1,0,0,0,.924-15.051c-.4-.748-1.5-.088-1.144.66a13.808,13.808,0,0,1-.924,13.731c-.484.66.66,1.32,1.144.66Z" transform="translate(-981.634 -641.052)"/></g><g transform="translate(8.329)"><path class="e" d="M965.829,647.213a23.553,23.553,0,0,0,.748-12.1c-.484-2.156-2.64-5.941-5.325-3.873-2.508,1.936-1.364,7.261-1.1,9.858a9.664,9.664,0,0,1-1.408,6.689,31.152,31.152,0,0,0-2.9,6.117c-.308.792.968,1.144,1.276.352,1.012-2.861,2.816-5.193,4-7.921,1.1-2.553.352-5.325.176-8.009-.088-1.232-.44-3.213.044-4.4.044-.924.616-1.1,1.716-.616,1.232-.484,1.936-.132,2.068,1.1a11.163,11.163,0,0,1,.528,2.684,23.512,23.512,0,0,1-1.012,9.726.628.628,0,1,0,1.188.4Z" transform="translate(-955.792 -630.64)"/></g><g transform="translate(17.273 2.78)"><path class="e" d="M981.214,639.749c-.528-2.024-2.817-3.653-4.8-2.288-.7.484-.044,1.628.66,1.144,1.232-.836,2.508.264,2.86,1.5a.662.662,0,0,0,1.276-.352Z" transform="translate(-976.116 -636.957)"/></g><g transform="translate(0 15.714)"><path class="e" d="M946.035,672.839c-.7-2.6-2.421-5.9-5.325-6.425-2.773-.528-3.741,2.156-3.829,4.4-.22,4.225,2.024,7.129,3.124,11,.88,3.125.616,6.249,3.785,8.1a.661.661,0,0,0,.66-1.144c-2.376-1.364-2.464-3.741-2.949-6.161a24.164,24.164,0,0,0-2.068-5.369c-.924-2.068-1.936-5.281-1.144-7.525.044-.22.088-.4.132-.616,1.012-.308,2.024-.66,2.993-.968.572.176,1.276,1.1,1.672,1.54a8.611,8.611,0,0,1,1.628,3.521.684.684,0,0,0,1.32-.352Z" transform="translate(-936.866 -666.347)"/></g><g transform="translate(0.444 37.995)"><path class="e" d="M944.091,717.6c1.848,15.271,3.829,31.114,2.464,46.473a65.582,65.582,0,0,1-5.369,20.64c-2.376,5.457-4.093,10.606-2.949,16.591.176.836,1.452.484,1.276-.352-1.276-6.689,1.452-12.19,3.961-18.175a61.974,61.974,0,0,0,4.489-19.5c1.188-15.139-.7-30.674-2.509-45.681-.176-.836-1.5-.836-1.364,0Z" transform="translate(-937.874 -716.975)"/></g><g transform="translate(0.813 36.23)"><path class="e" d="M957.9,713.421c-1.056,3.037-.528,6.425-.176,9.55.4,3.3.924,6.6,1.54,9.858,1.364,7.173,3.081,14.259,4,21.52a89.911,89.911,0,0,1,.176,21.476c-.792,7.085-2.156,14.831-6.117,20.9-1.892,2.9-4.709,5.721-8.274,6.381-3.829.748-7.305-1.54-9.11-4.841-.4-.748-1.54-.088-1.144.66,2.552,4.621,7.789,6.909,12.762,4.709,5.9-2.6,9.022-9.2,10.738-15.051,4.533-15.4,3.257-31.466.132-47-.88-4.4-1.848-8.8-2.552-13.247-.4-2.376-.7-4.753-.968-7.129-.22-2.508-.572-5.149.264-7.569.308-.66-.968-1.012-1.276-.22Z" transform="translate(-938.713 -712.966)"/></g><path class="h" d="M971.943,651.7a35.424,35.424,0,0,1-.4,8.1,31.176,31.176,0,0,1-7.525,15.887c-.044,2.509-.132,6.381,0,11.046.528,20.948,3.785,31.2,4.313,41.016.528,9.55-1.232,23.5-12.234,41.544a10.658,10.658,0,0,0,6.117-1.144c2.157-1.144,5.5-3.785,8.538-12.63a79,79,0,0,0,2.421-39.916c-1.5-7.393-3.785-13.2-4.973-25.613-.308-3.3-.44-6.073-.528-7.966a54.648,54.648,0,0,1,3.433-6.821c2.6-4.357,4.269-5.809,4.709-8.934a13.039,13.039,0,0,0-1.012-6.645,9.283,9.283,0,0,0-.616-5.193A5.985,5.985,0,0,0,971.943,651.7Z" transform="translate(-947.635 -642.432)"/><path class="i" d="M980.681,728c-.22.044.484,7.7,1.892,23.016,1.276,13.511,1.892,20.244,1.892,20.772.44,20.068-5.721,34.239-4.709,34.723.7.352,4.225-6.777,6.249-15.4,2.772-11.926,1.672-22.268,1.012-28.209-.616-5.237-.836-3.785-3.961-21.564C981.517,732.4,980.9,727.956,980.681,728Z" transform="translate(-960.818 -685.153)"/></g><g transform="translate(143.786 81.488)"><path class="b" d="M734.1,794.4a60.258,60.258,0,0,0-8.142,12.366c-4.181,8.494-5.369,15.975-6.469,23.281a104.7,104.7,0,0,0-1.188,16.547,236.68,236.68,0,0,0,36,6.689c13.026,1.408,9.2-.308,42.072.836,16.415.572,24.865,1.144,27.2-3.345,1.936-3.785-2.816-7.569-3.081-16.283a29.435,29.435,0,0,1,4.753-16.283,367.6,367.6,0,0,0-44.888-14.831A363.787,363.787,0,0,0,734.1,794.4Z" transform="translate(-718.295 -794.4)"/><path class="f" d="M727.417,819.1c3.213,6.425,9.99,17.427,22.62,23.589,4.929,2.42,10.518,3.961,26.977,4.8a330.134,330.134,0,0,0,43.348-.66,18.027,18.027,0,0,0,1.276,8.362c1.144,2.685,2.729,4.225,2.553,7.041a6.213,6.213,0,0,1-1.276,3.7c-1.584,1.848-4.181,2.024-5.457,2.068-12.674.616-17.031.176-17.031.176a199.862,199.862,0,0,0-27.945-.66c-3.388.088-5.193.22-8.846.176a135.145,135.145,0,0,1-15.711-1.276,224.42,224.42,0,0,1-29.046-6.117,115.287,115.287,0,0,1,1.276-19.1,65.032,65.032,0,0,1,2.9-12.5A56.484,56.484,0,0,1,727.417,819.1Z" transform="translate(-718.613 -808.23)"/><path class="h" d="M722.429,845.3a44.1,44.1,0,0,0,9.638,12.983c8.362,7.657,17.383,9.682,28.077,12.19,22.664,5.369,45.769,11.486,45.592,12.5-.088.616-8.714-.792-23.588-.968-3.609-.044-5.941-.088-9.33,0-6.6.132-8.406.484-12.366.308a64.726,64.726,0,0,1-10.738-1.452c-13.422-2.684-26.8-5.633-31.114-6.6.044-2.817.22-5.765.484-8.846A137.769,137.769,0,0,1,722.429,845.3Z" transform="translate(-718.466 -822.9)"/></g><g transform="translate(240.965 83.122)"><path class="j" d="M974.4,856.219c-9.33,1.32-14.655,1.584-23.368,4.049a91.155,91.155,0,0,0-9.462,3.213,41.085,41.085,0,0,1-2.288-17.6,38.362,38.362,0,0,1,2.641-11.046,48.677,48.677,0,0,0,9.022,1.408,49.221,49.221,0,0,0,11.09-.572c1.1-3.961,2.156-7.878,3.257-11.838,1.98-.528,4-1.1,5.985-1.628.176-1.1.4-2.2.572-3.3,2.465,1.144,6.381,2.992,11.266,5.061,9.2,3.961,10.518,4.093,12.5,5.853,5.325,4.8,7.878,14.347,3.961,19.848C997.2,852.962,989.586,854.063,974.4,856.219Z" transform="translate(-939.114 -809.752)"/><g transform="translate(31.609 8.582)"><path class="e" d="M1011.318,818.092a32.879,32.879,0,0,0-.352,6.249c.044.836,1.364.836,1.32,0a33.115,33.115,0,0,1,.308-5.9c.088-.836-1.188-1.188-1.276-.352Z" transform="translate(-1010.939 -817.614)"/></g><g transform="translate(43.917 19.452)"><path class="e" d="M1041.325,843.144a3.408,3.408,0,0,1-2.068,3.741c-.792.352-.088,1.5.66,1.144a4.706,4.706,0,0,0,2.684-5.237c-.176-.836-1.452-.484-1.276.352Z" transform="translate(-1038.908 -842.314)"/></g><g transform="translate(40.146 18.521)"><path class="e" d="M1031.553,841.519a2.42,2.42,0,0,1,1.408.528l.264.264c.264-.22.308-.352.088-.308a3.079,3.079,0,0,0-.616-.132,4.129,4.129,0,0,1-.66-.264,1.539,1.539,0,0,1-.352-.22c-.352.22-.4.4-.088.484a4.364,4.364,0,0,0,.748.484c.264.176.484.308.748.484.7.44,1.232-.484.792-1.056a2.211,2.211,0,0,0-.968-.7c-.792-.308-1.144.968-.352,1.276a1.518,1.518,0,0,1,.4.352l.792-1.056a20.425,20.425,0,0,0-1.8-1.144,1.045,1.045,0,0,0-1.408.308c-.792,1.188.924,2.025,1.8,2.288a2.634,2.634,0,0,0,1.54.088,1,1,0,0,0,.616-1.276c-.352-1.144-1.892-1.628-2.948-1.716-.88-.044-.836,1.276,0,1.32Z" transform="translate(-1030.338 -840.197)"/></g><path class="c" d="M1051.482,839.6a23.464,23.464,0,0,1,8.053,4.049,17.169,17.169,0,0,1,4.709,5.237c2.6,4.929,1.408,11.838-3.125,16.415-4.445,4.445-11.574,6.029-18.219,4.049Q1047.191,854.5,1051.482,839.6Z" transform="translate(-997.226 -821.342)"/><g transform="translate(43.926)"><path class="e" d="M1051.413,799.515,1039,845.46c-.66,2.464,3.169,3.521,3.829,1.056l12.41-45.945c.66-2.464-3.168-3.521-3.828-1.056Z" transform="translate(-1038.927 -798.113)"/></g><path class="k" d="M989.654,844.129c-.7-2.9-2.552-4.753-4.709-6.909-4.577-4.577-6.6-3.653-9.462-6.821-4.489-5.061-.924-9.11-5.369-13.687-3.785-3.873-9.506-4.181-10.826-4.225-1.276-.044-6.425-.088-10.386,3.3-3.433,2.949-4.709,7.394-4.093,7.746.22.132.88-.176,2.993-2.421a8.284,8.284,0,0,0-1.936,3.125c-.528,1.672-.44,3.3-.176,3.345.22.044.308-.88,1.232-1.5a2.98,2.98,0,0,1,1.584-.484c-1.144,1.232-2.2,2.861-1.848,4.533.88,4.665,11.354,6.821,14.831,7.525,11.266,2.333,17.867.088,21.388,4.313.308.352,1.716,2.068,1.188,3.653-.7,2.024-4.357,3.169-6.557,2.2-1.892-.836-2.156-2.993-2.552-2.9-.484.132-.22,3.741,1.892,7.041a7.193,7.193,0,0,0,2.684,2.817,7.523,7.523,0,0,0,6.821-.528C990.006,852.183,990.446,847.3,989.654,844.129Z" transform="translate(-942.22 -806.156)"/><path class="l" d="M971.808,883.845c0-.66.088-1.628.352-1.628.132,0,.264.264.264.22a3.214,3.214,0,0,1-.968-1.936,1.809,1.809,0,0,1,.4-1.1,104.573,104.573,0,0,1-14.963,3.212,106.46,106.46,0,0,1-16.723,1.012,22.827,22.827,0,0,0,.264,7.394A23.5,23.5,0,0,0,942.5,897a68.218,68.218,0,0,1,15.667-4.8c1.672-.264,5.633-.88,7.57-1.144,3.521-.528,6.425-.924,8.405-1.188a15.808,15.808,0,0,1-.924-1.408A9.376,9.376,0,0,1,971.808,883.845Z" transform="translate(-939.601 -843.627)"/><path class="m" d="M1067.6,874.3a9.908,9.908,0,0,1-9.418,6.469,10.915,10.915,0,0,1-8.1-4.225c-1.144,4.225-2.245,8.494-3.389,12.719a18.477,18.477,0,0,0,4.269.4,18.708,18.708,0,0,0,10.122-3.212,15.077,15.077,0,0,0,6.293-9.154A16.342,16.342,0,0,0,1067.6,874.3Z" transform="translate(-999.353 -840.771)"/></g><g transform="translate(230.084)"><path class="d" d="M915.9,636.737c1.936,2.685,4.137,5.5,6.689,8.406a106.7,106.7,0,0,0,9.99,9.99q6.8-6.6,14.391-13.378,7.2-6.469,14.215-12.19A46.47,46.47,0,0,0,945.21,611.3a189.375,189.375,0,0,0-23.016,19.011C919.993,632.512,917.924,634.624,915.9,636.737Z" transform="translate(-915.236 -610.391)"/><g transform="translate(8.47 0.264)"><path class="e" d="M934.766,628.3a171,171,0,0,1,20.2-17.207c.66-.484.044-1.628-.66-1.144a171.9,171.9,0,0,0-20.464,17.427.653.653,0,1,0,.924.924Z" transform="translate(-933.638 -609.834)"/></g><g transform="translate(29.216)"><path class="e" d="M981.052,610.5a63.2,63.2,0,0,1,15.8,17.515c.44.7,1.584.044,1.144-.66a65.531,65.531,0,0,0-16.283-18c-.66-.484-1.32.66-.66,1.144Z" transform="translate(-980.778 -609.234)"/></g><g transform="translate(0 17.012)"><path class="e" d="M923.769,648.071a116.221,116.221,0,0,0-9.2,8.846c-.572.616.352,1.54.924.924a109.15,109.15,0,0,1,9.2-8.846c.66-.572-.264-1.5-.924-.924Z" transform="translate(-914.391 -647.891)"/></g><g transform="translate(0.181 26.1)"><path class="e" d="M914.977,669.712a189.345,189.345,0,0,0,16.151,17.471c.616.572,1.54-.352.924-.924A195.709,195.709,0,0,1,915.9,668.788c-.528-.7-1.5.264-.924.924Z" transform="translate(-914.802 -668.542)"/></g><g transform="translate(16.832 18.249)"><path class="e" d="M953.766,677.458q13.929-13.269,28.605-25.657c.66-.528-.308-1.5-.924-.924q-14.655,12.41-28.605,25.657c-.616.572.308,1.5.924.924Z" transform="translate(-952.638 -650.702)"/></g><g transform="translate(5.677 25.66)"><path class="e" d="M927.427,668.712c2.992,3.873,6.117,7.658,9.33,11.31.572.66,1.5-.308.924-.924-3.213-3.7-6.337-7.481-9.33-11.31-.484-.7-1.408.264-.924.924Z" transform="translate(-927.29 -667.542)"/></g><g transform="translate(5.659 6.142)"><path class="e" d="M928.372,643.879c6.689-7.349,14.567-13.379,22.4-19.408.66-.528,0-1.672-.66-1.144-7.965,6.073-15.931,12.19-22.664,19.584-.616.66.352,1.584.924.968Z" transform="translate(-927.25 -623.191)"/></g><g transform="translate(29.012 6.161)"><path class="e" d="M980.617,624.5a78.72,78.72,0,0,1,11.134,10.166c.572.616,1.5-.308.924-.924a82.293,82.293,0,0,0-11.4-10.386c-.7-.484-1.364.66-.66,1.144Z" transform="translate(-980.316 -623.234)"/></g><g transform="translate(15.308 17.077)"><path class="e" d="M949.8,669.453c2.244-.088,3.961-1.188,5.721-2.508,2.288-1.76,4.533-3.565,6.733-5.457,4.665-3.917,9.11-8.053,13.379-12.322.616-.616-.352-1.54-.924-.924-3.7,3.741-7.569,7.305-11.53,10.782-1.936,1.672-3.917,3.3-5.9,4.929-2.156,1.716-4.533,4.137-7.481,4.225-.836-.044-.836,1.276,0,1.276Z" transform="translate(-949.175 -648.038)"/></g><path class="i" d="M942.637,613c-1.056,1.98-2.6,4.841-4.4,8.318-4.489,8.714-6.777,13.114-7.481,15.887-.924,3.609-1.628,9.946,2.112,18.88-5.589-5.941-11.178-11.926-16.767-17.867Z" transform="translate(-915.348 -611.343)"/><g transform="translate(22.532 14.789)"><path class="a" d="M965.771,643.966a79.46,79.46,0,0,1,5.941,6.821c.528.66,1.452-.264.924-.924a79.432,79.432,0,0,0-5.941-6.821c-.572-.616-1.5.308-.924.924Z" transform="translate(-965.591 -642.838)"/></g><g transform="translate(22.279 10.919)"><path class="a" d="M965.977,638.866c1.012-.66,2.069-1.276,3.081-1.936a6.932,6.932,0,0,1,1.716-1.056c.836-.308.308-.484.968-.132.792.4,1.672,2.112,2.244,2.816.836,1.056,1.628,2.068,2.464,3.125.528.66,1.452-.264.924-.924-1.056-1.364-2.156-2.729-3.213-4.093-.528-.7-1.364-2.376-2.288-2.6a2.451,2.451,0,0,0-1.76.66c-1.628.968-3.213,2.024-4.8,2.993-.7.484-.044,1.628.66,1.144Z" transform="translate(-965.016 -634.045)"/></g><g transform="translate(28.428 18.221)"><path class="a" d="M980.005,655.11a15.576,15.576,0,0,0,4.885-3.345c.616-.616-.352-1.54-.924-.924a15.581,15.581,0,0,1-4.621,3.125c-.792.352-.132,1.5.66,1.144Z" transform="translate(-978.987 -650.638)"/></g><g transform="translate(25.351 14.671)"><path class="a" d="M973.1,646.148c.572-.572,1.1-1.144,1.981-1.012a2.677,2.677,0,0,0,1.188.088.67.67,0,0,0,.4-.968c-.4-.66-.748.44-.748.836a1.469,1.469,0,0,0,.4,1.012,2.046,2.046,0,0,0,2.42.176c.792-.308.44-1.584-.352-1.276a3.5,3.5,0,0,1-.968.264,1.128,1.128,0,0,1,0-.924,2.969,2.969,0,0,0-.044-.88,1.177,1.177,0,0,0-.968-.88c-1.408-.176-1.408,1.5-.88,2.376.132-.308.264-.66.4-.968-.352.044-.792-.22-1.144-.22a2.84,2.84,0,0,0-.836.176,4.615,4.615,0,0,0-1.716,1.32c-.66.572.308,1.5.88.88Z" transform="translate(-971.996 -642.571)"/></g><g transform="translate(25.133 14.007)"><path class="a" d="M972.16,642.487a5.844,5.844,0,0,0,1.76-.132c.836-.176.484-1.452-.352-1.276a5.062,5.062,0,0,1-1.408.088.648.648,0,0,0-.66.66.677.677,0,0,0,.66.66Z" transform="translate(-971.5 -641.062)"/></g><g transform="translate(15.557 20.618)"><path class="a" d="M949.9,657.235c2.024,2.332,4.049,4.621,6.117,6.865.572.616,1.5-.308.924-.924-2.068-2.244-4.137-4.533-6.117-6.865-.528-.66-1.452.264-.924.924Z" transform="translate(-949.742 -656.084)"/></g><g transform="translate(15.572 18.842)"><path class="a" d="M950.974,655.152c.44-.792.66-1.452,1.584-1.5.792-.044,1.276.572,1.8,1.056.748.66,1.364,1.452,2.112,2.156a15.263,15.263,0,0,0,1.849,1.5c.572.4,1.1.616.484,1.364-.352.44-1.276.616-1.8.792-.792.264-.44,1.54.352,1.276,1.188-.4,3.081-1.012,3.477-2.421a1.027,1.027,0,0,0-.352-1.232c-.836-.748-1.98-1.232-2.816-2.024-1.408-1.276-2.641-3.169-4.445-3.917-1.716-.66-2.6.924-3.345,2.245-.44.748.7,1.452,1.1.7Z" transform="translate(-949.775 -652.048)"/></g></g><g transform="translate(218.5 15.737)"><path class="d" d="M903.305,646.783c-1.5.616-1.408,1.276-3.3,2.508-1.54,1.012-2.068.88-2.685,1.716a4.327,4.327,0,0,0-.792,2.685,6.1,6.1,0,0,0-2.9.792,6.681,6.681,0,0,0-3.3,4.225,6.473,6.473,0,0,0,.4,4.049,4.941,4.941,0,0,0-1.936,2.508c-.484,1.584.132,3.037.968,4.621,2.289,4.445,4.357,6.293,6.733,10.034a36.976,36.976,0,0,1,2.685,5.017,48.368,48.368,0,0,1-.4,7.7,47.711,47.711,0,0,1-2.332,9.638,119.461,119.461,0,0,0-5.809,31.378c-.176,6.293-.352,16.371,5.193,26.669,2.068,3.873,5.149,9.33,11.4,11.574.968.352,8.229,2.949,13.29-1.144a11.363,11.363,0,0,0,3.3-4.621,13.174,13.174,0,0,0,.176-2.9c-.176-5.325-3.345-9.154-4.445-10.606-3.829-5.061-4.973-10.694-6.953-20.244-1.232-5.9-.968-11-.4-21.036a242.442,242.442,0,0,1,3.081-27.2,5.623,5.623,0,0,0,3.081-1.716c1.32-1.628.528-3.125,1.54-5.985.748-2.156,1.364-1.76,2.684-4.621.968-2.068,1.8-3.961,1.364-6.161-.088-.44-.66-3.037-2.508-3.653-2.376-.836-5.105,2.156-5.765,2.9a11.707,11.707,0,0,0-2.333,4.049,40.037,40.037,0,0,1-4.049-6.381c-.572-1.144-1.1-2.245-1.54-3.3.22-.968.528-2.376.748-4.093a13.461,13.461,0,0,0,.044-4.973c-.264-1.012-.792-3.257-2.509-3.873A3.755,3.755,0,0,0,903.305,646.783Z" transform="translate(-888.373 -645.68)"/><g transform="translate(0 16.108)"><path class="e" d="M898.82,702.546c-2.2-3.081-4.445-6.161-6.6-9.286-2.068-2.993-4.489-7.217-1.5-10.518.572-.616-.352-1.584-.924-.924-2.333,2.552-2.068,6.029-.616,8.978,2.2,4.4,5.677,8.406,8.538,12.411.44.7,1.584.044,1.1-.66Z" transform="translate(-888.068 -681.597)"/></g><g transform="translate(1.43 7.563)"><path class="e" d="M896.5,677.591c-2.112-2.2-3.873-5.193-3.829-8.318a5.958,5.958,0,0,1,5.149-5.809c.836-.132.484-1.408-.352-1.276A7.284,7.284,0,0,0,891.4,668.3c-.528,3.785,1.628,7.613,4.181,10.254.572.616,1.5-.352.924-.968Z" transform="translate(-891.318 -662.178)"/></g><g transform="translate(6.865 4.499)"><path class="e" d="M907.863,669.776a11.326,11.326,0,0,1-1.1-13.6c.44-.7-.7-1.364-1.144-.66a12.647,12.647,0,0,0,1.276,15.183c.616.66,1.54-.264.968-.924Z" transform="translate(-903.668 -655.216)"/></g><g transform="translate(11.746)"><path class="e" d="M917.637,661.148a17.864,17.864,0,0,1-1.056-10.914c.484-2.068,3.125-5.985,5.237-2.817.88,1.32.572,3.3.44,4.8-.22,2.817-1.232,5.9.22,8.538.7,1.232,1.76,2.288,2.552,3.433a28.576,28.576,0,0,1,2.553,4.533c.352.792,1.5.088,1.144-.66a28.685,28.685,0,0,0-3.433-5.677,10.386,10.386,0,0,1-2.156-3.345,11.183,11.183,0,0,1,.132-4c.352-2.684,1.452-7.7-1.452-9.506-2.6-1.628-5.369.792-6.205,3.169-1.5,4.093-.88,8.89.7,12.85.352.748,1.628.4,1.32-.4Z" transform="translate(-914.757 -644.994)"/></g><g transform="translate(8.196 2.74)"><path class="e" d="M908.016,654.336a2.837,2.837,0,0,1,3.917-1.5c.748.4,1.408-.748.66-1.144a4.2,4.2,0,0,0-5.853,2.288c-.308.792.968,1.144,1.276.352Z" transform="translate(-906.692 -651.221)"/></g><g transform="translate(25.051 15.701)"><path class="e" d="M946.316,687.462a8.293,8.293,0,0,1,3.7-4.753,2.961,2.961,0,0,1,3.125-.22c1.584.572,1.8.924,1.937,2.6a9.562,9.562,0,0,1,0,1.584,11.891,11.891,0,0,1-1.54,4.709,24.233,24.233,0,0,0-2.6,5.1c-.792,2.861-.836,5.193-3.917,6.557-.792.352-.088,1.5.66,1.144a6.744,6.744,0,0,0,3.169-2.685c1.012-1.628.924-3.565,1.54-5.325.7-1.936,2.068-3.565,2.949-5.413a11.814,11.814,0,0,0,1.056-5.633c-.176-2.641-1.716-4.841-4.621-4.4-3.3.484-5.721,3.433-6.733,6.425-.308.748.968,1.1,1.276.308Z" transform="translate(-944.992 -680.672)"/></g><g transform="translate(23.008 37.903)"><path class="e" d="M943.98,731.6c-1.232,8.01-2.244,16.063-2.948,24.117a119.561,119.561,0,0,0-.308,21.74,51.122,51.122,0,0,0,5.457,19.012c3.169,6.029,7.085,11.53,5.325,18.7a.662.662,0,0,0,1.276.352c1.5-6.205-.792-11.266-3.741-16.591a54.217,54.217,0,0,1-6.821-19.936,108.31,108.31,0,0,1,0-21.7q1.056-12.674,3.037-25.3c.132-.88-1.144-1.232-1.276-.4Z" transform="translate(-940.349 -731.12)"/></g><g transform="translate(1.735 36.093)"><path class="e" d="M899.971,728.017c.88,1.936.66,4.093.44,6.161-.264,2.332-.616,4.665-1.1,7-.792,4.093-1.892,8.142-2.949,12.19-2.068,7.966-4.049,15.931-4.313,24.161a67.654,67.654,0,0,0,3.477,24.248c2.244,6.425,6.205,12.63,12.586,15.491,6.029,2.685,13.467,1.408,17.339-4.225.484-.7-.66-1.364-1.144-.66-4.269,6.161-12.762,6.029-18.483,2.068-6.161-4.269-8.978-11.618-10.65-18.615a69.431,69.431,0,0,1-1.452-23.721c.88-7.745,3.081-15.227,4.973-22.752a116.067,116.067,0,0,0,2.552-12.234c.484-3.213,1.144-6.733-.264-9.77-.22-.792-1.364-.088-1.012.66Z" transform="translate(-892.011 -727.008)"/></g><path class="h" d="M894.351,665.8a27.992,27.992,0,0,0,.484,8.1,29.679,29.679,0,0,0,9.55,15.887c.088,2.508.132,6.381,0,11.046-.66,20.948-4.8,31.2-5.5,41.016-.66,9.55,1.584,23.5,15.579,41.544a16.806,16.806,0,0,1-7.79-1.144c-2.728-1.144-7-3.785-10.87-12.63a63.055,63.055,0,0,1-3.081-39.916c1.892-7.393,4.841-13.2,6.337-25.613.4-3.3.572-6.073.66-7.966a52.8,52.8,0,0,0-4.4-6.821c-3.3-4.357-5.457-5.809-5.985-8.934a10.364,10.364,0,0,1,1.276-6.645,7.487,7.487,0,0,1,.792-5.193A7.885,7.885,0,0,1,894.351,665.8Z" transform="translate(-888.704 -656.643)"/><path class="i" d="M902.188,742.1c.308.044-.616,7.7-2.42,23.016-1.628,13.511-2.42,20.244-2.42,20.772-.572,20.068,7.261,34.238,5.985,34.722-.924.352-5.369-6.777-7.965-15.4-3.565-11.926-2.156-22.268-1.276-28.209.748-5.237,1.056-3.785,5.017-21.564C901.088,746.5,901.88,742.055,902.188,742.1Z" transform="translate(-890.864 -699.365)"/></g></g><g transform="translate(44.886 326.017)"><path class="d" d="M297.484,941.329a13.99,13.99,0,0,0-2.464-4.137,15.72,15.72,0,0,0-3.653-3.037c-1.716-1.32-2.376-2.949-5.193-15.139-1.32-5.809-1.452-6.469-1.232-7.658.572-3.081,2.2-4.137,3.037-8.1a21.716,21.716,0,0,0,.308-5.809c-.132-3.873-.22-7.833-1.848-12.366-1.452-4.181-3.125-8.8-7.481-10.87-3.037-1.408-6.029-.924-8.714-.44-5.413.968-6.6,2.992-12.234,5.5-2.817,1.232-10.914,4.841-20.508,4.269-4.269-.264-6.645-1.188-9.33.44-2.817,1.76-4,5.1-4.885,7.657a23.357,23.357,0,0,0-1.364,7.658c-.572,1.892-1.452,4.753-2.464,8.274-2.817,10.034-2.817,11.882-4.753,17.3-1.936,5.5-3.169,8.934-6.117,12.85-.968,1.276-1.012,1.144-9.946,9.77-4.577,4.4-7,6.821-8.1,10.87-.44,1.584-1.144,4.093.132,5.809.4.484,1.672,1.936,9.462,1.672,3.609-.132,4.093-.44,7.789-.748a72.847,72.847,0,0,1,14.831.308c2.552.264,4.665.66,6.117.924a35.908,35.908,0,0,1,5.985,1.056c4.445,1.232,5.809,2.6,9.77,4.269a32.064,32.064,0,0,0,13.467,2.9,26.73,26.73,0,0,0,9.638-2.156,24.563,24.563,0,0,0,7.481,0,28.1,28.1,0,0,0,7.173-2.288c2.288-1.012,2.156-1.232,5.061-2.6,5.061-2.464,5.9-2.024,7.349-3.344,1.056-.968,2.024-2.508,2.6-8.89A68.078,68.078,0,0,0,297.484,941.329Zm-72.746,12.146c.352,2.42,1.056,4.357,0,5.413-1.364,1.32-3.7-.572-9.594-.264-.968.044-1.54.132-4.4.352-2.508.176-2.42.132-4,.264a22,22,0,0,1-3.829.264c-1.892-.176-2.861-.22-3.653-.924a4.933,4.933,0,0,1-1.232-4.489c.44-2.728,2.685-3.873,6.689-7.173a66.791,66.791,0,0,0,6.821-6.425c1.628-2.156,3.213-4.4,4.841-6.733.748-1.1,1.452-2.156,2.156-3.257.66-1.8,1.5-4.313,2.332-7.349,2.2-8.01,2.244-12.982,2.993-13.026.88,0,1.628,6.513,1.936,10.078a76.194,76.194,0,0,1,.088,10.914,11.014,11.014,0,0,1,1.232,4.093,11.181,11.181,0,0,1-.484,4.665A25.408,25.408,0,0,0,224.738,953.476Z" transform="translate(-189.02 -872.428)"/><g transform="translate(32.773)"><path class="e" d="M265.473,885.27c-5.853,9.506-2.112,20.684-.44,30.85a44.031,44.031,0,0,1,.616,8.978,22.987,22.987,0,0,0-.088,4.269,36.663,36.663,0,0,0,.968,3.785c.836,3.3-.352,6.645-1.012,9.858a49.148,49.148,0,0,0-1.232,8.362c-.176,4.445.924,9.2,4.137,12.41,3.565,3.565,8.758,2.993,13.026,5.237,4.445,2.376,8.626,4.357,13.731,4.841a29.058,29.058,0,0,0,7.569-.308c2.64-.44,5.1-1.716,7.745-2.156,2.509-.4,4.929.484,7.437-.176,2.816-.7,5.545-2.289,8.186-3.477,2.728-1.232,5.457-2.509,8.23-3.741,1.8-.836,3.433-1.584,3.873-3.7.572-2.641.264-5.765.308-8.449.088-2.817.308-5.633.132-8.45a14.12,14.12,0,0,0-1.1-5.237c-1.144-2.553-3.565-3.345-5.149-5.457-3.125-4.313-4.709-10.342-5.589-15.535-.264-1.628-.44-3.256-.572-4.885a8.593,8.593,0,0,1,1.1-4.181,23.844,23.844,0,0,0,1.716-6.469,41.8,41.8,0,0,0-1.144-15.315c-1.012-4.225-2.376-8.934-5.765-11.926-8.89-7.833-20.552,1.364-28.781,5.237a22.621,22.621,0,0,1-9.55,2.332c-3.213,0-6.381-.616-9.594-.4-4.269.264-8.714,2.2-10.166,6.469-.264.792,1.012,1.144,1.276.352,1.76-5.149,7.877-5.721,12.5-5.457,4.929.308,9.418.616,14.083-1.232,8.009-3.169,16.327-11.178,25.613-8.362,5.1,1.54,7.261,6.513,8.582,11.266a45.7,45.7,0,0,1,1.892,14.611,26.855,26.855,0,0,1-1.364,7.173,21.7,21.7,0,0,1-1.364,3.125,5.563,5.563,0,0,0-.352,3.3,46.841,46.841,0,0,0,3.037,13.863,47.613,47.613,0,0,0,2.6,5.721c1.1,1.936,2.6,2.728,4.137,4.225,3.521,3.345,2.6,9.286,2.464,13.643l-.264,8.318c-.044,1.848-.44,2.9-2.024,3.829a34.171,34.171,0,0,1-4.093,1.848c-2.464,1.144-4.973,2.245-7.437,3.389-2.817,1.276-5.633,2.9-8.846,2.728-2.112-.088-3.829-.352-5.9.22a46.118,46.118,0,0,1-7.613,1.98,27,27,0,0,1-14.875-2.376c-1.936-.924-3.741-2.156-5.721-3.037a35.373,35.373,0,0,0-6.425-1.672c-5.193-1.232-7.965-6.161-8.406-11.178-.528-5.985,1.76-11.574,2.464-17.427.4-2.949-1.144-5.413-1.364-8.318-.176-2.949.308-5.853,0-8.846-1.1-11.046-6.6-23.324-.22-33.754.66-.792-.484-1.452-.968-.7Z" transform="translate(-262.307 -871.335)"/></g><g transform="translate(35.924 12.383)"><path class="e" d="M270.318,900.893c7.7-1.144,13.731,5.017,16.943,11.266,3.081,5.9,4.665,12.454,8.053,18.22,2.861,4.841,7.041,8.89,12.674,10.122a18.076,18.076,0,0,0,14.567-3.036c5.5-4.137,7.877-10.958,9.11-17.471.176-.836-1.1-1.188-1.276-.352-1.144,5.941-3.169,12.323-8.01,16.283A16.732,16.732,0,0,1,304.6,937.9c-11.75-5.853-11.838-21.828-19.32-31.246-3.7-4.665-9.33-7.921-15.4-7.041-.748.132-.4,1.408.44,1.276Z" transform="translate(-269.468 -899.473)"/></g><g transform="translate(80.313 39.946)"><path class="e" d="M373.31,977.945c.044.088.088.132.132.22a4.85,4.85,0,0,0,.088-.792l-.22.22a4.842,4.842,0,0,1,.792-.088c-.748-.4-1.1-2.068-1.364-2.816a24.82,24.82,0,0,1-.88-3.565c-.132-.924-.748-7.833,1.188-7.173.572.22,1.012,2.6,1.188,3.213a25.309,25.309,0,0,1,.616,3.652c.132,1.188.132,2.377.176,3.521,0,.528.044,1.056.044,1.584a4.78,4.78,0,0,1-.044.792.512.512,0,0,1-.352.66c.088-.836-1.232-.836-1.32,0a1.361,1.361,0,0,0,1.54,1.5c1.276-.132,1.452-1.54,1.452-2.553a39.5,39.5,0,0,0-.4-7.217c-.264-1.936-.66-4.709-2.068-6.205-2.6-2.817-3.477,2.684-3.521,4.181a21.136,21.136,0,0,0,.792,6.865c.4,1.32.968,4,2.332,4.709a.663.663,0,0,0,.792-.088l.22-.22a.611.611,0,0,0,.088-.792c-.044-.088-.088-.132-.132-.22a.65.65,0,1,0-1.144.616Z" transform="translate(-370.331 -962.104)"/></g><g transform="translate(72.728 79.013)"><path class="e" d="M353.1,1051.5a186.71,186.71,0,0,0,1.848,21.036c.132.836,1.408.484,1.276-.352a191.956,191.956,0,0,1-1.8-20.684c-.044-.836-1.364-.836-1.32,0Z" transform="translate(-353.098 -1050.875)"/></g><g transform="translate(72.366 66.472)"><path class="e" d="M353.563,1035.854c3.125-4.4,8.714-6.249,13.555-7.922a109.418,109.418,0,0,1,16.283-4.269c.836-.132.484-1.408-.352-1.276a108.952,108.952,0,0,0-18.616,5.1c-4.533,1.717-9.154,3.653-12.058,7.7-.44.7.7,1.365,1.188.66Z" transform="translate(-352.275 -1022.378)"/></g><g transform="translate(73.544 73.937)"><path class="e" d="M355.281,1045.617c5.193,2.772,10.254,4.885,16.239,3.3a41.9,41.9,0,0,0,15.535-8.494c.66-.528-.264-1.452-.924-.924a41.644,41.644,0,0,1-14.215,7.965c-5.9,1.8-10.782-.132-15.975-2.948-.748-.44-1.408.7-.66,1.1Z" transform="translate(-354.952 -1039.341)"/></g><g transform="translate(94.365 78.325)"><path class="e" d="M402.279,1050.144c.352,1.717.7,3.477,1.056,5.193.176.836,1.452.484,1.276-.352-.352-1.716-.7-3.477-1.056-5.193-.176-.836-1.452-.484-1.276.352Z" transform="translate(-402.262 -1049.314)"/></g><g transform="translate(97.326 77.28)"><path class="e" d="M408.995,1047.581c.176,1.628.308,3.257.484,4.885.088.836,1.408.836,1.32,0-.176-1.628-.308-3.256-.484-4.885-.088-.836-1.408-.88-1.32,0Z" transform="translate(-408.99 -1046.937)"/></g><g transform="translate(36.774 67.93)"><path class="e" d="M271.708,1026.135c-.836,2.42,0,4.621,2.861,4.137a18.13,18.13,0,0,0,2.024-.66A3.856,3.856,0,0,1,278,1029.3c2.244.308.968,1.056,1.54,1.848a2.4,2.4,0,0,0,2.244,1.321c1.584-.044,4.709-1.541,5.765.4.4.792,0,2.9,0,3.873,0,1.144.044,2.288.044,3.433.088,5.017.22,10.033.4,15.007.044.836,1.364.836,1.32,0-.308-7.7-.44-15.447-.484-23.192a.687.687,0,0,0-.308-.572,7.924,7.924,0,0,0-4.489-.748c-1.1.132-1.584.572-2.64-.044-1.012-.572-.66-.924-1.276-1.716a2.7,2.7,0,0,0-2.64-.88,9.879,9.879,0,0,0-1.936.616,3.706,3.706,0,0,1-1.188.352c-.968-.044-1.672-1.541-1.32-2.465a.691.691,0,0,0-1.32-.4Z" transform="translate(-271.4 -1025.691)"/></g><g transform="translate(32.858 10.822)"><path class="e" d="M263.82,909.864c.044-5.061,1.672-14.215,8.89-12.454a.662.662,0,0,0,.352-1.276,7.727,7.727,0,0,0-7.921,2.993c-2.376,2.993-2.641,7.041-2.641,10.738a.66.66,0,0,0,1.32,0Z" transform="translate(-262.5 -895.925)"/></g><g transform="translate(32.662 21.64)"><path class="e" d="M262.382,920.856c-.968,2.025.4,4.093,1.628,5.765,1.276,1.76,3.213,3.345,5.5,2.861,1.276-.264,2.156-1.408,3.433-1.628,1.408-.308,2.773.924,4.181.88,2.993-.132,4.8-2.993,6.953-4.577.66-.484.044-1.628-.66-1.144-1.716,1.232-3.037,3.169-5.017,4-2.068.88-3.3-.66-5.281-.528s-3.125,2.157-5.237,1.628c-1.76-.44-5.281-4.489-4.313-6.6.308-.748-.836-1.452-1.188-.66Z" transform="translate(-262.054 -920.508)"/></g><g transform="translate(0 20.716)"><path class="e" d="M221.179,918.888q-3.169,13.863-7.349,27.417c-1.32,4.269-2.552,8.714-4.753,12.674a39.412,39.412,0,0,1-7.261,8.934c-4.841,4.665-10.43,9.066-13.158,15.4-1.1,2.553-1.408,5.193,1.1,7,2.773,2.024,6.865,1.936,10.078,1.628,4.929-.484,9.814-2.024,14.787-1.628,4.753.4,9.286,2.333,14.039.924a.662.662,0,0,0-.352-1.276c-4.269,1.276-8.45-.352-12.718-.88a36.364,36.364,0,0,0-10.474.7c-4.137.7-8.8,1.716-12.894.264-2.552-.88-3.653-2.773-2.729-5.369a19.437,19.437,0,0,1,2.6-4.8c3.741-5.369,9.2-9.242,13.6-14.039,4.929-5.413,7.173-11.882,9.33-18.792q4.225-13.8,7.481-27.857a.68.68,0,0,0-1.32-.308Z" transform="translate(-187.837 -918.407)"/></g><g transform="translate(7.851 35.169)"><path class="e" d="M231.212,951.887c-.792,8.318-1.672,16.855-5.765,24.337a36.043,36.043,0,0,1-6.865,8.978c-2.508,2.376-5.413,4.269-8.01,6.513-1.936,1.672-4.709,4.181-4.885,6.953-.176,2.508,1.936,4.489,4.181,5.149,3.609,1.1,7.965-.22,11.662-.44a85.3,85.3,0,0,1,12.982.352c.836.088.836-1.232,0-1.32a79.333,79.333,0,0,0-12.1-.4c-1.716.088-3.477.22-5.193.4-2.024.22-4.181.7-6.205.308-2.508-.484-4.665-2.464-3.609-5.193a12.941,12.941,0,0,1,3.345-4.225c2.332-2.2,5.061-3.917,7.437-6.029a38.253,38.253,0,0,0,10.342-14.523c2.685-6.645,3.345-13.863,4.049-20.948.044-.748-1.276-.748-1.364.088Z" transform="translate(-205.677 -951.249)"/></g><g transform="translate(44.736 72.714)"><path class="e" d="M289.495,1037.2a93.274,93.274,0,0,0,1.892,11.574c.176.836,1.452.484,1.276-.352a95.446,95.446,0,0,1-1.848-11.266c-.088-.792-1.408-.792-1.32.044Z" transform="translate(-289.49 -1036.562)"/></g><g transform="translate(55.442 16.484)"><path class="e" d="M314.119,910.071c7.041,5.413,18.4,8.538,26.625,3.961.748-.4.088-1.54-.66-1.144-7.833,4.313-18.659,1.144-25.261-3.961-.748-.528-1.408.616-.7,1.144Z" transform="translate(-313.819 -908.791)"/></g><g transform="translate(32.937 9.355)"><path class="e" d="M264.053,906.634c-.264-3.169.352-6.865,2.552-9.286,2.2-2.376,5.633-2.156,8.626-2.156,5.5.088,11.046.66,16.283-1.276.792-.308.44-1.584-.352-1.276-6.733,2.508-13.643.528-20.552,1.408-6.029.792-8.318,7.129-7.878,12.586.044.836,1.364.88,1.32,0Z" transform="translate(-262.68 -892.592)"/></g><g transform="translate(33.288 9.1)"><path class="e" d="M264.764,907.586a21.042,21.042,0,0,1,3.081-8.494,7.164,7.164,0,0,1,3.345-3.213c1.5-.572,3.257-.352,4.841-.352,5.325.088,10.782.264,15.623-2.288.748-.4.088-1.54-.66-1.144a21.922,21.922,0,0,1-10.166,2.156c-2.993.044-6.205-.484-9.154.088-5.149,1.012-7.525,8.406-8.186,12.85-.132.836,1.144,1.232,1.276.4Z" transform="translate(-263.478 -892.013)"/></g><g transform="translate(32.937 3.01)"><path class="e" d="M263.92,898.694c.308-4,.792-9.154,4.753-11.354,2.156-1.188,4.973-.924,7.349-.968,2.068,0,4.137.044,6.249,0a38.55,38.55,0,0,0,11.838-1.716,57.059,57.059,0,0,0,10.342-5.237.661.661,0,0,0-.66-1.144c-4,2.376-8.1,4.8-12.674,5.853-5.061,1.188-10.3.88-15.447.924-3.785.044-7.437.044-9.99,3.257-2.332,2.948-2.684,6.777-2.993,10.386-.132.836,1.188.836,1.232,0Z" transform="translate(-262.679 -878.175)"/></g><path class="n" d="M294.425,893.1c1.892,1.76-.572,5.105,1.144,8.1,2.244,3.873,8.714,4.357,13.643,4.137-2.6.7-6.557,2.332-8.758,5.985-3.873,6.425-1.188,17.163,8.1,24.732.836,6.6,1.672,13.247,2.552,19.848l-7.393,6.469c.088,7.393.132,14.787.22,22.18a20.685,20.685,0,0,1-9.682,1.144c-4.049-.484-4.973-1.893-12.718-5.061-7.173-2.948-8.229-2.464-10.606-4.621a17.626,17.626,0,0,1-5.325-9.946c-.572-4.049,1.056-4.577,1.848-12.718a58.58,58.58,0,0,0,.22-8.758c-.176-3.917-.66-5.369-1.144-9.682-.616-5.149-.308-6.205-.7-11.09-.968-12.586-3.565-14.875-1.848-21.256.7-2.6,1.54-5.853,4.4-7.614,3.565-2.244,6.161.4,13.643-.22C289.188,894.109,292.489,891.2,294.425,893.1Z" transform="translate(-230.145 -883.166)"/><path class="i" d="M269.756,900.581c-4.885.924-8.274,8.582-5.985,13.158.748,1.5,2.464,3.433,4.621,3.7,1.76.22,2.2-.924,4.841-1.144,2.685-.22,3.169.836,5.325.44,1.584-.264,3.917-1.364,4.621-3.213,1.232-3.3-3.257-7.305-4.841-8.758C275.829,902.518,273.012,899.965,269.756,900.581Z" transform="translate(-229.944 -887.658)"/><path class="o" d="M270.2,967.4c1.056-.176,3.477,14.3,8.538,28.429a130.142,130.142,0,0,0,15.491,30.014,56.659,56.659,0,0,0-9.242-3.7c-2.949-.88-5.1-1.232-8.1-2.773a27.558,27.558,0,0,1-4.841-3.213,13.086,13.086,0,0,1-2.772-5.985c-.176-1.012-.132-1.5.22-5.985.484-6.513.484-6.733.7-7.833.66-3.609,1.232-3.565,1.364-5.985.176-2.288-.308-2.729-.924-7.173-.528-3.873-.616-6.821-.7-8.757C269.844,970.038,269.756,967.442,270.2,967.4Z" transform="translate(-233.378 -925.121)"/></g></g></svg>