<svg xmlns="http://www.w3.org/2000/svg" width="435.768" height="399.396" viewBox="0 0 435.768 399.396"><defs><style>.a{fill:#e8e8e8;}.b,.l{fill:#ec615b;}.c,.n,.o{fill:#5222d0;}.d{fill:#161616;}.e,.j{fill:#fff;}.f,.g,.h,.i,.k{fill:#666;}.f{opacity:0.13;}.g{opacity:0.11;}.h{opacity:0.1;}.i{opacity:0.15;}.j{stroke:#000;stroke-width:2px;}.j,.o{stroke-miterlimit:10;}.k{opacity:0.16;}.l,.m{opacity:0.3;}.n{opacity:0.38;}.o{stroke:#5222d0;}</style></defs><g transform="translate(0 35.434)"><g transform="translate(35.294 332.306)"><path class="a" d="M299.063,1061.626H664.957a.564.564,0,0,0,0-1.126H299.063a.563.563,0,0,0,0,1.126Z" transform="translate(-298.5 -1060.5)"/></g><g transform="translate(117.137 340.378)"><path class="a" d="M517.01,1083.126H652.7a.564.564,0,0,0,0-1.126H517.01a.564.564,0,0,0,0,1.126Z" transform="translate(-516.475 -1082)"/></g><g transform="translate(235.409 348.413)"><path class="a" d="M832.01,1104.527H962.6a.564.564,0,0,0,0-1.126H832.01a.564.564,0,0,0,0,1.126Z" transform="translate(-831.475 -1103.4)"/></g><g transform="translate(41.226 342.068)"><path class="a" d="M314.863,1087.626h42.8a.564.564,0,0,0,0-1.126h-42.8a.563.563,0,1,0,0,1.126Z" transform="translate(-314.3 -1086.5)"/></g><g transform="translate(71.368 297.955)"><path class="a" d="M394.586,969.722a184.276,184.276,0,0,0,7.66,33.041c.225.676,1.314.375,1.089-.3a185.015,185.015,0,0,1-7.66-33.041c-.113-.713-1.2-.413-1.089.3Z" transform="translate(-394.578 -969.014)"/></g><g transform="translate(71.446 297.985)"><path class="a" d="M395.166,970.221a67.277,67.277,0,0,0,41.752,1.5.565.565,0,0,0-.3-1.089,66.212,66.212,0,0,1-41.151-1.5c-.676-.263-.976.826-.3,1.089Z" transform="translate(-394.785 -969.092)"/></g><g transform="translate(108.271 299.743)"><path class="a" d="M497.457,974.31a263.022,263.022,0,0,1-4.581,32.478c-.15.713.939,1.014,1.089.3a253.179,253.179,0,0,0,4.618-32.778c.075-.713-1.051-.713-1.126,0Z" transform="translate(-492.862 -973.775)"/></g><g transform="translate(73.626 242.031)"><path class="a" d="M410.694,879.1a22.781,22.781,0,0,1-7.772-13.554c-.113.225-.263.451-.375.676a3.3,3.3,0,0,1,2.591.375c.488.3,1.014-.3.789-.789-.638-1.2-1.239-2.365-1.877-3.567-.3-.6-.638-1.164-.939-1.765-.488-1.051-.976-3.792,1.051-3.379a.549.549,0,0,0,.676-.676,149.431,149.431,0,0,1-3-19.937,32.081,32.081,0,0,1,.563-9.274,21,21,0,0,1,1.464-4.243c.451-.939.751-2.1,2.253-1.352a6.4,6.4,0,0,1,1.464,1.389c3.942,4.13,5.97,9.687,7.434,15.094,1.727,6.2,3.154,12.5,4.393,18.811a102.987,102.987,0,0,1,2.14,23.279c-.038.714,1.089.714,1.126,0a104.111,104.111,0,0,0-2.065-22.866A200.55,200.55,0,0,0,415.5,835.85c-1.69-5.557-4.168-11.414-8.823-15.169-4.355-3.492-5.932,8.974-6.045,11.377-.338,8.185,1.464,16.671,3.079,24.668l.676-.676a2.517,2.517,0,0,0-3,2.553,7.093,7.093,0,0,0,1.126,3.342c.788,1.5,1.539,2.966,2.328,4.468l.788-.788a4.469,4.469,0,0,0-3.454-.488.554.554,0,0,0-.375.676,23.865,23.865,0,0,0,8.035,14.043c.638.488,1.427-.3.864-.751Z" transform="translate(-400.59 -820.068)"/></g><g transform="translate(92.848 246.612)"><path class="a" d="M452.88,865.1c-.113-4.093,1.8-7.772,3.83-11.227a75.236,75.236,0,0,1,6.8-9.725,8.764,8.764,0,0,1-.939-.263c.188.526.375,1.089.6,1.615a.565.565,0,0,0,1.014.15,132.06,132.06,0,0,1,9.5-12.39c-.338-.15-.638-.263-.976-.413a69.92,69.92,0,0,1-1.352,16.07c-.864,4.13-1.727,10.663-6.12,12.541-.563.263-.188.976.3,1.051,4.243.526-.338,8.786-1.126,10.926-1.765,4.768-3.3,9.65-4.806,14.493-.225.676.864.976,1.089.3,1.8-5.707,3.567-11.489,5.82-17.046a27.29,27.29,0,0,0,1.952-4.731c.451-2.29-.338-4.768-2.891-5.069.113.338.188.713.3,1.051,4.355-1.877,5.407-7.735,6.345-11.827a70.569,70.569,0,0,0,1.69-17.76.587.587,0,0,0-.976-.413,144,144,0,0,0-9.687,12.616,9.44,9.44,0,0,1,1.014.15c-.188-.526-.376-1.089-.6-1.615a.568.568,0,0,0-.939-.263,74.938,74.938,0,0,0-7.284,10.513c-1.99,3.454-3.755,7.134-3.642,11.227a.546.546,0,1,0,1.089.038Z" transform="translate(-451.786 -832.27)"/></g><g transform="translate(71.51 297.695)"><path class="a" d="M395.649,969.59c1.277-.413,2.741.15,4.017.338a41.083,41.083,0,0,0,4.28.338.564.564,0,0,0,0-1.126,31.677,31.677,0,0,1-5.332-.525,6.431,6.431,0,0,0-3.267-.113c-.676.225-.413,1.314.3,1.089Z" transform="translate(-394.957 -968.322)"/></g><g transform="translate(101.818 299.339)"><path class="a" d="M476.21,973.825c3.68.075,7.359.225,11,.451.713.037.713-1.089,0-1.126-3.68-.225-7.322-.375-11-.451-.713-.038-.713,1.089,0,1.126Z" transform="translate(-475.675 -972.698)"/></g><g transform="translate(76.3 298.762)"><path class="a" d="M408.122,972.265c1.539.375,3.079.751,4.581,1.089a.565.565,0,0,0,.3-1.089c-1.539-.375-3.079-.751-4.581-1.089-.713-.15-1.014.939-.3,1.089Z" transform="translate(-407.714 -971.162)"/></g><g transform="translate(101.521 299.738)"><path class="a" d="M475.68,973.776a.936.936,0,0,0-.263,1.765c.826.375,2.516-.075,3.379-.113,1.314-.075,2.628-.188,3.942-.263.713-.037.713-1.164,0-1.126-1.2.075-2.441.15-3.642.263l-1.69.113c-.263.038-.563.038-.826.075-.488-.15-.676,0-.563.413.676-.188.375-1.276-.338-1.126Z" transform="translate(-474.886 -973.762)"/></g><g transform="translate(77.389 324.649)"><path class="a" d="M410.683,1040.969a24.2,24.2,0,0,0,6.233,7.284c.563.45,1.352-.338.788-.788a23.263,23.263,0,0,1-6.045-7.059c-.338-.676-1.314-.075-.976.563Z" transform="translate(-410.613 -1040.108)"/></g><g transform="translate(73.282 308.896)"><path class="a" d="M399.759,999a95.949,95.949,0,0,0,20.125,23.054c.563.451,1.352-.338.788-.788A94.389,94.389,0,0,1,400.7,998.433c-.338-.638-1.314-.075-.939.563Z" transform="translate(-399.675 -998.152)"/></g><g transform="translate(75.385 299.134)"><path class="a" d="M405.36,973c3.6,6.383,7.359,12.766,12.353,18.173,5.257,5.67,11.6,10.476,17.76,15.056.6.451,1.126-.563.563-.976-6.12-4.543-12.353-9.274-17.534-14.869-4.919-5.332-8.6-11.677-12.165-17.947a.564.564,0,0,0-.976.563Z" transform="translate(-405.275 -972.152)"/></g><g transform="translate(86.408 301.698)"><path class="a" d="M434.734,979.814a69.21,69.21,0,0,0,23.279,22.641.564.564,0,0,0,.563-.976,68.252,68.252,0,0,1-22.866-22.265c-.413-.563-1.389,0-.976.6Z" transform="translate(-434.634 -978.981)"/></g><g transform="translate(99.174 302.387)"><path class="a" d="M468.734,981.636a54.728,54.728,0,0,0,11.339,12.2c.563.451,1.352-.338.789-.788a53.631,53.631,0,0,1-11.151-11.977c-.413-.6-1.389-.038-.976.563Z" transform="translate(-468.634 -980.816)"/></g><g transform="translate(107.346 301.472)"><path class="a" d="M490.512,979.175a33.773,33.773,0,0,0,4.843,5.482c.526.488,1.352-.3.789-.789a32.854,32.854,0,0,1-4.693-5.257c-.375-.563-1.389,0-.939.563Z" transform="translate(-490.398 -978.379)"/></g><g transform="translate(321.918 302.935)"><path class="a" d="M1061.887,982.81a211.843,211.843,0,0,0,5.745,29.4.565.565,0,0,0,1.089-.3,212.025,212.025,0,0,1-5.707-29.1c-.113-.714-1.239-.714-1.126,0Z" transform="translate(-1061.879 -982.275)"/></g><g transform="translate(322.173 302.621)"><path class="a" d="M1062.949,982.552a59.231,59.231,0,0,0,30.938.113.565.565,0,0,0-.3-1.089,57.758,57.758,0,0,1-30.338-.112.565.565,0,0,0-.3,1.089Z" transform="translate(-1062.557 -981.441)"/></g><g transform="translate(347.165 302.935)"><path class="a" d="M1134.894,982.81a114.116,114.116,0,0,1-5.745,29.249c-.225.676.864.976,1.089.3a116.748,116.748,0,0,0,5.782-29.549c.038-.714-1.089-.714-1.126,0Z" transform="translate(-1129.119 -982.275)"/></g><g transform="translate(324.964 257.307)"><path class="a" d="M1076.94,907.93a27.344,27.344,0,0,1-4.431-8.561,31.113,31.113,0,0,1-1.014-4.581c-.188-1.427-1.014-4.393,1.126-4.318a.552.552,0,0,0,.526-.714,16.808,16.808,0,0,1-.864-4.506,6.307,6.307,0,0,1-.413.526,2.653,2.653,0,0,0,1.727-2.328,45.517,45.517,0,0,0,.225-6.8c.15-5.106.263-10.213.413-15.357-.3.15-.563.338-.864.488,3.3,2.253,4.844,6.833,6.12,10.476a64.02,64.02,0,0,1,2.779,11.79,129.694,129.694,0,0,1,.638,24.743c-.037.713,1.089.713,1.126,0,.413-8.786.526-17.647-.9-26.32a61.126,61.126,0,0,0-3.379-12.653c-1.314-3.3-2.779-6.909-5.82-8.974a.576.576,0,0,0-.864.488c-.113,3.9-.188,7.81-.3,11.677-.037,1.952-.113,3.9-.15,5.857-.037,1.239.488,5.294-1.089,5.857a.6.6,0,0,0-.413.526,17.532,17.532,0,0,0,.9,4.806,8.621,8.621,0,0,0,.526-.713c-1.127-.038-2.29.225-2.478,1.427a20.164,20.164,0,0,0,.563,6.158,29.6,29.6,0,0,0,5.257,11.6c.488.563,1.464,0,1.051-.6Z" transform="translate(-1069.991 -860.753)"/></g><g transform="translate(337.365 255.414)"><path class="a" d="M1104.1,879.212c.976-3.379,2.1-6.721,3.266-10.025-.263.113-.563.225-.826.338.375.225.751.488,1.164.714a.644.644,0,0,0,.788-.188c2.7-4.506,5.407-8.974,8.11-13.479-.338-.113-.714-.188-1.052-.3a99.246,99.246,0,0,1-7.622,48.773c-.3.676.676,1.239.976.563a100.548,100.548,0,0,0,7.772-49.336.577.577,0,0,0-1.051-.3c-2.7,4.506-5.407,8.974-8.11,13.479a6.007,6.007,0,0,1,.788-.188c-.375-.225-.751-.488-1.164-.713a.571.571,0,0,0-.826.338q-1.8,4.956-3.267,10.025c-.225.676.864.976,1.052.3Z" transform="translate(-1103.019 -855.713)"/></g><g transform="translate(322.555 302.643)"><path class="a" d="M1064.11,982.625c2.14.075,4.243.188,6.383.263.713.038.713-1.089,0-1.126-2.14-.075-4.243-.188-6.383-.263-.713-.037-.713,1.089,0,1.126Z" transform="translate(-1063.575 -981.498)"/></g><g transform="translate(328.004 302.973)"><path class="a" d="M1078.393,983.4a9.428,9.428,0,0,0,2.215.676c.714.112,1.014-.976.3-1.089a8.368,8.368,0,0,1-1.952-.563c-.676-.263-1.239.676-.563.976Z" transform="translate(-1078.087 -982.378)"/></g><g transform="translate(343.108 302.342)"><path class="a" d="M1119.022,982.764c3.116-.451,6.2-.751,9.349-.939.713-.037.713-1.164,0-1.126-3.229.188-6.458.488-9.65.976-.713.113-.413,1.2.3,1.089Z" transform="translate(-1118.314 -980.698)"/></g><g transform="translate(342.732 303.243)"><path class="a" d="M1118.022,984.788c1.652-.263,3.342-.413,5.031-.563.713-.038.713-1.164,0-1.126-1.8.113-3.567.338-5.332.6-.714.113-.413,1.164.3,1.089Z" transform="translate(-1117.314 -983.098)"/></g><g transform="translate(322.94 307.7)"><path class="a" d="M1065.163,996.482c2.478-.075,4.506,1.389,6.909,1.727,2.666.375,4.318-1.84,6.833-1.8s4.693,1.69,7.247,1.69a8.082,8.082,0,0,0,3.266-.676c1.5-.6,2.891-1.8,4.581-1.127.676.263.976-.826.3-1.089-2.328-.9-4.205,1.014-6.383,1.539-3.079.751-5.519-1.089-8.448-1.427-2.741-.3-4.656,2.14-7.322,1.765-2.4-.375-4.468-1.8-6.984-1.69a.545.545,0,1,0,0,1.089Z" transform="translate(-1064.6 -994.967)"/></g><g transform="translate(323.611 314.017)"><path class="a" d="M1066.766,1012.921a39.671,39.671,0,0,0,28.423.3c.676-.263.375-1.352-.3-1.089a38.844,38.844,0,0,1-27.822-.3c-.676-.263-.976.826-.3,1.089Z" transform="translate(-1066.385 -1011.792)"/></g><g transform="translate(1.952 153.47)"><path class="a" d="M209.7,584.763v68.56a.564.564,0,0,0,1.126,0v-68.56a.563.563,0,1,0-1.126,0Z" transform="translate(-209.7 -584.2)"/></g><g transform="translate(2.168 153.32)"><path class="a" d="M210.81,584.926h46.746a.564.564,0,0,0,0-1.126H210.81a.564.564,0,0,0,0,1.126Z" transform="translate(-210.275 -583.8)"/></g><g transform="translate(49.562 153.32)"><path class="a" d="M336.5,584.363v68.072a.564.564,0,0,0,1.126,0V584.363a.563.563,0,1,0-1.126,0Z" transform="translate(-336.5 -583.8)"/></g><g transform="translate(2.506 222.181)"><path class="a" d="M211.71,768.326h46.9a.564.564,0,0,0,0-1.126h-46.9a.564.564,0,0,0,0,1.126Z" transform="translate(-211.175 -767.2)"/></g><g transform="translate(43.684 156.255)"><path class="a" d="M323.08,594.99a1.36,1.36,0,0,1-1.126-1.277,1.032,1.032,0,0,1,1.464-.9,1.5,1.5,0,0,1,.9,1.5c-.038.563-.751,1.051-1.239.676-.563-.488-1.389.3-.826.788a2.006,2.006,0,0,0,2.966-.563,2.569,2.569,0,0,0-1.2-3.342,2.153,2.153,0,0,0-3.079,1.277,2.393,2.393,0,0,0,1.84,2.929c.713.15,1.014-.939.3-1.089Z" transform="translate(-320.844 -591.617)"/></g><g transform="translate(42.827 214.044)"><path class="a" d="M320.154,748.9a1.266,1.266,0,1,1,1.877-1.614c.263.451.638,1.614,0,1.953-.338.188-.788-.113-1.051-.3a6.646,6.646,0,0,0-1.164-.563c-.676-.263-.976.826-.3,1.089a14.125,14.125,0,0,0,2.027.939,1.6,1.6,0,0,0,1.577-.638,3.093,3.093,0,0,0-.563-3.6,2.38,2.38,0,1,0-3.191,3.529c.526.526,1.352-.3.788-.789Z" transform="translate(-318.563 -745.529)"/></g><g transform="translate(5.135 157.337)"><path class="a" d="M218.71,595.7c9.349-.038,18.7-.038,28.01-.075a.564.564,0,0,0,0-1.126c-9.349.038-18.7.038-28.01.075a.564.564,0,0,0,0,1.126Z" transform="translate(-218.175 -594.5)"/></g><g transform="translate(5.135 160.115)"><path class="a" d="M218.71,603.025c3.83.263,7.735.864,11.564.15.713-.15.413-1.2-.3-1.089-3.68.676-7.547.075-11.264-.188-.713-.038-.713,1.089,0,1.126Z" transform="translate(-218.175 -601.898)"/></g><g transform="translate(4.755 216.19)"><path class="a" d="M218.642,753.706a.784.784,0,0,1-.375-.826.68.68,0,0,1,.864-.488,1,1,0,0,1,.9.9c.038.375-.413.976-.826.638-.563-.451-1.352.338-.788.789a1.7,1.7,0,0,0,2.666-.751,2.1,2.1,0,0,0-1.389-2.628,1.908,1.908,0,0,0-2.441,1.126,1.82,1.82,0,0,0,1.126,2.29c.676.263.976-.788.263-1.051Z" transform="translate(-217.165 -751.245)"/></g><g transform="translate(6.374 169.202)"><path class="a" d="M222.01,627.226h30.113a.564.564,0,0,0,0-1.126H222.01a.564.564,0,0,0,0,1.126Z" transform="translate(-221.475 -626.1)"/></g><g transform="translate(8.063 172.919)"><path class="a" d="M226.51,637.126H250.2a.564.564,0,0,0,0-1.126H226.51a.564.564,0,0,0,0,1.126Z" transform="translate(-225.975 -636)"/></g><g transform="translate(7.725 179.377)"><path class="a" d="M225.61,654.326h22.828a.564.564,0,0,0,0-1.126H225.61a.564.564,0,0,0,0,1.126Z" transform="translate(-225.075 -653.2)"/></g><g transform="translate(0 116.928)"><path class="a" d="M205.626,492.479V487.41a.564.564,0,0,0-1.126,0v5.069a.564.564,0,0,0,1.126,0Z" transform="translate(-204.5 -486.875)"/></g><g transform="translate(0.404 116.224)"><path class="a" d="M206.11,486.126H328.776a.564.564,0,0,0,0-1.126H206.11a.564.564,0,0,0,0,1.126Z" transform="translate(-205.575 -485)"/></g><g transform="translate(0.113 122.081)"><path class="a" d="M205.363,501.726H328.592a.564.564,0,0,0,0-1.126H205.363a.563.563,0,1,0,0,1.126Z" transform="translate(-204.8 -500.6)"/></g><g transform="translate(123.491 116.289)"><path class="a" d="M533.4,485.71V491a.564.564,0,0,0,1.126,0V485.71a.564.564,0,0,0-1.126,0Z" transform="translate(-533.4 -485.175)"/></g><g transform="translate(59.962 107.766)"><path class="a" d="M365.326,471.2V463.01a.564.564,0,0,0-1.126,0V471.2a.564.564,0,0,0,1.126,0Z" transform="translate(-364.2 -462.475)"/></g><g transform="translate(64.505 107.025)"><path class="a" d="M376.3,461.063v8.185a.564.564,0,0,0,1.126,0v-8.185a.563.563,0,0,0-1.126,0Z" transform="translate(-376.3 -460.5)"/></g><g transform="translate(64.571 107.025)"><path class="a" d="M377.01,461.626h26.17a.564.564,0,0,0,0-1.126H377.01a.564.564,0,0,0,0,1.126Z" transform="translate(-376.475 -460.5)"/></g><g transform="translate(90.863 74.838)"><path class="a" d="M447.626,407.375V375.31a.564.564,0,0,0-1.126,0v32.065a.564.564,0,0,0,1.126,0Z" transform="translate(-446.5 -374.775)"/></g><g transform="translate(36.148 74.734)"><path class="a" d="M356.053,374.5H301.31a.564.564,0,0,0,0,1.126h54.743a.564.564,0,0,0,0-1.126Z" transform="translate(-300.775 -374.5)"/></g><g transform="translate(35.857 74.838)"><path class="a" d="M300,375.31v29.549a.564.564,0,0,0,1.126,0V375.31a.564.564,0,0,0-1.126,0Z" transform="translate(-300 -374.775)"/></g><g transform="translate(36.073 107.625)"><path class="a" d="M324.952,462.1H301.11a.564.564,0,0,0,0,1.126h23.842a.564.564,0,0,0,0-1.126Z" transform="translate(-300.575 -462.1)"/></g><g transform="translate(35.857 103.373)"><path class="a" d="M300,451.31v3.755a.564.564,0,0,0,1.126,0V451.31a.564.564,0,0,0-1.126,0Z" transform="translate(-300 -450.775)"/></g><g transform="translate(39.124 77.353)"><path class="a" d="M308.7,382.01v26.7a.564.564,0,0,0,1.126,0v-26.7a.564.564,0,0,0-1.126,0Z" transform="translate(-308.7 -381.475)"/></g><g transform="translate(39.302 104.096)"><path class="a" d="M309.71,453.826h47.647a.564.564,0,0,0,0-1.126H309.71a.564.564,0,0,0,0,1.126Z" transform="translate(-309.175 -452.7)"/></g><g transform="translate(87.109 78.292)"><path class="a" d="M437.626,409.779V384.51a.564.564,0,0,0-1.126,0v25.269a.564.564,0,0,0,1.126,0Z" transform="translate(-436.5 -383.975)"/></g><g transform="translate(39.387 77.25)"><path class="a" d="M309.963,382.326h47.722a.564.564,0,0,0,0-1.126H309.963a.563.563,0,1,0,0,1.126Z" transform="translate(-309.4 -381.2)"/></g><g transform="translate(86.996 77.813)"><path class="a" d="M436.2,383.263v.263a.563.563,0,1,0,1.126,0v-.263a.577.577,0,0,0-.563-.563.605.605,0,0,0-.563.563Z" transform="translate(-436.2 -382.7)"/></g><g transform="translate(312.384 137.52)"><path d="M1036.866,542.8c4.994,1.427,10.4,1.577,15.507,2.14,5.782.638,11.564,1.239,17.347,1.877,11.452,1.239,22.866,2.441,34.318,3.68.713.075.713-1.051,0-1.126l-33.567-3.6c-5.519-.6-11.076-1.2-16.6-1.765-5.519-.6-11.376-.713-16.708-2.253-.676-.225-.976.864-.3,1.051Z" transform="translate(-1036.485 -541.719)"/></g><g transform="translate(380.077 121.012)"><path d="M1229.776,498.033a179.994,179.994,0,0,1-12.916,24.18c-.375.6.6,1.164.976.563a180.022,180.022,0,0,0,12.916-24.18c.3-.638-.676-1.2-.976-.563Z" transform="translate(-1216.775 -497.752)"/></g><g transform="translate(312.644 119.712)"><path d="M1037.975,512.8c7.659-5.519,15.094-11.377,22.19-17.572.563-.488-.263-1.277-.789-.789-7.059,6.12-14.38,11.94-21.965,17.384-.563.413,0,1.427.563.976Z" transform="translate(-1037.179 -494.291)"/></g><g transform="translate(334.946 118.789)"><path d="M1097.11,493.548c9.537-1.126,19.187-.375,28.761.113l29.211,1.464c.713.038.713-1.089,0-1.126l-29.211-1.464c-9.574-.488-19.224-1.239-28.761-.113-.713.075-.713,1.2,0,1.126Z" transform="translate(-1096.575 -491.833)"/></g><g transform="translate(345.804 127.382)"><path class="a" d="M1127.412,514.975c-.6,1.014-1.239,1.99-1.84,3a.59.59,0,0,0,.488.864,24.438,24.438,0,0,1,4.055.15c.751.075,2.027.6,2.816.338,1.2-.413,2.027-2.628,2.516-3.6.338-.638-.638-1.2-.976-.563a13.345,13.345,0,0,1-1.126,2.028,2.4,2.4,0,0,1-2.666.751,27.2,27.2,0,0,0-4.618-.225c.15.3.338.563.488.864.6-1.014,1.239-1.99,1.84-3a.574.574,0,0,0-.976-.6Z" transform="translate(-1125.495 -514.719)"/></g><g transform="translate(347.755 126.675)"><path class="a" d="M1131.408,514.361a9.563,9.563,0,0,1,6.383.338c.676.3,1.239-.676.563-.976a10.583,10.583,0,0,0-7.284-.451c-.676.188-.375,1.277.338,1.089Z" transform="translate(-1130.692 -512.835)"/></g><g transform="translate(330.59 127.924)"><path class="a" d="M1085.51,517.3a20.2,20.2,0,0,1,5.82.6.565.565,0,0,0,.3-1.089,22.476,22.476,0,0,0-6.12-.638c-.713.038-.713,1.164,0,1.126Z" transform="translate(-1084.975 -516.162)"/></g><g transform="translate(330.409 123.88)"><path class="a" d="M1085.433,510.088c1.2-1.314,2.478-2.553,3.792-3.755.526-.488-.263-1.277-.788-.789-1.314,1.2-2.553,2.478-3.792,3.755-.488.526.3,1.352.788.789Z" transform="translate(-1084.491 -505.391)"/></g><g transform="translate(334.111 123.825)"><path class="a" d="M1094.633,506.279c1.652.826,3.792.6,5.632.638.714.038.714-1.089,0-1.126-1.539-.038-3.642.225-5.069-.488-.638-.3-1.2.638-.563.976Z" transform="translate(-1094.352 -505.244)"/></g><g transform="translate(336.485 124.527)"><path class="a" d="M1103.388,507.373c-.9,1.239-1.8,2.516-2.628,3.83-.375.6.6,1.164.976.563.826-1.314,1.69-2.591,2.628-3.83.413-.6-.563-1.164-.976-.563Z" transform="translate(-1100.675 -507.116)"/></g><g transform="translate(385.08 71.092)"><path class="a" d="M1230.1,365.363v34.168a.564.564,0,0,0,1.126,0V365.363a.563.563,0,0,0-1.126,0Z" transform="translate(-1230.1 -364.8)"/></g><g transform="translate(385.343 105.26)"><path class="a" d="M1231.363,456.926h49.262a.564.564,0,0,0,0-1.126h-49.262a.563.563,0,1,0,0,1.126Z" transform="translate(-1230.8 -455.8)"/></g><g transform="translate(434.266 71.233)"><g transform="translate(0)"><path class="a" d="M1362.6,399.69c-.113-11.339-.263-22.678-.376-33.98a.564.564,0,0,0-1.126,0c.113,11.339.263,22.678.375,33.98a.564.564,0,0,0,1.127,0Z" transform="translate(-1361.1 -365.175)"/></g></g><g transform="translate(385.258 70.792)"><path class="a" d="M1231.11,365.126H1279.4a.564.564,0,0,0,0-1.126H1231.11a.564.564,0,0,0,0,1.126Z" transform="translate(-1230.575 -364)"/></g><g transform="translate(408.799 64.249)"><path class="a" d="M1294.446,353.155a7.134,7.134,0,0,1,.188-3.079c.225-.864,1.014-2.891,2.29-2.253.751.375.976,1.727,1.089,2.478a11.8,11.8,0,0,1,.037,3.041c-.075.713,1.051.713,1.126,0,.188-1.877.188-7.021-2.891-6.758-2.854.263-3.229,4.806-2.929,6.871.113.713,1.2.413,1.089-.3Z" transform="translate(-1293.271 -346.574)"/></g><g transform="translate(326.47 8.305)"><path class="a" d="M1074,198.11v41.414a.564.564,0,0,0,1.126,0V198.11a.564.564,0,0,0-1.126,0Z" transform="translate(-1074 -197.575)"/></g><g transform="translate(326.836 49.691)"><path class="a" d="M1075.51,308.926h59.662a.564.564,0,0,0,0-1.126H1075.51a.564.564,0,0,0,0,1.126Z" transform="translate(-1074.975 -307.8)"/></g><g transform="translate(386.094 8.417)"><path class="a" d="M1234.377,239.6c-.15-13.742-.3-27.447-.45-41.189a.564.564,0,0,0-1.126,0c.15,13.742.3,27.447.45,41.189a.564.564,0,0,0,1.126,0Z" transform="translate(-1232.8 -197.875)"/></g><g transform="translate(326.723 7.939)"><path class="a" d="M1075.21,197.726h58.5a.564.564,0,0,0,0-1.126h-58.5a.564.564,0,0,0,0,1.126Z" transform="translate(-1074.675 -196.6)"/></g><g transform="translate(355.267)"><path class="a" d="M1151.862,183.358a9.232,9.232,0,0,1,.225-3.792c.3-1.089,1.277-3.642,2.966-2.816,1.877.939,1.614,5.106,1.427,6.758-.075.713,1.052.713,1.127,0,.225-2.178.263-8.41-3.379-8.035-3.379.338-3.792,5.745-3.417,8.185.075.713,1.164.413,1.051-.3Z" transform="translate(-1150.697 -175.457)"/></g><g transform="translate(329.661 11.43)"><path class="a" d="M1082.5,206.463V240.33a.564.564,0,0,0,1.126,0V206.463a.563.563,0,0,0-1.126,0Z" transform="translate(-1082.5 -205.9)"/></g><g transform="translate(329.675 46.049)"><path class="a" d="M1083.086,299.226H1135.8a.564.564,0,0,0,0-1.126h-52.716a.563.563,0,0,0,0,1.126Z" transform="translate(-1082.537 -298.1)"/></g><g transform="translate(383.128 12.36)"><path class="a" d="M1226.026,242.177V208.91a.564.564,0,0,0-1.126,0v33.266a.564.564,0,0,0,1.126,0Z" transform="translate(-1224.9 -208.375)"/></g><g transform="translate(330.14 11.28)"><path class="a" d="M1084.31,206.626h52.716a.564.564,0,0,0,0-1.126H1084.31a.564.564,0,0,0,0,1.126Z" transform="translate(-1083.775 -205.5)"/></g><g transform="translate(335.969 203.858)"><path class="a" d="M1099.863,719.526h54.405a.564.564,0,0,0,0-1.126h-54.405a.563.563,0,0,0,0,1.126Z" transform="translate(-1099.3 -718.4)"/></g><g transform="translate(362.364 205.435)"><path class="a" d="M1169.6,723.163v10.363a.564.564,0,0,0,1.126,0V723.163a.563.563,0,0,0-1.126,0Z" transform="translate(-1169.6 -722.6)"/></g><g transform="translate(353.592 217.337)"><path class="a" d="M1146.786,755.426h26.959a.564.564,0,0,0,0-1.126h-26.959a.563.563,0,0,0,0,1.126Z" transform="translate(-1146.237 -754.3)"/></g><g transform="translate(75.807 179.03)"><path class="a" d="M406.4,652.81v37.322a.564.564,0,0,0,1.126,0V652.81a.564.564,0,0,0-1.126,0Z" transform="translate(-406.4 -652.275)"/></g><g transform="translate(75.807 179.002)"><path class="a" d="M406.963,653.326h54.931a.564.564,0,0,0,0-1.126H406.963a.563.563,0,1,0,0,1.126Z" transform="translate(-406.4 -652.2)"/></g><g transform="translate(75.873 216.511)"><path class="a" d="M407.11,753.3q27.6-.056,55.194-.075a.564.564,0,0,0,0-1.126q-27.6.056-55.194.075a.564.564,0,0,0,0,1.126Z" transform="translate(-406.575 -752.1)"/></g><g transform="translate(131.076 179.18)"><path class="a" d="M553.6,653.21v36.533a.564.564,0,0,0,1.126,0V653.21a.564.564,0,0,0-1.126,0Z" transform="translate(-553.6 -652.675)"/></g><g transform="translate(78.881 181.907)"><path class="a" d="M416.244,662.814a.938.938,0,0,1,.375-1.765c1.314-.038.526,2.215-.338,1.652-.6-.413-1.164.563-.563.976,2.1,1.427,4.017-2.816,1.539-3.642a2.053,2.053,0,0,0-1.615,3.755.573.573,0,0,0,.6-.976Z" transform="translate(-414.587 -659.937)"/></g><g transform="translate(82.415 187.825)"><path class="a" d="M424.563,676.826H457a.564.564,0,0,0,0-1.126h-32.44a.563.563,0,0,0,0,1.126Z" transform="translate(-424 -675.7)"/></g><g transform="translate(82.903 191.805)"><path class="a" d="M425.863,687.426h18.7a.564.564,0,0,0,0-1.126h-18.7a.563.563,0,0,0,0,1.126Z" transform="translate(-425.3 -686.3)"/></g><g transform="translate(83.391 204.186)"><path class="a" d="M427.726,731.788V719.81a.564.564,0,0,0-1.126,0v11.978a.564.564,0,0,0,1.126,0Z" transform="translate(-426.6 -719.275)"/></g><g transform="translate(83.532 203.783)"><path class="a" d="M427.51,719.327h27.184a.564.564,0,0,0,0-1.126H427.51a.564.564,0,0,0,0,1.126Z" transform="translate(-426.975 -718.2)"/></g><g transform="translate(110.688 204.046)"><path class="a" d="M499.3,719.463v11.865a.564.564,0,0,0,1.126,0V719.463a.563.563,0,0,0-1.126,0Z" transform="translate(-499.3 -718.9)"/></g><g transform="translate(88.498 208.166)"><path class="a" d="M441.326,738.257V730.41a.564.564,0,0,0-1.126,0v7.847a.563.563,0,0,0,1.126,0Z" transform="translate(-440.2 -729.875)"/></g><g transform="translate(93.003 208.166)"><path class="a" d="M453.326,738.257V730.41a.564.564,0,0,0-1.126,0v7.847a.563.563,0,0,0,1.126,0Z" transform="translate(-452.2 -729.875)"/></g><g transform="translate(97.359 208.655)"><path class="a" d="M464.926,738.957V731.71a.564.564,0,0,0-1.126,0v7.246a.564.564,0,0,0,1.126,0Z" transform="translate(-463.8 -731.175)"/></g><g transform="translate(101.865 208.805)"><path class="a" d="M476.926,739.582V732.11a.564.564,0,0,0-1.126,0v7.472a.564.564,0,0,0,1.126,0Z" transform="translate(-475.8 -731.575)"/></g><g transform="translate(106.708 208.655)"><path class="a" d="M489.826,738.694V731.71a.564.564,0,0,0-1.126,0v6.984a.563.563,0,1,0,1.126,0Z" transform="translate(-488.7 -731.175)"/></g><g transform="translate(126.345 180.954)"><path class="a" d="M542.539,659.766a.646.646,0,0,1,0-1.164c.225-.075.6-.037.676.225.075.15-.075.526-.3.488a.568.568,0,0,0-.676.375.537.537,0,0,0,.375.676,1.485,1.485,0,0,0,1.727-1.427,1.587,1.587,0,0,0-1.615-1.539,1.691,1.691,0,0,0-1.69,1.352,1.767,1.767,0,0,0,.864,1.953c.713.338,1.277-.638.638-.939Z" transform="translate(-541 -657.4)"/></g></g><g transform="translate(18.293 0)"><circle class="b" cx="5.069" cy="5.069" r="5.069" transform="translate(294.622 197.878)"/><circle class="b" cx="2.666" cy="2.666" r="2.666" transform="translate(307.05 191.57)"/><circle class="c" cx="6.533" cy="6.533" r="6.533" transform="translate(248.778 6.802)"/><circle class="c" cx="3.567" cy="3.567" r="3.567" transform="translate(53.722 175.612)"/><circle class="b" cx="3.83" cy="3.83" r="3.83" transform="translate(58.115 167.878)"/><circle class="b" cx="5.707" cy="5.707" r="5.707" transform="translate(243.333 6.802)"/><g transform="translate(267.735 87.912)"><path class="b" d="M967.5,326.328c.075-.788.451-1.126,1.089-1.089a2.485,2.485,0,0,1,1.051-.038,6.417,6.417,0,0,0,1.2,0,2.605,2.605,0,0,0,1.54-.751,3.4,3.4,0,0,0,.6-1.69c.338-1.99,1.765-1.314,3.079-.976a3.3,3.3,0,0,0,3.642-1.126,11.268,11.268,0,0,0,1.239-2.178c.45-.9,2.628-3.68,3.379-1.427.225.676,1.314.375,1.089-.3a2.476,2.476,0,0,0-4.055-.826c-1.164,1.014-1.464,2.591-2.365,3.755-1.539,2.065-3.154.338-5.106.413a1.932,1.932,0,0,0-1.727,1.164c-.526,1.089.038,1.577-1.164,2.328-1.089.713-1.389.3-2.553.451-1.5.225-3.079,2.1-1.464,3.229.526.451,1.089-.526.526-.939Z" transform="translate(-966.29 -315.223)"/></g><g transform="translate(272.443 92.249)"><path class="b" d="M980.321,336.659c-.6-.789-.375-1.2.638-1.314a1.836,1.836,0,0,1,1.99-.263c.338.038.713.113,1.051.15a4.313,4.313,0,0,0,2.29-.413.558.558,0,0,0,.188-.788c-1.314-2.666,2.779-3.116,4.168-3.191a10.763,10.763,0,0,0,3.454-.413,3.669,3.669,0,0,0,2.553-3.116c.075-.713-1.051-.713-1.126,0-.338,3.642-6.345,1.8-8.523,3.154a3.163,3.163,0,0,0-1.464,4.168,6.011,6.011,0,0,0,.188-.788c-1.915.9-4.769-1.051-6.383.864a1.952,1.952,0,0,0,.376,2.966c.676.338,1.239-.638.6-1.014Z" transform="translate(-978.83 -326.775)"/></g><g transform="translate(135.601 24.684)"><path class="c" d="M615.622,152.373c-.864-3.3,3.154-6.045,5.669-3.342s-.526,6.5-3.755,5.407c-.676-.225-.976.864-.3,1.089,4.355,1.464,8.11-3.83,4.844-7.284-3.267-3.492-8.711.038-7.547,4.431a.565.565,0,0,0,1.089-.3Z" transform="translate(-614.373 -146.826)"/></g><g transform="translate(137.592 301.714)"><path class="c" d="M619.76,885.5a15.732,15.732,0,0,0,14.568,7.66c.713-.037.713-1.164,0-1.126a14.647,14.647,0,0,1-13.592-7.1.564.564,0,0,0-.976.563Z" transform="translate(-619.675 -884.652)"/></g><g transform="translate(135.217 308.041)"><path class="c" d="M613.519,902.478a21.95,21.95,0,0,0,14.831,6.683c.714.038.714-1.089,0-1.126a20.822,20.822,0,0,1-14.043-6.383c-.488-.488-1.314.338-.788.826Z" transform="translate(-613.35 -901.503)"/></g><g transform="translate(387.437 52.007)"><g transform="translate(0 0)"><path class="a" d="M1286.075,219.786c-2.478,3.116.075,8.11,4.093,7.66,1.952-.225,4.393-1.389,5.181,1.277.376,1.239.15,2.591.451,3.83.413,1.8,1.878,3.717,3.905,3.041.676-.225.375-1.314-.3-1.089-2.741.9-2.553-3.867-2.816-5.407a3.627,3.627,0,0,0-2.14-3.116c-1.952-.713-3.98.9-5.895.188a3.731,3.731,0,0,1-1.652-5.594c.413-.526-.375-1.352-.826-.789Z" transform="translate(-1285.097 -219.597)"/></g></g><g transform="translate(382.767 59.562)"><g transform="translate(0 0)"><path class="a" d="M1273.088,239.975c-.939,1.539-.225,3.154,1.089,4.243,1.69,1.352,3.6,1.239,5.67,1.427a4.689,4.689,0,0,1,4.093,2.215c.638,1.089.864,2.365,1.54,3.417.938,1.427,2.591,2.478,4.28,1.765.676-.263.375-1.352-.3-1.089-2.4,1.014-3.417-2.1-4.093-3.68a5.4,5.4,0,0,0-2.7-3.116,10.559,10.559,0,0,0-3.9-.676c-1.69-.113-6.383-1.089-4.693-3.9a.574.574,0,0,0-.976-.6Z" transform="translate(-1272.66 -239.719)"/></g></g><g transform="translate(0 270.743)"><path class="a" d="M254.564,806.533c.488-1.277,1.126-1.652,1.877-1.089a2.386,2.386,0,0,1,.826.526c.451.338.826.713,1.277,1.051a5.334,5.334,0,0,0,1.765.939,2.782,2.782,0,0,0,2.741-.826c.864-.864,1.089-2.478,2.065-3.229.939-.713,1.539.413,2.215,1.051.676.6,1.389,1.164,2.1,1.69.6.413,1.164-.563.563-.976a23.873,23.873,0,0,1-3.68-3.342.6.6,0,0,0-.563-.15,4.378,4.378,0,0,0-2.441,2.4c-.526.976-.826,1.8-1.99,2.1-1.5.375-2.365-.864-3.492-1.69s-2.553-1.427-3.792-.451a1.952,1.952,0,0,0-.563,2.553c.488.638,1.464.075,1.089-.563Z" transform="translate(-253.22 -802.164)"/></g><g transform="translate(1.668 279.464)"><path class="a" d="M257.676,826.108a4.044,4.044,0,0,0,4.393,3.267c1.2-.15,2.028-.976,3.041-1.577a5.107,5.107,0,0,1,5.67.037c.6.376,1.164-.6.563-.976a6.244,6.244,0,0,0-5.745-.638,19.823,19.823,0,0,0-2.4,1.5,2.914,2.914,0,0,1-4.468-1.953c-.113-.676-1.2-.375-1.051.338Z" transform="translate(-257.662 -825.391)"/></g><g transform="translate(74.588 12.093)"><path class="d" d="M452.41,114.42a8.928,8.928,0,0,1,7.1,4.919c.338.638,1.314.075.976-.563a10.038,10.038,0,0,0-8.073-5.482c-.713-.075-.713,1.051,0,1.126Z" transform="translate(-451.875 -113.29)"/></g><g transform="translate(75.143 1.301)"><path class="d" d="M453.633,85.582a22.854,22.854,0,0,1,11.3,11.827c.263.676,1.352.375,1.089-.3a23.9,23.9,0,0,0-11.827-12.5c-.638-.3-1.2.676-.563.976Z" transform="translate(-453.352 -84.549)"/></g><g transform="translate(87.417)"><path class="d" d="M486.176,82.066a13.649,13.649,0,0,1,3.454,9.387.564.564,0,0,0,1.126,0,14.958,14.958,0,0,0-3.792-10.175c-.451-.563-1.239.225-.788.788Z" transform="translate(-486.042 -81.084)"/></g><g transform="translate(257.812 311.24)"><path class="b" d="M941,915.909c-.488-3.342,3.267-6.458,6.083-3.755,2.591,2.478-.6,6.5-3.492,4.618-.6-.413-1.164.563-.563.976,3.792,2.478,8.185-2.591,5.181-6.045-3.492-4.055-8.936-.075-8.3,4.543.113.676,1.2.376,1.089-.338Z" transform="translate(-939.863 -910.023)"/></g><g transform="translate(262.34 295.847)"><path class="b" d="M953.152,872.62c-.6-1.915,1.877-3.454,3.116-1.727a1.809,1.809,0,0,1-2.365,2.591c-.638-.338-1.2.638-.563.976,2.741,1.427,5.745-1.8,3.755-4.318-2.028-2.591-5.97-.263-5.031,2.779.225.676,1.314.413,1.089-.3Z" transform="translate(-951.922 -869.024)"/></g></g><g transform="translate(102.165 36.344)"><g transform="translate(108.636 160.069)"><path class="d" d="M777.625,917.981c-1.2.075-2.065.676-3.755,1.877A30.778,30.778,0,0,0,767.3,926.2a66.134,66.134,0,0,0,4.243,12.691,68.181,68.181,0,0,0,19.75,25.156,10.27,10.27,0,0,0,1.877-10.813c-1.389-4.468-2.328-9.086-3.529-13.63-2.516-9.424-1.239-10.475-3.755-14.831C785.1,923.463,781.718,917.681,777.625,917.981Z" transform="translate(-766.787 -800.159)"/><path class="e" d="M820.585,615.727a84.414,84.414,0,0,1,4.468,10.814,82.752,82.752,0,0,1,4.243,23.054,81.35,81.35,0,0,1-4.243,27.972c-5.031,14.981-13.066,24.631-18.36,30.788a111.086,111.086,0,0,1-13.892,13.63,8.2,8.2,0,0,0,1.164,4.243c2.44,3.83,7.434,3.755,7.772,3.755a111.663,111.663,0,0,0,23.992-23.054,91.522,91.522,0,0,0,12.916-22.34,89.682,89.682,0,0,0,6.345-30.113c.3-8.073-.6-13.78-1.877-21.852-2.065-13.254-4.693-18.623-6.571-21.852a44.884,44.884,0,0,0-4.693-6.571Q826.217,609.945,820.585,615.727Z" transform="translate(-782.713 -604.2)"/><g transform="translate(9.448 12.222)"><path class="d" d="M819.183,637.6a75.7,75.7,0,0,1,7.622,47.234c-2.441,14.643-9.312,28.235-18.473,39.8a120.346,120.346,0,0,1-17.046,17.384c-.563.45.263,1.276.789.788,11.489-9.687,21.514-21.327,28.273-34.768a78.424,78.424,0,0,0,7.922-45.469,76.54,76.54,0,0,0-8.073-25.532.581.581,0,0,0-1.014.563Z" transform="translate(-791.097 -636.752)"/></g><g transform="translate(18.417 1.859)"><path class="d" d="M847.656,610a92.22,92.22,0,0,1-10.513,101.827,138.151,138.151,0,0,1-21.965,21.214c-.563.451.225,1.239.788.788,14.568-11.452,27.6-25.494,35.332-42.5a94.01,94.01,0,0,0,6.984-52.791,91.321,91.321,0,0,0-9.65-29.1c-.338-.638-1.314-.075-.976.563Z" transform="translate(-814.984 -609.152)"/></g><g transform="translate(9.333 117.249)"><path class="d" d="M790.794,917.01c.638,5.069,4.806,10.551,10.476,8.373.676-.263.375-1.352-.3-1.089-4.956,1.915-8.486-2.891-9.049-7.284-.075-.713-1.2-.713-1.126,0Z" transform="translate(-790.79 -916.475)"/></g><g transform="translate(0 117.602)"><path class="d" d="M774.933,917.483a24.868,24.868,0,0,0-8.9,7.847c-.413.6.563,1.164.976.563a23.753,23.753,0,0,1,8.486-7.434c.638-.338.075-1.314-.563-.976Z" transform="translate(-765.934 -917.413)"/></g><g transform="translate(0.191 125.825)"><path class="d" d="M766.464,940.022a67.127,67.127,0,0,0,23.692,37.472c.563.45,1.352-.338.789-.788a66.167,66.167,0,0,1-23.392-36.984.565.565,0,0,0-1.089.3Z" transform="translate(-766.442 -939.314)"/></g><g transform="translate(18.814 125.599)"><path class="d" d="M816.064,939.422c1.652,6.233,3.342,12.428,4.994,18.661,1.539,5.67,4.731,13.367.3,18.511-.488.563.338,1.352.789.788,4.13-4.806,2.253-11.264.789-16.746-1.915-7.171-3.867-14.343-5.782-21.514a.565.565,0,0,0-1.089.3Z" transform="translate(-816.042 -938.714)"/></g><g transform="translate(41.129 12.154)"><path class="d" d="M876.536,645.33a15.652,15.652,0,0,1,14.043-7.622c.713.038.713-1.089,0-1.126a16.773,16.773,0,0,0-15.019,8.185c-.376.6.6,1.164.976.563Z" transform="translate(-875.475 -636.57)"/></g><g transform="translate(45.472 30.705)"><path class="d" d="M887.965,692.407a14.946,14.946,0,0,1,9.349-5.332c.713-.113.413-1.2-.3-1.089a15.681,15.681,0,0,0-9.837,5.632c-.451.563.338,1.352.788.789Z" transform="translate(-887.042 -685.978)"/></g><g transform="translate(47.198 21.053)"><path class="d" d="M892.638,665.013a15.408,15.408,0,0,1,10.588-3.6c.713.037.713-1.089,0-1.127a16.683,16.683,0,0,0-11.414,3.943c-.526.45.263,1.239.826.788Z" transform="translate(-891.64 -660.271)"/></g><g transform="translate(45.885 55.389)"><path class="d" d="M889.065,754.792c1.577-1.99,4.393-1.952,6.721-1.877,2.816.113,6.308,1.089,6.721,4.393.075.713,1.2.713,1.126,0-.413-3.229-3.191-4.956-6.2-5.369-2.929-.413-7.134-.488-9.161,2.1-.451.526.338,1.352.788.751Z" transform="translate(-888.142 -751.721)"/></g><g transform="translate(16.657 111.279)"><path class="d" d="M810.3,901.11c.263,4.356,2.4,10.025,7.4,10.588.713.075.713-1.051,0-1.126-4.28-.488-6.045-5.782-6.27-9.462-.038-.713-1.164-.713-1.126,0Z" transform="translate(-810.298 -900.575)"/></g><g transform="translate(24.153 103.409)"><path class="d" d="M830.277,880.322a13.1,13.1,0,0,0,5.256,8.073c.6.413,1.164-.563.563-.976a12.108,12.108,0,0,1-4.731-7.4c-.15-.714-1.239-.413-1.089.3Z" transform="translate(-830.262 -879.614)"/></g><g transform="translate(30.416 102.727)"><path class="d" d="M847.076,878.813c1.765,2.253,3.755,4.543,6.683,5.106.713.15,1.014-.939.3-1.089-2.741-.526-4.543-2.741-6.2-4.844-.451-.563-1.239.263-.789.826Z" transform="translate(-846.942 -877.798)"/></g><g transform="translate(38.538 81.045)"><path class="d" d="M869.11,821.158a18.173,18.173,0,0,1,13.029,4.768c.526.488,1.352-.3.788-.788a19.154,19.154,0,0,0-13.817-5.069c-.713,0-.713,1.126,0,1.089Z" transform="translate(-868.575 -820.051)"/></g><g transform="translate(45.747 70.656)"><path class="d" d="M888.31,793.552a10.676,10.676,0,0,1,7.735,2.253c.563.451,1.352-.338.789-.788a11.855,11.855,0,0,0-8.523-2.591c-.713.038-.713,1.164,0,1.126Z" transform="translate(-887.775 -792.381)"/></g><path class="f" d="M830.149,619.3a137.624,137.624,0,0,1,4.881,20.05c1.389,8.448,3.229,19.374,1.352,32.516-1.84,12.991-6.421,22.153-9.762,28.723a118.623,118.623,0,0,1-30.9,37.96l-4.618-7.322a62.594,62.594,0,0,0,11.377-9.2c4.055-4.168,6.458-7.81,10.025-13.292,4.506-6.909,6.871-10.551,9.2-15.732a73.966,73.966,0,0,0,6.5-27.372c.338-9.462-1.389-16.746-3.267-24.668a136.183,136.183,0,0,0-4.055-13.817C824.029,624.557,827.107,621.928,830.149,619.3Z" transform="translate(-781.651 -613.63)"/><path class="f" d="M828.182,639.6a68.152,68.152,0,0,1,2.7,8.673,73.629,73.629,0,0,1,1.915,18.961c-.225,13.4-.45,25.757-5.407,38.748-8.448,22.04-26.17,34.43-34.693,39.574a235.605,235.605,0,0,0,15.432-18.173c7.284-9.424,10.888-14.155,13.817-20.05,10.063-20.275,7.4-40.288,6.5-45.807a75.15,75.15,0,0,0-5.707-18.961C824.577,641.59,826.379,640.576,828.182,639.6Z" transform="translate(-782.65 -626.308)"/></g><g transform="translate(90.334 178.221)"><path class="e" d="M723.239,655.081c-1.577,1.8-1.5,3.867-2.1,11.752-.864,11.414-1.2,9.049-1.652,16.708a333.977,333.977,0,0,0,.713,46.333,279.722,279.722,0,0,0,9.161,48.7c3.229,11.076,8.711,26.358,8.936,27.034,1.615,4.506,3,8.26,3.98,10.813.225.15,5.97,3.379,10.1.713a5.93,5.93,0,0,0,2.816-3.755,5.467,5.467,0,0,0-.713-3.755c-1.239-3.755-3.041-9.349-4.956-16.22-3.191-11.489-7.847-28.723-9.649-51.026-.676-8.523-.676-14.606-.714-24.931a324.491,324.491,0,0,1,1.427-35.031c.676-6.758,1.84-15.92,3.98-26.808C739.271,653.617,727.632,650.125,723.239,655.081Z" transform="translate(-718.316 -652.545)"/><path class="d" d="M780.7,1081.445a20.888,20.888,0,0,1,1.389,5.97,20.633,20.633,0,0,1-.113,4.919,35.011,35.011,0,0,0,7.735,3.266c1.2.338,2.478.638,4.693,1.164,2.553.6,4.506,1.014,5.257,1.164,7.885,1.652,11.865,2.478,16.521,2.816a67.8,67.8,0,0,0,8.185.113c.676-1.089,2.028-3.6,1.164-5.97-.676-1.877-2.365-2.778-5.407-4.318-6.345-3.267-9.537-4.881-9.612-4.919a61.725,61.725,0,0,1-16.3-9.95,12.246,12.246,0,0,1-5.031,4.806A12.558,12.558,0,0,1,780.7,1081.445Z" transform="translate(-756.853 -916.819)"/><g transform="translate(0 11.027)"><path class="d" d="M719.633,682.433a292.056,292.056,0,0,0,9.65,120.826A295.908,295.908,0,0,0,740.96,835.4c.3.676,1.239.075.976-.563a289.937,289.937,0,0,1-21.177-152.4c.075-.713-1.051-.676-1.126,0Z" transform="translate(-717.188 -681.912)"/></g><g transform="translate(20.356 14.889)"><path class="d" d="M773.992,692.763c-3.98,37.284-3.942,75.431,4.168,112.19a248.754,248.754,0,0,0,8.786,30.375c.263.676,1.352.375,1.089-.3-12.8-35.294-16.633-73.179-15.244-110.538.375-10.588,1.2-21.176,2.328-31.727.075-.751-1.051-.751-1.126,0Z" transform="translate(-771.402 -692.2)"/></g><g transform="translate(23.916 157.983)"><path class="d" d="M781.266,1080.063a10.863,10.863,0,0,0,12.916-5.895c.3-.638-.676-1.239-.976-.563a9.8,9.8,0,0,1-11.64,5.369c-.676-.225-.976.864-.3,1.089Z" transform="translate(-780.885 -1073.308)"/></g><g transform="translate(23.525 163.918)"><path class="d" d="M779.864,1089.822a32,32,0,0,1,1.2,9.424.564.564,0,0,0,1.126,0,32.79,32.79,0,0,0-1.239-9.725.565.565,0,0,0-1.089.3Z" transform="translate(-779.842 -1089.114)"/></g><g transform="translate(24.592 174.254)"><path class="d" d="M782.878,1117.565c5.256,4.13,12.5,4.844,18.848,6.2,7.622,1.614,15.432,3.83,23.279,3.341.713-.037.713-1.164,0-1.126-7.509.451-14.944-1.615-22.265-3.154-6.308-1.314-13.855-1.915-19.074-6.045-.563-.451-1.352.338-.788.788Z" transform="translate(-782.684 -1116.642)"/></g><g transform="translate(36.965 158.165)"><path class="d" d="M815.812,1074.733c4.956,4.506,10.813,7.7,16.783,10.663,3.041,1.5,6.083,2.929,9.086,4.468a12.466,12.466,0,0,1,4.205,2.854c1.69,2.065.751,4.656-.188,6.871-.263.676.676,1.239.976.563,1.164-2.779,2.178-5.895-.113-8.373-2.328-2.591-6.345-3.9-9.424-5.407-7.209-3.492-14.531-7.021-20.538-12.428-.526-.488-1.314.3-.789.788Z" transform="translate(-815.638 -1073.791)"/></g><g transform="translate(0.813 30.664)"><path class="d" d="M719.633,735.26a27.564,27.564,0,0,0,20.425,1.99.565.565,0,0,0-.3-1.089,26.234,26.234,0,0,1-19.562-1.877c-.638-.338-1.2.638-.563.976Z" transform="translate(-719.352 -734.213)"/></g><g transform="translate(0.362 42.204)"><path class="d" d="M718.433,765.982a23.146,23.146,0,0,0,12.428,1.915c.713-.075.713-1.2,0-1.126A21.875,21.875,0,0,1,719,765.006c-.638-.3-1.2.676-.563.976Z" transform="translate(-718.152 -764.949)"/></g><g transform="translate(0.611 67.033)"><path class="d" d="M719.073,833.075a14.107,14.107,0,0,0,9.687,2.065c3.454-.375,7.7-1.164,10.663-3,.6-.375.038-1.352-.563-.976-2.778,1.727-6.871,2.478-10.1,2.854a13.2,13.2,0,0,1-9.124-1.915c-.6-.413-1.164.563-.563.976Z" transform="translate(-718.816 -831.075)"/></g><g transform="translate(2.568 82.84)"><path class="d" d="M724.393,875.738a21.267,21.267,0,0,0,18.849-1.5.564.564,0,0,0-.563-.976,20.266,20.266,0,0,1-17.985,1.389c-.676-.263-.939.826-.3,1.089Z" transform="translate(-724.029 -873.175)"/></g><g transform="translate(8.297 111.751)"><path class="d" d="M739.666,954.8c5.82,2.065,11.489-.563,16.408-3.567.6-.375.038-1.352-.563-.976-4.693,2.854-10.025,5.407-15.544,3.454-.676-.225-.976.864-.3,1.089Z" transform="translate(-739.285 -950.175)"/></g><g transform="translate(20.585 131.337)"><path class="d" d="M779.293,1002.512a13.717,13.717,0,0,1-6.871,4.13.565.565,0,0,0,.3,1.089,14.672,14.672,0,0,0,7.4-4.393c.45-.563-.338-1.352-.826-.826Z" transform="translate(-772.014 -1002.34)"/></g><g transform="translate(17.852 146.644)"><path class="d" d="M765.435,1046.522a20.187,20.187,0,0,0,6.871-2.365.564.564,0,0,0-.563-.976,18.721,18.721,0,0,1-6.57,2.253c-.751.113-.451,1.2.263,1.089Z" transform="translate(-764.735 -1043.108)"/></g><path class="g" d="M734.807,673.5a134.557,134.557,0,0,0-4.318,21.664c-1.5,12.991-.713,22.716.263,33.867,3.454,38.41,5.257,57.9,9.5,70.475a159.051,159.051,0,0,0,12.2,27.372c-.15.188-3.379,4.055-7.584,3.267a7.352,7.352,0,0,1-3.267-1.615,269.442,269.442,0,0,1-10.588-28.2c-3.079-9.837-12.391-41.452-12.728-84.555a312.452,312.452,0,0,1,2.441-41.452C725.42,674.026,730.114,673.763,734.807,673.5Z" transform="translate(-717.869 -665.632)"/><path class="g" d="M720.993,699.5c.526,20.35,2.028,37.472,3.529,50.425,2.553,22.453,4.431,37.922,10.588,57.447a219.894,219.894,0,0,0,15.432,36.871c-2.7.451-5.407.9-8.148,1.352q-3.886-8.279-7.322-17.347C717.163,780.826,716.6,735.245,720.993,699.5Z" transform="translate(-718.135 -681.87)"/></g><g transform="translate(167.324 75.322)"><path class="e" d="M923.577,380.718c-.751.488-1.69,1.765-1.2,6.233a31.172,31.172,0,0,0,3.567,11.3c9.95,17.422,7.622,15.432,10.7,19.337,3.68,4.618,8.861,11.151,18.023,15.169,3.942,1.727,9.274,4.093,15.169,2.516a29.634,29.634,0,0,0,8.936-4.168,32.148,32.148,0,0,1,5.82-3.867,29.638,29.638,0,0,1,4.017-1.652,6.926,6.926,0,0,0,2.966.9c1.952.113,2.553-.713,4.618-.9a9.723,9.723,0,0,1,5.069,1.051c2.4,1.277,2.854,3.079,3.867,2.816,1.089-.263,1.464-2.553,1.5-3.717a6.96,6.96,0,0,0-1.051-3.717,9.537,9.537,0,0,0-3.267-3.417,6.642,6.642,0,0,0-1.652-2.966,6.908,6.908,0,0,0-3.417-1.952,4.536,4.536,0,0,0-1.051-2.215c-1.8-2.028-4.956-1.464-5.82-1.352A9.179,9.179,0,0,0,985,413.383a4.316,4.316,0,0,0-2.666-.6,4.575,4.575,0,0,0-2.966,1.952,6.274,6.274,0,0,0-1.051,4.768,17.173,17.173,0,0,0-5.519,1.5c-2.29,1.089-3.041,2.14-5.219,2.966a10.147,10.147,0,0,1-5.219.751,9.433,9.433,0,0,1-4.168-1.8,46.183,46.183,0,0,1-10.551-10.7c-11.3-17.009-10.175-14.643-11.3-16.821-3.68-7.021-6.233-14.193-10.4-15.019A3.416,3.416,0,0,0,923.577,380.718Z" transform="translate(-922.241 -379.624)"/><g transform="translate(5.673)"><path class="d" d="M937.406,379.356a152.481,152.481,0,0,0,18.435,30.563c6.233,8.035,14.531,18.21,26.02,16.033.713-.15.413-1.239-.3-1.089-11.752,2.215-20.35-9.574-26.433-17.76a152.056,152.056,0,0,1-16.708-28.31c-.338-.676-1.314-.113-1.014.563Z" transform="translate(-937.349 -378.487)"/></g><g transform="translate(37.799 39.204)"><path class="d" d="M1023.322,488.757a12.868,12.868,0,0,0,4.919.488,13.5,13.5,0,0,0,4.393-1.915,25.566,25.566,0,0,1,12.165-3.3.564.564,0,0,0,0-1.126,27.138,27.138,0,0,0-9.875,2.028c-1.54.638-2.929,1.539-4.393,2.29-2.328,1.2-4.43,1.051-6.909.451a.565.565,0,0,0-.3,1.089Z" transform="translate(-1022.914 -482.9)"/></g><g transform="translate(1.392 14.137)"><path class="d" d="M926.006,416.988c5.031,10.7,10.213,21.664,18.7,30.113,7.434,7.359,18.473,13.554,29.174,10.438a30.98,30.98,0,0,0,8.11-3.867c2.816-1.84,5.557-4.656,9.124-4.693a.564.564,0,0,0,0-1.126c-4.844.075-8.636,4.506-12.728,6.646a22.242,22.242,0,0,1-17.835,1.464c-10.626-3.529-18.586-12.24-24.33-21.514a176.751,176.751,0,0,1-9.274-17.985c-.263-.713-1.239-.113-.939.526Z" transform="translate(-925.949 -416.14)"/></g><g transform="translate(58.961 38.865)"><path class="d" d="M1079.81,483.125c3.379.15,8.3,1.877,7.322,6.233-.15.713.938,1.014,1.089.3,1.164-5.144-4.243-7.472-8.411-7.66-.713-.038-.713,1.089,0,1.126Z" transform="translate(-1079.275 -481.998)"/></g><g transform="translate(55.727 32.858)"><path class="d" d="M1071.765,472.57a28.717,28.717,0,0,1,.826-4.055c.638-1.84,3.267-1.389,4.806-1.126.714.113,1.014-.976.3-1.089-1.577-.263-4.055-.713-5.369.526s-1.314,3.83-1.652,5.482c-.15.676.939.976,1.089.263Z" transform="translate(-1070.662 -465.999)"/></g><g transform="translate(59.715 29.65)"><path class="d" d="M1082.115,464.155a69.365,69.365,0,0,0,5.782-4.055c1.389-1.051,2.816-1.8,4.618-1.389a6.469,6.469,0,0,1,3.83,2.966c.413.6,1.389.038.976-.563-1.539-2.29-3.98-4.093-6.909-3.567a8.817,8.817,0,0,0-3.792,2.1,58.8,58.8,0,0,1-5.106,3.529c-.563.375,0,1.352.6.976Z" transform="translate(-1081.281 -457.455)"/></g><g transform="translate(67.941 33.757)"><path class="d" d="M1103.908,471.7a22.971,22.971,0,0,0,4.506-1.614,3.711,3.711,0,0,1,2.591-.338,5.507,5.507,0,0,1,1.389.9,20.64,20.64,0,0,1,2.328,2.1c.526.526,1.314-.3.788-.788-1.314-1.314-3.3-3.492-5.332-3.567a4.883,4.883,0,0,0-2.366.751,15.446,15.446,0,0,1-4.243,1.5c-.676.113-.375,1.2.338,1.051Z" transform="translate(-1103.191 -468.394)"/></g><g transform="translate(70.746 38.098)"><path class="d" d="M1111.2,482.337a38.046,38.046,0,0,0,5.369-.863c1.352-.3,2.7-.638,3.942.188a8.214,8.214,0,0,1,2.328,2.854c.375.6,1.352.038.976-.563-1.051-1.69-2.328-3.567-4.468-3.942a8,8,0,0,0-3.116.375,38.545,38.545,0,0,1-5.069.826c-.676.038-.676,1.164.037,1.126Z" transform="translate(-1110.662 -479.954)"/></g><g transform="translate(67.373 45.333)"><path class="d" d="M1102.063,501.206c2.29.864,4.28-.15,6.5-.676,3.417-.789,5.82,1.352,8.073,3.567.526.526,1.314-.3.788-.789-1.8-1.765-3.755-3.6-6.345-4.017-3-.488-5.782,1.952-8.748.826-.638-.263-.939.826-.263,1.089Z" transform="translate(-1101.679 -499.226)"/></g><g transform="translate(75.67 41.749)"><path class="d" d="M1124.31,490.851a11.638,11.638,0,0,1,5.632,1.089,3.242,3.242,0,0,1,.638,5.519c-.563.451.225,1.239.788.788a4.319,4.319,0,0,0,.826-5.932c-1.69-2.253-5.256-2.7-7.885-2.628-.713.038-.713,1.164,0,1.164Z" transform="translate(-1123.775 -489.68)"/></g><g transform="translate(82.681 41.614)"><path class="d" d="M1142.506,490.175a5.855,5.855,0,0,1,.563,2.215c.037.713,1.164.713,1.126,0a8.2,8.2,0,0,0-.713-2.816c-.3-.6-1.277-.038-.976.6Z" transform="translate(-1142.449 -489.319)"/></g><g transform="translate(5.452 15.959)"><path class="d" d="M937.865,428.654a8.682,8.682,0,0,1,7.659-6.533c.713-.075.713-1.2,0-1.126a9.764,9.764,0,0,0-8.748,7.359c-.15.713.938,1.014,1.089.3Z" transform="translate(-936.762 -420.99)"/></g><g transform="translate(9.784 24.5)"><path class="d" d="M949.426,450.107a7.4,7.4,0,0,1,2.253-5.407.557.557,0,1,0-.788-.788,8.624,8.624,0,0,0-2.591,6.233c0,.676,1.126.676,1.126-.038Z" transform="translate(-948.3 -443.738)"/></g><g transform="translate(12.972 25.769)"><path class="d" d="M957.921,457.024a10.316,10.316,0,0,1,6.909-8.786c.676-.225.375-1.314-.3-1.089a11.524,11.524,0,0,0-7.735,9.875c-.075.713,1.051.713,1.126,0Z" transform="translate(-956.791 -447.119)"/></g><g transform="translate(18.607 33.97)"><path class="d" d="M972.925,478.251a9.056,9.056,0,0,1,7.284-8.185c.713-.15.413-1.239-.3-1.089a10.137,10.137,0,0,0-8.11,9.237.564.564,0,0,0,1.126.038Z" transform="translate(-971.798 -468.962)"/></g><g transform="translate(26.827 41.537)"><path class="d" d="M994.82,498.157a10.456,10.456,0,0,1,5.369-8c.638-.338.075-1.314-.563-.976a11.528,11.528,0,0,0-5.932,8.974c-.075.713,1.051.713,1.126,0Z" transform="translate(-993.691 -489.113)"/></g><g transform="translate(37.244 43.965)"><path class="d" d="M1021.534,496.414a9.134,9.134,0,0,1,.563,9.912.564.564,0,0,0,.976.563,10.37,10.37,0,0,0-.563-11.076c-.413-.563-1.389,0-.976.6Z" transform="translate(-1021.434 -495.581)"/></g><g transform="translate(50.321 40.74)"><path class="d" d="M1056.276,487.708c.113.563.375.713.9.9a14.5,14.5,0,0,1,3,1.126,7.3,7.3,0,0,1,3.229,6.158.564.564,0,0,0,1.126,0,8.287,8.287,0,0,0-1.953-5.519,8.79,8.79,0,0,0-2.215-1.877c-.376-.225-2.966-.939-3-1.126-.15-.676-1.239-.375-1.089.338Z" transform="translate(-1056.262 -486.991)"/></g><path class="g" d="M928.2,395.6c1.952-.15,3.154,7.772,6.758,16.258,3.041,7.1,9.65,22.566,23.054,26.846a33.967,33.967,0,0,0,24.405-2.178c3.454-1.8,5.257-3.68,9.762-4.618,5.069-1.051,12.728-.713,14.906,3.529a5.8,5.8,0,0,1,.526,3.529c-2.1-2.591-4.017-3.342-5.407-3.529-1.99-.263-3.079.6-5.97.826a16.664,16.664,0,0,1-5.407-.526,44.14,44.14,0,0,0-8.411,4.055c-3.191,1.99-3.942,3.041-6.233,4.055-3.942,1.727-7.66,1.239-10.851.826a35.469,35.469,0,0,1-15.732-6.5,47.961,47.961,0,0,1-10.288-10.025A87.64,87.64,0,0,1,925.5,403.219C925.988,399.614,926.814,395.709,928.2,395.6Z" transform="translate(-924.276 -389.171)"/></g><g transform="translate(80.027 69.728)"><path class="d" d="M693.529,386.032c.451,2.29,1.014,5.444,1.577,9.2a192.436,192.436,0,0,1,1.765,25.231,225.745,225.745,0,0,1-2.553,35.82c-1.164,7.772-2.591,14.23-3.717,19a53.235,53.235,0,0,0,30.751,14.305c14.38-22.566,25.269-39.236,31.915-49.3,15.019-22.866,25.494-38.3,29.737-62.027a101.268,101.268,0,0,0,1.352-10.363,75.92,75.92,0,0,0-21.327-2.366,86.406,86.406,0,0,0-12.916,1.577,198.766,198.766,0,0,0-30.15,7.81A203.367,203.367,0,0,0,693.529,386.032Z" transform="translate(-690.276 -364.777)"/><path class="e" d="M773.665,393.514c.376,3.229.789,7.547,1.089,12.691.375,6.308.375,11.3.375,14.906-.075,15.094-.939,29.925-1.089,32.741-.638,10.7-1.5,24.255-2.741,40.062,7.171-2.891,12.916-5.67,16.9-7.735a224.468,224.468,0,0,0,31.99-20.238c5.67-4.168,10.213-7.81,13.254-10.288.826-7.96,1.389-14.831,1.84-20.238.563-6.909,1.089-13.479,1.464-22.228.225-5.181.338-7.81.375-11.414a164.948,164.948,0,0,0-1.277-22.791c-.375-2.929-.788-5.332-1.089-6.984a213.739,213.739,0,0,0-34.393,9.574A210.105,210.105,0,0,0,773.665,393.514Z" transform="translate(-740.676 -368.842)"/><g transform="translate(2.647)"><path class="d" d="M697.656,385.033c21.627-10.926,44.718-17.309,68.711-20.313.713-.075.713-1.2,0-1.126a226.464,226.464,0,0,0-36.007,7.209,200.092,200.092,0,0,0-33.266,13.254c-.676.338-.113,1.314.563.976Z" transform="translate(-696.787 -363.59)"/></g><g transform="translate(2.755 20.749)"><path class="d" d="M697.61,420.034c5.069-.263,10.1.526,15.131,1.2,4.806.676,9.612,1.314,14.456,1.99.713.113,1.014-.976.3-1.089-5.069-.713-10.1-1.389-15.169-2.1a77.31,77.31,0,0,0-14.718-1.126c-.713.038-.713,1.164,0,1.126Z" transform="translate(-697.075 -418.851)"/></g><g transform="translate(71.09 0.088)"><path class="d" d="M879.61,365.093a70.637,70.637,0,0,1,22.6,2.253.565.565,0,0,0,.3-1.089,71.337,71.337,0,0,0-22.9-2.29c-.713.075-.713,1.2,0,1.126Z" transform="translate(-879.075 -363.826)"/></g><g transform="translate(33.034 2.805)"><path class="d" d="M778.575,392.966a251.767,251.767,0,0,1,60.263-20.8c.714-.15.413-1.239-.3-1.089a254.289,254.289,0,0,0-60.563,20.914c-.6.338-.038,1.314.6.976Z" transform="translate(-777.719 -371.062)"/></g><g transform="translate(29.902 24.062)"><path class="d" d="M771.452,428.21c3.267,25.682,1.652,51.627,0,77.346-.488,7.584-.976,15.169-2.065,22.678-.113.713.976,1.014,1.089.3,1.877-12.841,2.365-25.907,3.079-38.861.713-13.029,1.2-26.058.788-39.086-.263-7.472-.788-14.981-1.765-22.378-.113-.713-1.239-.713-1.126,0Z" transform="translate(-769.378 -427.675)"/></g><g transform="translate(0.309 20.359)"><path class="d" d="M693.392,418.522a234.956,234.956,0,0,1-2.816,88.385c-.15.713.939,1.014,1.089.3a236.551,236.551,0,0,0,2.816-88.986c-.113-.713-1.2-.413-1.089.3Z" transform="translate(-690.562 -417.814)"/></g><g transform="translate(0 109.356)"><path class="d" d="M689.912,655.8a53.422,53.422,0,0,0,30,15.094c.713.113,1.014-.976.3-1.089A52.647,52.647,0,0,1,690.7,654.977c-.526-.451-1.314.338-.789.826Z" transform="translate(-689.738 -654.843)"/></g><g transform="translate(91.897 3.125)"><path class="d" d="M935.958,372.622c4.844,27.447,1.69,55.382-1.464,82.866-.075.713,1.051.713,1.126,0,3.154-27.559,6.308-55.569,1.427-83.166-.113-.713-1.2-.413-1.089.3Z" transform="translate(-934.49 -371.914)"/></g><g transform="translate(29.651 86.49)"><path class="d" d="M831,594.077a253.817,253.817,0,0,1-61.99,38.335c-.676.3-.075,1.276.563.976A255.7,255.7,0,0,0,831.784,594.9c.563-.488-.225-1.277-.789-.826Z" transform="translate(-768.708 -593.943)"/></g><g transform="translate(35.394 24.824)"><path class="d" d="M785.542,433.495a1.635,1.635,0,0,1,1.84-2.7,1.648,1.648,0,1,1-2.1,2.516c-.413-.375-1.014.225-.6.6a2.489,2.489,0,1,0,3.342-3.68,2.6,2.6,0,0,0-3.454.3,2.554,2.554,0,0,0,.375,3.567c.451.338,1.051-.263.6-.6Z" transform="translate(-784.004 -429.704)"/></g><g transform="translate(37.869 34.303)"><path class="d" d="M790.6,455.344q.282,6.421.563,12.841c.038.526.864.563.864,0q-.282-6.421-.563-12.841c-.037-.526-.9-.526-.864,0Z" transform="translate(-790.597 -454.95)"/></g><g transform="translate(37.672 21.207)"><path class="d" d="M790.721,433.749a260.846,260.846,0,0,1,37.209-12.841.429.429,0,0,0-.225-.826A268.307,268.307,0,0,0,790.308,433c-.526.263-.075.976.413.751Z" transform="translate(-790.073 -420.071)"/></g><g transform="translate(38.515 34.266)"><path class="d" d="M792.949,468.236A162.835,162.835,0,0,1,823.662,455.7a.428.428,0,0,0-.225-.826,163.93,163.93,0,0,0-30.9,12.653c-.488.225-.075.939.413.713Z" transform="translate(-792.317 -454.852)"/></g><g transform="translate(69.634 21.471)"><path class="d" d="M880.568,421.047c-1.765,4.28-3.567,8.561-5.332,12.841-.225.488.6.713.826.225,1.765-4.28,3.567-8.561,5.332-12.841.188-.488-.638-.713-.826-.225Z" transform="translate(-875.197 -420.775)"/></g><g transform="translate(71.846 21.283)"><path class="d" d="M886.237,420.547c-1.652,4.13-3.342,8.26-5.106,12.353-.225.488.526.939.714.413,1.765-4.168,3.529-8.335,5.181-12.541.263-.488-.563-.713-.788-.225Z" transform="translate(-881.089 -420.275)"/></g><g transform="translate(71.932 29.397)"><path class="d" d="M881.949,447.147c3.492-1.5,6.946-3,10.438-4.506.488-.225.075-.939-.413-.713-3.492,1.5-6.946,3-10.438,4.506-.488.188-.075.939.413.713Z" transform="translate(-881.317 -441.884)"/></g><g transform="translate(77.425 19.029)"><path class="d" d="M896.455,417.1a35.5,35.5,0,0,1,6.533-1.99c.526-.113.3-.939-.225-.826a32.835,32.835,0,0,0-6.533,1.99c-.488.188-.3,1.014.225.826Z" transform="translate(-895.946 -414.272)"/></g><g transform="translate(82.283 19.492)"><path class="d" d="M910.732,415.8c-.751,3.116-1.352,6.27-1.84,9.462-.075.526.751.751.826.225.488-3.191,1.089-6.345,1.84-9.462.113-.526-.713-.751-.826-.225Z" transform="translate(-908.887 -415.503)"/></g><g transform="translate(59.549 85.178)"><path class="d" d="M875.958,590.5q-13.686,7.772-27.409,15.544c-.488.263-.037,1.014.413.713q13.686-7.772,27.409-15.544c.488-.263.037-.976-.413-.713Z" transform="translate(-848.337 -590.448)"/></g><g transform="translate(59.571 81.95)"><path class="d" d="M849.524,582.244a57.778,57.778,0,0,1-.413,9.161c-.225,3.229-.451,6.458-.713,9.687-.038.526.788.526.864,0,.225-3.229.451-6.458.713-9.687a57.388,57.388,0,0,0,.413-9.161c-.075-.526-.939-.526-.864,0Z" transform="translate(-848.397 -581.85)"/></g><g transform="translate(60.587 69.108)"><path class="d" d="M851.74,560.885a161.409,161.409,0,0,1,27.935-12.391.428.428,0,0,0-.225-.826,163.911,163.911,0,0,0-28.16,12.466c-.451.263,0,1.014.451.751Z" transform="translate(-851.103 -547.65)"/></g><g transform="translate(86.633 69.446)"><path class="d" d="M922.81,548.944a119.753,119.753,0,0,1-2.328,15.507c-.113.526.713.751.826.225a123.307,123.307,0,0,0,2.365-15.732c.037-.526-.789-.526-.864,0Z" transform="translate(-920.472 -548.55)"/></g><g transform="translate(3.881 20.463)"><path class="e" d="M700.61,419.22a114.056,114.056,0,0,1,19.186,3.041.565.565,0,0,0,.3-1.089,114.415,114.415,0,0,0-19.487-3.079c-.713-.075-.713,1.051,0,1.126Z" transform="translate(-700.075 -418.09)"/></g><path class="h" d="M809.484,390.9c-1.84,3.342-4.693,8.711-7.81,15.394-8.41,18.06-29.324,62.966-15.394,76.558,2.553,2.478,8.223,5.82,22.3,2.891q-18.191,10.025-36.383,20.087c1.8-16.783,2.666-31.164,3.116-42.428.3-7.509.676-17.309.451-30.375-.188-10.851-.751-20.163-1.352-27.447,4.168-2.253,8.711-4.506,13.63-6.683A193.053,193.053,0,0,1,809.484,390.9Z" transform="translate(-741.238 -380.646)"/></g><g transform="translate(0 0)"><path class="e" d="M477.484,180.084c-.676.939.188,2.591.6,3.417.751,1.427,2.666,4.355,7.735,6.533-1.877.413-2.628,1.164-2.966,1.8-.676,1.239.15,2.1.15,5.069,0,2.178-.488,2.516-.3,4.318a9.848,9.848,0,0,0,1.051,3.567,27.61,27.61,0,0,0,.451,2.966,7.516,7.516,0,0,0,.451,1.652c.788,1.427,3,2.178,4.919,1.8a5.416,5.416,0,0,0,3.567-2.966,4.178,4.178,0,0,0,2.666,2.065c1.239.225,2.065-.488,4.468-1.051a15.539,15.539,0,0,1,2.816-.451c-.075,1.389-.188,3.454-.3,5.97-.338,8.3-.526,12.653-.15,17.872a85.125,85.125,0,0,0,1.952,12.8,73.413,73.413,0,0,0,5.369,16.22,52.756,52.756,0,0,0,11.452,16.671A43.877,43.877,0,0,0,542.7,290.1a42.729,42.729,0,0,0,19.487-.451c3.079-1.652,6.158-3.267,9.237-4.919a6.615,6.615,0,0,0,1.2-3.717,7.4,7.4,0,0,0-4.168-6.383,52.6,52.6,0,0,1-7.885,1.352,42.522,42.522,0,0,1-16.671-1.5,36.078,36.078,0,0,1-17.722-11.3c-3-3.642-4.318-6.909-6.533-12.5a90.548,90.548,0,0,1-4.769-17.121c-2.29-11.564-3.454-17.384-2.365-23.054.563-2.929,1.615-6.421.9-11.3a15.832,15.832,0,0,0-3.116-7.885,17.311,17.311,0,0,0-4.468-3.717c-1.915-1.2-1.539-.526-4.768-2.215a3.835,3.835,0,0,0-2.065-.6,3.617,3.617,0,0,0-2.215,1.051c-2.365-.676-4.355-1.314-5.82-1.8a45.35,45.35,0,0,1-5.82-2.065c-1.99-1.126-2.7-2.1-4.618-2.365C479.925,179.408,478.16,179.145,477.484,180.084Z" transform="translate(-476.996 -178.838)"/><g transform="translate(34.988 21.9)"><path class="d" d="M570.653,236.617a86.724,86.724,0,0,0,.038,24.743,117.073,117.073,0,0,0,5.895,24.556c2.441,6.646,5.97,12.879,11.489,17.459a38.477,38.477,0,0,0,16.671,7.885,42.9,42.9,0,0,0,21.026-.9c.676-.225.413-1.314-.3-1.089-11.79,3.529-25.307,1.765-35.294-5.632-5.707-4.243-9.537-10.213-12.053-16.783a113.571,113.571,0,0,1-5.745-21.927,89,89,0,0,1-.638-28.047c.113-.676-.976-.976-1.089-.263Z" transform="translate(-569.784 -236.207)"/></g><g transform="translate(24.845 29.51)"><path class="d" d="M543.345,257.01c-1.389,18.511-.789,37.922,7.847,54.781,7.246,14.155,20.012,25.532,36.2,27.484a36.128,36.128,0,0,0,25.156-5.932c.6-.413.038-1.389-.563-.976-13.1,9.274-31.314,7.284-43.892-1.915-13.292-9.762-20.463-25.682-22.941-41.6-1.652-10.513-1.464-21.252-.676-31.84.075-.713-1.051-.713-1.126,0Z" transform="translate(-542.77 -256.475)"/></g><g transform="translate(90.257 94.885)"><path class="d" d="M717.366,431.721a6.352,6.352,0,0,1,2.891,9.612c-.413.6.563,1.164.976.563a7.483,7.483,0,0,0-3.567-11.264c-.676-.263-.976.826-.3,1.089Z" transform="translate(-716.985 -430.592)"/></g><g transform="translate(18.297 5.432)"><path class="d" d="M535.756,204.12c1.314-2.441-2.365-2.178-3.567-2.553a12.332,12.332,0,0,1-4.468-3.116c-1.69-1.8-1.84-5.519,1.69-4.844,7.021,1.389,14.493,7.81,13.4,15.507-.113.713.976,1.014,1.089.3,1.2-8.636-6.758-15.244-14.531-16.971-2.854-.638-4.693,2.065-3.83,4.693a8.208,8.208,0,0,0,3.191,3.68,13.936,13.936,0,0,0,2.553,1.615c.413.15,3.6.788,3.417,1.126-.263.638.714,1.2,1.051.563Z" transform="translate(-525.329 -192.348)"/></g><path class="d" d="M495.335,183.858a56.6,56.6,0,0,1-12.916-4.693c-1.877-.976-5.745-2.741-5.82.976-.038,2.966,2.628,5.97,4.844,7.622,3.342,2.516,7.509,3.454,11.527,4.055.713.113,1.014-.976.3-1.089-5.82-.9-13.442-2.929-15.319-9.424a3.06,3.06,0,0,1-.225-1.164c.713-1.2,1.5-1.464,2.478-.864.676.3,1.277.676,1.952,1.014,1.239.6,2.478,1.2,3.755,1.727a56.124,56.124,0,0,0,9.124,2.929.565.565,0,0,0,.3-1.089Z" transform="translate(-476.599 -177.881)"/><g transform="translate(4.952 10.724)"><path class="d" d="M492.684,206.464c-2.1.6-2.966,3.191-2.891,5.181a7.53,7.53,0,0,0,3.9,5.97c1.953,1.2,4.919,2.14,6.984.6a3.118,3.118,0,0,0,.526-4.656c-.488-.526-1.277.263-.788.788a2.005,2.005,0,0,1-.488,3,4.06,4.06,0,0,1-2.891.375,8.7,8.7,0,0,1-4.018-2.028,5.942,5.942,0,0,1-2.028-3.642c-.225-1.539.225-4.018,1.99-4.543.713-.15.413-1.239-.3-1.051Z" transform="translate(-489.788 -206.442)"/></g><g transform="translate(5.069 17.876)"><path class="d" d="M490.662,225.87a8.084,8.084,0,0,0,2.253,9.124,5.7,5.7,0,0,0,4.393,1.314c1.539-.3,2.44-1.389,3.342-2.591.413-.6-.563-1.164-.976-.563-.976,1.314-2.1,2.328-3.83,1.99a5.42,5.42,0,0,1-3.417-2.365,7.046,7.046,0,0,1-.638-6.571c.225-.713-.864-1.014-1.126-.338Z" transform="translate(-490.098 -225.491)"/></g><g transform="translate(6.008 25.328)"><path class="d" d="M492.6,245.886c.113,3.079,1.314,6.646,4.768,7.322,3.68.713,5.67-3.041,6.608-5.97.225-.676-.863-.976-1.089-.3-.751,2.328-2.29,5.782-5.369,5.106-2.854-.6-3.717-3.642-3.792-6.158a.563.563,0,0,0-1.126,0Z" transform="translate(-492.6 -245.337)"/></g><g transform="translate(15.793 28.623)"><path class="d" d="M518.676,254.822c.375,1.652,2.065,2.253,3.6,2.478,2.44.375,4.243-.864,6.608-1.126.713-.075.713-1.2,0-1.126a27.559,27.559,0,0,0-3.342.9c-1.464.413-5.294.751-5.782-1.427-.15-.713-1.239-.413-1.089.3Z" transform="translate(-518.662 -254.114)"/></g><g transform="translate(25.693 26.409)"><path class="d" d="M545.393,252.265a8.638,8.638,0,0,0,10.25-3.229c.413-.6-.563-1.164-.976-.563a7.5,7.5,0,0,1-8.974,2.7c-.676-.263-.939.826-.3,1.089Z" transform="translate(-545.029 -248.216)"/></g><g transform="translate(66.83 96.162)"><path class="d" d="M656.321,434.971c1.464,1.427,1.126,5.144,1.014,7.021a10.093,10.093,0,0,1-2.591,6.571c-.488.526.3,1.314.788.788a11.305,11.305,0,0,0,2.891-7.359c.15-2.253.451-6.083-1.314-7.847a.571.571,0,0,0-.789.826Z" transform="translate(-654.591 -433.992)"/></g><g transform="translate(79.642 96.994)"><path class="d" d="M688.784,437.069a14.437,14.437,0,0,1,.113,13.554c-.338.638.638,1.2.976.563a15.634,15.634,0,0,0-.113-14.681c-.338-.676-1.314-.075-.976.563Z" transform="translate(-688.714 -436.208)"/></g><g transform="translate(25.677 51.062)"><path class="d" d="M545.366,316.062a13.466,13.466,0,0,0,11.189-1.126.564.564,0,0,0-.563-.976,12.438,12.438,0,0,1-10.325,1.014c-.676-.225-.976.864-.3,1.089Z" transform="translate(-544.985 -313.875)"/></g><g transform="translate(29.104 69.836)"><path class="d" d="M554.521,369.293a12.477,12.477,0,0,0,12.578-4.618c.451-.563-.526-1.126-.976-.563a11.265,11.265,0,0,1-11.3,4.093c-.714-.15-1.014.939-.3,1.089Z" transform="translate(-554.114 -363.879)"/></g><g transform="translate(47.854 85.487)"><path class="d" d="M606.247,406.1a7.013,7.013,0,0,1-2.028,5.519c-.526.526.3,1.314.788.788a8.117,8.117,0,0,0,2.366-6.345c-.038-.676-1.164-.676-1.126.038Z" transform="translate(-604.05 -405.562)"/></g><g transform="translate(26.399 63.029)"><path class="d" d="M547.205,346.782a7.174,7.174,0,0,0,5.144.375.565.565,0,0,0-.3-1.089,6.235,6.235,0,0,1-4.28-.263c-.638-.3-1.239.676-.563.976Z" transform="translate(-546.908 -345.749)"/></g><g transform="translate(25.425 35.733)"><path class="d" d="M544.722,274.983a14.31,14.31,0,0,0,9.424-.9c.676-.3.075-1.277-.563-.976a13.165,13.165,0,0,1-8.561.789.565.565,0,0,0-.3,1.089Z" transform="translate(-544.314 -273.049)"/></g><g transform="translate(35.637 82.079)"><path class="d" d="M571.922,403.925a10.394,10.394,0,0,0,12.353-6.758c.225-.676-.826-.976-1.089-.3a9.243,9.243,0,0,1-10.964,5.97.565.565,0,0,0-.3,1.089Z" transform="translate(-571.514 -396.485)"/></g><g transform="translate(51.684 92.638)"><path class="d" d="M621.554,425.28c1.615,4.768-3.3,9.574-7.021,11.6-.638.338-.075,1.314.563.976,4.168-2.253,9.349-7.622,7.547-12.841-.225-.713-1.314-.413-1.089.263Z" transform="translate(-614.252 -424.607)"/></g><path class="f" d="M495.888,210.75c1.352,1.389-.263,3.717.9,5.219.638.788,2.065,1.389,5.557.713a7.8,7.8,0,0,0,.375,2.516,8.622,8.622,0,0,0,2.854,3.942c2.441,1.8,6.083,1.84,9.349.188.15,2.253.413,5.444.713,9.349,1.765,22.3,2.441,26.32,3.417,30.15a56.362,56.362,0,0,0,6.27,16.333c2.328,3.867,10.138,16.483,26.208,21.514a46.188,46.188,0,0,0,29.437-.9c-.225,1.539-.488,3.116-.713,4.656a39.462,39.462,0,0,1-7.7,3.6,43.78,43.78,0,0,1-16.145,1.8c-15.657-1.427-26.546-13.367-29.249-16.333-9.762-10.738-12.541-22.491-13.817-27.822a96.542,96.542,0,0,1-2.14-20.651,126.428,126.428,0,0,1,.713-16.521,7.9,7.9,0,0,1-4.656.713,8.446,8.446,0,0,1-4.656-2.328,5.187,5.187,0,0,1-2.7,3.041,5.093,5.093,0,0,1-4.13,0c-1.69-.864-2.14-2.741-3.041-6.458a37.184,37.184,0,0,1-.9-6.458c-.451-5.67.15-6.345.526-6.646A2.909,2.909,0,0,1,495.888,210.75Z" transform="translate(-486.012 -197.902)"/><path class="i" d="M565,397.5c1.126,1.314,2.854,3.229,5.031,5.369,3.83,3.792,12.541,12.466,22.265,16.521,13.555,5.632,27.559,1.727,33.9-.526-.225.789-.488,1.539-.713,2.328-1.877,1.014-19.674,10.25-38.561,1.239C571.158,414.959,565.9,400.2,565,397.5Z" transform="translate(-531.808 -315.04)"/></g><g transform="translate(81.852 6.987)"><path class="e" d="M790.308,333.448a36.419,36.419,0,0,0-.563,5.294,42.318,42.318,0,0,0,.451,7.96,40.919,40.919,0,0,0,.939,4.618,20.429,20.429,0,0,0,6.458.676,20.916,20.916,0,0,0,7.96-2.065c-.075-1.014-.15-2.628-.338-4.618-.413-4.468-.751-6.045-.788-8.974a43.685,43.685,0,0,1,.225-5.407,17.2,17.2,0,0,0-8.41-.113A16.044,16.044,0,0,0,790.308,333.448Z" transform="translate(-753.999 -280.09)"/><g transform="translate(35.166 52.537)"><path class="d" d="M788.912,336.822c-1.277,5.932-.451,11.9.488,17.835.113.713,1.2.413,1.089-.3-.9-5.707-1.727-11.527-.488-17.234.15-.713-.939-1.014-1.089-.3Z" transform="translate(-788.257 -336.414)"/></g><g transform="translate(35.592 49.711)"><path class="d" d="M790.371,332.91c1.69-1.5,4.168-2.028,6.308-2.478a19.028,19.028,0,0,1,7.284-.113c.713.15,1.014-.939.3-1.089a19.916,19.916,0,0,0-7.885.113c-2.4.488-4.956,1.089-6.833,2.778-.488.488.3,1.277.826.789Z" transform="translate(-789.392 -328.888)"/></g><g transform="translate(49.856 50.232)"><path class="d" d="M827.576,330.81a79.227,79.227,0,0,0,.939,18.848c.113.713,1.2.413,1.089-.3a76.815,76.815,0,0,1-.9-18.548c.038-.713-1.089-.713-1.126,0Z" transform="translate(-827.381 -330.275)"/></g><g transform="translate(36.341 69.193)"><path class="d" d="M791.579,382.737c1.84,1.464,4.956,1.277,7.209,1.2a16.512,16.512,0,0,0,8-2.1.564.564,0,0,0-.563-.976,14.969,14.969,0,0,1-6.8,1.952c-1.915.113-5.444.375-7.021-.864-.6-.451-1.389.338-.826.788Z" transform="translate(-791.385 -380.775)"/></g><g transform="translate(35.27 55.155)"><path class="d" d="M789.61,348.161c1.389-1.952,3.717-2.591,5.97-3.079,2.516-.563,5.106-1.089,7.434.338a.564.564,0,0,0,.563-.976c-2.591-1.577-5.482-1.089-8.3-.451-2.553.6-5.031,1.389-6.646,3.6-.413.563.563,1.126.976.563Z" transform="translate(-788.534 -343.387)"/></g><g transform="translate(35.589 61.527)"><path class="d" d="M790.366,365.18a16.51,16.51,0,0,1,13.7-3.379c.713.15,1.014-.939.3-1.089a17.706,17.706,0,0,0-14.793,3.68c-.563.451.225,1.239.789.788Z" transform="translate(-789.384 -360.359)"/></g><g transform="translate(41.974 66.036)"><path class="d" d="M807.256,374.219a9.688,9.688,0,0,1,4.017-.751c.976,0,3.154-.113,3.83.676.488.563,1.277-.263.788-.788-.864-1.014-2.816-.9-4.018-.976a11.732,11.732,0,0,0-5.182.9c-.676.263-.113,1.2.563.939Z" transform="translate(-806.388 -372.367)"/></g><path class="d" d="M697.1,246.935a50.212,50.212,0,0,0,14.606,5.519c6.909,1.427,12.278.976,18.323.451a112.1,112.1,0,0,0,21.064-4.13,126.689,126.689,0,0,0,25.344-10.588,93.98,93.98,0,0,0,1.727-12.766,92.686,92.686,0,0,0-.113-13.817,73.546,73.546,0,0,0-7.7-7.359,69.174,69.174,0,0,0-7.96-5.745Q729.728,222.718,697.1,246.935Z" transform="translate(-696.16 -197.745)"/><path class="e" d="M761.719,198.4a65.357,65.357,0,0,1,1.84,27.3,70.947,70.947,0,0,1-2.178,10.7c-1.352.826-3.229,1.915-5.519,3.116a86.293,86.293,0,0,1-16.22,6.458,90.161,90.161,0,0,1-19.937,3,96.338,96.338,0,0,1-23.5-1.952c.676-11.452,1.389-22.866,2.065-34.318,2.14-1.051,5.106-2.441,8.748-3.9a146.115,146.115,0,0,1,28.573-7.96A157.575,157.575,0,0,1,761.719,198.4Z" transform="translate(-695.599 -197.683)"/><g transform="translate(0 14.422)"><path class="d" d="M696.926,235.463c-.788,11.414-1.577,22.866-2.328,34.28-.038.713,1.089.713,1.126,0,.788-11.414,1.577-22.866,2.328-34.28.038-.751-1.089-.751-1.126,0Z" transform="translate(-694.598 -234.9)"/></g><g transform="translate(2.649 0.266)"><path class="d" d="M702.5,212.069a150.4,150.4,0,0,1,61.99-13.742.564.564,0,0,0,0-1.126,151.211,151.211,0,0,0-62.553,13.892c-.638.3-.075,1.277.563.976Z" transform="translate(-701.652 -197.2)"/></g><g transform="translate(0.006 38.217)"><path class="d" d="M695.022,309.661a86.209,86.209,0,0,0,65.632-10.325c.6-.375.038-1.352-.563-.976a85.253,85.253,0,0,1-64.768,10.213.565.565,0,0,0-.3,1.089Z" transform="translate(-694.614 -298.275)"/></g><g transform="translate(64.964 0.196)"><path class="d" d="M867.95,197.722a68.432,68.432,0,0,1-.3,38.185c-.225.713.864.976,1.089.3a69.18,69.18,0,0,0,.3-38.786.565.565,0,0,0-1.089.3Z" transform="translate(-867.619 -197.014)"/></g><g transform="translate(65.676)"><path class="d" d="M869.773,197.545A63.6,63.6,0,0,1,885.2,211.513c.451.563,1.239-.225.788-.788a64.468,64.468,0,0,0-15.657-14.118c-.6-.451-1.164.526-.563.939Z" transform="translate(-869.516 -196.49)"/></g><g transform="translate(79.661 14.154)"><path class="d" d="M908.241,234.718a89.836,89.836,0,0,1-1.464,26.133c-.15.713.939,1.014,1.089.3a90.341,90.341,0,0,0,1.5-26.4c-.075-.751-1.2-.751-1.126-.038Z" transform="translate(-906.762 -234.187)"/></g><g transform="translate(0.106 39.733)"><path class="d" d="M695.263,312.521c3.116,1.277,6.233,2.516,9.349,3.792a27.942,27.942,0,0,0,7.171,1.615,76.925,76.925,0,0,0,17.384.451c9.725-.826,19.337-3.6,28.46-6.946A134.121,134.121,0,0,0,775.5,303.36c.638-.338.075-1.314-.563-.976a142.41,142.41,0,0,1-28.8,11.527,83.239,83.239,0,0,1-32.178,3.116,34.026,34.026,0,0,1-8.035-1.427c-3.492-1.314-6.946-2.816-10.4-4.205-.638-.225-.939.864-.263,1.126Z" transform="translate(-694.879 -302.313)"/></g><g transform="translate(64.849 39.081)"><path class="d" d="M867.722,301.675a49.187,49.187,0,0,0,15.206.563c.713-.075.713-1.2,0-1.126a48.448,48.448,0,0,1-14.906-.526c-.713-.113-1.014.939-.3,1.089Z" transform="translate(-867.314 -300.578)"/></g><g transform="translate(11.713 15.781)"><path class="d" d="M727.9,245.909c-.976-.451-.826-1.84-.864-2.7a8.475,8.475,0,0,1-.038-1.389,3.306,3.306,0,0,1,.3-1.464c.263-.6.676-.676,1.164-.3.864.3.751.526.751,1.352,0,.488-.038.939-.075,1.427s-.038,1.014-.075,1.5c0,.15-.413,2.741-1.126,1.69-.413-.6-1.389-.038-.976.563,1.089,1.615,2.816.338,3.116-1.126a22.4,22.4,0,0,0,.263-4.205,2.752,2.752,0,0,0-.9-2.365c-1.69-1.2-3.342.788-3.529,2.365-.188,1.615-.376,4.844,1.427,5.67.638.263,1.2-.713.563-1.014Z" transform="translate(-725.793 -238.519)"/></g><g transform="translate(12.79 16.481)"><path class="d" d="M729.164,240.766a10.762,10.762,0,0,0,.413,6.946c.225.563,1.126.526,1.089-.15A46.23,46.23,0,0,1,731,241.1h-1.126a21.225,21.225,0,0,1,.188,2.666,6.326,6.326,0,0,1-.038,1.2c-.037.263-.375,1.2-.225.3.113-.713-1.014-.713-1.126,0-.15,1.089.9,2.741,2.065,1.615.451-.451.413-1.314.451-1.915a22.079,22.079,0,0,0-.15-3.867.564.564,0,0,0-1.126,0,37.041,37.041,0,0,0-.338,6.458c.375-.038.751-.113,1.089-.15a9.934,9.934,0,0,1-.413-6.345.566.566,0,0,0-1.089-.3Z" transform="translate(-728.662 -240.385)"/></g><g transform="translate(12.596 17.42)"><path class="d" d="M728.428,243.266a4.475,4.475,0,0,0-.225,2.328.537.537,0,0,0,.676.375.512.512,0,0,0,.375-.676,3.861,3.861,0,0,1,.225-1.727c.3-.676-.788-.976-1.051-.3Z" transform="translate(-728.145 -242.885)"/></g><g transform="translate(42.835 10.069)"><path class="d" d="M810.828,230.7c-.976-.451-.826-1.84-.864-2.7a7.691,7.691,0,0,1-.038-1.314,2.431,2.431,0,0,1,.075-.751c.037-.864.751-1.126,2.065-.751.376.563.038,2.14,0,2.741-.038.413-.038.826-.075,1.239,0,.15-.413,2.741-1.126,1.69-.413-.6-1.389-.038-.976.563,1.089,1.615,2.816.338,3.116-1.126a24.078,24.078,0,0,0,.263-4.018,3.11,3.11,0,0,0-.788-2.478c-1.615-1.389-3.379.488-3.642,2.065-.263,1.615-.413,4.994,1.389,5.857.713.263,1.277-.676.6-1.014Z" transform="translate(-808.681 -223.307)"/></g><g transform="translate(43.991 10.785)"><path class="d" d="M812.264,225.622a10.762,10.762,0,0,0,.413,6.946c.225.563,1.126.526,1.089-.15a46.24,46.24,0,0,1,.338-6.458h-1.126a21.2,21.2,0,0,1,.188,2.666,6.326,6.326,0,0,1-.038,1.2c-.038.263-.375,1.2-.225.3.113-.713-1.014-.713-1.126,0-.15,1.089.9,2.741,2.065,1.614.451-.451.413-1.314.451-1.915a22.073,22.073,0,0,0-.15-3.867.564.564,0,0,0-1.126,0,37.072,37.072,0,0,0-.338,6.458c.376-.038.751-.113,1.089-.15a9.934,9.934,0,0,1-.413-6.345.565.565,0,0,0-1.089-.3Z" transform="translate(-811.762 -225.214)"/></g><g transform="translate(43.797 11.729)"><path class="d" d="M811.528,228.093a4.476,4.476,0,0,0-.225,2.328.537.537,0,0,0,.676.375.512.512,0,0,0,.375-.676,3.857,3.857,0,0,1,.225-1.727c.3-.676-.789-.939-1.051-.3Z" transform="translate(-811.245 -227.729)"/></g><g transform="translate(22.507 26.352)"><path class="d" d="M754.939,269.425c3.3.451,7.7.038,10.626-1.69a.564.564,0,0,0-.563-.976,16.822,16.822,0,0,1-9.762,1.577c-.676-.075-1.014,1.014-.3,1.089Z" transform="translate(-754.542 -266.675)"/></g><g transform="translate(22.322 26.817)"><path class="d" d="M754.106,270.274c1.014,2.253,3.492,5.407,6.346,5.031,2.816-.338,4.505-4.318,5.106-6.683a.565.565,0,0,0-1.089-.3c-.413,1.69-1.615,4.844-3.417,5.594-2.628,1.089-5.031-2.215-5.932-4.243-.338-.6-1.314-.038-1.014.6Z" transform="translate(-754.049 -267.914)"/></g><g transform="translate(23.01 27.353)"><path class="d" d="M756.188,271.616a10.105,10.105,0,0,0,9.65-1.314l-.788-.788a7.76,7.76,0,0,1-5.069,1.8c-1.014,0-1.84-.526-2.666.15a.628.628,0,0,0-.15.563c.188,1.014,1.577,1.5,2.44,1.652a6.55,6.55,0,0,0,4.881-1.615l-.676-.9c-1.277,1.464-4.543,2.253-5.933.488-.413-.526-1.164.15-.9.676.788,1.427,1.99,2.854,3.792,2.741,1.877-.075,3.041-1.69,3.98-3.116.375-.563-.413-1.051-.9-.676a7.011,7.011,0,0,1-2.4,1.126c-.6.225-1.051.113-.826.864a1.314,1.314,0,0,0,1.352.788c1.614-.075,3.267-2.4,3.98-3.642.3-.526-.451-1.164-.9-.676-1.427,1.539-2.253,4.018-4.543,4.355-.713.113-.413,1.2.3,1.089,2.591-.413,3.454-2.966,5.031-4.656l-.9-.676c-.526.864-1.427,2.29-2.441,2.7-.788.3-.676.113-1.277-.526a2.077,2.077,0,0,0-.451-.526,1.04,1.04,0,0,0-1.577.638.541.541,0,0,0,.15.563c1.615,1.765,3.717.563,5.257-.6l-.9-.676c-.751,1.126-1.427,2.215-2.854,2.4-1.464.225-2.29-.864-2.929-2.065l-.9.676c1.765,2.215,5.82,1.427,7.509-.488.413-.451-.15-1.277-.676-.9-1.2.9-2.666,1.765-4.205,1.427a2.415,2.415,0,0,1-1.427-.676.711.711,0,0,0,.6.526,3.882,3.882,0,0,0,1.615.075,9.3,9.3,0,0,0,5.332-2.14c.563-.451-.225-1.239-.788-.788-1.952,1.539-5.932,2.253-8.3,1.126-.6-.263-1.164.713-.488,1.014Z" transform="translate(-755.881 -269.342)"/></g><g transform="translate(26.502 29.261)"><path class="d" d="M766.014,277.492a16.081,16.081,0,0,0,2.4-2.1l-.9-.676a19.884,19.884,0,0,0-1.089,1.952.923.923,0,0,0,.15,1.014.906.906,0,0,0,1.014.113,11.471,11.471,0,0,0,1.765-1.239l-.788-.788c-.225.563-.976,1.652-.338,2.178.713.6,1.352-.451,1.727-.9.451-.563-.338-1.352-.788-.788-.15.15-.451.713-.676.751.188.038.375.113.563.15-.038-.038-.075-.075-.075-.113.038.15.113.263.15.413a3.832,3.832,0,0,1,.413-1.089c.188-.451-.263-1.126-.788-.788-.225.15-1.464,1.239-1.652,1.164.113.075.225.188.338.263-.037-.038-.037-.113-.075-.15.038.15.038.3.075.451a7.457,7.457,0,0,1,1.051-2.027.57.57,0,0,0-.9-.676,15.013,15.013,0,0,1-2.178,1.915c-.563.413,0,1.389.6.976Z" transform="translate(-765.181 -274.421)"/></g><g transform="translate(3.567 16.365)"><path class="d" d="M705.938,240.61q-1.3,15.15-1.84,30.375c-.038.713,1.089.713,1.126,0q.563-15.206,1.84-30.375c.075-.713-1.051-.713-1.126,0Z" transform="translate(-704.098 -240.075)"/></g><g transform="translate(61.669 4.316)"><path class="d" d="M860.328,208.667c2.854,10.663,1.051,21.665-1.464,32.178a.565.565,0,0,0,1.089.3c2.591-10.7,4.393-21.927,1.464-32.778a.566.566,0,0,0-1.089.3Z" transform="translate(-858.842 -207.985)"/></g><g transform="translate(66.464 38.105)"><path class="e" d="M872.022,299.075c3.3.6,6.646,1.2,9.95,1.8.713.113,1.014-.939.3-1.089-3.3-.6-6.646-1.2-9.95-1.8-.713-.113-1.014.976-.3,1.089Z" transform="translate(-871.614 -297.978)"/></g><path class="j" d="M838.6,236.747a8,8,0,0,0-.864,2.028,9.15,9.15,0,0,0-.188,3.229,30.167,30.167,0,0,1-17.046,8.861,26.946,26.946,0,0,1-9.011-.188c-.263.976-.451,2.215.188,2.741.413.375,1.014.225,2.028.188a16.235,16.235,0,0,1,3.417.338c2.328.263,8.486-.826,15.169-4.581a41.459,41.459,0,0,0,6.984-4.956,4.819,4.819,0,0,0,3.567,1.877c2.816-.038,4.13-3.116,4.243-3.417a5.62,5.62,0,0,0-.676-5.632,5.279,5.279,0,0,0-3.567-1.877A5.7,5.7,0,0,0,838.6,236.747Z" transform="translate(-767.451 -220.749)"/><g transform="translate(72.369 16.617)"><path d="M888.151,240.879c-1.727,2.7-.676,6.646,2.966,6.571a.282.282,0,0,0,0-.563c-3.229.075-3.943-3.454-2.478-5.745.225-.3-.263-.563-.488-.263Z" transform="translate(-887.34 -240.747)"/></g><g transform="translate(74.542 17.285)"><path d="M894.319,245.633a1.588,1.588,0,0,1-.6-1.615c.15-.563.864-1.126,1.464-.826a1.532,1.532,0,0,1,.563,1.915.962.962,0,0,1-1.615.263c-.225-.3-.713,0-.488.3a1.547,1.547,0,0,0,2.29.15,2.138,2.138,0,0,0-.075-2.891,1.587,1.587,0,0,0-2.4.375,2.013,2.013,0,0,0,.488,2.7c.263.225.638-.15.375-.375Z" transform="translate(-893.128 -242.526)"/></g><g transform="translate(51.908 29.908)"><path d="M832.9,276.542a2.486,2.486,0,0,1,.338,2.628c-.15.338.338.6.488.3a3.071,3.071,0,0,0-.338-3.191c-.225-.3-.713-.038-.488.263Z" transform="translate(-832.846 -276.147)"/></g><g transform="translate(45.541 29.959)"><path d="M815.93,276.7a2.229,2.229,0,0,1,.038,2.065c-.15.338.338.6.488.3a2.942,2.942,0,0,0-.038-2.628.277.277,0,1,0-.488.263Z" transform="translate(-815.888 -276.281)"/></g><g transform="translate(47.166 30.311)"><path d="M820.285,277.7a1.2,1.2,0,0,1,.075,1.577c-.225.263.188.676.413.413a1.777,1.777,0,0,0-.075-2.365c-.263-.3-.638.113-.413.375Z" transform="translate(-820.216 -277.22)"/></g><g transform="translate(48.967 30.299)"><path d="M825.121,277.718a1.2,1.2,0,0,1,.037,1.877c-.263.225.113.638.413.413a1.792,1.792,0,0,0-.15-2.778c-.3-.188-.563.3-.3.488Z" transform="translate(-825.013 -277.188)"/></g><g transform="translate(56.77 2.812)"><path d="M847.112,206.69c-.788-.3-.526-1.277,0-1.652a1.036,1.036,0,0,1,1.539.3,1.112,1.112,0,0,1-1.84,1.239c-.338-.413-.939.188-.6.6a2.1,2.1,0,0,0,2.891.188,2.017,2.017,0,0,0,0-2.854,1.96,1.96,0,0,0-2.853.188,1.754,1.754,0,0,0,.638,2.816c.526.15.714-.638.225-.826Z" transform="translate(-845.797 -203.979)"/></g><path class="k" d="M807.022,198.8a148.287,148.287,0,0,0,1.615,15.094c.563,3.6,1.239,7.059,1.99,10.25q-1.239.788-2.591,1.577a54.158,54.158,0,0,1-12.578,5.181,33.55,33.55,0,0,0,7.322-.563,32.86,32.86,0,0,0,8.223-2.7,76.037,76.037,0,0,1-31.8,20.914c4.093,1.427,8.185,2.854,12.24,4.28.3,5.557.6,11.114.9,16.708,2.065-.526,4.13-1.051,6.233-1.615-.3-3.492-.563-7.1-.713-10.851-.075-2.1-.15-4.168-.188-6.233,3.567-.976,6.5-1.915,8.711-2.666A134.01,134.01,0,0,0,822,241.791c2.7-1.314,4.881-2.516,6.383-3.379.413-2.591.789-5.294,1.051-8.185a116.766,116.766,0,0,0,.338-18.285,57.091,57.091,0,0,0-6.909-7.1,56.171,56.171,0,0,0-8.523-6.045Z" transform="translate(-747.434 -197.933)"/></g></g><g transform="translate(46.858 28.354)"><path class="l" d="M483.5,577.5c.3,13.855.563,27.709.864,41.564a344.007,344.007,0,0,0,125.519,11.264c.563-14.155,1.164-28.273,1.727-42.428q-25.907-1.014-53.241-3.041Q519.451,581.931,483.5,577.5Z" transform="translate(-425.603 -419.466)"/><g class="m" transform="translate(62.183 163.54)"><path class="b" d="M495.322,593.265a350.189,350.189,0,0,0,64.055,7.847c.713.038.713-1.089,0-1.126a346.925,346.925,0,0,1-63.754-7.81c-.713-.15-1.014.939-.3,1.089Z" transform="translate(-494.914 -592.162)"/></g><g class="m" transform="translate(63.121 171.221)"><path class="b" d="M497.822,613.738a155.219,155.219,0,0,0,29.549,5.782c.713.075.713-1.051,0-1.126a155.046,155.046,0,0,1-29.249-5.745.565.565,0,0,0-.3,1.089Z" transform="translate(-497.414 -612.619)"/></g><g class="m" transform="translate(92.22 201.018)"><path class="b" d="M575.322,693.075c26.358,4.017,53.129,8,79.825,4.956.713-.075.713-1.2,0-1.126-26.621,3.041-53.241-.9-79.524-4.919-.713-.113-1.014.976-.3,1.089Z" transform="translate(-574.914 -691.978)"/></g><g class="m" transform="translate(133.259 199.14)"><path class="b" d="M684.622,688.075a149.554,149.554,0,0,0,40.926,1.727c.713-.075.713-1.2,0-1.126a150.337,150.337,0,0,1-40.626-1.69c-.713-.113-1.014.939-.3,1.089Z" transform="translate(-684.214 -686.978)"/></g><g class="m" transform="translate(159.738 172.254)"><path class="b" d="M755.736,616.659a40.707,40.707,0,0,1-.976,15.206.57.57,0,0,0,.526.713c3.229.263,6.42.526,9.649.788,1.389.113,4.506,1.089,5.369-.451a8.091,8.091,0,0,0,.413-3c.075-1.352.112-2.7.188-4.055a33.941,33.941,0,0,1,1.389-9.086.557.557,0,0,0-.526-.713,58.823,58.823,0,0,1-14.531-.676.559.559,0,0,0-.676.676,1.35,1.35,0,0,0,.338.826c.413.6,1.389.038.976-.563l-.225-.563-.676.676a59.435,59.435,0,0,0,14.831.713,8.681,8.681,0,0,1-.526-.713c-1.5,4.468-1.352,9.124-1.652,13.742a7.53,7.53,0,0,1-.188,1.915c-.413.563-1.352.338-1.877.3-1.352-.113-2.7-.225-4.093-.338-2.7-.225-5.444-.451-8.148-.676a8.647,8.647,0,0,1,.526.713,40.711,40.711,0,0,0,1.014-15.507c-.075-.638-1.2-.638-1.126.075Z" transform="translate(-754.736 -615.372)"/></g><path class="n" d="M329.3,158.139q.507,27.935,1.014,55.907,38.748,4.9,77.459,9.762,1.014-33.623,2.065-67.209Q369.569,157.388,329.3,158.139Z" transform="translate(-329.3 -156.6)"/><g transform="translate(4.699 4.457)"><path class="c" d="M404.551,225.176a10.487,10.487,0,0,0,1.352-2.666c.075-.6-.488-1.2-.788-1.69-1.239-2.065-2.478-4.168-3.68-6.233-.6-1.014-1.352-2.065-1.84-3.116-.6-1.277-.038-1.69.6-2.778a37.135,37.135,0,0,0,2.591-5.369c2.553-6.758,2.966-14.531-.075-21.214-4.956-10.926-16.934-13.4-27.785-13.63-11.227-.263-22.566,3.942-29.249,13.329-7.735,10.851-3.116,26.057,7.359,33.266,10.926,7.547,26.208,7.209,37.622,1.089.638-.338.075-1.314-.563-.976a36.933,36.933,0,0,1-29.887,2.253c-10.213-3.6-18.06-13.7-17.309-24.856.864-12.541,13.179-20.613,24.556-22.491a48.16,48.16,0,0,1,10.4-.375,37.653,37.653,0,0,1,13.93,2.966,20.442,20.442,0,0,1,11.564,15.056c1.464,7.885-1.014,15.995-5.407,22.491a.512.512,0,0,0,0,.563L402,217.667c.6,1.051,1.239,2.065,1.84,3.116.375.638.864,1.164.788,1.952-.038.563-.713,1.389-.976,1.915a.523.523,0,1,0,.9.526Z" transform="translate(-341.816 -168.469)"/></g><g transform="translate(52.973 51.736)"><path class="c" d="M470.578,295.333a50.794,50.794,0,0,0,13.667,8.11c.676.263.976-.826.3-1.089a50.283,50.283,0,0,1-13.179-7.81c-.563-.488-1.352.3-.788.788Z" transform="translate(-470.384 -294.391)"/></g><ellipse class="o" cx="2.703" cy="3.942" rx="2.703" ry="3.942" transform="translate(16.934 25.795)"/><ellipse class="o" cx="2.703" cy="3.942" rx="2.703" ry="3.942" transform="translate(32.403 25.307)"/><ellipse class="o" cx="2.703" cy="3.942" rx="2.703" ry="3.942" transform="translate(47.459 24.856)"/></g></svg>