<svg xmlns="http://www.w3.org/2000/svg" width="590.984" height="432.828" viewBox="0 0 590.984 432.828"><defs><style>.a{fill:#e8e8e8;}.b,.k{fill:#fff;}.b,.f{stroke:#161616;stroke-miterlimit:10;stroke-width:3px;}.c,.f{fill:#161616;}.d{fill:#5222d0;}.e{fill:#ec615b;}.g,.h,.i,.j,.l,.m,.n,.o,.p,.q{fill:#3d3d3d;}.g{opacity:0.11;}.h{opacity:0.13;}.i{opacity:0.15;}.l{opacity:0.09;}.m{opacity:0.17;}.n{opacity:0.1;}.o{opacity:0.16;}.p{opacity:0.29;}.q{opacity:0.12;}</style></defs><g transform="translate(-136.297 -42.791)"><g transform="translate(136.297 274.614)"><g transform="translate(516.844 71.983)"><path class="a" d="M1340.883,834.981a51.483,51.483,0,0,1-1.68-32.87c-.3.129-.646.258-.948.388.776.517,1.508,1.077,2.283,1.594a.656.656,0,0,0,.948-.388,109.843,109.843,0,0,1,24.125-54.582,10.085,10.085,0,0,1-1.077-.3c7.065,29.6-1.68,59.967-12.364,87.539-.3.776.948,1.12,1.249.345,10.77-27.83,19.472-58.373,12.364-88.228a.669.669,0,0,0-1.077-.3,111.733,111.733,0,0,0-24.426,55.186c.3-.129.646-.259.948-.388-.775-.517-1.508-1.077-2.283-1.594a.633.633,0,0,0-.948.388,52.693,52.693,0,0,0,1.68,33.559c.258.775,1.508.431,1.206-.345Z" transform="translate(-1336.026 -748.003)"/></g><g transform="translate(540.243 64.775)"><path class="a" d="M1398.681,769.065a105.352,105.352,0,0,1,10.124-18.783,6.862,6.862,0,0,1-.9.215c.517.388,1.077.775,1.594,1.12a.679.679,0,0,0,.9-.215,113.275,113.275,0,0,1,13.182-19l-1.034-.129c6.634,11.416,1.594,25.5-2.456,36.92a196.937,196.937,0,0,1-16.672,36.058,157.673,157.673,0,0,1-12.924,18.481c-.517.646.388,1.551.9.9a166.841,166.841,0,0,0,21.669-34.895c2.886-6.161,5.428-12.45,7.754-18.826,2.283-6.333,4.523-12.795,5.557-19.472,1.077-6.807.732-13.786-2.757-19.86a.677.677,0,0,0-1.034-.129,121.151,121.151,0,0,0-13.4,19.257,6.893,6.893,0,0,1,.9-.215c-.517-.388-1.077-.775-1.594-1.12a.689.689,0,0,0-.9.216,108.365,108.365,0,0,0-10.253,19.084c-.215.818,1.034,1.163,1.335.388Z" transform="translate(-1390.342 -731.272)"/></g><g transform="translate(526.215 73.064)"><path class="a" d="M1376.226,750.982c-5.687,26.322-14.346,51.955-18.438,78.578-.129.818,1.12,1.163,1.249.345,4.093-26.667,12.752-52.3,18.438-78.578.172-.819-1.077-1.163-1.249-.345Z" transform="translate(-1357.778 -750.514)"/></g><g transform="translate(542.083 65.612)"><path class="a" d="M1425.324,733.682c-4.437,27.054-17.62,51.395-30.63,75.132-.388.732.732,1.379,1.12.646,13.053-23.866,26.279-48.293,30.759-75.433.129-.819-1.12-1.163-1.249-.345Z" transform="translate(-1394.614 -733.214)"/></g><g transform="translate(526.885 104.255)"><path class="a" d="M1359.449,823.857a39.785,39.785,0,0,1,5.945,15.595c.129.819,1.378.474,1.249-.345a40.013,40.013,0,0,0-6.074-15.9c-.474-.689-1.594-.043-1.12.646Z" transform="translate(-1359.334 -822.916)"/></g><g transform="translate(534.812 92.021)"><path class="a" d="M1378.969,815.532c4.351-6.677,8.7-13.4,13.053-20.075.474-.689-.646-1.336-1.12-.646-4.351,6.677-8.7,13.4-13.053,20.075-.474.689.646,1.336,1.12.646Z" transform="translate(-1377.734 -794.516)"/></g><g transform="translate(553.337 89.687)"><path class="a" d="M1420.764,789.746a153.831,153.831,0,0,0,1.853,26.71c.129.818,1.379.474,1.249-.345a150.188,150.188,0,0,1-1.809-26.365c.043-.862-1.249-.862-1.292,0Z" transform="translate(-1420.737 -789.1)"/></g><g transform="translate(564.754 83.649)"><path class="a" d="M1448.342,787.369c3.533-3.576,6.979-7.324,10.253-11.158.517-.646-.388-1.551-.9-.9-3.274,3.834-6.677,7.539-10.253,11.158a.64.64,0,0,0,.9.9Z" transform="translate(-1447.238 -775.084)"/></g><g transform="translate(29.985 47.199)"><path class="a" d="M230.757,779.876a45.132,45.132,0,0,1-18.094-28.131c-.129.258-.3.517-.431.775a2.657,2.657,0,0,1,2.757.732c.56.56,1.292-.129,1.034-.776a102.17,102.17,0,0,1-8.788-41.055,7.364,7.364,0,0,1-.474.6c.431.215.9.474,1.336.689a.653.653,0,0,0,1.206-.345l-.9-11.244c-.258-3.317-.646-6.807,1.508-9.607a6.885,6.885,0,0,1-.9.215c3.016,2.154,4.782,5.643,6.548,8.788,1.723,3.1,3.36,6.29,4.911,9.478a162.827,162.827,0,0,1,8.271,20.765,172.612,172.612,0,0,1,8.142,42.822c.043.819,1.335.819,1.292,0a175.35,175.35,0,0,0-8.659-44.631,168.558,168.558,0,0,0-8.444-20.635c-1.68-3.446-3.446-6.807-5.342-10.124-1.637-2.886-3.317-5.643-6.074-7.625a.689.689,0,0,0-.9.215c-1.939,2.542-1.982,5.73-1.809,8.831.3,4.222.689,8.444,1.034,12.709.388-.129.819-.215,1.206-.345a2.49,2.49,0,0,0-2.8-1.292.646.646,0,0,0-.474.6,104.51,104.51,0,0,0,8.961,41.7l1.034-.775a3.806,3.806,0,0,0-4.006-1.077.617.617,0,0,0-.431.776,46.567,46.567,0,0,0,18.654,28.907c.689.646,1.336-.474.646-.948Z" transform="translate(-205.9 -690.474)"/></g><g transform="translate(48.615 32.069)"><path class="a" d="M251.495,700.952a71.338,71.338,0,0,1-.819-7.367c-.129-2.283-.775-5.687.948-7.5a4.355,4.355,0,0,0,1.68-2.973c.3-2.412.3-4.868.56-7.281a145.563,145.563,0,0,1,2.283-14.949,12.469,12.469,0,0,1,.689-3.1c1.034-1.68,2.628.086,3.446.9a21.767,21.767,0,0,1,3.619,5c4.136,7.582,5.256,16.93,6.376,25.374a178.137,178.137,0,0,1,1.508,28.347c-.259,10.77-1.723,21.5-5.428,31.664-.3.775.948,1.12,1.249.345,7.194-19.86,6.548-42.391,3.576-62.983-1.249-8.745-2.585-18.7-7.884-26.107-1.163-1.594-4.7-6.677-6.979-4.394-1.206,1.163-1.292,3.877-1.594,5.385-.56,2.843-1.077,5.687-1.465,8.573-.388,2.8-.689,5.6-.948,8.4a33.938,33.938,0,0,1-.345,4.7c-.345,1.422-1.379,1.852-2.068,2.973-1.12,1.723-.689,4.437-.6,6.376a78.28,78.28,0,0,0,.948,8.918c.129.862,1.379.517,1.249-.3Z" transform="translate(-249.144 -655.353)"/></g><g transform="translate(56.153 32.815)"><path class="a" d="M266.667,657.867a227.033,227.033,0,0,1,5.73,82.412c-.086.819,1.206.819,1.292,0a228.861,228.861,0,0,0-5.773-82.757.65.65,0,0,0-1.249.345Z" transform="translate(-266.642 -657.085)"/></g><g transform="translate(32.123 47.42)"><path class="a" d="M210.921,691.767a495.108,495.108,0,0,1,23.651,79.827c.172.818,1.422.474,1.249-.345a490.785,490.785,0,0,0-23.651-79.827c-.345-.775-1.594-.431-1.249.345Z" transform="translate(-210.862 -690.985)"/></g><g transform="translate(31.929 86.594)"><path class="a" d="M210.882,783.16a27.2,27.2,0,0,1,16.5,13.053c.388.732,1.508.086,1.12-.646a28.735,28.735,0,0,0-17.275-13.613.627.627,0,1,0-.345,1.206Z" transform="translate(-210.414 -781.919)"/></g><g transform="translate(46.002 70.506)"><path class="a" d="M243.778,745.189a103.8,103.8,0,0,0-.388,20.032c.043.819,1.335.819,1.292,0a103.8,103.8,0,0,1,.388-20.032c.086-.819-1.206-.819-1.292,0Z" transform="translate(-243.08 -744.575)"/></g><g transform="translate(51.152 61.563)"><path class="a" d="M255.149,724.757a65.37,65.37,0,0,1,12.019,25.8c.172.819,1.422.474,1.249-.345a66.263,66.263,0,0,0-12.149-26.107c-.474-.689-1.594-.043-1.12.646Z" transform="translate(-255.034 -723.816)"/></g><g transform="translate(61.769 46.654)"><path class="a" d="M284.168,689.549a63.045,63.045,0,0,0-4.48,15.552c-.129.819,1.12,1.163,1.249.345a61.063,61.063,0,0,1,4.351-15.25c.345-.732-.775-1.422-1.12-.646Z" transform="translate(-279.678 -689.208)"/></g><g transform="translate(8.913 162.198)"><path class="a" d="M157.767,962.621c23.349-8.228,48.25-1.68,71.685,2.5a620.929,620.929,0,0,0,75.649,8.7q21.519,1.163,43.08.775a.647.647,0,0,0,0-1.292,622.467,622.467,0,0,1-77.587-3.576q-19.645-2.132-39.117-5.557c-11.589-2.025-23.134-4.523-34.809-5.9-13.139-1.508-26.623-1.336-39.246,3.1-.775.3-.431,1.551.345,1.249Z" transform="translate(-156.985 -957.415)"/></g><g transform="translate(144.543 162.664)"><path class="a" d="M472.285,962.161c38.643,9.478,78.664,6.979,117.867,3.36,20.161-1.852,40.28-4.05,60.484-5.127a398.276,398.276,0,0,1,60.4,1.249c23.392,2.326,46.526,6.591,69.531,11.416.819.172,1.163-1.077.345-1.249-39.978-8.4-80.344-14.561-121.27-13.1-40.064,1.422-79.784,8.013-119.892,8.745-22.531.431-45.148-1.163-67.076-6.548a.654.654,0,0,0-.388,1.249Z" transform="translate(-471.82 -958.498)"/></g><g transform="translate(313.017 186.593)"><path class="a" d="M863.714,1021.132c31.707-6.548,63.974-.345,95.551,3.834,31.405,4.136,63.026,4.825,94.475.818a353.413,353.413,0,0,0,51.438-10.468.648.648,0,0,0-.345-1.249,351.688,351.688,0,0,1-93.957,13.226,366.131,366.131,0,0,1-47.086-3.016c-15.983-2.025-31.879-4.653-47.905-6.16-17.534-1.637-35.24-1.809-52.558,1.809-.775.129-.431,1.379.388,1.206Z" transform="translate(-862.891 -1014.042)"/></g><g transform="translate(455.609 148.762)"><path class="a" d="M1194.323,938.149c16.112,5.988,33.43,2.456,49.585-1.422,17.878-4.265,35.67-7.8,54.065-8.831a260.242,260.242,0,0,1,30.673.172c.819.043.819-1.249,0-1.292a255.187,255.187,0,0,0-53.161,2.068c-8.788,1.292-17.49,3.1-26.107,5.213-8.573,2.068-17.189,4.265-25.977,5.342-9.693,1.206-19.515.9-28.734-2.542-.775-.215-1.12,1.034-.344,1.292Z" transform="translate(-1193.885 -926.229)"/></g><g transform="translate(436.857 22.273)"><path class="a" d="M1156.492,633.082c-1.249,3.877-2.542,7.711-3.791,11.589a5.036,5.036,0,0,0-.3,2.973c.431,1.379,1.9,2.2,1.939,3.748a9.943,9.943,0,0,1,.818-.6c-5.083-1.508-4.911,6.591-4.739,9.435a32.726,32.726,0,0,0,5.126,15.81c.431.689,1.551.043,1.12-.646a31.722,31.722,0,0,1-4.437-10.985c-.431-2.111-1.939-13.742,2.585-12.407a.654.654,0,0,0,.818-.6,4,4,0,0,0-.991-2.542c-1.12-1.594-1.034-2.757-.431-4.61,1.163-3.619,2.37-7.194,3.533-10.813a.648.648,0,0,0-1.249-.345Z" transform="translate(-1150.355 -632.614)"/></g><g transform="translate(443.226 21.79)"><path class="a" d="M1165.338,632.616c4.868,4.954,6.074,13.01,6.462,19.644a55.486,55.486,0,0,1-2.886,21.066c-.258.775.991,1.12,1.249.345a56.168,56.168,0,0,0,2.843-22.962c-.56-6.591-1.939-14.13-6.72-19.041-.646-.56-1.551.345-.948.948Z" transform="translate(-1165.139 -631.492)"/></g><g transform="translate(449.913)"><path class="a" d="M1181.885,623a84.19,84.19,0,0,1,4.351-16.844c-.3.129-.646.258-.948.388.9.6,1.809,1.249,2.714,1.852a.661.661,0,0,0,.991-.56c.388-9.607,7.884-16.974,9.908-26.107h-1.25a87.014,87.014,0,0,1-12.105,60.226c-.431.689.689,1.335,1.12.646a88.551,88.551,0,0,0,12.235-61.217c-.086-.646-1.12-.6-1.25,0-2.068,9.305-9.564,16.672-9.951,26.451.345-.172.646-.388.991-.56-.9-.6-1.81-1.249-2.714-1.853a.656.656,0,0,0-.948.388,84.173,84.173,0,0,0-4.351,16.844c-.172.818,1.077,1.163,1.206.345Z" transform="translate(-1180.662 -580.912)"/></g><g transform="translate(453.998 2.854)"><path class="a" d="M1202.92,588.167a129.031,129.031,0,0,1-12.709,45.708c-.345.732.732,1.379,1.12.646a131.1,131.1,0,0,0,12.881-46.354c.043-.862-1.249-.819-1.292,0Z" transform="translate(-1190.144 -587.537)"/></g><g transform="translate(442.817 23.135)"><path class="a" d="M1164.194,635.426c1.766,12.838,3.446,25.934.732,38.729-.172.819,1.077,1.163,1.249.345,2.8-13.053,1.077-26.365-.732-39.418-.086-.818-1.335-.474-1.249.345Z" transform="translate(-1164.19 -634.614)"/></g><g transform="translate(379.606 65.561)"><path class="a" d="M1018.082,734.649a62.314,62.314,0,0,1,19.774,1.551c5.471,1.335,10.9,4.093,16.629,3.231,5.9-.9,10.856-4.825,16.931-5.04,5.859-.215,11.631,1.809,17.4.129a.648.648,0,0,0-.345-1.249c-6.031,1.723-12.105-.646-18.18-.086-5.514.517-10.124,3.834-15.466,4.911-6.16,1.206-12.278-2.154-18.223-3.446a62.586,62.586,0,0,0-18.567-1.206c-.776-.043-.776,1.249.043,1.206Z" transform="translate(-1017.462 -733.096)"/></g><g transform="translate(0 126.41)"><path class="a" d="M136.514,875.444c11.89,11.115,29.122-.9,42.778,3.533.775.258,1.12-.991.345-1.249-7.281-2.369-14.733-.517-22.057.6-6.85,1.034-14.733,1.206-20.161-3.834-.6-.517-1.551.388-.9.948Z" transform="translate(-136.297 -874.343)"/></g></g><g transform="translate(203.546 268.152)"><path class="b" d="M737.977,818.059C667.8,822.5,593.7,825.21,515.985,825.6c-78.276.388-152.934-1.637-223.585-5.385q10.4-18.287,20.937-36.446c5.643-9.779,11.373-19.515,17.1-29.208,60.743,3.446,126.4,4.825,196.316,3.1,65.869-1.637,127.819-5.859,185.33-11.761A141.544,141.544,0,0,1,728.5,776.142,143.381,143.381,0,0,1,737.977,818.059Z" transform="translate(-292.4 -668.362)"/><g transform="translate(31.912 141.766)"><path class="c" d="M367.089,896.287a501.771,501.771,0,0,0,73.753,2.456c.819-.043.819-1.336,0-1.292a502.185,502.185,0,0,1-73.753-2.456c-.818-.086-.818,1.206,0,1.292Z" transform="translate(-366.475 -894.99)"/></g><g transform="translate(75.465 135.566)"><path class="c" d="M468.189,881.891c11.933.474,23.909.172,35.843.172,12.106-.043,24.168-.043,36.273-.086a.647.647,0,0,0,0-1.292c-12.105.043-24.168.043-36.273.086-11.933.043-23.909.3-35.843-.172-.818-.043-.818,1.249,0,1.292Z" transform="translate(-467.575 -880.598)"/></g><g transform="translate(234.732 124.147)"><path class="c" d="M837.889,863.658q54.733-3.49,109.38-8.271c.819-.086.819-1.379,0-1.292q-54.6,4.782-109.38,8.271c-.819.043-.819,1.336,0,1.292Z" transform="translate(-837.275 -854.09)"/></g><g transform="translate(329.853 104.847)"><path class="c" d="M1058.689,816.015q42.391-1.551,84.652-5.428c.818-.086.818-1.379,0-1.292q-42.261,3.877-84.652,5.428a.647.647,0,0,0,0,1.292Z" transform="translate(-1058.075 -809.291)"/></g><g transform="translate(354.581 134.791)"><path class="c" d="M1116.089,883.236q35.605-1.551,71.211-3.145c.818-.043.818-1.336,0-1.292q-35.606,1.551-71.211,3.145c-.819.043-.819,1.335,0,1.292Z" transform="translate(-1115.475 -878.798)"/></g><path class="b" d="M389.9,760.463c1.077,2.025,2.154,4.05,3.274,6.117a12.073,12.073,0,0,0,8.573,1.852,11.339,11.339,0,0,0,4.05-1.551l3.619-6.333a32.31,32.31,0,0,0-19.515-.086Z" transform="translate(-347.897 -675.816)"/><g transform="translate(42.441 84.162)"><path class="c" d="M391.211,762.492c3.877,2.412,9.435,1.852,13.786,1.594.819-.043.819-1.335,0-1.292-4.093.215-9.478.862-13.139-1.422-.689-.431-1.335.689-.646,1.12Z" transform="translate(-390.916 -761.275)"/></g><g transform="translate(32.651 55.549)"><path class="c" d="M368.238,695.651q5.493,14.216,10.942,28.433c.3.775,1.551.431,1.249-.345q-5.493-14.216-10.942-28.433c-.3-.775-1.551-.474-1.249.345Z" transform="translate(-368.192 -694.857)"/></g><g transform="translate(38.196 55.746)"><path class="c" d="M381.078,696.126q2.843,14.539,6.677,28.907a.648.648,0,0,0,1.249-.345q-3.877-14.346-6.677-28.907c-.172-.819-1.422-.474-1.249.345Z" transform="translate(-381.062 -695.314)"/></g><g transform="translate(26.814)"><path class="a" d="M360.785,617.432c-.646-2.068,1.077-4.007.6-6.161-.56-2.283-2.8-3.231-2.542-5.859.172-1.809,1.077-3.533.775-5.385-.215-1.163-.948-1.852-1.465-2.886a5.347,5.347,0,0,1,0-3.834c.345-1.508.9-3.145.3-4.7a6.642,6.642,0,0,0-1.422-1.852c-1.206-1.422-1.034-2.886-.732-4.61a36.076,36.076,0,0,0-.388-15.767.648.648,0,0,0-1.249.345,33.067,33.067,0,0,1,1.12,9.176c-.086,2.628-.775,5.083-.991,7.668-.172,2.111.517,3.016,1.809,4.523,1.68,2.025.258,4.351-.043,6.634a5.629,5.629,0,0,0,.129,2.24c.345,1.206,1.422,2.025,1.637,3.317.345,2.068-.948,4.093-.819,6.16.172,2.24,2.5,3.4,2.671,5.557.172,2.025-1.292,3.662-.646,5.773.258.775,1.508.431,1.249-.345Z" transform="translate(-354.642 -565.914)"/></g><g transform="translate(35.753 10.466)"><path class="a" d="M378.842,630.269c-1.335-1.249.345-2.542-.129-4.006-.259-.819-1.12-1.422-1.163-2.326a13.753,13.753,0,0,1,.646-2.542c.215-1.551-.6-2.283-.991-3.7-.517-1.939.646-4.093.991-5.988a7.367,7.367,0,0,0-.388-4.093,7.314,7.314,0,0,1-.775-3.274,21.176,21.176,0,0,1,.732-2.843c.862-3.446-2.2-7.108-.732-10.3.345-.732-.775-1.422-1.12-.646-1.723,3.662,1.465,7.151.517,10.942-.474,1.9-1.034,3.274-.388,5.213a10.949,10.949,0,0,1,.991,3.317,10.65,10.65,0,0,1-.646,3.489,9.014,9.014,0,0,0-.431,4.523c.345,1.249,1.163,2.2.862,3.576a11.175,11.175,0,0,0-.517,2.068,2.948,2.948,0,0,0,.388,1.809c.172.3.689.775.732.991a3.552,3.552,0,0,1-.3,1.335,3.08,3.08,0,0,0,.819,3.317c.6.6,1.508-.3.9-.862Z" transform="translate(-375.392 -590.208)"/></g></g><g transform="translate(184.243 42.791)"><g transform="translate(0)"><path class="a" d="M248.026,123.828c8.53,2.671,17.577,2.5,26.408,2.326,8.444-.172,16.844-.732,25.2-1.594a320.544,320.544,0,0,0,49.37-9.262c32.784-8.788,64.189-22.4,93.527-39.375a461.749,461.749,0,0,0,47.862-31.879c.646-.517,0-1.637-.646-1.12a440.652,440.652,0,0,1-86.289,51.567c-30.759,13.743-63.414,23.651-96.887,27.959-9.176,1.206-18.438,1.982-27.7,2.283-10.081.345-20.722.9-30.458-2.154a.655.655,0,0,0-.388,1.249Z" transform="translate(-247.591 -42.791)"/></g><g transform="translate(223.325 13.958)"><path class="a" d="M766.208,76.272c11.5,9.951,25.073,17.06,39.031,22.962a330.185,330.185,0,0,0,46.268,15.638A339.948,339.948,0,0,0,947.23,125.6c18.352-.56,37.523-1.809,55.056-7.668.775-.258.431-1.508-.345-1.249-15.595,5.256-32.439,6.591-48.767,7.41a334.525,334.525,0,0,1-47.388-1.034,336.979,336.979,0,0,1-92.967-22.143C796.579,94.495,780.51,86.87,767.2,75.367c-.732-.56-1.637.345-.991.9Z" transform="translate(-765.987 -75.191)"/></g><g transform="translate(50.5 5.481)"><path class="a" d="M365.111,87.085c15.81,9.133,34.636,11.373,52.471,13.269a370.986,370.986,0,0,0,55.358,1.637A380.5,380.5,0,0,0,580.123,81.528a376.81,376.81,0,0,0,56.306-24.814c.732-.388.086-1.508-.646-1.12A375.206,375.206,0,0,1,534.372,92.9,376.837,376.837,0,0,1,426.2,99.88a305.883,305.883,0,0,1-30.673-3.834c-10.382-1.9-20.592-4.739-29.768-10.038-.689-.431-1.335.689-.646,1.077Z" transform="translate(-364.816 -55.513)"/></g><g transform="translate(103.87 64.365)"><path class="c" d="M488.7,192.846v16.069a.647.647,0,0,0,1.292,0V192.846a.646.646,0,0,0-1.292,0Z" transform="translate(-488.7 -192.2)"/></g><g transform="translate(104.257 91.048)"><path class="c" d="M489.6,254.767v18.826a.647.647,0,0,0,1.292,0V254.767a.646.646,0,0,0-1.292,0Z" transform="translate(-489.6 -254.137)"/></g><g transform="translate(126.228 108.695)"><path class="c" d="M540.6,295.746v23.522a.647.647,0,0,0,1.292,0V295.746a.646.646,0,1,0-1.292,0Z" transform="translate(-540.6 -295.1)"/></g><g transform="translate(125.453 151.075)"><path class="c" d="M538.8,394.089v11.373a.647.647,0,0,0,1.292,0V394.089a.647.647,0,0,0-1.292,0Z" transform="translate(-538.8 -393.475)"/></g><g transform="translate(170.17 35.362)"><path class="c" d="M642.6,125.489V146.3a.647.647,0,0,0,1.292,0V125.489a.647.647,0,0,0-1.292,0Z" transform="translate(-642.6 -124.875)"/></g><g transform="translate(170.17 63.579)"><path class="c" d="M642.6,190.989V206.67a.647.647,0,0,0,1.292,0V190.989a.647.647,0,0,0-1.292,0Z" transform="translate(-642.6 -190.375)"/></g><g transform="translate(355.285 43.202)"><path class="c" d="M1072.3,143.689v27.054a.647.647,0,0,0,1.292,0V143.689a.647.647,0,0,0-1.292,0Z" transform="translate(-1072.3 -143.075)"/></g><g transform="translate(354.897 80.854)"><path class="c" d="M1071.4,231.089v14.13a.647.647,0,0,0,1.292,0v-14.13a.647.647,0,0,0-1.292,0Z" transform="translate(-1071.4 -230.475)"/></g><g transform="translate(277.999 27.505)"><path class="c" d="M892.9,107.267v17.275a.647.647,0,0,0,1.292,0V107.267a.646.646,0,0,0-1.292,0Z" transform="translate(-892.9 -106.637)"/></g><g transform="translate(278.43 61.253)"><path class="c" d="M893.9,185.589V201.27a.647.647,0,0,0,1.292,0V185.589a.647.647,0,0,0-1.292,0Z" transform="translate(-893.9 -184.975)"/></g><g transform="translate(398.451 89.47)"><path class="c" d="M1172.5,251.089v15.293a.647.647,0,0,0,1.292,0V251.089a.647.647,0,0,0-1.292,0Z" transform="translate(-1172.5 -250.475)"/></g><g transform="translate(398.839 115.361)"><path class="c" d="M1173.4,311.189v12.149a.647.647,0,0,0,1.292,0V311.189a.647.647,0,0,0-1.292,0Z" transform="translate(-1173.4 -310.575)"/></g><circle class="d" cx="7.151" cy="7.151" r="7.151" transform="translate(97.709 79.874)"/><circle class="d" cx="4.911" cy="4.911" r="4.911" transform="translate(121.533 161.597)"/><circle class="d" cx="2.326" cy="2.326" r="2.326" transform="translate(169.05 84.398)"/><circle class="d" cx="3.274" cy="3.274" r="3.274" transform="translate(277.008 89.05)"/><circle class="d" cx="3.016" cy="3.016" r="3.016" transform="translate(277.051 48.943)"/><circle class="e" cx="3.36" cy="3.36" r="3.36" transform="translate(122.653 141.737)"/><circle class="e" cx="3.317" cy="3.317" r="3.317" transform="translate(167.068 30.763)"/><circle class="e" cx="3.317" cy="3.317" r="3.317" transform="translate(167.068 60.101)"/><circle class="e" cx="1.637" cy="1.637" r="1.637" transform="translate(277.008 79.917)"/><circle class="e" cx="6.85" cy="6.85" r="6.85" transform="translate(349.124 95.598)"/><circle class="e" cx="3.274" cy="3.274" r="3.274" transform="translate(396.943 134.887)"/><circle class="e" cx="3.016" cy="3.016" r="3.016" transform="translate(352.915 48.943)"/><circle class="d" cx="2.326" cy="2.326" r="2.326" transform="translate(353.648 62.685)"/><circle class="d" cx="2.326" cy="2.326" r="2.326" transform="translate(397.159 107.273)"/><g transform="translate(62.797 142.776)"><path class="a" d="M403.328,374.507c-2.025,3.188-4.049,6.333-6.074,9.521a23.556,23.556,0,0,0-3.748,8.1c-.9,5.127,2.542,8.573,5.471,12.278,1.68,2.111,3.231,4.523,2.5,7.281-.646,2.5-2.714,4.653-2.412,7.41a8.66,8.66,0,0,0,1.249,3.059,16.464,16.464,0,0,1,1.68,5.471,15.921,15.921,0,0,1-2.283,10.081.647.647,0,0,0,1.12.646,17.258,17.258,0,0,0,1.206-15.681c-.775-1.809-2.068-3.274-1.508-5.428a33.255,33.255,0,0,1,1.766-4.006,7.636,7.636,0,0,0,.043-6.074c-1.939-4.566-7.324-7.539-7.668-12.838-.215-3.576,1.9-6.85,3.7-9.736,2.025-3.188,4.05-6.376,6.074-9.521.431-.6-.689-1.249-1.12-.56Z" transform="translate(-393.359 -374.21)"/></g><g transform="translate(147.974 191.683)"><path class="a" d="M595.438,487.937a15.087,15.087,0,0,0-4.265,12.278,17.671,17.671,0,0,0,2.326,6.462c1.68,3.188,2.068,5.6.775,8.961-.775,1.982-1.766,4.006-1.508,6.16.258,2.456,2.154,3.748,3.317,5.773,2.456,4.394-2.5,9-1.335,13.7a.648.648,0,0,0,1.249-.345c-1.077-4.222,2.973-7.97,1.939-12.235-.517-2.068-2.2-3.36-3.231-5.127-1.465-2.5-.086-5.127.819-7.582a10.48,10.48,0,0,0,.819-5.945c-.56-2.542-2.283-4.61-3.188-7.022a13.694,13.694,0,0,1,3.188-14.173.64.64,0,0,0-.9-.9Z" transform="translate(-591.077 -487.738)"/></g><g transform="translate(423.924 201.075)"><path class="a" d="M1239.715,509.738c-4.308,5.04-8.487,11.545-8.056,18.481.215,3.317,1.68,5.988,3.489,8.7,2.111,3.145,3.92,6.117,2.886,10.038-1.379,5.127-6.462,10.253-4.7,15.9,1.077,3.446,4.524,5.342,5.342,8.961.948,4.308-1.034,8.831-2.8,12.666-.345.732.776,1.422,1.12.646,1.465-3.188,2.886-6.505,3.145-10.038a11.718,11.718,0,0,0-2.929-8.616c-2.456-2.973-3.576-5.514-2.283-9.262.991-2.886,2.757-5.471,3.834-8.314a10.666,10.666,0,0,0,.172-8.142c-1.163-2.843-3.317-5.04-4.7-7.754-3.877-7.754,1.335-16.457,6.376-22.315.56-.646-.345-1.551-.9-.948Z" transform="translate(-1231.629 -509.54)"/></g><g transform="translate(439.971 246.977)"><path class="a" d="M1273.024,616.267a13.083,13.083,0,0,0-4.05,7.927c-.474,3.662.9,6.2,2.369,9.391,1.809,3.92-1.723,7.453-.776,11.416.517,2.154,1.68,3.791,1.637,6.074a9.279,9.279,0,0,1-2.671,6.2c-.56.6.345,1.508.9.9a10.267,10.267,0,0,0,2.973-8.444c-.215-1.809-1.206-3.36-1.594-5.127-.56-2.369.732-4.523,1.206-6.764.818-3.791-1.766-6.031-2.585-9.478a11.7,11.7,0,0,1,3.49-11.244c.646-.517-.259-1.422-.9-.862Z" transform="translate(-1268.879 -616.09)"/></g><g transform="translate(320.17 126.68)"><path class="a" d="M994.929,337.173c-2.456,3.791-5.17,8.271-3.748,12.967.689,2.283,2.585,3.231,3.619,5.213.991,1.982.043,4.308-.646,6.2-.991,2.714-2.369,6.031.129,8.357.991.9,2.2,1.422,2.628,2.843a8.083,8.083,0,0,1-.172,3.662c-.431,2.068-1.034,4.136-.775,6.247.086.819,1.379.819,1.292,0-.388-3.533,2.2-7.5.689-10.9-.862-1.982-3.532-2.542-3.791-4.782-.215-1.68.689-3.533,1.249-5.083,1.077-2.973,1.852-5.945-.474-8.53-2.154-2.369-3.274-4.653-2.585-7.927.56-2.8,2.2-5.3,3.748-7.668.431-.689-.689-1.336-1.163-.6Z" transform="translate(-990.789 -336.849)"/></g><g transform="translate(144.931 81.397)"><path class="d" d="M586.292,231.848a5.075,5.075,0,0,0-1.206,7.367c1.594,2.154-.862,3.145-.388,5.17.172.732.775,1.163,1.12,1.809.862,1.594-.129,3.274-.948,4.7a.647.647,0,0,0,1.12.646,8.1,8.1,0,0,0,1.508-4.48,4.76,4.76,0,0,0-.646-1.852c-.215-.388-.474-.517-.646-.991-.215-.819.086-.991.474-1.766a2.982,2.982,0,0,0,.172-3.1c-.56-1.034-1.465-1.637-1.551-2.929a3.961,3.961,0,0,1,1.68-3.49c.646-.431,0-1.551-.689-1.077Z" transform="translate(-584.015 -231.734)"/></g><g transform="translate(83.573 113.605)"><path class="d" d="M443.573,306.714a5.052,5.052,0,0,0-1.422,3.1c-.086,1.379,1.034,2.8.431,4.049-.431.9-.9,1.249-.819,2.369.086,1.163,2.025,4.351.258,5.04-.775.3-.431,1.551.345,1.249,2.154-.819,1.723-3.1,1.12-4.868-.474-1.379-.086-2.068.517-3.36a3.109,3.109,0,0,0,.388-.862c.086-.689-.3-1.077-.56-1.637a3.584,3.584,0,0,1,.6-4.179c.6-.6-.345-1.551-.862-.9Z" transform="translate(-441.585 -306.497)"/></g><g transform="translate(411.929 127.21)"><path class="d" d="M1207.067,338.088a3.09,3.09,0,0,0-3.231,2.843c-.388,2.456,1.637,4.179,2.671,6.16a4.486,4.486,0,0,1,0,3.791c-.215.689-.474.474-.517,1.249a2.052,2.052,0,0,0,.646,1.594c1.163,1.335,2.111,1.939,1.982,3.92a13.325,13.325,0,0,1-1.723,4.954c-.388.732.732,1.379,1.12.646a13.738,13.738,0,0,0,1.9-5.6c.129-1.939-.646-2.8-1.68-4.265a1,1,0,0,1-.431-1.034.916.916,0,0,1,.172-1.335c.086-.388.3-.689.388-1.12a4.958,4.958,0,0,0-.345-2.714,11.631,11.631,0,0,0-1.508-2.542,7.876,7.876,0,0,1-1.249-2.283c-.345-1.249,0-3.145,1.853-3.016.775.129.775-1.163-.043-1.249Z" transform="translate(-1203.787 -338.079)"/></g></g><g transform="translate(301.002 151.436)"><g transform="translate(119.389 179.908)"><path class="f" d="M872.344,877.905a137.742,137.742,0,0,1-20.592,1.594q-4.071,59.257,1.206,60.1,4.459.711,15.6-40.064c10.21-2.542,20.463-5.083,30.673-7.625,1.034-9.995-1.292-13.872-3.619-15.638C891.3,873.037,885.268,875.88,872.344,877.905Z" transform="translate(-826.616 -804.927)"/><path class="e" d="M799.824,715.571c-7.151,6.505-4.7,24.168,5.945,42.649a55.846,55.846,0,0,1,11.115-.172c1.939.172,8.013.775,23.522,6.419,3.231,1.206,7.711,2.886,13.053,5.17-4.179,1.12-8.358,2.24-12.579,3.36a110.979,110.979,0,0,0,2.886,16.887,112.7,112.7,0,0,0,10.942,27.528c9.693-2.843,17.62-5.644,23.349-7.711,13.743-5.04,21.023-8.659,28-13.527,7.453-5.213,11.373-9.607,12.579-15.121a19.965,19.965,0,0,0,.172-6.936c-.862-5.342-3.834-8.961-6.936-12.407-6.807-7.625-10.21-11.416-15.767-15.638-12.709-9.607-24.3-14.647-37.178-20.118-9.951-4.222-16.586-7.022-26.236-9.348C817.271,713.029,805.683,710.229,799.824,715.571Z" transform="translate(-795.755 -712.598)"/><g transform="translate(33.369 2.55)"><path class="e" d="M873.682,719.759a254.169,254.169,0,0,1,37.824,14.432c10.727,5.083,21.5,10.727,30.8,18.18a76.982,76.982,0,0,1,11.8,11.589c3.791,4.7,8.7,11.029,8.616,17.361-.086,5.9-5.687,11.287-9.779,14.992a61.667,61.667,0,0,1-14.561,9.564c-12.838,6.2-27.054,8.745-40.064,14.561-.775.345-.086,1.465.646,1.12,12.493-5.6,26.106-8.142,38.557-13.872a65.45,65.45,0,0,0,14.776-9.133c4.179-3.49,8.918-8.1,10.942-13.269,2.2-5.6-.776-11.373-3.748-16.026a69.552,69.552,0,0,0-11.589-13.786c-8.788-8.142-19.257-14.173-29.9-19.515a259.533,259.533,0,0,0-43.985-17.4.627.627,0,1,0-.345,1.206Z" transform="translate(-873.214 -718.516)"/></g><g transform="translate(44.773 50.509)"><path class="e" d="M934.285,829.867c-5.73,1.637-11.5,3.274-17.232,4.911-5.644,1.594-11.416,3.016-16.93,5-.776.3-.431,1.551.345,1.249,5.514-2.025,11.287-3.4,16.93-5,5.73-1.637,11.5-3.274,17.232-4.911a.65.65,0,0,0-.345-1.249Z" transform="translate(-899.685 -829.842)"/></g><g transform="translate(44.692 59.92)"><path class="e" d="M899.5,852.3a115.815,115.815,0,0,0,13.269,44.76c.388.732,1.508.086,1.12-.646a114.773,114.773,0,0,1-13.1-44.071c-.043-.862-1.335-.862-1.292-.043Z" transform="translate(-899.498 -851.687)"/></g><g transform="translate(8.065 44.606)"><path class="e" d="M864.286,828.572a91.609,91.609,0,0,0-49.2-12.364c-.818.043-.818,1.336,0,1.292A89.58,89.58,0,0,1,863.6,829.693c.776.388,1.422-.732.689-1.12Z" transform="translate(-814.475 -816.139)"/></g><path class="g" d="M813.9,755.4c4.006.9,9.865,2.412,16.8,4.7,5.127,1.68,14.82,5.083,37.092,16.327,7.5,3.791,17.361,8.918,28.777,15.336q-21.777,9.629-43.554,19.214c-.775-4.437-1.594-8.831-2.369-13.269,3.748-1.206,7.5-2.369,11.244-3.576a92.884,92.884,0,0,0-45.622-11.545Q815.042,768.949,813.9,755.4Z" transform="translate(-806.083 -736.961)"/><path class="g" d="M819.3,816.388a83.061,83.061,0,0,1,56.866,10.21c-7.108,4.05-14.173,8.056-21.282,12.106-.474-2.369-.9-4.782-1.379-7.151,3.791-1.206,7.582-2.369,11.416-3.576a97.622,97.622,0,0,0-19.214-7.841A96.222,96.222,0,0,0,819.3,816.388Z" transform="translate(-809.157 -770.938)"/></g><g transform="translate(0 175.353)"><path class="f" d="M689.4,889.2q9.629,3.36,19.214,6.72,2,41.551,5.773,41.7,4.588.194,11.8-60.01c-10.21-2.456-20.377-4.954-30.587-7.41Q692.566,879.7,689.4,889.2Z" transform="translate(-615.828 -797.75)"/><path class="e" d="M648.668,752.073a201.541,201.541,0,0,0-3.188-30.113c-2.886-15.81-5.385-18.309-7.582-19.343-4.782-2.2-9.65,2.025-21.8,7.582-9.951,4.566-8.659,2.628-25.719,9.047a281.137,281.137,0,0,0-43.6,20.549,78.385,78.385,0,0,0-19.343,15.681c-7.324,8.228-7.841,12.579-7.841,14.69,0,2.154.517,6.979,7.582,14.216,8.315,8.487,17.706,12.149,44.8,20.808,7.453,2.369,14.259,4.523,20.334,6.376,3.274-6.247,5.773-11.675,7.582-15.9,5.083-11.89,6.161-17.491,6.591-20.334a63.272,63.272,0,0,0,.732-7.582c-4.394-1.163-8.831-2.283-13.226-3.446a95.323,95.323,0,0,1,18.611-8.1A97.413,97.413,0,0,1,648.668,752.073Z" transform="translate(-519.178 -702.025)"/><g transform="translate(75.646 61.362)"><path class="e" d="M694.682,845.728c1.9.431,3.834.862,5.73,1.292s4.05.646,5.643,1.852c.646.517,1.292-.6.646-1.12-1.508-1.163-3.36-1.422-5.17-1.809-2.154-.474-4.351-.991-6.505-1.465-.818-.172-1.163,1.077-.345,1.249Z" transform="translate(-694.214 -844.462)"/></g><g transform="translate(0 7.202)"><path class="e" d="M618.988,718.767A319.23,319.23,0,0,0,564.1,738.756a143.782,143.782,0,0,0-26.451,16.026c-9.047,6.979-25.245,21.411-16.543,34.076,4.006,5.816,10.081,10.124,16.112,13.613a103.039,103.039,0,0,0,15.423,7.324c3.1,1.163,6.333,2.025,9.521,3.016,9.693,2.93,19.386,5.988,29.036,9.09.775.258,1.12-.991.345-1.249-7.97-2.585-15.94-5.127-23.953-7.539-4.179-1.292-8.444-2.369-12.579-3.834-10.167-3.489-20.635-8.745-28.433-16.155-2.542-2.412-5.17-5.256-6.117-8.659-1.206-4.222.3-8.444,2.412-12.062,3.4-5.859,8.444-10.727,13.656-14.992a137.394,137.394,0,0,1,27.528-17.1,308.442,308.442,0,0,1,55.358-20.2c.732-.3.388-1.551-.431-1.336Z" transform="translate(-518.621 -718.742)"/></g><g transform="translate(48.807 55.202)"><path class="e" d="M632.382,831.428c6.419,1.637,12.881,3.274,19.3,4.868,6.333,1.594,12.795,2.973,19,5.04.776.258,1.12-.991.345-1.249-6.2-2.025-12.666-3.4-19-5.04-6.419-1.637-12.881-3.274-19.3-4.868-.818-.172-1.163,1.077-.345,1.249Z" transform="translate(-631.914 -830.162)"/></g><g transform="translate(72.398 64.62)"><path class="e" d="M701.462,852.66a105.241,105.241,0,0,1-14.69,44.071.647.647,0,0,0,1.12.646,106.8,106.8,0,0,0,14.863-44.76c.086-.818-1.206-.775-1.292.043Z" transform="translate(-686.675 -852.024)"/></g><g transform="translate(73.465 49.28)"><path class="e" d="M690.121,829.979a110.837,110.837,0,0,1,54.5-12.192c.819.043.819-1.249,0-1.292a111.454,111.454,0,0,0-55.142,12.364c-.732.388-.086,1.508.646,1.12Z" transform="translate(-689.152 -816.416)"/></g><path class="h" d="M694.876,759.331c-18.524,9-30.716,15.337-36.187,17.964q-21.583,10.21-42.089,18.826a26.363,26.363,0,0,1,22.66,44.157c2.757.991,5.514,1.982,8.228,2.929a101.435,101.435,0,0,0,6.764-12.666,107.661,107.661,0,0,0,8.831-32.956c-3.92-1.292-7.841-2.542-11.761-3.834,3.532-1.551,7.367-3.059,11.459-4.394a125.539,125.539,0,0,1,41.141-6.117c-.129-3.1-.3-6.247-.517-9.478-.431-6.16-1.077-12.062-1.809-17.663C700.046,756.832,697.72,758,694.876,759.331Z" transform="translate(-574.39 -732.804)"/><path class="i" d="M737.535,815.491c-.043-.56-11.115-1.551-24.513.345A109.778,109.778,0,0,0,678.3,826.907c3.92,2.929,7.841,5.9,11.761,8.831-2.111,12.881-4.179,25.762-6.29,38.643a99.118,99.118,0,0,0,12.105-29.768,94.818,94.818,0,0,0,2.025-13.958c-1.163-.345-2.369-.689-3.576-1.034-2.8-.775-5.514-1.465-8.185-2.025,2.111-.948,5.083-2.24,8.7-3.576C718.235,815.319,737.535,816.18,737.535,815.491Z" transform="translate(-609.51 -766.175)"/><path class="j" d="M811.9,828.8" transform="translate(-685.555 -774.185)"/></g><g transform="translate(156.587 82.404)"><path class="k" d="M888.79,486.366c2.2-.732,5.514,2.671,7.5,4.653a27.744,27.744,0,0,1,5.256,7.5c5.859,12.149,4.825,7.324,9.779,18.611,6.074,13.915,10.21,27.054,10.21,27.054,2.025,6.419,3.274,11.2,7.194,17.1,4.437,6.634,8.1,8.4,9.607,9a18.74,18.74,0,0,0,11.847.6c2.283-2.24,4.049-4.179,5.256-5.557,2.456-2.8,3.489-4.308,5.428-4.523.431-.043,2.412-.258,3.446.9.474.517.56,1.077,1.034,1.206.6.172,1.206-.517,1.939-1.206a16.151,16.151,0,0,1,4.351-3.016c1.077-.474,3.145-1.077,3.748-.3s-.732,2.412-.129,3.016,2.068-.775,3.619-.129a2.838,2.838,0,0,1,1.637,2.24c.086,1.12-.862,1.379-1.034,2.843-.172,1.206.388,1.422.3,2.412-.172,1.508-1.551,1.723-3.446,3.92-1.077,1.249-.776,1.336-2.714,4.222a36.869,36.869,0,0,1-2.412,3.317c-2.843,3.188-7.668,3.446-10.21,3.619a22.925,22.925,0,0,1-10.985-2.24,26.483,26.483,0,0,1-6.591,3.317,28.373,28.373,0,0,1-16.672,0C916.1,581.961,909.856,573.9,905.72,568.39c-6.16-8.185-8.4-15.293-12.45-28.217a156.259,156.259,0,0,1-6.462-33.042C886.2,499.548,885.214,487.572,888.79,486.366Z" transform="translate(-884.439 -486.264)"/><g transform="translate(5.12 0.368)"><path class="c" d="M894.422,488.4c3.791,1.249,6.419,4.308,8.616,7.539a114.253,114.253,0,0,1,6.247,10.382,218.408,218.408,0,0,1,10.253,22.66c3.1,7.754,5.945,15.595,8.831,23.392,2.326,6.2,5.127,12.795,10.512,16.93,5,3.834,12.105,5.428,17.706,1.939.689-.431.043-1.551-.646-1.12-5.945,3.7-13.613,1.12-18.223-3.576-5.256-5.428-7.5-12.967-10.038-19.86-5.385-14.733-10.9-29.725-18.611-43.468-3.36-5.988-7.324-13.743-14.3-16.069-.776-.258-1.12.991-.345,1.249Z" transform="translate(-893.985 -487.119)"/></g><g transform="translate(5.102 42.625)"><path class="c" d="M893.967,585.979c3.834,13.269,7.065,27.14,14.949,38.686,6.505,9.564,16.155,17.189,28,18.137a26.5,26.5,0,0,0,18.094-4.911c.646-.474,0-1.637-.646-1.12-6.031,4.566-13.829,5.73-21.152,4.222-7.237-1.508-13.484-5.687-18.438-11.028-11.244-12.192-14.992-28.821-19.472-44.286-.3-.819-1.551-.474-1.335.3Z" transform="translate(-893.942 -585.207)"/></g><g transform="translate(66.641 73.849)"><path class="c" d="M1038,668.506c1.809-2.542,3.489-5.471,5.687-7.668,1.292-1.292,3.4-2.585,5.256-1.551a3,3,0,0,1,.775,4.351c-.474.689.646,1.335,1.12.646a4.16,4.16,0,0,0-3.619-6.591,7.4,7.4,0,0,0-5.127,3.059c-1.853,2.24-3.446,4.739-5.17,7.108-.517.646.6,1.292,1.077.646Z" transform="translate(-1036.79 -657.687)"/></g><g transform="translate(73.506 78.599)"><path class="c" d="M1053.059,669.138a3.083,3.083,0,0,0,2.326,4.437c2.542.388,4.394-1.766,4.825-4.049.172-.819-1.077-1.163-1.249-.345a3.516,3.516,0,0,1-2.5,3.1c-1.422.3-3.016-.948-2.283-2.456.345-.775-.775-1.422-1.12-.689Z" transform="translate(-1052.725 -668.714)"/></g><g transform="translate(64.839 90.06)"><path class="c" d="M1033.078,700.953c4.954.991,9.65,3.274,14.776,2.2a15.8,15.8,0,0,0,9.951-6.893c.474-.689-.646-1.335-1.12-.646a14.535,14.535,0,0,1-9.822,6.419c-4.653.732-9-1.422-13.484-2.326-.775-.129-1.12,1.12-.3,1.249Z" transform="translate(-1032.607 -695.316)"/></g><g transform="translate(76.526 82.072)"><path class="c" d="M1060.711,676.872a2.275,2.275,0,0,0-.043,3.7c.991.819,2.326.689,3.533.689a10.184,10.184,0,0,1,5.6,1.335.647.647,0,0,0,.646-1.12,10.9,10.9,0,0,0-4.308-1.465,19.25,19.25,0,0,0-2.24-.043,7.272,7.272,0,0,1-1.379-.043c-.517-.129-2.2-1.292-1.163-1.9.689-.474.043-1.594-.646-1.163Z" transform="translate(-1059.736 -676.775)"/></g><g transform="translate(77.394 80.289)"><path class="c" d="M1062.721,675.076a8.385,8.385,0,0,1,9.952,1.077c.6.56,1.508-.345.9-.9a9.691,9.691,0,0,0-11.5-1.292.647.647,0,0,0,.646,1.12Z" transform="translate(-1061.752 -672.635)"/></g><g transform="translate(80.236 71.024)"><path class="c" d="M1069.276,657.579c1.422-1.034,2.8-2.025,4.222-3.059.6-.431,1.163-.862,1.809-1.249a7.832,7.832,0,0,1,1.335-.689c2.025-.689,2.5.3,1.379,2.973-.775.258-.431,1.508.345,1.249,2.326-.819,3.145-3.963.732-5.3-1.335-.775-2.929-.215-4.136.474-2.2,1.249-4.222,3.016-6.29,4.48-.732.517-.086,1.637.6,1.12Z" transform="translate(-1068.349 -651.129)"/></g><g transform="translate(82.952 74.478)"><path class="c" d="M1075.62,665.588c1.723-1.077,3.447-2.2,5.17-3.274a22.168,22.168,0,0,1,2.412-1.422,4.29,4.29,0,0,1,2.068-.474c1.508,0,2.068.9,1.68,2.671-.517.646.388,1.551.9.9,1.637-2.068.172-4.61-2.326-4.825a7.222,7.222,0,0,0-4.437,1.465c-2.068,1.249-4.093,2.585-6.117,3.877-.732.388-.086,1.508.646,1.077Z" transform="translate(-1074.652 -659.146)"/></g><g transform="translate(87.986 78.897)"><path class="c" d="M1087.312,673.453q1.745-.969,3.49-1.809c.388-.215,1.68-.991,2.068-.9,1.077.215.345,1.292.086,1.723-.431.689.689,1.379,1.12.646.689-1.12,1.292-3.317-.56-3.662-.991-.215-2.068.474-2.929.9-1.335.646-2.671,1.292-3.963,2.025-.689.388,0,1.508.689,1.077Z" transform="translate(-1086.337 -669.406)"/></g><g transform="translate(86.837 81.442)"><path class="c" d="M1083.985,676.514a5.077,5.077,0,0,1,1.249,8.142c-.56.6.345,1.508.9.9a6.382,6.382,0,0,0-1.508-10.167c-.689-.388-1.379.732-.646,1.12Z" transform="translate(-1083.672 -675.313)"/></g><g transform="translate(90.063 81.947)"><path class="c" d="M1096.175,676.706a23.992,23.992,0,0,1-4.739,4.609c-.646.474-.043,1.594.646,1.12a25.462,25.462,0,0,0,5.04-4.825c.474-.646-.431-1.551-.948-.9Z" transform="translate(-1091.16 -676.484)"/></g><g transform="translate(73.527 85.916)"><path class="c" d="M1053.389,686.991a15.8,15.8,0,0,1,7.539,2.585c.689.474,1.335-.646.646-1.12a17.818,17.818,0,0,0-8.185-2.757c-.818-.043-.818,1.249,0,1.292Z" transform="translate(-1052.775 -685.698)"/></g><path class="l" d="M882.1,510.7c.775,5.514,2.025,13.269,3.877,22.574,1.206,6.031,2.068,10.468,3.662,16.37,2.413,8.961,4.394,16.5,9.047,25.245,3.059,5.73,5.127,9.65,9.434,13.872,3.059,2.973,11.072,10.813,23.134,10.985a30.952,30.952,0,0,0,16.586-4.825,21.641,21.641,0,0,0,10.038,2.714,15.963,15.963,0,0,0,9.822-2.5c1.292-.9,4.739-3.231,5-7.151.043-.6.215-3.877-2.111-5.6-2.585-1.9-6.807-.775-7.151.56-.3,1.249,2.8,2.283,2.714,4.05-.129,2.24-5.213,3.619-6.161,3.877-30.328,8.185-46.656-5.385-46.656-5.385-4.954-4.136-7.582-8.616-13.7-23.909C894.593,549,888.26,531.809,882.1,510.7Z" transform="translate(-882.1 -500.173)"/></g><g transform="translate(4.937 81.219)"><path class="k" d="M559.26,579.321a24.46,24.46,0,0,0,14.432,4.825c6.721-.043,11.459-3.1,14.13-4.825a35.181,35.181,0,0,0,9.305-9c7.237-9.176,10.124-18.74,12.192-25.676,1.852-6.2,1.12-5.859,2.886-11.244,3.317-10.081,6.161-12.364,9-19.558,4.7-11.89,5-26.063,1.292-27.614-1.723-.689-4.265,1.336-9.305,5.471a48.808,48.808,0,0,0-6.979,6.85c-2.24,2.757-6.16,8.185-10.511,21.152-3.533,10.6-2.757,12.321-6.936,24.039-2.585,7.281-4.222,10.253-6.2,12.967-2.24,3.016-5.945,7.927-12.666,10.512a24.807,24.807,0,0,1-12.278,1.379c-.345-1.723-1.508-6.462-5.514-8.788-.991-.6-3.4-1.982-5.127-.948a3.542,3.542,0,0,0-1.465,2.326,12.528,12.528,0,0,0-5.127-4.351c-1.12-.474-3.4-1.508-4.351-.56-.862.862-.086,2.843,0,3.1a3.337,3.337,0,0,0-3.576.172,2.957,2.957,0,0,0-1.249,2.886,2.642,2.642,0,0,0,1.077,1.465,4.687,4.687,0,0,0-.086,3.016c.215.6.474.991,2.025,2.714,1.982,2.24,2.025,2.154,2.412,2.714,1.077,1.594.862,2.456,1.551,3.877a9.238,9.238,0,0,0,4.653,4.265c2.757,1.336,5.3.991,9.478.388A33.878,33.878,0,0,0,559.26,579.321Z" transform="translate(-530.69 -484.981)"/><g transform="translate(26.233)"><path class="c" d="M656.424,483.594a50.942,50.942,0,0,0-17.146,13.7,65.508,65.508,0,0,0-10.21,19.515c-2.412,7.065-4.136,14.346-5.988,21.54-1.766,6.979-4.739,14.216-9.391,19.774-5.428,6.505-13.872,9-22.1,8.056-.818-.086-.818,1.206,0,1.292a26.894,26.894,0,0,0,18.654-4.351c5.687-4.05,9.262-10.813,11.8-17.189,2.714-6.764,3.92-14.13,5.9-21.109,2.111-7.539,4.7-15.035,8.831-21.712a49.659,49.659,0,0,1,20.291-18.352c.775-.431.086-1.551-.646-1.163Z" transform="translate(-590.975 -483.514)"/></g><g transform="translate(27.659 41.917)"><path class="c" d="M649.046,581.282c-3.92,14.906-7.108,30.975-16.93,43.339-4.265,5.342-9.822,9.908-16.543,11.718-6.979,1.9-14.518.818-20.161-3.834-.646-.517-1.551.388-.9.9,8.573,7.065,20.808,6.333,29.768.3C634.1,627.119,639.913,616,643.7,605.1c2.671-7.668,4.523-15.638,6.591-23.479a.648.648,0,0,0-1.249-.345Z" transform="translate(-594.284 -580.814)"/></g><g transform="translate(14.037 73.136)"><path class="c" d="M576.163,663.456c-1.508-2.326-2.929-4.782-4.61-6.979-1.163-1.551-2.714-3.016-4.782-3.188-3.576-.215-5.127,3.877-3.4,6.591.431.689,1.551.043,1.12-.646-.819-1.292-.775-3.446.689-4.351,2.068-1.292,4.179.819,5.3,2.283,1.68,2.2,3.059,4.61,4.566,6.936.431.689,1.551.043,1.12-.646Z" transform="translate(-562.664 -653.281)"/></g><g transform="translate(14.431 77.889)"><path class="c" d="M569.1,665.428a1.776,1.776,0,0,1-2.24,2.412c-1.249-.431-1.809-1.852-2.025-3.059-.129-.819-1.379-.474-1.249.345.388,2.154,1.939,4.394,4.394,4.093a3.106,3.106,0,0,0,2.24-4.437c-.345-.776-1.465-.129-1.12.646Z" transform="translate(-563.578 -664.314)"/></g><g transform="translate(6.072 89.373)"><path class="c" d="M566.544,695.378c-3.963.862-7.841,2.973-11.976,2.326a13.159,13.159,0,0,1-9.176-6.419c-.431-.732-1.551-.043-1.12.646a14.5,14.5,0,0,0,9.133,6.893c4.739,1.077,8.961-1.206,13.484-2.2.819-.172.474-1.422-.345-1.249Z" transform="translate(-544.175 -690.972)"/></g><g transform="translate(8.459 81.362)"><path class="c" d="M558.325,673.592a.8.8,0,0,1,.215.948c-.258.862-1.206.948-1.982,1.034-.819.043-1.637-.086-2.5,0a9.773,9.773,0,0,0-4.05,1.465c-.689.431-.043,1.551.646,1.12a8.754,8.754,0,0,1,5.083-1.336,4.332,4.332,0,0,0,3.188-.646,2.323,2.323,0,0,0,0-3.7c-.646-.431-1.292.689-.6,1.12Z" transform="translate(-549.716 -672.375)"/></g><g transform="translate(6.793 79.616)"><path class="c" d="M556.6,669.648a8.329,8.329,0,0,0-10.555,1.292c-.6.6.345,1.508.9.9a7.077,7.077,0,0,1,9-1.077c.689.431,1.335-.689.646-1.12Z" transform="translate(-545.85 -668.322)"/></g><g transform="translate(4.057 70.349)"><path class="c" d="M550.571,652.235c-1.766-1.422-3.489-2.929-5.342-4.222-1.12-.775-2.542-1.551-3.92-1.034-2.714.991-2.154,4.61.215,5.514.775.3,1.12-.948.345-1.249q-2.391-2.843.388-2.585a1.541,1.541,0,0,1,1.809.129,14.381,14.381,0,0,1,2.068,1.551c1.163.948,2.369,1.9,3.533,2.843.6.474,1.551-.431.9-.948Z" transform="translate(-539.499 -646.811)"/></g><g transform="translate(0 73.776)"><path class="c" d="M542.539,660.123c-1.852-1.292-3.7-2.628-5.557-3.877a6.379,6.379,0,0,0-4.006-1.465,3.019,3.019,0,0,0-2.326,4.739c.474.646,1.594,0,1.12-.646-.948-1.723-.172-2.628,2.24-2.714a6.3,6.3,0,0,1,1.551.689c.6.345,1.163.775,1.723,1.163l4.653,3.231c.646.474,1.292-.646.6-1.12Z" transform="translate(-530.081 -654.767)"/></g><g transform="translate(0.318 78.185)"><path class="c" d="M538.349,667.973a37.038,37.038,0,0,0-3.619-2.025c-.818-.431-1.939-1.206-2.929-.862-1.551.56-.948,2.628-.345,3.662.388.732,1.508.086,1.12-.646-.129-.259-.6-1.034-.474-1.336.172-.431.862-.172,1.163-.086a5.787,5.787,0,0,1,1.034.517c1.163.6,2.283,1.249,3.4,1.939a.667.667,0,0,0,.646-1.163Z" transform="translate(-530.818 -665.001)"/></g><g transform="translate(5.165 80.758)"><path class="c" d="M545.184,671.072a6.685,6.685,0,0,0-1.379,10.167c.56.646,1.465-.3.9-.9a5.376,5.376,0,0,1,1.12-8.142c.689-.431.043-1.551-.646-1.12Z" transform="translate(-542.07 -670.975)"/></g><g transform="translate(0.564 81.336)"><path class="c" d="M531.524,673.257a24.423,24.423,0,0,0,4.566,4.868c.646.517,1.551-.388.9-.9a22.1,22.1,0,0,1-4.351-4.61c-.517-.689-1.637-.043-1.12.646Z" transform="translate(-531.391 -672.316)"/></g><g transform="translate(12.939 85.245)"><path class="c" d="M567.907,681.395a15.271,15.271,0,0,0-7.5,2.757c-.689.474-.043,1.594.646,1.12a13.622,13.622,0,0,1,6.85-2.585c.862-.086.862-1.379,0-1.292Z" transform="translate(-560.116 -681.39)"/></g><path class="m" d="M626.8,523.5c-5.385,13.1-9.521,23.651-12.149,30.544-6.16,16.026-7.884,21.626-13.7,28.993-4.954,6.247-10.813,14.044-20.721,15.552a25.828,25.828,0,0,1-14.518-2.326c-.775.6-6.677,4.825-12.407,2.585-3.188-1.249-6.333-4.48-5.687-6.462.646-2.025,4.954-1.9,4.911-2.843-.043-.775-3.016-1.852-5.687-1.034-.388.129-3.016.991-3.877,3.36-1.12,3.145,1.809,6.376,2.585,7.237,3.963,4.394,10.038,4.179,11.115,4.136a16.9,16.9,0,0,0,9.047-3.1,21.7,21.7,0,0,0,10.081,4.911c8.745,1.637,15.81-3.274,19.688-5.687,11.072-7.022,15.25-18.223,18.654-26.667,1.637-4.093,2.369-6.764,6.376-23.091C623.01,539.267,625.164,530.393,626.8,523.5Z" transform="translate(-537.272 -506.274)"/><path class="m" d="M533.871,656.884c1.465-.258,3.36,3.619,4.653,6.721-.646,3.317-1.465,4.049-2.068,4.136-1.723.3-4.653-3.92-4.136-7.754C532.363,659.684,532.708,657.1,533.871,656.884Z" transform="translate(-531.322 -582.189)"/></g><g transform="translate(87.788 67.658)"><path class="b" d="M730.757,465.978c-8.142,9.348-8.314,20.894-8.357,41.141a205.809,205.809,0,0,0,9.047,60.527A104.113,104.113,0,0,0,761.215,572a102.2,102.2,0,0,0,29.424-4.351c1.594-6.591,3.7-16.284,5.342-28.088,5.644-40.021,9.348-66.343-5.342-79.267C775.819,447.281,744.672,450,730.757,465.978Z" transform="translate(-722.399 -452.035)"/><path class="n" d="M809.317,453.9a72.856,72.856,0,0,1,5.859,17.1c1.422,6.807,3.619,21.928-8.831,59.58A343.629,343.629,0,0,1,789.5,572.241a97.634,97.634,0,0,0,10.942.517,105.638,105.638,0,0,0,28.3-4.006c3.274-16.026,5.6-29.682,7.194-40.064,1.982-12.752,3.36-23.522,2.929-37.135-.517-17.232-3.446-22.229-5.083-24.556C826.764,456.743,814.1,454.5,809.317,453.9Z" transform="translate(-760.593 -453.097)"/><path class="h" d="M858.046,513.4c-1.939,5.859-4.739,14.906-7.5,26.193-3.446,14.087-3.963,19.989-5.859,27.528-2.542,9.822-7.841,23.694-20.291,39.547a53.828,53.828,0,0,0,15.767-1.852,53.184,53.184,0,0,0,8.53-3.188c2.2-11.976,4.136-23.22,5.859-33.645,3.059-18.266,4.136-25.8,4.265-35.8A164.878,164.878,0,0,0,858.046,513.4Z" transform="translate(-780.458 -486.964)"/></g><g transform="translate(81.115)"><path class="b" d="M788.368,425.875c-1.422,1.939-.732,3.7-1.034,10.942-.215,4.739-.689,8.53-1.034,10.942a19.708,19.708,0,0,0,24.211-1.034,46.524,46.524,0,0,1-1.809-6.764c-1.594-8.228.043-10.77-1.809-13.57C803.575,421.437,791.771,421.222,788.368,425.875Z" transform="translate(-752.098 -367.58)"/><path class="b" d="M750.581,336.919a41.953,41.953,0,0,0,2.326,14.346c1.68,5.385,3.533,11.416,8.875,16.93a33.232,33.232,0,0,0,14.346,8.616,37.846,37.846,0,0,0,13.57-9.391c5.342-5.816,7.367-11.718,8.874-16.155a45.671,45.671,0,0,0,2.585-19.817c-.646-6.333-1.336-13.182-6.764-18.481-8.013-7.8-19.731-5.773-21.368-5.471-11.373,2.111-17.1,11.115-18.481,13.57C750.839,327.355,750.667,333.516,750.581,336.919Z" transform="translate(-731.759 -301.845)"/><g transform="translate(41.375 39.161)"><path class="c" d="M803.015,386.5a56.258,56.258,0,0,0,1.594,16.327.674.674,0,0,0,1.077.3,8.418,8.418,0,0,0,1.939-3.92c.172-.819-1.077-1.163-1.249-.345a6.965,6.965,0,0,1-1.594,3.36,10.067,10.067,0,0,1,1.077.3,57.08,57.08,0,0,1-1.551-15.983.647.647,0,0,0-1.292-.043Z" transform="translate(-802.95 -385.887)"/></g><g transform="translate(50.288 39.807)"><path class="c" d="M823.838,389.244c3.059,3.231,9.219,4.136,10.856-1.077.259-.775-.991-1.12-1.249-.345-1.336,4.265-6.333,2.929-8.659.474-.646-.56-1.551.345-.948.948Z" transform="translate(-823.64 -387.385)"/></g><g transform="translate(27.646 48.83)"><path class="c" d="M772.339,409.524c0-.129-.043.043-.086.043a.323.323,0,0,1-.215.043c-.129-.258-.3-.517-.431-.775.043-.043.043-.086.086-.129a.587.587,0,0,0-.431.775.6.6,0,0,0,.775.431,1.325,1.325,0,0,0,.819-.775.616.616,0,0,0-.431-.775,1.1,1.1,0,0,0-1.336.775c-.043.345.086.732.431.775a.549.549,0,0,0,.818-.388Z" transform="translate(-771.081 -408.332)"/></g><g transform="translate(33.916 47.611)"><path class="c" d="M787,406.234q-.129.969-.517.129c-.474-.388-.388-.56.258-.474a.689.689,0,0,0-.9.215.679.679,0,0,0,.215.9.83.83,0,0,0,1.077-1.206.845.845,0,0,0-1.465.732.6.6,0,0,0,.775.431.555.555,0,0,0,.56-.732Z" transform="translate(-785.637 -405.502)"/></g><g transform="translate(31.574 51.841)"><path class="c" d="M781.579,416.3a.372.372,0,0,1-.129.259c.086-.086-.086.043-.043,0s-.129.043,0,0h-.172c-.043,0-.043-.043-.086-.043.043.043.043,0-.043-.043a.461.461,0,0,1-.043-.6.369.369,0,0,1,.56.086.668.668,0,0,0-.9-.215.641.641,0,0,0-.215.9.908.908,0,0,0,1.249.3.862.862,0,0,0,.345-1.206,1.061,1.061,0,0,0-1.9.56.691.691,0,0,0,1.379,0Z" transform="translate(-780.2 -415.321)"/></g><g transform="translate(53.899 47.05)"><path class="c" d="M833,404.5a.559.559,0,0,1,.517.431c.043.259-.129.431-.517.56-.129-.043-.215-.043-.345-.086a.333.333,0,0,1-.129-.517c.215-.345.862-.215.732.258a.6.6,0,0,0-.431-.775.616.616,0,0,0-.775.431.908.908,0,1,0,1.723-.043.789.789,0,0,0-.732-.56.8.8,0,0,0-.646.388.829.829,0,0,0,.689,1.206.663.663,0,0,0,.646-.646c-.086-.3-.345-.689-.732-.646Z" transform="translate(-832.022 -404.2)"/></g><g transform="translate(58.561 46.816)"><path class="c" d="M844.031,404.666c.043,0,.043-.043,0,0l-.215.215a5.258,5.258,0,0,1-.732-.3v-.345c0-.043.043-.043.043-.086l.215-.215a5.263,5.263,0,0,1,.732.3v.3a.6.6,0,0,0-.431-.775.616.616,0,0,0-.775.431.783.783,0,0,0,1.465.517.724.724,0,0,0-.345-.948.757.757,0,0,0-1.034.258.629.629,0,1,0,1.077.646Z" transform="translate(-842.844 -403.656)"/></g><g transform="translate(55.869 51.045)"><path class="c" d="M838.106,414.518c-.043-.129,0,0-.043.043,0,.043-.129.129,0,.043l-1.034-.129c-.258-.388.215-.732.56-.56a.689.689,0,0,0-.9.215.679.679,0,0,0,.215.9.851.851,0,0,0,1.034-.172.906.906,0,0,0,.129-1.077.677.677,0,0,0-1.034-.129,1.179,1.179,0,0,0-.3,1.163.6.6,0,0,0,.775.431.565.565,0,0,0,.6-.732Z" transform="translate(-836.596 -413.472)"/></g><g transform="translate(38.42 58.244)"><path class="c" d="M796.267,431.612a7.152,7.152,0,0,0,10.813-.3c.517-.646-.388-1.551-.9-.9a5.907,5.907,0,0,1-9,.3c-.56-.6-1.465.3-.9.9Z" transform="translate(-796.091 -430.184)"/></g><g transform="translate(29.588 30.534)"><path class="c" d="M776.672,368.894a5.191,5.191,0,0,1,5-1.637c.819.172,1.163-1.077.345-1.249a6.516,6.516,0,0,0-6.247,1.982c-.56.6.345,1.508.9.9Z" transform="translate(-775.591 -365.862)"/></g><g transform="translate(50.303 29.584)"><path class="c" d="M824.289,365.011a7.49,7.49,0,0,1,5.385,1.422c.689.474,1.335-.646.646-1.12a8.415,8.415,0,0,0-6.031-1.594c-.819.086-.819,1.379,0,1.292Z" transform="translate(-823.675 -363.657)"/></g><g transform="translate(28.15 40.194)"><path class="c" d="M772.445,390.144c3.059,3.231,9.219,4.136,10.856-1.077.258-.775-.991-1.12-1.249-.345-1.336,4.265-6.333,2.929-8.659.474a.671.671,0,0,0-.948.948Z" transform="translate(-772.252 -388.285)"/></g><path class="d" d="M749.5,309.983a104.457,104.457,0,0,0,10.21,10.641,110.043,110.043,0,0,0,15.595,11.8,48.732,48.732,0,0,1-13.355,30.544,16.646,16.646,0,0,0,1.335,9.133c3.92,8.228,15.207,11.933,23.866,9.133,1.034-.345,8.314-2.8,10.684-9.348.646-1.809.991-4.006,0-9.822a81.305,81.305,0,0,0-4.653-16.457,174.26,174.26,0,0,1-7.151-22.746c-.775-3.446-3.963-15.81-15.164-22.962-2.929-1.9-9.219-5.9-17.146-4.7a20.827,20.827,0,0,0-7.8,2.886,32.213,32.213,0,0,0-16.284,5.816c-14.044,10.081-13.656,28.261-13.613,30.113a84.319,84.319,0,0,1-2.456,9.822c-3.188,9.995-5.859,11.244-6.462,17.4-.172,1.551-.948,9.391,4.222,15.81a17.48,17.48,0,0,0,10.038,6.462,17.868,17.868,0,0,0,18.869-9.348A17.106,17.106,0,0,0,741.877,365c-1.249-1.12-12.752-11.545-11.373-27.787C732.055,318.728,748.727,310.37,749.5,309.983Z" transform="translate(-706.943 -294.984)"/><path class="g" d="M823.746,366.1a36.7,36.7,0,0,1,1.163,12.709c-.6,6.807-3.016,11.589-5.514,16.5a70.453,70.453,0,0,1-9.995,14.733,13.976,13.976,0,0,0,2.585-.732,16.078,16.078,0,0,0,4.782-2.757c-.345,4.049-.689,8.1-.991,12.149,2.456-1.077,4.911-2.111,7.367-3.188-.517-4.308-1.077-8.573-1.594-12.881a61.231,61.231,0,0,0,4.05-5.643,47.456,47.456,0,0,0,6.807-15.164,39.471,39.471,0,0,0,.991-9.391C830.208,370.365,826.977,368.211,823.746,366.1Z" transform="translate(-765.247 -335.463)"/><path class="o" d="M833.325,382.6c-.345-.086-1.292,4.351-4.179,10.985a100.837,100.837,0,0,1-4.61,9.09A63.023,63.023,0,0,1,809.2,419.863c.948.431,1.938.862,2.886,1.292,2.8-.3,5.6-.56,8.4-.862-.129-2.369-.3-4.739-.431-7.065a47.431,47.431,0,0,0,10.856-17.189C833.239,389.276,833.756,382.685,833.325,382.6Z" transform="translate(-765.133 -344.853)"/><path class="p" d="M710.61,425.932a14.142,14.142,0,0,0,1.163,6.505c1.68,3.748,5.6,7.841,9.822,7.8,5.127-.043,10.813-6.247,10.555-15.035a36.12,36.12,0,0,0,3.92,7.237,38.121,38.121,0,0,0,6.2,6.936,18.626,18.626,0,0,1-.862,6.074,18.29,18.29,0,0,1-3.92,6.807,17.423,17.423,0,0,1-9.822,5.643c-7.884,1.292-13.829-4.179-14.906-5.213-7.065-6.764-5.859-16.327-5.643-17.792A21.516,21.516,0,0,1,710.61,425.932Z" transform="translate(-706.909 -369.103)"/><path class="q" d="M847.785,382.2c.345,2.111.819,5.471,1.163,9.693.732,9.047,0,11.459,1.465,16.069.215.732,3.533,10.9,8.4,10.985,3.791.086,8.013-5.859,9.693-14.6a54.551,54.551,0,0,1,2.154,10.684c.431,4.265.043,5.687-.129,6.376-1.206,3.92-4.394,6.074-6.074,7.237a20.431,20.431,0,0,1-13.312,3.317c-1.508-.172-8.487-1.077-13.139-6.936a18.079,18.079,0,0,1-3.748-8.53,16.509,16.509,0,0,1-.129-3.748,45.994,45.994,0,0,0,8.961-12.45A48.632,48.632,0,0,0,847.785,382.2Z" transform="translate(-779.292 -344.627)"/></g></g></g></svg>