<svg xmlns="http://www.w3.org/2000/svg" width="468.503" height="409.157" viewBox="0 0 468.503 409.157"><defs><style>.a,.c{fill:#161616;}.b{fill:#e8e8e8;}.c,.g,.v{stroke:#161616;}.c,.g,.m,.v{stroke-miterlimit:10;}.c,.g{stroke-width:3px;}.d,.g,.m{fill:#fff;}.e{fill:#5222d0;}.f{fill:#ec615b;}.h,.i,.j,.k,.l,.q,.r,.t,.u{fill:#3d3d3d;}.h{opacity:0.09;}.i{opacity:0.18;}.j{opacity:0.12;}.k{opacity:0.15;}.l{opacity:0.17;}.m{stroke:#191919;}.m,.v{stroke-width:2px;}.n{fill:#191919;}.o,.p{fill:#6c6d6d;}.o{opacity:0.16;}.p{opacity:0.1;}.q{opacity:0.11;}.r{opacity:0.21;}.s{fill:#3a1da3;opacity:0.69;}.t{opacity:0.24;}.u{opacity:0.19;}.v{fill:none;}</style></defs><g transform="translate(0 377.62)"><g transform="translate(0 7.638)"><path class="a" d="M345.836,1004.481h41.931a.591.591,0,0,0,0-1.181H345.836a.591.591,0,0,0,0,1.181Z" transform="translate(-345.275 -1003.3)"/></g><g transform="translate(44.451 19.056)"><path class="a" d="M458.736,1033.481h88.9a.591.591,0,0,0,0-1.181h-88.9a.591.591,0,0,0,0,1.181Z" transform="translate(-458.175 -1032.3)"/></g><g transform="translate(157.487 8.268)"><path class="a" d="M745.836,1006.081H968.089a.591.591,0,0,0,0-1.181H745.836a.591.591,0,0,0,0,1.181Z" transform="translate(-745.275 -1004.9)"/></g><g transform="translate(285.759)"><path class="a" d="M1071.636,985.081h129.533a.591.591,0,0,0,0-1.181H1071.636a.591.591,0,0,0,0,1.181Z" transform="translate(-1071.075 -983.9)"/></g><g transform="translate(352.426 20.946)"><path class="a" d="M1240.991,1038.281h114.926a.591.591,0,0,0,0-1.181H1240.991a.591.591,0,0,0,0,1.181Z" transform="translate(-1240.4 -1037.1)"/></g></g><g transform="translate(28.003 0)"><g transform="translate(329.107 19.882)"><path class="b" d="M1254.936,76.391c7.992,3.9,10.512,13.111,11.418,21.261,1.221,10.945.945,22.245.866,33.23-.157,24.017-1.575,48.033-2.874,72.011q-3.839,71.873-7.717,143.746-2.185,40.454-4.331,80.909c-.039.748,1.142.748,1.181,0q3.957-73.467,7.874-146.9,1.949-36.557,3.937-73.074c1.3-24.253,2.8-48.506,3.111-72.8.079-6.772.079-13.544-.079-20.355-.118-5.788-.158-11.615-.827-17.363-1.024-8.386-3.74-17.757-11.93-21.733-.709-.276-1.3.748-.63,1.063Z" transform="translate(-1252.297 -75.282)"/></g><g transform="translate(310.648 12.039)"><path class="b" d="M1205.841,56.519a60.682,60.682,0,0,1,24.844,10.158c.63.433,1.22-.591.591-1.024a62.254,62.254,0,0,0-25.119-10.276c-.748-.157-1.063.984-.315,1.142Z" transform="translate(-1205.413 -55.362)"/></g><g transform="translate(275.656 0.514)"><path class="b" d="M1117.113,27.275c12.245,1.26,25.434,2.874,34.844,11.654.551.512,1.378-.315.827-.827-9.646-9.016-23.072-10.709-35.671-12.008-.787-.079-.748,1.1,0,1.181Z" transform="translate(-1116.537 -26.09)"/></g><g transform="translate(291.514 12.832)"><path class="b" d="M1176.1,57.936a46.643,46.643,0,0,1-19.017,31.576c-.63.433-.039,1.457.591,1.024a47.884,47.884,0,0,0,19.607-32.6c.118-.748-1.063-.748-1.181,0Z" transform="translate(-1156.816 -57.375)"/></g><g transform="translate(275.342)"><path class="b" d="M1115.883,25.814a68.616,68.616,0,0,1,15.552,44.766.591.591,0,0,0,1.181,0,70.137,70.137,0,0,0-15.906-45.592c-.472-.591-1.3.236-.827.827Z" transform="translate(-1115.742 -24.784)"/></g><g transform="translate(274.229 14.759)"><path class="b" d="M1120.35,62.281c-4.724-.315-9.095,5.63-6.811,10.04,1.693,3.268,8.111,5,10.355,1.457.394-.63-.63-1.221-1.024-.591-1.772,2.835-7.284.906-8.347-1.654-1.575-3.7,2.047-8.347,5.866-8.071.709.039.709-1.142-.039-1.181Z" transform="translate(-1112.914 -62.269)"/></g><g transform="translate(275.165 0.233)"><path class="b" d="M1115.294,25.936a99.512,99.512,0,0,0,2.638,16.339.592.592,0,0,0,1.142-.315,100.663,100.663,0,0,1-2.6-16.024c-.079-.748-1.26-.748-1.181,0Z" transform="translate(-1115.291 -25.375)"/></g><g transform="translate(282.484 27.508)"><path class="b" d="M1133.928,95.537q3.9,8.859,7.756,17.717c.315.709,1.339.079,1.024-.591q-3.9-8.859-7.756-17.717c-.275-.669-1.3-.079-1.023.591Z" transform="translate(-1133.881 -94.652)"/></g><g transform="translate(282.803 23.087)"><path class="b" d="M1134.735,88.218a70.066,70.066,0,0,0,5.512,12.875.591.591,0,0,0,1.024-.591,49.463,49.463,0,0,1-4.646-12.52c-.315.2-.669.394-.984.591l.079.079a4.359,4.359,0,0,1-.079-.709c-.039.039-.039.079-.079.118l.945-.118c-.039-.079,3.465-3.268,3.7-3.465a9.2,9.2,0,0,1-.984-.276,84.387,84.387,0,0,1,1.732,10.867c.394-.039.787-.118,1.142-.157a56.38,56.38,0,0,0-2.559-7.52.593.593,0,0,0-1.142.315c.669,3.189,1.3,6.378,1.969,9.607.394-.118.748-.2,1.142-.315-.866-2.677-1.811-5.276-2.874-7.874a.592.592,0,0,0-1.142.315c.787,2.953,1.575,5.945,2.362,8.9l1.063-.472c-1.1-2.559-2.165-5.118-3.268-7.717-.276-.591-1.3-.157-1.063.472,1.575,4.252,3.15,8.5,4.646,12.8a.593.593,0,0,0,1.142-.315,35.08,35.08,0,0,1-1.22-6.378c-.394.039-.787.118-1.142.157l2.126,7.323a.592.592,0,0,0,1.142-.315,66.412,66.412,0,0,1-1.339-8.386c-.394.039-.787.118-1.142.157.512,2.874.984,5.748,1.693,8.583.157.63,1.221.512,1.142-.157a68.153,68.153,0,0,0-1.772-10.512.592.592,0,0,0-1.142.315,10.391,10.391,0,0,1,.118,3.662c.354-.118.748-.2,1.1-.315a13.788,13.788,0,0,1-1.85-5.355.6.6,0,0,0-1.1-.315c-.276.394-.512.787-.787,1.181h1.024a7.968,7.968,0,0,1-.669-3.583h-1.181l-.236.827a9.189,9.189,0,0,1,.984.276,9.586,9.586,0,0,1-.118-2.8c-.394.039-.787.118-1.142.157-.079.433-.118.866-.2,1.3h1.024c.158-.551.354-1.1.512-1.654-.276-.118-.591-.236-.866-.354l-.591,1.89c.315.2.669.394.984.591a5.677,5.677,0,0,1,1.772-3.071,9.193,9.193,0,0,1-.984-.276A5.826,5.826,0,0,1,1138.2,89c.394.039.787.118,1.142.157a6.52,6.52,0,0,1,.433-2.441c-.394-.039-.787-.118-1.142-.158,0,.709.039,1.417.039,2.126,0,.63,1.063.827,1.142.157l.354-2.126h-1.142c0,.394-.039.787-.039,1.221-.315.709.709,1.3,1.024.591a2.508,2.508,0,0,0,.157-2.126c-.157-.512-1.024-.591-1.142,0l-.354,2.126c.394.039.787.118,1.142.157,0-.709-.039-1.417-.039-2.126a.583.583,0,0,0-1.142-.157,7.389,7.389,0,0,0-.472,2.756.583.583,0,0,0,1.142.157,6.917,6.917,0,0,0,.315-3.583c-.079-.472-.709-.512-.984-.276a7.057,7.057,0,0,0-2.087,3.583.6.6,0,0,0,.984.591,3.2,3.2,0,0,0,.866-3.032.609.609,0,0,0-.866-.354,2.474,2.474,0,0,0-.945,3.268c.2.433.787.315,1.024,0a2.239,2.239,0,0,0,.315-2.2.581.581,0,0,0-1.142.157,10.337,10.337,0,0,0,.157,3.11.611.611,0,0,0,.984.276,1.829,1.829,0,0,0,.591-1.654.591.591,0,0,0-1.181,0,9.534,9.534,0,0,0,.827,4.173c.2.433.787.315,1.024,0,.276-.394.512-.787.787-1.181-.354-.118-.748-.2-1.1-.315a15.014,15.014,0,0,0,2.008,5.945c.315.551,1.024.236,1.1-.315a11.272,11.272,0,0,0-.158-3.977c-.394.118-.748.2-1.142.315a64.167,64.167,0,0,1,1.733,10.2c.394-.039.787-.118,1.141-.157-.669-2.835-1.181-5.709-1.693-8.583a.581.581,0,0,0-1.142.157,64.544,64.544,0,0,0,1.378,8.7c.394-.118.748-.2,1.142-.315l-2.126-7.323c-.2-.63-1.221-.512-1.142.157a38.556,38.556,0,0,0,1.26,6.693c.394-.118.748-.2,1.142-.315-1.535-4.292-3.071-8.544-4.646-12.8l-1.063.472c1.1,2.559,2.165,5.118,3.268,7.717.276.63,1.26.157,1.063-.472-.787-2.953-1.575-5.945-2.362-8.9-.394.118-.748.2-1.142.315,1.024,2.6,1.969,5.236,2.874,7.874a.593.593,0,0,0,1.142-.315c-.669-3.189-1.3-6.378-1.969-9.607-.394.118-.748.2-1.142.315a56.415,56.415,0,0,1,2.559,7.52c.157.63,1.22.512,1.142-.157a89.3,89.3,0,0,0-1.772-11.182.611.611,0,0,0-.984-.276c-1.1,1.024-3.031,2.244-3.78,3.583-.354.669-.354,1.024.079,1.535a.622.622,0,0,0,.945-.118c.039-.039.039-.079.079-.118a.593.593,0,0,0-.079-.709l-.079-.079a.6.6,0,0,0-.984.591,47.721,47.721,0,0,0,4.764,12.8c.354-.2.669-.394,1.024-.591a69.754,69.754,0,0,1-5.394-12.6c-.315-.669-1.457-.354-1.181.354Z" transform="translate(-1134.692 -83.423)"/></g><g transform="translate(275.776 1.717)"><path class="b" d="M1116.865,29.914a94.889,94.889,0,0,1,2.52,12.756.61.61,0,0,0,.906.512,16.357,16.357,0,0,1,4.055-1.575.6.6,0,0,0,.354-.866c-1.811-2.717-3.5-5.512-5.079-8.347-.354-.669-1.339-.079-1.024.591a47.08,47.08,0,0,1,2.559,7.166l1.063-.472a20.311,20.311,0,0,1-1.929-5.433l-1.063.472a13.221,13.221,0,0,1,2.362,7.008c.354-.157.67-.276,1.024-.433a5.341,5.341,0,0,1-1.693-2.953c-.276.236-.59.433-.866.669a1.984,1.984,0,0,1,.906,2.165c.354-.118.748-.2,1.1-.315a24.479,24.479,0,0,1-2.481-4.134l-.827.827c1.1.709,2.559,7.756,5.354,4.567,1.024-1.181.433-2.677-.236-3.9a40.948,40.948,0,0,0-3.9-5.748c-.433-.551-1.26.157-.945.709a32.148,32.148,0,0,1,3.425,8.347l1.063-.472c-.158-.354-.315-.669-.472-1.024l-.827.827v-.079a9.123,9.123,0,0,1-.748.551c.512.2,1.063.394,1.575.591.708.276,1.024-.866.315-1.142-.512-.2-1.063-.394-1.575-.591-.354-.157-.748.236-.748.551-.039,3.11,4.37.63,1.772-.945a.613.613,0,0,0-.827.827c.157.354.315.669.472,1.024.276.63,1.221.157,1.063-.472a32.372,32.372,0,0,0-3.544-8.622l-.945.709c.866,1.142,1.693,2.284,2.48,3.465.315.472.63.945.906,1.457a6.281,6.281,0,0,1,.59,1.142c.63.827.158,1.3-1.457,1.378-.551-.433-.63-1.89-.866-2.52a3.255,3.255,0,0,0-1.418-1.732c-.551-.315-1.023.315-.827.827a23.03,23.03,0,0,0,2.48,4.134.6.6,0,0,0,1.1-.315,3.166,3.166,0,0,0-1.5-3.189c-.433-.315-.984.2-.866.669a6.592,6.592,0,0,0,2.008,3.465.615.615,0,0,0,1.024-.433,14.463,14.463,0,0,0-2.52-7.6.588.588,0,0,0-1.063.472,22.471,22.471,0,0,0,2.047,5.709.587.587,0,0,0,1.063-.472,45.3,45.3,0,0,0-2.677-7.441c-.354.2-.669.394-1.024.591,1.575,2.874,3.268,5.63,5.079,8.347.118-.276.236-.591.354-.866a15.727,15.727,0,0,0-4.331,1.693c.315.157.591.354.905.512a92.366,92.366,0,0,0-2.559-13.071c-.158-.63-1.3-.315-1.1.433Z" transform="translate(-1116.842 -29.144)"/></g><g transform="translate(274.312 2.241)"><path class="b" d="M1114.65,50.8c-.905-2.244,1.26-4.331,2.992-5.355a9.418,9.418,0,0,1,5.552-1.26c.551.039.709-.63.433-1.024-.354-.433-.669-.866-1.023-1.3a.606.606,0,0,0-1.024.433c-.118-.787-1.221-.315-1.732-.315-1.89-.039-1.142-.394-1.221-1.457a34.323,34.323,0,0,0-1.22-3.9,33.663,33.663,0,0,1-.866-5.591c-.039-.748-1.221-.748-1.181,0a34.047,34.047,0,0,0,1.063,6.614c.275.945.945,2.126.827,3.11-.039.433-.354.748-.354,1.181a1.687,1.687,0,0,0,1.772,1.457c.906,0,1.811-.2,2.756-.157.512.039.59.157,1.063-.157a.574.574,0,0,0,.276-.512c0-.079-.039-.2-.039-.276-.354.157-.669.276-1.024.433.354.433.669.866,1.024,1.3.158-.354.276-.669.433-1.024-3.858-.236-11.772,2.953-9.685,8.111.315.709,1.457.394,1.181-.315Z" transform="translate(-1113.125 -30.475)"/></g><g transform="translate(274.706 15.811)"><path class="b" d="M1117.5,65.083a8.93,8.93,0,0,0-3.347,5.709c-.236,2.008.984,3.78,2.48,5.04,4.016,3.425,8.307-.394,10.827-3.622.473-.591-.354-1.417-.827-.827-2.047,2.638-5.63,6.5-9.134,3.622a4.826,4.826,0,0,1-1.969-5,7.852,7.852,0,0,1,2.835-4.095c.59-.472-.276-1.3-.866-.827Z" transform="translate(-1114.125 -64.942)"/></g><g transform="translate(288.609 29.888)"><path class="b" d="M1150.683,101.328a.144.144,0,0,0-.04-.118c-.079.236-.2.433-.276.669.039-.039.079-.039.118-.079a6.29,6.29,0,0,0-.827-.2c.551.866.551,2.441.709,3.425.2,1.3.394,2.638.551,3.937.236,2.244.354,4.488.433,6.772a.591.591,0,0,0,1.181,0c-.079-2.756-.236-5.512-.59-8.268-.118-1.063-.276-2.087-.472-3.15a8.7,8.7,0,0,0-.787-3.347.611.611,0,0,0-.827-.2c-.039.039-.079.039-.118.079a.582.582,0,0,0-.276.669.145.145,0,0,0,.039.118.612.612,0,0,0,1.181-.315Z" transform="translate(-1149.439 -100.696)"/></g><g transform="translate(276.055 1.676)"><path class="b" d="M1117.689,30.089a17.8,17.8,0,0,1,3.071,5.788c.236.709,1.378.394,1.142-.315a19.14,19.14,0,0,0-3.386-6.3c-.433-.63-1.3.236-.827.827Z" transform="translate(-1117.552 -29.042)"/></g><g transform="translate(244.02 7.612)"><path class="b" d="M1036.585,45.293c5.394,1.535,10.827,2.874,16.339,3.977.748.157,1.063-.984.315-1.142-5.512-1.1-10.945-2.441-16.339-3.977-.709-.236-1.024.906-.315,1.142Z" transform="translate(-1036.185 -44.119)"/></g><g transform="translate(230.078 20.251)"><path class="b" d="M1001.336,83.141a146.547,146.547,0,0,0,30.474-5.748c.709-.236.433-1.378-.315-1.142a143.039,143.039,0,0,1-30.159,5.67c-.748.079-.748,1.26,0,1.221Z" transform="translate(-1000.775 -76.219)"/></g><g transform="translate(261.269 27.675)"><path class="b" d="M1086.849,95.164a50.943,50.943,0,0,0-6.654,4.921c-.591.512.276,1.339.827.827a53.846,53.846,0,0,1,6.418-4.725.591.591,0,0,0-.59-1.024Z" transform="translate(-1079.997 -95.075)"/></g><g transform="translate(243.355 40.245)"><path class="b" d="M1060.011,127.159c-8.426,7.284-16.891,14.568-25.316,21.851-.59.512.276,1.339.827.827,8.426-7.284,16.891-14.568,25.316-21.851.59-.472-.236-1.339-.827-.827Z" transform="translate(-1034.497 -127.002)"/></g><g transform="translate(264.268 49.084)"><path class="b" d="M1095.4,149.747c-2.559,4.882-5.158,9.8-7.717,14.686-.354.669.669,1.26,1.024.591,2.559-4.882,5.158-9.8,7.717-14.686.354-.669-.669-1.26-1.024-.591Z" transform="translate(-1087.613 -149.452)"/></g><g transform="translate(276.585 51.707)"><path class="b" d="M1121.3,156.541a183.57,183.57,0,0,0-2.4,23.229c-.039.748,1.142.748,1.181,0a185.964,185.964,0,0,1,2.362-22.914c.118-.748-1.024-1.063-1.142-.315Z" transform="translate(-1118.898 -156.114)"/></g><g transform="translate(313.147 11.869)"><path class="b" d="M1212.88,57.438c10.079-1.339,19.174,5.236,24.135,13.583,5.866,9.843,6.063,22.009,5.787,33.151-.59,25.237-1.654,50.435-2.677,75.633q-3.071,76.125-7.6,152.25-2.539,42.758-5.551,85.476c-.118,1.535,2.244,1.5,2.362,0q5.492-78.015,9.449-156.069c2.638-51.931,4.961-103.9,6.378-155.872.315-12.166.236-25.513-6.378-36.222-5.394-8.74-15.2-15.67-25.867-14.253-1.536.157-1.536,2.52-.039,2.323Z" transform="translate(-1211.762 -54.931)"/></g><g transform="translate(311.577 12.645)"><path class="b" d="M1208.336,58.121a43,43,0,0,1,8.426.748c2.874.669,5.079,2.284,7.638,3.583.669.354,1.26-.669.591-1.024-2.677-1.339-4.961-2.992-7.914-3.7a43.537,43.537,0,0,0-8.74-.827c-.748,0-.748,1.181,0,1.221Z" transform="translate(-1207.775 -56.9)"/></g><g transform="translate(311.577 13.468)"><path class="b" d="M1208.336,60.175a47.214,47.214,0,0,1,23.269,8.9c.63.433,1.22-.591.59-1.024a49.112,49.112,0,0,0-23.859-9.055c-.748-.079-.748,1.1,0,1.181Z" transform="translate(-1207.775 -58.99)"/></g><g transform="translate(310.018 10.74)"><path class="b" d="M1204.241,53.219a99.716,99.716,0,0,1,10.866,2.756c.709.236,1.024-.906.315-1.142a95.482,95.482,0,0,0-10.867-2.756c-.748-.157-1.063.984-.315,1.142Z" transform="translate(-1203.813 -52.062)"/></g><g transform="translate(310.751 10.594)"><path class="b" d="M1206.236,52.875a67.835,67.835,0,0,1,13.465,2.914c.709.236,1.024-.906.315-1.142a68.772,68.772,0,0,0-13.78-2.953c-.748-.079-.748,1.1,0,1.181Z" transform="translate(-1205.675 -51.69)"/></g><g transform="translate(296.421 3.793)"><path class="b" d="M1169.681,35.593a99.247,99.247,0,0,1,17.363,8.032.591.591,0,0,0,.591-1.024,98.392,98.392,0,0,0-17.678-8.15c-.669-.236-.984.906-.276,1.142Z" transform="translate(-1169.279 -34.419)"/></g><g transform="translate(294.767 3.4)"><path class="b" d="M1165.481,34.593a118.413,118.413,0,0,1,17.835,8.307.591.591,0,0,0,.59-1.024,122.472,122.472,0,0,0-18.15-8.426c-.67-.236-.984.906-.276,1.142Z" transform="translate(-1165.079 -33.419)"/></g><g transform="translate(303.206 13.584)"><path class="b" d="M1187.61,79.607A148.979,148.979,0,0,0,1196.942,60c.276-.709-.866-1.024-1.142-.315a147.269,147.269,0,0,1-9.213,19.331c-.354.63.669,1.221,1.024.591Z" transform="translate(-1186.513 -59.285)"/></g><g transform="translate(310.423 13.531)"><path class="b" d="M1206.44,59.447a14.229,14.229,0,0,0-1.575,3.74.592.592,0,0,0,1.142.315,12.709,12.709,0,0,1,1.457-3.465.591.591,0,0,0-1.024-.591Z" transform="translate(-1204.842 -59.152)"/></g><g transform="translate(6.339 215.793)"><path class="b" d="M432.5,573.436v5.67a.591.591,0,0,0,1.181,0v-5.67a.591.591,0,0,0-1.181,0Z" transform="translate(-432.5 -572.875)"/></g><g transform="translate(6.368 221.669)"><path class="b" d="M433.136,588.981h82.8a.591.591,0,0,0,0-1.181h-82.8a.591.591,0,0,0,0,1.181Z" transform="translate(-432.575 -587.8)"/></g><g transform="translate(6.998 215.566)"><path class="b" d="M434.736,573.481h81.775a.591.591,0,0,0,0-1.181H434.736a.591.591,0,0,0,0,1.181Z" transform="translate(-434.175 -572.3)"/></g><g transform="translate(88.504 215.999)"><path class="b" d="M641.391,573.99a34.162,34.162,0,0,1-.2,5.67c-.079.748,1.1.748,1.181,0a30.373,30.373,0,0,0,.2-5.67c-.039-.787-1.221-.787-1.181,0Z" transform="translate(-641.19 -573.4)"/></g><g transform="translate(52.631 189.626)"><path class="b" d="M551.268,506.841c-2.244,8.5-.984,17.284,1.063,25.67a.592.592,0,0,0,1.142-.315c-2.008-8.229-3.268-16.733-1.063-25.04a.592.592,0,0,0-1.142-.315Z" transform="translate(-550.078 -506.414)"/></g><g transform="translate(72.593 190.885)"><path class="b" d="M600.787,510.356c.276,1.772.551,3.5.827,5.276.118.748,1.26.433,1.142-.315-.276-1.772-.551-3.5-.827-5.276-.118-.748-1.26-.433-1.142.315Z" transform="translate(-600.778 -509.614)"/></g><g transform="translate(73.238 195.298)"><path class="b" d="M603.276,522.624c3.189-2.4,5,2.284,5.04,4.725.039,3.071-1.417,5.827-4.764,6.063-.748.039-.748,1.22,0,1.181,4.567-.276,6.3-4.291,5.866-8.386-.315-3.15-3.347-7.126-6.733-4.567-.63.433-.039,1.457.591.984Z" transform="translate(-602.416 -520.821)"/></g><g transform="translate(72.618 207.706)"><path class="b" d="M602.086,552.913a52.689,52.689,0,0,1-1.22,6.969.592.592,0,0,0,1.142.315,56.382,56.382,0,0,0,1.3-7.284c.039-.787-1.142-.748-1.221,0Z" transform="translate(-600.842 -552.337)"/></g><g transform="translate(73.894 197.607)"><path class="b" d="M605.114,528.029c1.26-1.024,1.772,2.2,1.811,2.638a5.355,5.355,0,0,1-.158,1.575,5.672,5.672,0,0,1-1.929,2.992c-.591.473.236,1.3.827.827a6.709,6.709,0,0,0,2.362-6.221c-.276-1.732-1.811-4.252-3.74-2.638-.591.472.236,1.3.827.827Z" transform="translate(-604.084 -526.685)"/></g><g transform="translate(73.843 197.376)"><path class="b" d="M604.05,526.691a65.083,65.083,0,0,0,.079,8.307c.039.748,1.221.748,1.181,0a64.924,64.924,0,0,1-.079-8.307c.039-.787-1.142-.787-1.181,0Z" transform="translate(-603.953 -526.1)"/></g><g transform="translate(55.39 190.218)"><path class="b" d="M557.485,509.093a32,32,0,0,0,14.686,1.181c.748-.118.433-1.26-.315-1.142a30.377,30.377,0,0,1-14.056-1.181c-.709-.236-1.024.906-.315,1.142Z" transform="translate(-557.085 -507.919)"/></g><g transform="translate(56.357 165.145)"><path class="b" d="M561.691,467.489c-2.323-1.457.394-4.646.787-6.5s-.669-2.756-1.378-4.331c-1.024-2.284,1.339-3.977,1.693-6.181.315-1.929-1.26-3.543.866-5.118.591-.433.039-1.457-.591-1.024a4.131,4.131,0,0,0-1.811,4.055c.2,1.221.512,1.85-.079,3.11-.276.63-.669,1.181-.984,1.811a5.17,5.17,0,0,0-.63,2.756,4.62,4.62,0,0,0,1.063,2.2c1.378,2.323.118,3.5-.669,5.709-.591,1.654-.433,3.465,1.142,4.449.63.472,1.22-.551.591-.945Z" transform="translate(-559.541 -444.234)"/></g><g transform="translate(63.818 159.771)"><path class="b" d="M580.187,430.985a18.14,18.14,0,0,0-1.457,4.921c-.118,1.5.984,2.323,1.339,3.662.433,1.614-1.1,2.953-1.26,4.528-.2,2.047,1.614,3.386-.157,5.355-.512.551.315,1.417.827.827a4.306,4.306,0,0,0,1.22-3.5c-.118-.984-.827-1.811-.669-2.874a13.821,13.821,0,0,1,1.024-2.362,3.692,3.692,0,0,0-.354-3.386c-1.26-2.362-.236-4.528.63-6.851.276-.709-.866-1.024-1.142-.315Z" transform="translate(-578.491 -430.585)"/></g><g transform="translate(68.743 171.721)"><path class="b" d="M593.6,461.12a8.179,8.179,0,0,0-2.2,7.244,19.785,19.785,0,0,1,.63,2.638c.079,1.142-.63,1.693-.945,2.677-.433,1.26,1.1,3.071.158,4.055-.512.551.315,1.378.827.827a2.363,2.363,0,0,0,.591-2.2c-.157-.945-.709-1.614-.315-2.6.236-.591.709-.906.866-1.575.315-1.5-.472-2.914-.709-4.37a6.909,6.909,0,0,1,1.929-5.866c.551-.551-.315-1.378-.827-.827Z" transform="translate(-591 -460.938)"/></g><g transform="translate(12.087 209.335)"><path class="b" d="M448.478,562.7a44.226,44.226,0,0,1-.118-4.567l-.591.591c6.339-.63,12.717-.945,19.1-1.024,3.071-.039,6.142,0,9.174.118.748.039,1.535.039,2.284.079.512.039,1.811-.157,2.284.118,1.142.669.669,4.292.709,5.433.039.748,1.221.748,1.181,0-.039-1.614.236-3.74-.2-5.276a1.668,1.668,0,0,0-1.142-1.3c-1.417-.512-3.662-.236-5.158-.276-1.772-.079-3.583-.118-5.355-.118a212,212,0,0,0-22.914,1.024.605.605,0,0,0-.591.591,29.506,29.506,0,0,0,.118,4.567c.079.787,1.26.787,1.221.039Z" transform="translate(-447.1 -556.473)"/></g><g transform="translate(22.035 204.295)"><path class="b" d="M473.639,549.274c0-.709-.276-2.2.039-2.835.512-1.142,2.638-.827,3.662-.866,2.244-.079,4.449-.2,6.693-.276l6.3-.236c1.339-.039,2.835-.433,3.386,1.063a13.655,13.655,0,0,1,.276,3.11c.079.748,1.26.748,1.181,0-.158-1.575.315-4.882-1.732-5.433-1.142-.315-2.717.039-3.937.079l-5.512.236c-3.228.118-6.772-.157-9.922.433-2.244.394-1.614,3.032-1.654,4.725.039.748,1.221.748,1.221,0Z" transform="translate(-472.366 -543.672)"/></g><g transform="translate(36.101 209.93)"><path class="b" d="M508.134,558.7a11.483,11.483,0,0,1,.669,5.512c-.079.748,1.1.748,1.181,0a11.34,11.34,0,0,0-.709-5.827c-.276-.709-1.417-.394-1.142.315Z" transform="translate(-508.092 -557.985)"/></g><g transform="translate(36.174 204.616)"><path class="b" d="M508.326,545.4a8.507,8.507,0,0,1,.551,5.039c-.158.748.984,1.063,1.142.315a9.961,9.961,0,0,0-.669-5.945c-.315-.709-1.3-.118-1.024.591Z" transform="translate(-508.278 -544.487)"/></g><g transform="translate(40.656 204.429)"><path class="b" d="M519.677,544.756c.276,1.417.551,2.874.709,4.292.079.748,1.26.748,1.181,0-.2-1.536-.433-3.11-.748-4.607-.157-.748-1.3-.433-1.142.315Z" transform="translate(-519.662 -544.014)"/></g><g transform="translate(42.636 210.127)"><path class="b" d="M524.734,559.2a8.225,8.225,0,0,1,.354,4.764.592.592,0,0,0,1.142.315,9.02,9.02,0,0,0-.354-5.394c-.276-.709-1.417-.394-1.142.315Z" transform="translate(-524.692 -558.485)"/></g><g transform="translate(0 108.82)"><path class="b" d="M416.4,301.736c0,1.614.079,3.228.2,4.8.079.748,1.26.748,1.181,0a39.2,39.2,0,0,1-.2-4.8.591.591,0,0,0-1.181,0Z" transform="translate(-416.4 -301.175)"/></g><g transform="translate(0.541 114.302)"><path class="b" d="M418.336,316.281h85.121a.591.591,0,0,0,0-1.181H418.336a.591.591,0,0,0,0,1.181Z" transform="translate(-417.775 -315.1)"/></g><g transform="translate(0.354 108.633)"><path class="b" d="M417.891,301.881h85.121a.591.591,0,0,0,0-1.181H417.891a.591.591,0,1,0,0,1.181Z" transform="translate(-417.3 -300.7)"/></g><g transform="translate(85.83 108.82)"><path class="b" d="M634.4,301.736v5.512a.591.591,0,0,0,1.181,0v-5.512a.591.591,0,0,0-1.181,0Z" transform="translate(-634.4 -301.175)"/></g><g transform="translate(4.316 91.63)"><path class="b" d="M427.377,258.256c1.3,5.512,2.6,11.024,3.977,16.5a.592.592,0,0,0,1.142-.315c-1.378-5.473-2.677-10.985-3.977-16.5-.158-.748-1.3-.433-1.142.315Z" transform="translate(-427.362 -257.514)"/></g><g transform="translate(4.281 90.136)"><path class="b" d="M427.875,255.877c2.913-.079,5.788-.2,8.662-.394,1.378-.079,2.756-.2,4.134-.315,1.575-.158,3.307-.512,4.8.2.669.315,1.3-.709.591-1.024-2.441-1.181-5.473-.354-8.071-.158-3.386.236-6.772.433-10.2.512-.709,0-.709,1.181.079,1.181Z" transform="translate(-427.274 -253.719)"/></g><g transform="translate(19.073 90.788)"><path class="b" d="M467.857,255.936a98.8,98.8,0,0,1-2.992,17.245.592.592,0,0,0,1.142.315,98.116,98.116,0,0,0,3.032-17.56c.039-.748-1.142-.748-1.181,0Z" transform="translate(-464.842 -255.375)"/></g><g transform="translate(0.027 72.695)"><path class="b" d="M424.907,227.6a27.1,27.1,0,0,1-5.236-8.9,61.624,61.624,0,0,1-2.087-8.859l-.709.709c7.244,2.48,10.867,9.528,12.284,16.615.157.748,1.3.433,1.142-.315-1.5-7.52-5.473-14.8-13.111-17.4a.576.576,0,0,0-.709.709A54.735,54.735,0,0,0,419,220.24a29.2,29.2,0,0,0,5.079,8.15c.472.63,1.3-.2.827-.787Z" transform="translate(-416.469 -209.421)"/></g><g transform="translate(10.641 65.472)"><path class="b" d="M444.755,209c-1.024-3.662,2.4-6.339,4.37-8.937a39.243,39.243,0,0,0,4.685-8.071,9.889,9.889,0,0,1-1.063-.158c1.929,7.914,3.78,17.4-2.362,24.017-.512.551.315,1.378.827.827,6.418-6.969,4.685-16.812,2.638-25.158-.118-.472-.866-.63-1.063-.157a39.4,39.4,0,0,1-6.3,10.079c-1.929,2.244-3.7,4.764-2.835,7.874.157.709,1.3.433,1.1-.315Z" transform="translate(-443.426 -191.075)"/></g><g transform="translate(38.505 101.615)"><path class="b" d="M515.381,290.129v-6.693a.591.591,0,0,0-1.181,0v6.693a.591.591,0,1,0,1.181,0Z" transform="translate(-514.2 -282.875)"/></g><g transform="translate(38.535 101.428)"><path class="b" d="M514.836,283.581h42.836a.591.591,0,0,0,0-1.181H514.836a.591.591,0,0,0,0,1.181Z" transform="translate(-514.275 -282.4)"/></g><g transform="translate(81.499 101.94)"><path class="b" d="M623.4,284.291v6.536a.591.591,0,0,0,1.181,0v-6.536a.591.591,0,1,0-1.181,0Z" transform="translate(-623.4 -283.7)"/></g><g transform="translate(46.419 97.323)"><path class="b" d="M535.481,276.473v-3.937a.591.591,0,0,0-1.181,0v3.937a.591.591,0,1,0,1.181,0Z" transform="translate(-534.3 -271.975)"/></g><g transform="translate(46.449 96.782)"><path class="b" d="M534.936,271.781h33.7a.591.591,0,0,0,0-1.181h-33.7a.591.591,0,0,0,0,1.181Z" transform="translate(-534.375 -270.6)"/></g><g transform="translate(80.318 96.782)"><path class="b" d="M620.4,271.191v4.488a.591.591,0,0,0,1.181,0v-4.488a.591.591,0,0,0-1.181,0Z" transform="translate(-620.4 -270.6)"/></g><g transform="translate(55.553 90.118)"><path class="b" d="M558.681,260.417v-6.181a.591.591,0,0,0-1.181,0v6.181a.591.591,0,0,0,1.181,0Z" transform="translate(-557.5 -253.675)"/></g><g transform="translate(56.095 89.734)"><path class="b" d="M559.436,253.881h22.521a.591.591,0,0,0,0-1.181H559.436a.591.591,0,0,0,0,1.181Z" transform="translate(-558.875 -252.7)"/></g><g transform="translate(78.94 89.567)"><path class="b" d="M616.9,252.836v6.693a.591.591,0,0,0,1.181,0v-6.693a.591.591,0,0,0-1.181,0Z" transform="translate(-616.9 -252.275)"/></g><g transform="translate(71.043 89.897)"><path class="b" d="M596.865,253.856a18.348,18.348,0,0,1,.472,6.378c-.079.748,1.1.748,1.181,0a18.245,18.245,0,0,0-.512-6.693.592.592,0,0,0-1.142.315Z" transform="translate(-596.842 -253.114)"/></g><g transform="translate(74.606 90.433)"><path class="b" d="M605.894,255.036a32.292,32.292,0,0,1,.2,5.158c-.039.748,1.142.748,1.181,0a28.265,28.265,0,0,0-.2-5.158c-.079-.748-1.26-.748-1.181,0Z" transform="translate(-605.89 -254.475)"/></g><g transform="translate(69.797 96.945)"><path class="b" d="M593.687,271.756a14.937,14.937,0,0,1,0,3.977c-.079.748,1.1.748,1.181,0a15.681,15.681,0,0,0-.039-4.291c-.118-.748-1.26-.433-1.142.315Z" transform="translate(-593.678 -271.014)"/></g><g transform="translate(72.569 96.776)"><path class="b" d="M600.948,271.3a5.743,5.743,0,0,1-.2,3.15c-.236.709.905,1.024,1.142.315a6.841,6.841,0,0,0,.2-3.78c-.157-.709-1.3-.394-1.142.315Z" transform="translate(-600.719 -270.585)"/></g><g transform="translate(63.896 101.457)"><path class="b" d="M578.694,283.036a42.14,42.14,0,0,1,.118,7.048c-.039.748,1.142.748,1.181,0a42.133,42.133,0,0,0-.118-7.048c-.079-.748-1.26-.748-1.181,0Z" transform="translate(-578.69 -282.475)"/></g><g transform="translate(75.939 101.615)"><path class="b" d="M609.366,283.436a23,23,0,0,1-.079,6.575c-.118.748,1.024,1.063,1.142.315a23.752,23.752,0,0,0,.118-6.89c-.079-.748-1.26-.748-1.181,0Z" transform="translate(-609.278 -282.875)"/></g><g transform="translate(118.666 36.661)"><path class="b" d="M717.8,118.491v20.552a.591.591,0,0,0,1.181,0V118.491a.591.591,0,0,0-1.181,0Z" transform="translate(-717.8 -117.9)"/></g><g transform="translate(101.569 57.489)"><path class="b" d="M674.936,171.981h32.521a.591.591,0,0,0,0-1.181H674.936a.591.591,0,0,0,0,1.181Z" transform="translate(-674.375 -170.8)"/></g><g transform="translate(128.942 58.345)"><path class="b" d="M743.9,173.536v20.237a.591.591,0,0,0,1.181,0V173.536a.591.591,0,0,0-1.181,0Z" transform="translate(-743.9 -172.975)"/></g></g><g transform="translate(291.626 329.625)"><g transform="translate(39.847 36.843)"><path class="c" d="M1187.5,957.554c-1.024,1.693.433,3.662,3.78,11.063,5.118,11.3,4.882,13.9,4.055,15.631-1.378,2.835-4.331,3.189-4.055,4.567.394,2.008,6.89,3.543,9.174,1.063,1.024-1.1.866-2.638.551-5.669-1.417-12.56-1.693-13.465-2.165-17.284-.827-6.772-.394-8.5-2.165-10C1194.039,954.838,1188.921,955.271,1187.5,957.554Z" transform="translate(-1187.182 -955.576)"/></g><g transform="translate(99.244 36.259)"><path class="c" d="M1340.231,954.923c2.953-2.087,8.111.118,10.788,2.717,2.244,2.126,1.732,3.543,4.331,5.394a10.874,10.874,0,0,0,6.732,2.165c2.638-.157,3.15-1.457,5.118-1.063,1.378.236,1.969,1.024,4.606,3.5,4.134,3.937,5.669,4.843,5.394,5.394-.276.512-1.575.236-7.284-.551-4.174-.591-6.339-.866-7.835-.945-3.425-.157-3.583.276-8.623.394-5.2.158-7.835.158-9.725-.827-4.213-2.2-5.315-7.087-5.394-7.559C1338.223,962.916,1337.082,957.128,1340.231,954.923Z" transform="translate(-1338.044 -954.094)"/></g><g transform="translate(36.788 22.086)"><path class="c" d="M1186.849,918.1c2.559.079,3.662,3.071,5.945,5.669,5.945,6.851,16.3,7.087,24.8,7.284,16.064.354,20.395-5.748,28.072-1.614,4.213,2.283,8.189,6.969,8.11,12.126-.118,6.733-7.166,11.5-12.127,13.229-4.41,1.535-6.811.591-18.9-1.614-19.449-3.583-23.308-3.032-30.749-7.284-4.252-2.441-8.071-5.551-10.512-10.237-1.024-1.969-2.638-5.236-1.89-9.174C1180.353,922.348,1183.66,917.978,1186.849,918.1Z" transform="translate(-1179.413 -918.094)"/></g><g transform="translate(100.708)"><path class="c" d="M1341.935,895.7c.827-1.142,4.095,1.732,7.559.276,2.953-1.26,4.292-4.921,5.118-7.284,1.536-4.213.512-5.709,2.165-7.284,1.575-1.536,2.953-.551,7.559-1.89,3.11-.906,5.63-1.614,7.008-3.78,1.1-1.732.315-2.6,1.063-7.008.236-1.339,1.142-6.693,2.441-6.732.945-.039,2.087,2.8,2.165,5.394.039,1.063-.118,1.811-1.614,6.732a37.956,37.956,0,0,1-1.614,4.843c-1.929,2.4-4.488,1.221-9.449,3.5-2.4,1.1-4.725,2.165-5.945,4.567-1.1,2.2-.157,3.189-1.339,6.457a14.265,14.265,0,0,1-3.229,5.118c-1.3,1.3-3.937,3.858-7.008,3.228C1343.353,901.214,1341.109,896.843,1341.935,895.7Z" transform="translate(-1341.764 -861.999)"/></g><g transform="translate(90.268 43.838)"><path class="c" d="M1316.686,981.831a11.946,11.946,0,0,0-1.339,7.008c.473,3.425,2.6,6.378,4.055,8.347,2.008,2.8,3.189,3.386,2.953,4.567-.433,2.6-6.26,2.8-6.221,4.055.079,1.26,5.985,1.89,10.512,1.614,3.386-.2,4.173-.787,4.607-1.339.945-1.339-.118-2.913-.551-6.457a27.257,27.257,0,0,1,.276-7.284c.59-4.922,1.536-5.236,1.89-8.9.276-2.914.748-7.756-1.614-9.449C1328.025,971.712,1319.8,975.689,1316.686,981.831Z" transform="translate(-1315.247 -973.344)"/></g><g transform="translate(0 12.699)"><path class="c" d="M1115.224,926.978c.63,3.189,4.095,5.2,9.174,7.284,5.394,2.244,20.67,8.544,23.465,4.331a3.684,3.684,0,0,0,0-3.5c-1.181-2.244-4.41-2.008-10-2.953-4.882-.827-9.41-1.575-14.016-4.055-4.252-2.244-6.772-4.961-8.111-4.055C1114.79,924.694,1115.184,926.781,1115.224,926.978Z" transform="translate(-1103.638 -912.194)"/><g transform="translate(5.355)"><path class="a" d="M1099.663,895.137a25.247,25.247,0,0,0,4.488,5.551c.551.512,1.378-.315.827-.827a24.211,24.211,0,0,1-4.291-5.315.591.591,0,0,0-1.024.591Z" transform="translate(-1099.575 -894.252)"/></g><g transform="translate(0.223 2.808)"><path class="a" d="M1086.683,902.414a10.275,10.275,0,0,0,4.567,3.189c.709.276,1.024-.866.315-1.142a9.349,9.349,0,0,1-4.055-2.874c-.473-.591-1.3.236-.827.827Z" transform="translate(-1086.542 -901.384)"/></g><g transform="translate(0 10.409)"><path class="a" d="M1086.536,921.875c1.1.118,2.2.2,3.347.315.748.079.748-1.1,0-1.181-1.1-.118-2.2-.2-3.347-.315-.748-.079-.748,1.1,0,1.181Z" transform="translate(-1085.975 -920.69)"/></g></g><g transform="translate(22.828 10.513)"><path class="c" d="M1154.907,894.606a18.714,18.714,0,0,0-5.669,3.5c-1.811,1.654-3.543,3.228-3.78,5.394-.433,3.937,4.37,7.677,8.11,9.174.669.276,8.583,3.268,12.953-1.339,2.953-3.15,2.284-7.638,2.165-8.347-.906-5.866-6.181-8.622-6.733-8.9-1.338-1.811-2.717-3.583-4.055-5.394C1156.915,890.669,1155.931,892.637,1154.907,894.606Z" transform="translate(-1144.85 -888.7)"/><g transform="translate(6.353 10.506)"><path class="d" d="M1160.134,916.1a4.114,4.114,0,0,0,3.977,2.8c.748-.039.748-1.221,0-1.181a2.9,2.9,0,0,1-2.835-1.929c-.276-.709-1.417-.394-1.142.315Z" transform="translate(-1160.092 -915.385)"/></g><g transform="translate(0 13.706)"><path class="d" d="M1144.6,923.823c.354,0,.512.118.551.394-.118.118-.2.276-.315.394-.236.079-.276-.039-.354-.118-.039-.039,0-.079-.039-.039s-.039.158-.079.236c.236-.118.472-.276.709-.394h0a.039.039,0,0,1,.039.039c.039.039,0,.039,0-.039h0a.573.573,0,0,0-1.1.315,1.117,1.117,0,0,0,.787.827.58.58,0,0,0,.709-.394,1.129,1.129,0,0,0,0-1.063.9.9,0,0,0-1.024-.433.807.807,0,0,0-.512.945.754.754,0,0,0,.906.551.632.632,0,0,0-.276-1.221Z" transform="translate(-1143.956 -923.513)"/></g><g transform="translate(0.388 14.297)"><path class="d" d="M1144.965,925.756a3.4,3.4,0,0,0,4.764,2.047c.669-.354.079-1.378-.591-1.024a2.212,2.212,0,0,1-3.031-1.339.592.592,0,0,0-1.142.315Z" transform="translate(-1144.942 -925.014)"/></g></g></g><g transform="translate(28.632 318.64)"><path class="e" d="M470.9,838.074c.866.158,2.126.394,3.7.591a131.136,131.136,0,0,0,19.489,1.142c3.977.039,9.843.157,17.205.433,7.835-.551,15.709-1.1,23.544-1.693-10.827-1.1-21.654-2.244-32.482-3.346Q486.59,836.617,470.9,838.074Z" transform="translate(-450.071 -834.766)"/><path class="e" d="M529.7,898.416l6.733,1.417a131.168,131.168,0,0,0,25.355-4.016c1.732-.433,3.425-.906,5.039-1.417Q548.283,896.408,529.7,898.416Z" transform="translate(-485.721 -870.658)"/><path class="e" d="M472.2,969.131c.039,3.307.079,6.654.118,9.961q27.285,3.484,54.608,6.969V976.1q16.713-7.441,33.387-14.883l-9.331-1.417c-.354.551-.709,1.1-1.024,1.693q-20.257,6.26-40.513,12.56C497.044,972.4,484.6,970.745,472.2,969.131Z" transform="translate(-450.86 -910.309)"/><path class="f" d="M420.8,865.138c13.623,1.654,27.285,3.307,40.907,4.961q22.8-1.594,45.592-3.229c-3.307-1.063-6.614-2.087-9.922-3.15l-20.591,1.535c-12.953-.905-25.867-1.85-38.82-2.756C432.257,863.366,426.509,864.232,420.8,865.138Z" transform="translate(-419.697 -851.317)"/><path class="f" d="M550.7,916.8c4.213.63,8.465,1.26,12.678,1.89,11.654-3.032,23.269-6.024,34.923-9.056-3.858-.591-7.677-1.142-11.536-1.732Q568.693,912.388,550.7,916.8Z" transform="translate(-498.453 -878.843)"/><path class="f" d="M427.6,947.958q26.93,3.839,53.821,7.717c5.551-1.181,11.339-2.559,17.363-4.213,8.268-2.244,15.946-4.725,23.072-7.244l-8.032-1.417q-12.579,3.484-25.2,6.969-22.324-3.071-44.647-6.1C438.545,945.123,433.073,946.54,427.6,947.958Z" transform="translate(-423.819 -900.002)"/><g transform="translate(18.348 3.889)"><path class="a" d="M464.6,844.536v7.126a.591.591,0,0,0,1.181,0v-7.126a.591.591,0,0,0-1.181,0Z" transform="translate(-464.6 -843.975)"/></g><g transform="translate(18.545 3.504)"><path class="a" d="M465.691,844.18c13.938.472,27.915.906,41.852,1.378.748.039.748-1.142,0-1.181-13.938-.472-27.914-.906-41.852-1.378-.787-.039-.787,1.142,0,1.181Z" transform="translate(-465.1 -842.998)"/></g><g transform="translate(18.545 11.301)"><path class="a" d="M465.691,863.981q19.017.354,37.994,1.772c.748.039.748-1.142,0-1.181q-18.957-1.358-37.994-1.772a.591.591,0,1,0,0,1.181Z" transform="translate(-465.1 -862.8)"/></g><g transform="translate(60.805 3.583)"><path class="a" d="M573.013,845.836c8.071-.709,16.182-1.181,24.253-1.457.748-.039.748-1.22,0-1.181-8.11.236-16.182.748-24.253,1.457-.748.039-.787,1.221,0,1.181Z" transform="translate(-572.437 -843.197)"/></g><g transform="translate(56.765 10.313)"><path class="a" d="M562.736,864.271c9.489-.945,19.017-1.85,28.505-2.8.748-.079.748-1.26,0-1.181-9.489.945-19.017,1.851-28.505,2.8-.748.079-.748,1.26,0,1.181Z" transform="translate(-562.175 -860.29)"/></g><g transform="translate(59.354 5.777)"><path class="a" d="M570.187,849.058a3.5,3.5,0,0,0-.551,1.378c-.118.866.236,1.536-.2,2.4a5.039,5.039,0,0,0-.63,3.189c.118.748,1.26.433,1.142-.315-.2-1.3.472-1.89.866-2.953.354-1.1-.315-2.047.394-3.11.394-.63-.63-1.26-1.024-.591Z" transform="translate(-568.749 -848.772)"/></g><g transform="translate(18.559)"><path class="a" d="M465.869,838.429c10.63-1.457,21.3-2.48,32.049-3.15.748-.039.748-1.221,0-1.181q-16.241,1-32.324,3.189c-.787.118-.473,1.221.276,1.142Z" transform="translate(-465.135 -834.097)"/></g><g transform="translate(49.993 0.001)"><path class="a" d="M545.536,835.321a206.449,206.449,0,0,1,34.135,3.071c.748.118,1.063-1.024.315-1.142a206.47,206.47,0,0,0-34.45-3.15c-.748.039-.748,1.221,0,1.221Z" transform="translate(-544.975 -834.1)"/></g><g transform="translate(21.031 7.201)"><path class="a" d="M471.841,853.534c3.386.787,6.929-.039,10.394,0a104.25,104.25,0,0,1,11.575.945c.748.079.748-1.1,0-1.181-3.583-.394-7.205-.827-10.827-.906-3.5-.079-7.363.827-10.827.039a.573.573,0,1,0-.315,1.1Z" transform="translate(-471.414 -852.388)"/></g><g transform="translate(36.489 9.725)"><path class="a" d="M511.236,859.98c6.024.2,12.087.472,18.111.827.748.039.748-1.142,0-1.181-6.024-.354-12.087-.63-18.111-.827-.748-.039-.748,1.142,0,1.181Z" transform="translate(-510.675 -858.797)"/></g><g transform="translate(46.317 7.635)"><path class="a" d="M536.213,854.675c3.465.276,6.969.63,10.433,1.063.748.079.748-1.1,0-1.181-3.465-.433-6.929-.787-10.433-1.063-.787-.079-.748,1.1,0,1.181Z" transform="translate(-535.637 -853.49)"/></g><g transform="translate(63.279 6.457)"><path class="a" d="M579.145,853.451c2.756.394,5.433-.276,8.15-.669,3.228-.512,6.5-.905,9.764-1.1.748-.039.748-1.221,0-1.181-2.638.158-5.276.472-7.874.827-3.15.433-6.5,1.457-9.685,1.024-.787-.157-1.1.984-.354,1.1Z" transform="translate(-578.72 -850.497)"/></g><g transform="translate(68.104 8.348)"><path class="a" d="M591.536,858.41c2.441.276,4.685-.591,7.047-1.063a43.009,43.009,0,0,1,8.386-.866.591.591,0,0,0,0-1.181,49.516,49.516,0,0,0-7.244.63c-2.677.472-5.433,1.654-8.189,1.339-.748-.118-.748,1.063,0,1.142Z" transform="translate(-590.975 -855.3)"/></g><g transform="translate(84.611 4.647)"><path class="a" d="M632.9,846.491c.039,2.008.079,3.977.157,5.984a.591.591,0,0,0,1.181,0c-.039-2.008-.079-3.977-.158-5.984a.591.591,0,1,0-1.181,0Z" transform="translate(-632.9 -845.9)"/></g><g transform="translate(0 13.505)"><path class="a" d="M418.235,868.99q.059,3.957-.236,7.914c-.039.748,1.142.748,1.181,0q.3-3.957.236-7.914c-.039-.787-1.221-.787-1.181,0Z" transform="translate(-417.998 -868.4)"/></g><g transform="translate(0.252 21.967)"><path class="a" d="M419.213,891.075c13.78,1.732,27.6,3.229,41.458,4.567.748.079.748-1.1,0-1.181-13.859-1.339-27.678-2.835-41.458-4.567-.787-.079-.748,1.1,0,1.181Z" transform="translate(-418.637 -889.89)"/></g><g transform="translate(41.655 18.732)"><path class="a" d="M524.192,882.236c-.118,2.52-.276,5-.394,7.52-.039.748,1.142.748,1.181,0,.118-2.52.276-5,.394-7.52.039-.748-1.142-.748-1.181,0Z" transform="translate(-523.797 -881.675)"/></g><g transform="translate(42.079 14.998)"><path class="a" d="M525.436,876.722q22.8-.886,45.514-3.347c.748-.079.748-1.26,0-1.181q-22.678,2.421-45.514,3.347c-.748.039-.748,1.221,0,1.181Z" transform="translate(-524.875 -872.19)"/></g><g transform="translate(42.276 22.163)"><path class="a" d="M525.936,896.26q22.5-2.658,45.12-4.685c.748-.079.748-1.26,0-1.181q-22.56,2.067-45.12,4.685c-.748.079-.748,1.26,0,1.181Z" transform="translate(-525.375 -890.39)"/></g><g transform="translate(87.642 15.435)"><path class="a" d="M640.6,873.891c0,2.126.039,4.252.039,6.378a.591.591,0,0,0,1.181,0c0-2.126-.039-4.252-.039-6.378a.591.591,0,0,0-1.181,0Z" transform="translate(-640.6 -873.3)"/></g><g transform="translate(0.243 10.785)"><path class="a" d="M419.356,864.723c5.906-.787,11.811-1.5,17.757-2.047.748-.079.748-1.26,0-1.181-6.024.551-12.048,1.26-18.072,2.087-.748.079-.433,1.221.315,1.142Z" transform="translate(-418.614 -861.49)"/></g><g transform="translate(1.015 13.623)"><path class="a" d="M421.136,869.88q20.434,1.476,40.75,4.252c.748.118,1.063-1.024.315-1.142-13.623-1.851-27.324-3.307-41.065-4.292-.748-.039-.748,1.142,0,1.181Z" transform="translate(-420.575 -868.697)"/></g><g transform="translate(77.017 11.64)"><path class="a" d="M614.041,864.819a74.548,74.548,0,0,1,10.473,2.756c.709.236,1.024-.906.315-1.142a78.737,78.737,0,0,0-10.473-2.756c-.748-.157-1.063.984-.315,1.142Z" transform="translate(-613.614 -863.662)"/></g><g transform="translate(6.842 19.022)"><path class="a" d="M435.936,883.628c7.087-.354,13.859,2.126,20.906,2.244a.591.591,0,0,0,0-1.181c-7.048-.118-13.859-2.6-20.906-2.244-.748.039-.748,1.221,0,1.181Z" transform="translate(-435.375 -882.412)"/></g><g transform="translate(20.547 17.518)"><path class="a" d="M470.585,879.776c5.2,1.929,10.827.748,16.182,1.929.748.157,1.063-.984.315-1.142-5.354-1.181-10.985,0-16.182-1.929-.709-.276-1.024.866-.315,1.142Z" transform="translate(-470.185 -878.592)"/></g><g transform="translate(44.418 18.623)"><path class="a" d="M531.556,886.635c13.071-2.953,26.655-3.268,39.962-4.055.748-.039.748-1.22,0-1.181-13.465.827-27.088,1.1-40.277,4.095-.748.157-.433,1.3.315,1.142Z" transform="translate(-530.814 -881.398)"/></g><g transform="translate(66.45 20.42)"><path class="a" d="M587.336,888.418a58.137,58.137,0,0,0,13.819-1.3c.748-.158.433-1.3-.315-1.142a57.737,57.737,0,0,1-13.5,1.26c-.748-.039-.748,1.142,0,1.181Z" transform="translate(-586.775 -885.962)"/></g><g transform="translate(8.584 23.22)"><path class="a" d="M439.8,893.636v8.819a.591.591,0,0,0,1.181,0v-8.819a.591.591,0,0,0-1.181,0Z" transform="translate(-439.8 -893.075)"/></g><g transform="translate(8.618 32.184)"><path class="a" d="M440.285,917.007c6.378,1.89,13.426,1.929,20.04,2.559,7.008.669,14.056,1.378,21.064,2.047.748.079.748-1.1,0-1.181-6.772-.669-13.544-1.3-20.316-1.969-6.733-.669-13.977-.669-20.473-2.6a.594.594,0,0,0-.315,1.142Z" transform="translate(-439.885 -915.842)"/></g><g transform="translate(50.042 28.23)"><path class="a" d="M545.139,906.391c.039,2.717.039,5.394-.039,8.111a.591.591,0,0,0,1.181,0c.079-2.717.079-5.394.039-8.111a.591.591,0,0,0-1.181,0Z" transform="translate(-545.1 -905.8)"/></g><g transform="translate(43.192 27.442)"><path class="a" d="M528.291,904.98a45.065,45.065,0,0,1,6.457,1.063.592.592,0,0,0,.315-1.142,44.146,44.146,0,0,0-6.772-1.1c-.787-.039-.787,1.142,0,1.181Z" transform="translate(-527.7 -903.797)"/></g><g transform="translate(50.269 23.255)"><path class="a" d="M546.236,899.358a231.636,231.636,0,0,0,32.8-5.04c.748-.158.433-1.3-.315-1.142a232.026,232.026,0,0,1-32.482,5c-.748.039-.748,1.221,0,1.181Z" transform="translate(-545.675 -893.162)"/></g><g transform="translate(50.115 28.09)"><path class="a" d="M546,915.465c12.52-2.4,24.962-5.355,37.206-8.859a.592.592,0,0,0-.315-1.142c-12.284,3.5-24.686,6.5-37.206,8.859-.709.158-.394,1.3.315,1.142Z" transform="translate(-545.285 -905.442)"/></g><g transform="translate(87.284 22.354)"><path class="a" d="M639.852,891.436a58.068,58.068,0,0,1-.157,5.866c-.079.748,1.1.748,1.181,0,.158-1.969.2-3.937.158-5.866a.591.591,0,0,0-1.181,0Z" transform="translate(-639.69 -890.875)"/></g><g transform="translate(83.065 22.735)"><path class="a" d="M629.536,893.519a16.945,16.945,0,0,0,3.977-.512.592.592,0,0,0-.315-1.142,14.378,14.378,0,0,1-3.662.472.591.591,0,0,0,0,1.181Z" transform="translate(-628.975 -891.842)"/></g><g transform="translate(15.07 29.487)"><path class="a" d="M456.836,910.175c9.528,1.142,19.017,2.244,28.544,3.228.748.079.748-1.1,0-1.181q-14.292-1.476-28.544-3.228c-.748-.079-.748,1.1,0,1.181Z" transform="translate(-456.275 -908.99)"/></g><g transform="translate(11.409 26.222)"><path class="a" d="M447.536,901.88c4.016.394,8.032.709,12.048.905.748.039.748-1.142,0-1.181-4.016-.2-8.032-.512-12.048-.906-.748-.039-.748,1.142,0,1.181Z" transform="translate(-446.975 -900.698)"/></g><g transform="translate(28.481 28.388)"><path class="a" d="M490.913,907.381a97.875,97.875,0,0,1,15.158,1.142c.748.118,1.063-1.024.315-1.142a101.611,101.611,0,0,0-15.473-1.181.591.591,0,0,0,0,1.181Z" transform="translate(-490.337 -906.2)"/></g><g transform="translate(52.016 29.16)"><path class="a" d="M550.856,912.39c5.67-.906,11.3-1.929,16.93-3.071.748-.157.433-1.3-.315-1.142-5.63,1.142-11.26,2.165-16.93,3.071-.748.118-.433,1.26.315,1.142Z" transform="translate(-550.114 -908.162)"/></g><g transform="translate(62.754 27.71)"><path class="a" d="M578.1,910.629a119.691,119.691,0,0,1,20.906-5c.748-.118.433-1.26-.315-1.142a115.459,115.459,0,0,0-20.906,5c-.709.276-.394,1.417.315,1.142Z" transform="translate(-577.385 -904.478)"/></g><g transform="translate(79.998 25.513)"><path class="a" d="M621.9,901.182a27.065,27.065,0,0,1,5.866-1.1c.748-.039.748-1.22,0-1.181a27.591,27.591,0,0,0-6.181,1.142c-.709.236-.394,1.378.315,1.142Z" transform="translate(-621.185 -898.898)"/></g><g transform="translate(17.403 34.323)"><path class="a" d="M462.357,921.836c-.039,2.8-.118,5.591-.158,8.386a.591.591,0,0,0,1.181,0c.039-2.8.118-5.591.157-8.386.039-.748-1.142-.748-1.181,0Z" transform="translate(-462.2 -921.275)"/></g><g transform="translate(17.551 42.868)"><path class="a" d="M463.136,944.168q22.914,3.071,45.868,6.1c.748.118.748-1.063,0-1.181q-22.914-3.071-45.868-6.1c-.748-.118-.748,1.063,0,1.181Z" transform="translate(-462.575 -942.979)"/></g><g transform="translate(51.347 37.199)"><path class="a" d="M548.841,929.729c4.567.709,9.134,1.3,13.741,1.732.748.079.748-1.1,0-1.181-4.488-.433-8.977-.984-13.426-1.693-.748-.118-1.063,1.024-.315,1.142Z" transform="translate(-548.414 -928.578)"/></g><g transform="translate(65.112 30.387)"><path class="a" d="M583.936,920.854c11.733-1.1,22.481-6.457,34.017-8.426.748-.118.433-1.26-.315-1.142-11.457,1.929-22.088,7.244-33.7,8.347-.748.118-.748,1.3,0,1.221Z" transform="translate(-583.375 -911.278)"/></g><g transform="translate(87.53 28.301)"><path class="a" d="M640.741,907.129c3.976.591,7.992,1.024,12.008,1.26.748.039.748-1.142,0-1.181-3.937-.236-7.835-.63-11.693-1.221-.748-.118-1.063,1.024-.315,1.142Z" transform="translate(-640.314 -905.978)"/></g><g transform="translate(63.979 39.255)"><path class="a" d="M580.814,934.391c-.118,3.071-.2,6.181-.315,9.252-.039.748,1.142.748,1.181,0,.118-3.071.2-6.181.315-9.252.039-.787-1.142-.787-1.181,0Z" transform="translate(-580.497 -933.8)"/></g><g transform="translate(63.867 39.026)"><path class="a" d="M580.956,944.393q17.658-4.252,34.883-10c.709-.236.394-1.378-.315-1.142-11.5,3.819-23.111,7.126-34.883,10-.748.158-.433,1.3.315,1.142Z" transform="translate(-580.214 -933.219)"/></g><g transform="translate(99.174 30.425)"><path class="a" d="M669.894,911.936a52.6,52.6,0,0,1,.236,8.622c-.039.748,1.142.748,1.181,0a63.094,63.094,0,0,0-.236-8.622c-.079-.748-1.26-.748-1.181,0Z" transform="translate(-669.89 -911.375)"/></g><g transform="translate(19.795 40.747)"><path class="a" d="M469.624,937.594a5.327,5.327,0,0,1-.787.079.591.591,0,0,0,0,1.181c10,1.063,19.922,2.677,29.883,4.252.748.118,1.063-1.024.315-1.142-10.04-1.614-20.08-3.229-30.2-4.292v1.181a5.344,5.344,0,0,1,.787-.079c.748-.079.748-1.26,0-1.181Z" transform="translate(-468.275 -937.59)"/></g><g transform="translate(23.815 37.862)"><path class="a" d="M478.885,931.419c2.992.748,5.985,1.457,9.016,2.047.748.158,1.063-.984.315-1.142-3.032-.591-6.024-1.26-9.016-2.047-.709-.158-1.024.984-.315,1.142Z" transform="translate(-478.485 -930.262)"/></g><g transform="translate(36.268 39.408)"><path class="a" d="M510.541,935.336c7.914,1.221,15.788,2.441,23.7,3.662.748.118,1.063-1.024.315-1.142-7.914-1.221-15.788-2.441-23.7-3.662-.748-.079-1.063,1.063-.315,1.142Z" transform="translate(-510.114 -934.19)"/></g><g transform="translate(70.27 36.844)"><path class="a" d="M597.036,933.159c6.575-.157,12.52-3.347,18.977-4.331.748-.118.433-1.26-.315-1.142-6.339.984-12.166,4.134-18.662,4.292-.748.039-.748,1.221,0,1.181Z" transform="translate(-596.475 -927.678)"/></g><g transform="translate(67.962 42.972)"><path class="a" d="M591.356,946.572c2.874-.709,5.748-1.417,8.622-2.165a.592.592,0,0,0-.315-1.142c-2.874.709-5.748,1.417-8.623,2.165-.748.157-.433,1.3.315,1.142Z" transform="translate(-590.614 -943.242)"/></g><g transform="translate(87.53 37.106)"><path class="a" d="M641.056,932.263c3.386-.906,6.772-1.811,10.158-2.756a.592.592,0,0,0-.315-1.142c-3.386.905-6.772,1.811-10.158,2.756a.592.592,0,0,0,.315,1.142Z" transform="translate(-640.314 -928.342)"/></g><g transform="translate(1.842 43.238)"><path class="a" d="M423.236,949.03a89.353,89.353,0,0,0,18.426-3.937c.709-.236.394-1.378-.315-1.142a88.946,88.946,0,0,1-18.111,3.9c-.748.079-.748,1.26,0,1.181Z" transform="translate(-422.675 -943.919)"/></g><g transform="translate(1.929 47.67)"><path class="a" d="M422.9,955.736c.118,2.677.276,5.315.394,7.992.039.748,1.221.748,1.181,0-.118-2.677-.276-5.315-.394-7.992-.039-.748-1.221-.748-1.181,0Z" transform="translate(-422.897 -955.175)"/></g><g transform="translate(2.447 55.822)"><path class="a" d="M424.759,977.068q27.285,3.6,54.53,7.166c.748.118.748-1.1,0-1.181q-27.285-3.6-54.53-7.166c-.748-.118-.709,1.063,0,1.181Z" transform="translate(-424.212 -975.879)"/></g><g transform="translate(2.222 47.716)"><path class="a" d="M424.059,956.436q26.34,3.721,52.719,6.772c.748.079.748-1.1,0-1.181q-26.222-3.012-52.4-6.733c-.709-.079-1.063,1.063-.315,1.142Z" transform="translate(-423.642 -955.29)"/></g><g transform="translate(56.82 50.207)"><path class="a" d="M563.056,975.825q21.083-6.083,41.891-13.032c.709-.236.394-1.378-.315-1.142q-20.847,6.91-41.891,13.032a.592.592,0,0,0,.315,1.142Z" transform="translate(-562.314 -961.619)"/></g><g transform="translate(61.505 43.317)"><path class="a" d="M574.956,955.962a307.221,307.221,0,0,0,36.812-10.67c.709-.236.394-1.378-.315-1.142a307.226,307.226,0,0,1-36.813,10.67c-.748.158-.433,1.3.315,1.142Z" transform="translate(-574.214 -944.119)"/></g><g transform="translate(98.35 43.576)"><path class="a" d="M667.8,945.336c.039,2.244.079,4.449.118,6.693a.591.591,0,0,0,1.181,0c-.039-2.244-.079-4.449-.118-6.693-.039-.748-1.221-.748-1.181,0Z" transform="translate(-667.797 -944.775)"/></g><g transform="translate(88.853 42.282)"><path class="a" d="M644.236,942.675c3.032.315,6.024.63,9.055.906.748.079.748-1.1,0-1.181-3.032-.315-6.024-.63-9.055-.906-.748-.079-.748,1.1,0,1.181Z" transform="translate(-643.675 -941.49)"/></g><g transform="translate(6.354 53.585)"><path class="a" d="M434.713,971.38a220.4,220.4,0,0,1,25.907,3.11c.748.118,1.063-1.024.315-1.142a224.769,224.769,0,0,0-26.222-3.15c-.787-.039-.748,1.142,0,1.181Z" transform="translate(-434.137 -970.198)"/></g><g transform="translate(29.378 53.499)"><path class="a" d="M493.041,971.129q10.453,1.536,20.867,3.5c.748.157,1.063-.984.315-1.142q-10.394-1.949-20.867-3.5c-.748-.118-1.063,1.024-.315,1.142Z" transform="translate(-492.614 -969.978)"/></g><g transform="translate(56.971 56.923)"><path class="a" d="M562.7,979.236c.079,1.732.2,3.465.276,5.158.039.748,1.221.748,1.181,0-.079-1.733-.2-3.465-.276-5.158-.039-.748-1.221-.748-1.181,0Z" transform="translate(-562.698 -978.675)"/></g><g transform="translate(62.804 52.343)"><path class="a" d="M578.256,972.538c5.827-1.3,11.615-2.756,17.4-4.331a.592.592,0,0,0-.315-1.142c-5.748,1.575-11.575,3.032-17.4,4.331-.748.157-.433,1.3.315,1.142Z" transform="translate(-577.514 -967.042)"/></g><g transform="translate(62.789 58.012)"><path class="a" d="M578.036,983.433a24.376,24.376,0,0,0,4.488-.827.592.592,0,0,0-.315-1.142,25.143,25.143,0,0,1-4.173.787c-.748.079-.748,1.26,0,1.181Z" transform="translate(-577.475 -981.442)"/></g><g transform="translate(83.896 49.065)"><path class="a" d="M631.8,963.4c3.662-1.181,7.323-2.362,10.945-3.5.709-.236.394-1.378-.315-1.142-3.662,1.181-7.323,2.362-10.945,3.5-.709.236-.394,1.378.315,1.142Z" transform="translate(-631.085 -958.719)"/></g><g transform="translate(90.972 47.067)"><path class="a" d="M649.782,956.185c1.575-.472,3.189-.906,4.764-1.378a.592.592,0,0,0-.315-1.142c-1.575.473-3.189.906-4.764,1.378a.593.593,0,0,0,.315,1.142Z" transform="translate(-649.057 -953.642)"/></g><g transform="translate(20.51 58.655)"><path class="a" d="M470.094,983.636a55.832,55.832,0,0,1,.433,9.252c-.039.748,1.142.748,1.181,0a55.832,55.832,0,0,0-.433-9.252c-.079-.748-1.26-.748-1.181,0Z" transform="translate(-470.09 -983.075)"/></g><g transform="translate(21.409 68.106)"><path class="a" d="M472.936,1008.268q27.285,3.543,54.53,7.048c.748.079.748-1.1,0-1.181q-27.284-3.543-54.53-7.048c-.748-.118-.748,1.063,0,1.181Z" transform="translate(-472.375 -1007.079)"/></g><g transform="translate(75.594 65.766)"><path class="a" d="M610,1001.713c.2,3.071.354,6.181.551,9.252.039.748,1.221.748,1.181,0-.2-3.071-.354-6.181-.551-9.252-.039-.748-1.221-.787-1.181,0Z" transform="translate(-609.997 -1001.137)"/></g><g transform="translate(75.44 58.684)"><path class="a" d="M610.51,1000.729q17.068-8.268,34.174-16.5c.669-.315.079-1.339-.591-1.024q-17.068,8.268-34.175,16.5c-.709.354-.079,1.378.591,1.024Z" transform="translate(-609.608 -983.149)"/></g><g transform="translate(75.471 50.205)"><path class="a" d="M610.4,977.593a268.358,268.358,0,0,0,33.978-14.883c.669-.354.079-1.378-.591-1.024a272.987,272.987,0,0,1-33.7,14.764c-.709.276-.394,1.417.315,1.142Z" transform="translate(-609.685 -961.613)"/></g><g transform="translate(109.1 50.239)"><path class="a" d="M695.1,962.291c.079,2.953.157,5.906.236,8.819.039.748,1.221.748,1.181,0-.079-2.953-.157-5.906-.236-8.819a.591.591,0,1,0-1.181,0Z" transform="translate(-695.1 -961.7)"/></g><g transform="translate(98.971 49.019)"><path class="a" d="M669.936,959.781a73.583,73.583,0,0,1,9.764.748c.748.118,1.063-1.024.315-1.142a78.429,78.429,0,0,0-10.079-.787.591.591,0,0,0,0,1.181Z" transform="translate(-669.375 -958.6)"/></g><g transform="translate(57.765 63.374)"><path class="a" d="M565.141,996.219a88.031,88.031,0,0,0,12.048,1.3c.748.039.748-1.142,0-1.181a84.138,84.138,0,0,1-11.733-1.26c-.748-.157-1.063.984-.315,1.142Z" transform="translate(-564.714 -995.062)"/></g><g transform="translate(78.915 62.385)"><path class="a" d="M619.169,998.12a63.8,63.8,0,0,0,12.481-4.488c.669-.315.079-1.339-.591-1.024a63.132,63.132,0,0,1-12.166,4.37c-.787.157-.472,1.3.276,1.142Z" transform="translate(-618.435 -992.549)"/></g><g transform="translate(79.397 65.324)"><path class="a" d="M620.382,1005.717a77.133,77.133,0,0,0,10.04-4.607c.669-.354.079-1.378-.591-1.024a73.032,73.032,0,0,1-9.764,4.488c-.709.276-.433,1.417.315,1.142Z" transform="translate(-619.657 -1000.013)"/></g><g transform="translate(93.542 54.865)"><path class="a" d="M656.3,979.769c4.37-1.536,8.7-3.307,12.953-5.236.709-.315.079-1.339-.591-1.024-4.134,1.89-8.347,3.583-12.678,5.079-.709.276-.394,1.417.315,1.181Z" transform="translate(-655.585 -973.449)"/></g><g transform="translate(95.039 56.054)"><path class="a" d="M660.3,984.2a82.472,82.472,0,0,0,12.323-6.615c.63-.433.039-1.417-.591-1.024a80.6,80.6,0,0,1-12.323,6.614c-.709.315-.118,1.3.591,1.024Z" transform="translate(-659.388 -976.469)"/></g></g><g transform="translate(187.862 242.815)"><g transform="translate(81.996 29.406)"><path class="a" d="M1030.73,717.656q12.107,44.647,24.174,89.295c2.284,8.5,4.607,16.969,6.89,25.474a1.186,1.186,0,0,0,2.284-.63q-12.107-44.648-24.174-89.295c-2.284-8.5-4.607-16.969-6.89-25.473a1.186,1.186,0,0,0-2.284.63Z" transform="translate(-1030.685 -716.199)"/></g><g transform="translate(58.772 31.001)"><path class="a" d="M971.7,721.372q.531,49.136,1.024,98.311c.079,9.252.2,18.544.276,27.8a1.181,1.181,0,0,0,2.362,0q-.531-49.136-1.024-98.311c-.079-9.252-.2-18.544-.276-27.8a1.183,1.183,0,0,0-2.362,0Z" transform="translate(-971.7 -720.25)"/></g><g transform="translate(0 27.055)"><path class="a" d="M848.242,711.083Q837.73,759.1,827.927,807.268q-2.776,13.642-5.473,27.245c-.315,1.5,1.969,2.126,2.284.63q9.626-48.191,19.922-96.264,2.894-13.583,5.906-27.166c.276-1.5-2.008-2.126-2.323-.63Z" transform="translate(-822.424 -710.227)"/></g><g transform="translate(8.317 109.883)"><path class="a" d="M844.672,922.962q25.572.236,51.065,1.221c1.536.079,1.536-2.284,0-2.362q-25.513-1-51.065-1.221a1.183,1.183,0,0,0,0,2.362Z" transform="translate(-843.55 -920.6)"/></g><g transform="translate(60.496 94.249)"><path class="a" d="M976.953,899.6c1.575.236,2.8-.394,4.252-.984,1.772-.709,3.543-1.457,5.315-2.2,3.15-1.339,6.3-2.677,9.449-4.055q10.217-4.488,20.2-9.292c1.378-.669.157-2.677-1.181-2.047q-9.154,4.429-18.465,8.544c-3.11,1.378-6.221,2.716-9.37,4.055-1.614.669-3.189,1.339-4.8,2.008-1.26.512-3.425,1.89-4.8,1.693-1.457-.2-2.126,2.087-.591,2.284Z" transform="translate(-976.078 -880.893)"/></g><g transform="translate(37.937 31.671)"><path class="a" d="M930.915,723.072q-4.725,41.931-9.449,83.9c-.905,7.914-1.772,15.867-2.677,23.78-.158,1.5,2.2,1.5,2.362,0q4.725-41.931,9.449-83.9c.906-7.914,1.772-15.867,2.677-23.781.2-1.5-2.165-1.5-2.362,0Z" transform="translate(-918.781 -721.95)"/></g><g transform="translate(42.423 94.248)"><path class="a" d="M931.327,886.091c18.7-.433,37.324-1.614,55.987-2.835,1.5-.079,1.535-2.48,0-2.362-18.662,1.22-37.285,2.362-55.987,2.835a1.182,1.182,0,0,0,0,2.362Z" transform="translate(-930.175 -880.889)"/></g><g transform="translate(8.416 97.12)"><path class="a" d="M845.256,903.191c11.772-3.425,23.111-8.071,34.49-12.638,1.378-.551.787-2.835-.63-2.284-11.378,4.567-22.717,9.213-34.49,12.638a1.186,1.186,0,0,0,.63,2.284Z" transform="translate(-843.799 -888.184)"/></g><path class="g" d="M918.478,642.293a94.378,94.378,0,0,1,24.922,6.89c.118,7.126.2,14.213.315,21.339a100.719,100.719,0,0,1-74.491,3.032c-.354-7.992-.669-15.985-1.024-23.977A95.75,95.75,0,0,1,918.478,642.293Z" transform="translate(-850.177 -641.51)"/><g transform="translate(21.09 8.893)"><path class="a" d="M876.153,665.122c3.071,3.425,7.481,4.646,11.93,5.2,5.748.748,11.654.984,17.481,1.181,11.969.394,24.1-.276,35.474-4.37.709-.236.394-1.378-.315-1.142-10.827,3.9-22.324,4.685-33.7,4.37q-8.15-.236-16.3-.945c-4.921-.433-10.237-1.26-13.7-5.118-.551-.591-1.378.276-.866.827Z" transform="translate(-875.992 -664.097)"/></g></g><g transform="translate(127.596 45.178)"><g transform="translate(22.688 71.381)"><path class="g" d="M779.982,320.859c-2.677.276-4.331,2.323-7.6,6.575-8.819,11.418-15.2,21.458-15.749,22.324-1.142,1.772-5.04,7.126-12.875,17.835-14.449,19.8-17.8,23.466-16.536,28.623,1.457,6.024,8.032,11.378,12.874,10.512,2.835-.512,4.528-3.071,7.087-7.362,3.307-5.591,7.559-13.15,12.087-22.56a109.468,109.468,0,0,0,24.41-22.56c9.843-12.4,9.528-17.757,9.174-19.961C791.755,327.276,785.376,320.347,779.982,320.859Z" transform="translate(-726.981 -320.832)"/><path class="h" d="M796.386,333.486c-1.929.236-2.362,5.827-3.11,9.292-2.6,11.969-12.008,13.19-27.6,30.946A184.61,184.61,0,0,0,750.2,394.63c-4.173,6.3-7.441,11.812-9.8,15.985a6.8,6.8,0,0,0,3.347,3.11,7.583,7.583,0,0,0,5.945-.512c3.11-1.457,3.662-3.7,8.78-12.363,3.268-5.551,3.228-4.961,4.646-7.756,2.6-5.158,2.4-6.693,4.646-9.292,1.969-2.323,3.386-2.2,7.2-5.158a91.741,91.741,0,0,0,9.292-7.992,85.356,85.356,0,0,0,10.591-12.914c3.819-5.63,4.725-8.307,5.158-9.8,1.575-5.433.591-8.622.276-9.528C799.576,336.4,797.883,333.289,796.386,333.486Z" transform="translate(-735.117 -328.499)"/><path class="i" d="M769.214,459.868c-.512-.315-2.559,2.953-7.205,8.268-11.615,13.19-20.355,17.284-19.1,20.631.748,1.929,4.37,2.6,6.969,2.047,3.7-.787,5.669-4.41,9.528-11.615C768.86,461.521,769.529,460.065,769.214,459.868Z" transform="translate(-736.567 -405.114)"/></g><g transform="translate(0 159.876)"><path class="c" d="M690.634,896.537c1.1,12.284,2.166,24.568,3.268,36.852-17.127,8.583-25.316,14.016-24.489,16.339q1.476,4.252,43.86-5.827-.827-25.631-1.614-51.3Q701.146,894.549,690.634,896.537Z" transform="translate(-669.355 -755.98)"/><path class="g" d="M754.4,545.6c-6.024,4.449-14.489,10.709-24.568,18.347-31.733,24.056-35.71,27.718-39.214,34.45-3.465,6.614-4.646,17.757-7.048,40.08a283.781,283.781,0,0,0-1.693,33.86c.079,7.52.472,13.938.866,18.9a30.617,30.617,0,0,0,19.489,7.638,31.179,31.179,0,0,0,22.009-9.016c-1.221-7.245-2.2-15.079-2.835-23.426a254.021,254.021,0,0,1,.276-41.222c8.426-6.654,20.237-16.26,33.86-28.505,29.1-26.143,31.025-32.324,29.922-36.694C782.94,550.246,764.277,546.82,754.4,545.6Z" transform="translate(-676.934 -545.6)"/><path class="j" d="M802.88,553.07c-4.213,1.417-1.969,10.945-4.8,19.8-3.229,10.119-10.67,12.835-29.1,26.852a249.621,249.621,0,0,0-24.292,21.1c.157,17.678-.394,36.458-1.929,56.262-.709,8.977-1.575,17.757-2.559,26.222a41.348,41.348,0,0,0,19.213-7.992c-1.26-7.481-2.244-15.591-2.874-24.292a263.526,263.526,0,0,1,.315-41.262c7.008-5.906,12.717-10.552,16.615-13.741,5.276-4.292,7.953-6.378,12.481-10.237,2.6-2.2,5.236-4.528,11.812-10.552,16.93-15.434,21.576-20.316,22.717-27.166.551-3.5-.158-5.394-.63-6.378-1.457-2.874-4.488-4.173-10.552-6.732C805.675,553.5,803.864,552.716,802.88,553.07Z" transform="translate(-712.307 -550.078)"/><path class="k" d="M767.777,747.3q-2.717,11.752-4.8,24.922a359.432,359.432,0,0,0-4.173,46.695c4.055-2.008,8.111-4.055,12.166-6.063-1.457-9.685-2.6-20.395-3.189-31.97C767.186,768.718,767.265,757.5,767.777,747.3Z" transform="translate(-723.584 -667.887)"/><path class="h" d="M842.35,569.39c-2.8-.236-5.315,6.181-7.047,9.922-3.74,8.189-13.9,18.9-34.214,40.277-4.882,5.158-11.457,11.851-19.489,19.489,2.126-1.536,5-3.583,8.307-6.063,7.481-5.63,11.93-9.41,26.221-21.733,0,0,5.158-4.449,26.222-26.537,1.1-1.142,3.78-4.055,3.819-7.992C846.248,573.445,844.437,569.587,842.35,569.39Z" transform="translate(-737.408 -560.02)"/></g><g transform="translate(67.794 64.498)"><path class="f" d="M863.694,306.205c-.157,0-.787.039-1.654.118a47.147,47.147,0,0,0-7.874,1.339,45.843,45.843,0,0,0-6.063,1.969,64.733,64.733,0,0,0-6.142,20.749c-1.536,12.835,1.535,21.1,3.622,33.9a143.932,143.932,0,0,1,.984,37.6,47.761,47.761,0,0,0,25.67,12.4c19.017,2.717,32.993-7.52,35.868-9.725.866-5.433,1.693-10.945,2.52-16.536,0,0,1.221-8.425,2.4-17.678,2.8-21.536,5.669-50.553,6.024-54.175-10.118-10.237-18.5-12.6-24.332-12.8C887.16,303.1,869.837,305.89,863.694,306.205Z" transform="translate(-841.547 -303.352)"/><path class="l" d="M925.111,315.654a48.85,48.85,0,0,1,7.4,9.961c12.127,21.5,4.607,46.577,1.26,57.719A107.688,107.688,0,0,1,918.3,414.91a45.165,45.165,0,0,0,12.284.433,47.621,47.621,0,0,0,23.741-9.528q4.252-28.17,7.835-57.719c1.221-10.158,2.323-20.158,3.386-30.119a35.969,35.969,0,0,0-9.055-8.111c-3.465-2.165-8.465-5.315-14.686-5C932.041,305.417,926.017,314.315,925.111,315.654Z" transform="translate(-888.081 -304.257)"/></g><g transform="translate(13.246 96.763)"><path class="m" d="M708.7,386.639h1.221c.118-.433.236-.906.354-1.339.472.984,1.26,2.6,2.244,4.606,4.331,8.78,5.2,10.237,5.984,12.875a41.4,41.4,0,0,1,1.614,9.252c.748-.512,1.851-1.221,3.268-2.008,7.638-4.173,14.016-4.213,19.765-5.236a51.805,51.805,0,0,0,17.363-6.733c-.433.591-.866,1.221-1.3,1.811.669.236,1.378.512,2.047.748a10.615,10.615,0,0,1,1.339,2.4c2.284,5.63-1.1,11.812-4.37,17.481-13.347,23.465-14.725,24.686-17.127,25.867-.984.512-10.906,5.355-17.953.866-1.457-.906-4.095-3.071-7.481-18.387-2.323-10.434-2.6-16.26-4.8-29.962C710,393.686,709.212,389.434,708.7,386.639Z" transform="translate(-706.456 -385.3)"/><g transform="translate(4.473 3.274)"><path class="n" d="M714.376,393.845c3.347,7.166,6.654,14.449,7.677,22.324.039.2.315.2.315,0-1.024-7.953-4.331-15.276-7.717-22.481a.159.159,0,0,0-.276.157Z" transform="translate(-714.36 -393.615)"/></g><g transform="translate(3.175 2.014)"><path class="n" d="M711.078,390.645A94.243,94.243,0,0,1,716,403.52c.039.2.354.118.276-.079a95.449,95.449,0,0,0-4.961-12.953c-.039-.158-.315-.039-.236.157Z" transform="translate(-711.064 -390.415)"/></g><g transform="translate(8.579 14.69)"><path class="n" d="M724.794,422.8a52.293,52.293,0,0,1,2.677,10.945c.039.2.315.2.315,0a53,53,0,0,0-2.677-11.024.163.163,0,0,0-.315.079Z" transform="translate(-724.79 -422.61)"/></g><g transform="translate(5.183 9.088)"><path class="n" d="M716.178,408.547a127.024,127.024,0,0,1,4.685,13.662c.039.2.354.118.276-.079a126.967,126.967,0,0,0-4.685-13.662c-.079-.158-.354-.079-.276.079Z" transform="translate(-716.164 -408.382)"/></g><g transform="translate(14.126 21.217)"><path class="n" d="M739.084,445.69a39.253,39.253,0,0,1,16.3-6.221c.2-.039.118-.315-.079-.276a39.58,39.58,0,0,0-16.378,6.221c-.118.118,0,.394.157.276Z" transform="translate(-738.878 -439.19)"/></g><g transform="translate(16.589 15.735)"><path class="n" d="M745.357,436.736c5.118-3.11,10.906-4.291,16.654-5.591a112.882,112.882,0,0,0,17.835-5.591c.157-.079.079-.354-.079-.276a111.919,111.919,0,0,1-18.5,5.748c-5.551,1.26-11.142,2.48-16.064,5.473-.157.079,0,.354.157.236Z" transform="translate(-745.134 -425.264)"/></g><g transform="translate(15.619 15.971)"><path class="n" d="M742.918,438.517a95.162,95.162,0,0,1,18.741-6.221c6.378-1.575,12.56-4.016,18.78-6.142.2-.079.118-.354-.079-.276-6.418,2.2-12.835,4.764-19.45,6.3a92.862,92.862,0,0,0-18.15,6.1c-.2.039-.039.315.157.236Z" transform="translate(-742.67 -425.864)"/></g><path class="m" d="M705.008,388.5c2.874,9.095,5.788,18.15,8.662,27.245l4.252,1.417q20.2-6.674,40.356-13.308c.472.394.945.787,1.417,1.221q2.3,28.052,4.646,56.065c-.551.354-1.063.669-1.614,1.024q-20.493,3.13-40.947,6.26c-1.969-.473-3.9-.945-5.866-1.417-1.732-7.677-3.5-15.316-5.236-22.993L703,389.563Q704,388.972,705.008,388.5Z" transform="translate(-703 -387.24)"/><g transform="translate(10.039 28.298)"><path class="n" d="M728.5,457.618c.63,17.048,1.85,34.135,2.8,51.183.039.551.906.551.906,0-.945-17.048-2.166-34.1-2.8-51.183-.039-.591-.945-.591-.906,0Z" transform="translate(-728.497 -457.175)"/></g><g transform="translate(14.129 29.391)"><path class="n" d="M738.892,460.363a128.515,128.515,0,0,1,.787,14.567c0,.551.866.551.906,0a128.5,128.5,0,0,0-.787-14.567c-.118-.551-.984-.551-.906,0Z" transform="translate(-738.887 -459.95)"/></g><path class="o" d="M760.964,434.558a43.436,43.436,0,0,1-21.576,39.49c-.158-3.229-.354-6.457-.512-9.646-1.339,2.244-2.638,4.488-3.976,6.733.276,7.008.591,14.016.866,21.064,1.89.394,3.78.787,5.709,1.221,13.268-2.126,26.576-4.252,39.844-6.378.709-.276,1.378-.591,2.087-.866q-2.244-28.407-4.488-56.774C772.933,431.093,766.948,432.825,760.964,434.558Z" transform="translate(-722.34 -412.037)"/><path class="p" d="M738.7,462c-.276,0-.591,7.284-.394,15.2.236,11.26,1.3,16.182.984,26.93-.118,3.5-.315,6.378-.472,8.229,1.457.2,2.953.394,4.41.591-.276-1.929-.669-4.725-1.063-8.071C739.053,479.835,739.132,462,738.7,462Z" transform="translate(-724.368 -431.802)"/><g transform="translate(24.208 22.95)"><path class="n" d="M765.2,453.044a242.2,242.2,0,0,0,27.639-8.268c.709-.276.394-1.417-.315-1.142a259.233,259.233,0,0,1-27.639,8.268.594.594,0,0,0,.315,1.142Z" transform="translate(-764.485 -443.592)"/></g></g><g transform="translate(15.394 129.763)"><path class="d" d="M710.739,470.568c-.433.157-.394.945-.748,4.606a15.024,15.024,0,0,0-.236,3.11c.2,1.654.787,1.969.984,3.858a22.538,22.538,0,0,0,.079,2.4,6.887,6.887,0,0,0,1.221,2.8,4.235,4.235,0,0,0,.394,1.732c.63,1.22,2.087,2.284,2.874,1.89.433-.2.551-1.024.748-2.638.2-1.5.079-1.575.236-3.307a8.062,8.062,0,0,0,.157-2.4,9.257,9.257,0,0,0-.748-2.047,19.509,19.509,0,0,1-.512-3.032,11.742,11.742,0,0,0-1.969-4.528C712.668,472.142,711.487,470.331,710.739,470.568Z" transform="translate(-709.225 -469.984)"/><g transform="translate(0.415)"><path class="n" d="M710.331,469.347a8.253,8.253,0,0,0,4.8,11.457c.551.2.787-.669.236-.866a7.312,7.312,0,0,1-4.252-10.158c.2-.512-.551-.945-.787-.433Z" transform="translate(-709.508 -469.117)"/></g><g transform="translate(1.251 0.184)"><path class="n" d="M711.776,470.338A14.65,14.65,0,0,1,716.5,480.3c.039.551.906.551.906,0a15.411,15.411,0,0,0-5-10.591c-.433-.394-1.063.236-.63.63Z" transform="translate(-711.63 -469.583)"/></g><g transform="translate(0 5.397)"><path class="n" d="M708.669,483.169a8.165,8.165,0,0,0,6.378,9.961c.551.118.787-.748.236-.866a7.264,7.264,0,0,1-5.748-8.9c.118-.551-.748-.787-.866-.2Z" transform="translate(-708.454 -482.824)"/></g><g transform="translate(0.903 11.215)"><path class="n" d="M710.926,497.917a6.1,6.1,0,0,0,4.843,7.52c.551.118.787-.748.236-.866a5.2,5.2,0,0,1-4.252-6.418.43.43,0,0,0-.827-.236Z" transform="translate(-710.748 -497.603)"/></g><g transform="translate(2.206 16.731)"><path class="n" d="M714.075,512.04a3.972,3.972,0,0,0,2.4,4.016,1.782,1.782,0,0,0,2.047-.276,2.1,2.1,0,0,0,0-2.244c-.2-.512-1.063-.276-.866.236.2.433.591,1.3-.039,1.575-.473.2-1.221-.276-1.575-.551a3.062,3.062,0,0,1-1.1-2.756c.079-.591-.827-.551-.866,0Z" transform="translate(-714.058 -511.612)"/></g><g transform="translate(5.865 14.536)"><path class="n" d="M723.763,510.511c.866,0,1.22-.866,1.339-1.614a3.855,3.855,0,0,0-.473-2.638c-.276-.512-1.063-.039-.748.433a2.984,2.984,0,0,1,.433,1.5c0,.276-.079,1.417-.551,1.417a.455.455,0,0,0,0,.906Z" transform="translate(-723.35 -506.037)"/></g><g transform="translate(5.917 10.675)"><path class="n" d="M724.947,500.943a2.552,2.552,0,0,0,.433-2.2,4.177,4.177,0,0,0-1.142-2.362c-.394-.433-1.024.2-.63.63a3.2,3.2,0,0,1,.827,1.575c.079.433.2,1.378-.158,1.732-.394.394.236,1.024.669.63Z" transform="translate(-723.483 -496.23)"/></g></g><g transform="translate(43.82 160.953)"><path class="c" d="M803.055,817.629c1.457,8.819,2.874,17.678,4.331,26.5-16.182,11.5-23.7,18.268-22.56,20.394q2.008,3.721,39.687-11.93c-.905-14.41-1.811-28.781-2.756-43.191C815.536,812.156,809.276,814.873,803.055,817.629Z" transform="translate(-783.115 -706.615)"/><path class="g" d="M871.384,552.81a53.509,53.509,0,0,1-2.244,23.072,42.026,42.026,0,0,1-9.489,16.772c-3.78,3.937-10.394,10.867-20.04,10.591-7.8-.236-13.308-5-15.316-6.929-.591,7.4-.906,15.434-.748,24.056a245.829,245.829,0,0,0,3.268,35.749,25.946,25.946,0,0,1-23.347,13.859c-12.284-.354-19.253-9.843-20.04-10.945a476.921,476.921,0,0,1-2.559-65.278c.433-13.426,1.378-24.529,9.489-33.545,7.914-8.819,18.387-10.827,21.143-11.3,20.158-3.583,35.4,10.63,37.206,12.4a28.926,28.926,0,0,0,22.678-8.5Z" transform="translate(-780.654 -548.335)"/><g transform="translate(42.461 36.095)"><path class="a" d="M890.311,640.441A76.554,76.554,0,0,0,888.5,655.4a.591.591,0,0,0,1.181,0,75.936,75.936,0,0,1,1.732-14.646c.2-.748-.945-1.063-1.1-.315Z" transform="translate(-888.5 -640.014)"/></g><g transform="translate(43.464 38.211)"><path class="a" d="M892.132,650c.551-1.221,1.063-2.441,1.614-3.7.315-.709-.709-1.3-1.024-.591-.551,1.22-1.063,2.441-1.614,3.7-.315.669.709,1.26,1.024.591Z" transform="translate(-891.049 -645.387)"/></g><g transform="translate(66.414 11.38)"><path class="a" d="M949.52,578.247c2.638,2.52,4.449,6.142,6.418,9.213.394.63,1.417.039,1.024-.591-2.047-3.15-3.9-6.811-6.614-9.449a.585.585,0,1,0-.827.827Z" transform="translate(-949.338 -577.238)"/></g><path class="h" d="M895.6,567.393a53.443,53.443,0,0,1-.236,7.6c-.748,7.284-1.378,13.465-5.394,16.142-4.685,3.15-11.812.158-14.449-.984-9.134-3.858-10.2-10.315-15.434-10.788-6.181-.551-12.6,7.717-15.67,14.213-7.6,15.945,1.024,28.426,1.969,57.05a156.3,156.3,0,0,1-1.457,26.458,23.991,23.991,0,0,0,7.6-2.2,25.5,25.5,0,0,0,11.26-11.024c-.276-2.165-.669-5.512-1.221-9.567-1.339-9.882-1.772-10.945-2.2-15.2-.2-1.929-.354-4.095,0-18.111.118-4.134.236-9.843.472-16.654a38.52,38.52,0,0,0,4.41,2.677c1.3.669,5.866,3.071,10.04,3.661,6.654.945,12.323-2.8,15.2-4.646,7.835-5.158,11.221-12.4,13.465-17.4A56.752,56.752,0,0,0,908.6,560.7a20.826,20.826,0,0,1-7.835,5.394A19.7,19.7,0,0,1,895.6,567.393Z" transform="translate(-817.432 -555.832)"/><path class="q" d="M936.677,581.379c-.906-.315-3.622,5-3.937,5.63-2.559,5.079-2.48,8.347-3.425,11.5-1.85,6.3-7.835,12.638-13.938,14.213-10.276,2.638-18.9-8.74-23.5-5.158-2.165,1.693-2.047,5.551-1.221,7.835,2.362,6.575,13.071,7.047,14.449,7.087,9.331.315,16.182-5.473,18.347-7.362C937.306,603.152,938.33,581.97,936.677,581.379Z" transform="translate(-847.009 -568.361)"/><path class="q" d="M875.96,646.7c-.669-.118-2.756,6.5-4.173,12.993a115.553,115.553,0,0,0-2.441,28.387,160.188,160.188,0,0,1-4.646,39.175,17.935,17.935,0,0,0,6.615-3.189,18.486,18.486,0,0,0,6.1-8.307c-.787-8.622-1.339-15.945-1.732-21.536-.945-13.5-1.417-20.395-1.221-26.694C874.9,654.966,876.708,646.855,875.96,646.7Z" transform="translate(-831.61 -607.97)"/></g><g transform="translate(56.825 73.233)"><path class="g" d="M848.221,481.524c.354-1.024,2.717-1.024,3.347-1.024a6.491,6.491,0,0,1,5.669,3.347,2.428,2.428,0,0,1,.236.984,2.976,2.976,0,0,1-1.1,2.48C854.323,488.611,847.512,483.532,848.221,481.524Z" transform="translate(-834.592 -419.489)"/><path class="g" d="M899.641,326.94c6.26,3.858,5.512,14.764,4.567,28.426a109.9,109.9,0,0,1-6.063,29.529,101.413,101.413,0,0,1-7.4,15.906,84.711,84.711,0,0,1-37.009,6.851,83.274,83.274,0,0,1-15.394-2.165c-5.315,3.662-9.607,3.622-11.457,3.425-2.874-.276-6.654-1.575-6.614-2.835,0-.866,1.851-1.575,2.677-1.89a14.617,14.617,0,0,1,3.78-.787c0-.079-1.457,0-2.992-.158a13.394,13.394,0,0,1-4.764-1.181c-.63-.315-3.74-1.85-4.331-4.843-.551-2.717,1.1-5.788,4.134-7.6a31.518,31.518,0,0,1,13.662-.591,32.982,32.982,0,0,1,10.04,3.583c10.591-2.6,21.182-5.236,31.734-7.835.2-2.2.551-5.433.984-9.41,1.378-12.56,2.047-18.859,3.11-24.174,2.6-13.071,4.292-21.615,10.906-24.607C892.161,325.286,896.452,324.971,899.641,326.94Z" transform="translate(-814.199 -325.537)"/><path class="i" d="M897.5,326.474a148.1,148.1,0,0,1,1.417,34.332c-1.181,15.788-1.85,23.662-7.441,30.2-8.386,9.8-26.458,14.725-40.513,10.748-5.433-1.536-13.268-5.04-22.875-3.071-2.756.551-6.969,1.85-6.89,2.874.079.787,2.914,1.575,4.921,1.811,1.536.158,2.52.039,2.6.354.236.748-4.213,2.008-4.095,3.307.079,1.1,3.583,1.969,6.457,2.047a20,20,0,0,0,10.827-2.913,83.5,83.5,0,0,0,14.174,2.126,85.234,85.234,0,0,0,38.978-7.048,109.841,109.841,0,0,0,13.5-47.285,98.313,98.313,0,0,0-1.811-23.032,8.4,8.4,0,0,0-4.173-4.016A8.321,8.321,0,0,0,897.5,326.474Z" transform="translate(-818.24 -325.977)"/><path class="r" d="M891.775,515.5c-6.1.945-9.646,1.929-12.4,2.48a70.425,70.425,0,0,1-23.426.906,75.317,75.317,0,0,1-7.8-1.3,37.131,37.131,0,0,1-9.764,2.52c-5.354.591-9.174-.2-9.292.472-.118.63,3.15,2.284,6.614,2.677,5.276.591,9.567-1.969,11.5-3.307a69.16,69.16,0,0,0,10.237,2.047c22.8,2.8,42.836-6.654,42.6-7.52C900,514.2,897.247,514.63,891.775,515.5Z" transform="translate(-823.026 -440.036)"/><g transform="translate(1.899 72.873)"><path class="a" d="M819.41,513.293a18.67,18.67,0,0,1,11.615-.984c.748.158,1.063-.984.315-1.142a19.821,19.821,0,0,0-12.52,1.1c-.709.315-.079,1.339.591,1.024Z" transform="translate(-818.508 -510.626)"/></g><g transform="translate(0 68.845)"><path class="a" d="M814.4,503.312a28.822,28.822,0,0,1,13.544-1.5c.748.079.748-1.1,0-1.181a29.642,29.642,0,0,0-13.859,1.536c-.709.276-.394,1.417.315,1.142Z" transform="translate(-813.685 -500.397)"/></g><g transform="translate(1.074 65.055)"><path class="a" d="M817.156,493.459a37.577,37.577,0,0,1,13.229-1.417c.748.039.748-1.142,0-1.181a39.379,39.379,0,0,0-13.544,1.457.592.592,0,0,0,.315,1.142Z" transform="translate(-816.414 -490.77)"/></g></g><g transform="translate(60.04)"><path class="g" d="M857.24,161.527c-10.985,8.9-10.552,27.009-6.221,38.7a41.879,41.879,0,0,0,9.961,15.276c.709,2.992,1.378,6.024,2.087,9.016a44.393,44.393,0,0,0,13.347.866,45.36,45.36,0,0,0,24.135-9.961q-3.957-9.8-7.914-19.646c-.354-2.4-.866-6.1-1.5-10.591-1.614-11.772-1.535-12.4-2.244-14.292-.315-.787-4.764-12.048-15.2-14.056C865.232,155.227,858.264,160.66,857.24,161.527Z" transform="translate(-837.81 -149.846)"/><path class="c" d="M846.682,215.325a31.8,31.8,0,0,0-.827,11.024c.315,3.11.827,8.5,4.725,13.7a24.882,24.882,0,0,0,12.323,8.544,13.788,13.788,0,0,1-.512-2.323,10.679,10.679,0,0,1,0-2.52c2.6,1.378,5.2,2.8,7.756,4.173,6.536-5.985,8.7-11.418,9.449-15.394.591-3.11.945-8.819,2.362-19.213.236-1.85.748-5.2,2.874-6.024a3.336,3.336,0,0,1,3.228.512c2.6,2.165-.039,8.347.512,8.544.551.158,5.079-6.063,3.543-13.229a15.323,15.323,0,0,0-4.213-7.52q-4.252,6.673-9.449,13.7c-2.2,2.992-4.41,5.827-6.575,8.544a6.355,6.355,0,0,1-3.465.827,8.514,8.514,0,0,1-2.323-.709c-3.071-.866-4.725,2.717-7.717,2.244-2.48-.394-2.717-3.032-5.433-3.11-1.3-.039-1.85.551-3.189.276A5.742,5.742,0,0,1,846.682,215.325Z" transform="translate(-836.307 -173.525)"/><g transform="translate(21.278 30.86)"><path class="a" d="M877.669,218.341a80.554,80.554,0,0,0-1.772,12.993.6.6,0,0,0,.906.512c1.536-.787,3.071-1.575,4.646-2.362.669-.354.079-1.378-.591-1.024-1.535.787-3.071,1.575-4.646,2.362.315.157.591.354.906.512a85.375,85.375,0,0,1,1.732-12.678c.118-.748-1.024-1.063-1.181-.315Z" transform="translate(-875.895 -217.914)"/></g><path class="c" d="M862.134,223.76c.433.669.512,1.693.157,1.89-.433.236-1.654-.669-1.811-1.693-.039-.315,0-.866.276-1.024C861.15,222.737,861.819,223.249,862.134,223.76Z" transform="translate(-845.263 -190.071)"/><g transform="translate(13.938 28.007)"><path class="a" d="M858.137,212.295a3.967,3.967,0,0,1,4.292.394c.591.472,1.417-.354.827-.827a5.14,5.14,0,0,0-5.709-.591c-.669.354-.079,1.378.59,1.024Z" transform="translate(-857.252 -210.668)"/></g><g transform="translate(27.704 28.316)"><path class="a" d="M893.076,213.36a4.333,4.333,0,0,1,5.984,1.1c.433.63,1.457.039,1.024-.591a5.579,5.579,0,0,0-7.6-1.535c-.63.433-.039,1.457.591,1.024Z" transform="translate(-892.216 -211.451)"/></g><g transform="translate(0 19.158)"><path class="a" d="M823.563,191.739q23.564,1.358,47.049,3.937c2.284.236,2.244-3.307,0-3.543q-23.446-2.539-47.049-3.937c-2.284-.118-2.284,3.425,0,3.543Z" transform="translate(-821.85 -188.193)"/></g><path class="e" d="M852.1,159.835a23.144,23.144,0,0,1,6.024-13.583c6.26-6.536,17.8-9.292,26.773-3.74a21.37,21.37,0,0,1,9.528,21.379C880.29,162.552,866.2,161.174,852.1,159.835Z" transform="translate(-840.19 -139.532)"/><path class="s" d="M900.052,141.218c-1.851,1.535-1.851,4.725-1.181,8.15a41.934,41.934,0,0,0,5.276,12.953c6.1.709,12.245,1.417,18.347,2.126a18.106,18.106,0,0,0,.276-5.551,21.832,21.832,0,0,0-2.638-8.032C915.643,143.3,903.911,137.989,900.052,141.218Z" transform="translate(-868.299 -139.97)"/><path class="t" d="M941.621,246.21a5.027,5.027,0,0,1-3.228.472,32.089,32.089,0,0,1,2.677,7.008c.787,3.229,1.929,7.638.433,12.717a19.442,19.442,0,0,1-6.1,9.174,33.854,33.854,0,0,0,17.56-9.095c-2.913-8.229-5.788-16.457-8.7-24.686A5.444,5.444,0,0,1,941.621,246.21Z" transform="translate(-890.693 -201.535)"/><path class="u" d="M909.106,203.8a22.263,22.263,0,0,1,.354,8.071,22.975,22.975,0,0,1-4.961,11.3l2.6-.827c1.732-2.087,3.465-4.292,5.2-6.575,2.835-3.74,5.473-7.4,7.835-10.985C916.469,204.509,912.768,204.154,909.106,203.8Z" transform="translate(-871.959 -178.497)"/><path class="c" d="M900.034,224.66c.433.669.512,1.693.158,1.89-.433.236-1.654-.669-1.811-1.693-.039-.315,0-.866.276-1.024C899.049,223.637,899.679,224.149,900.034,224.66Z" transform="translate(-868.241 -190.617)"/><circle class="v" cx="7.126" cy="7.126" r="7.126" transform="translate(7.422 29.634)"/><circle class="v" cx="7.126" cy="7.126" r="7.126" transform="translate(23.997 29.634)"/><g transform="translate(21.511 35.623)"><path class="a" d="M877.476,231.384a.5.5,0,0,1,.669-.118.585.585,0,0,0,.827-.827,1.629,1.629,0,0,0-2.323.118.607.607,0,0,0,0,.827.571.571,0,0,0,.827,0Z" transform="translate(-876.487 -230.01)"/></g><g transform="translate(7.11 34.821)"><path class="a" d="M840.81,230.387a24.87,24.87,0,0,0,2.2-1.3c.63-.394.039-1.417-.591-1.024a24.875,24.875,0,0,1-2.2,1.3c-.709.354-.079,1.378.59,1.024Z" transform="translate(-839.908 -227.975)"/></g><g transform="translate(37.94 33.509)"><path class="a" d="M918.956,228.248c3.268-.827,6.575-1.614,9.843-2.441a.592.592,0,0,0-.315-1.142c-3.268.827-6.575,1.614-9.843,2.441a.592.592,0,0,0,.315,1.142Z" transform="translate(-918.214 -224.642)"/></g></g></g></svg>