<svg xmlns="http://www.w3.org/2000/svg" width="864.731" height="695.321" viewBox="0 0 864.731 695.321"><defs><style>.a{fill:#4e4e4e;}.b,.o{fill:#fff;}.b,.h,.j{stroke:#161616;stroke-miterlimit:10;}.b,.j{stroke-width:3px;}.c{fill:#161616;}.d{fill:#ec615b;}.e,.f,.g,.k,.l,.m,.n,.q,.r,.s,.t{fill:#3d3d3d;}.e{opacity:0.4;}.f{opacity:0.38;}.g{opacity:0.42;}.h,.j{fill:none;}.h{stroke-width:16px;}.i{fill:#5222d0;}.k{opacity:0.37;}.l{opacity:0.5;}.m{opacity:0.32;}.n{opacity:0.29;}.p{fill:#263238;}.q{opacity:0.48;}.r{opacity:0.27;}.s{opacity:0.36;}.t{opacity:0.43;}</style></defs><g transform="translate(-135.001 -92.205)"><g transform="translate(553.394 92.205)"><g transform="translate(201.594 93.489)"><path class="a" d="M1084.8,283.886c.128,1.991.193,3.982.321,5.909,0,.385.257.9.707.9,54.076,7.45,108.6,1.156,162.869,1.284,15.349,0,30.634.578,45.919,2.055a.893.893,0,0,0,.9-.706c.514-2.633,1.092-5.266,1.606-7.9.257-1.22-1.606-1.734-1.863-.514-.514,2.633-1.092,5.266-1.606,7.9a10.962,10.962,0,0,0,.9-.706c-53.755-5.266-107.7,1.349-161.585.193a405.63,405.63,0,0,1-46.69-3.468,10.95,10.95,0,0,0,.706.9c-.129-1.991-.193-3.982-.321-5.909a.933.933,0,0,0-1.862.064Z" transform="translate(-1084.798 -282.962)"/></g><g transform="translate(202.286 93.449)"><path class="a" d="M1086.79,284.827h209.3a.965.965,0,0,0,0-1.927h-209.3a.965.965,0,0,0,0,1.927Z" transform="translate(-1085.875 -282.9)"/></g><g transform="translate(213.021 7.151)"><path class="a" d="M1104.459,235.211c1.606-23.056,2.954-46.176,4.945-69.168.257-3.018.578-5.973,1.092-8.927.193-1.092.257-3.34.9-4.239.835-1.156,2.633-1.156,3.918-1.349,2.954-.514,7.9-2.312,9.954.706.578.9.706,2.762.9,3.853.385,1.927.642,3.853.835,5.78,1.028,11.3-.449,22.8-1.284,34.1l-2.89,39.3c-.064,1.22,1.862,1.22,1.927,0,1.413-18.753,2.954-37.442,4.11-56.2.514-8.606.771-17.4-1.349-25.882-.578-2.376-1.477-4.367-4.175-4.624-4.11-.321-8.863,1.092-12.845,1.927a.924.924,0,0,0-.642.642c-3.4,13.294-3.275,27.616-4.239,41.231-1.028,14.257-1.991,28.579-3.018,42.837-.129,1.22,1.8,1.22,1.862,0Z" transform="translate(-1102.59 -148.527)"/></g><g transform="translate(238.711 34.676)"><path class="a" d="M1142.661,192.551q11.753,29.575,24.79,58.571c.514,1.156,2.184.128,1.67-.963q-12.909-28.8-24.6-58.122c-.449-1.156-2.312-.642-1.862.514Z" transform="translate(-1142.592 -191.385)"/></g><g transform="translate(238.536 17.445)"><path class="a" d="M1144.233,172.612a9.255,9.255,0,0,1,11.175-5.78.966.966,0,0,0,.514-1.862,11.224,11.224,0,0,0-13.551,7.129c-.385,1.22,1.477,1.67,1.862.514Z" transform="translate(-1142.319 -164.556)"/></g><g transform="translate(251.506 18.621)"><path class="a" d="M1162.633,167.873q19.074,36.992,38.084,74.049c.578,1.092,2.248.128,1.67-.963q-19.074-36.992-38.084-74.049c-.578-1.156-2.248-.193-1.67.963Z" transform="translate(-1162.513 -166.387)"/></g><g transform="translate(285.084 2.622)"><path class="a" d="M1214.8,142.39q3.083,44.8,6.1,89.591c.064,1.22,1.991,1.22,1.927,0q-3.083-44.8-6.1-89.591c-.064-1.22-1.991-1.22-1.927,0Z" transform="translate(-1214.798 -141.475)"/></g><g transform="translate(285.139 0)"><path class="a" d="M1216.5,141.957c3.275-2.954,7.707-2.954,11.817-2.248a27.628,27.628,0,0,1,5.073,1.156c2.954,1.092,2.5,3.789,2.633,6.422.385,9.184.706,18.368,1.092,27.552.706,18.56,1.477,37.185,2.184,55.745.064,1.22,1.991,1.22,1.927,0-.9-22.221-1.734-44.442-2.633-66.6-.193-5.523-.45-11.111-.642-16.634-.128-2.826.257-6.294-2.7-7.835-3.083-1.606-7.835-2.184-11.3-2.119a12.675,12.675,0,0,0-8.734,3.211c-.963.771.385,2.184,1.284,1.349Z" transform="translate(-1214.883 -137.393)"/></g><g transform="translate(252.195 17.082)"><path class="a" d="M1164.559,165.923c6.1.385,12.074,2.184,17.918,3.853,5.395,1.541,10.661,3.468,15.221,6.808,1.028.706,1.991-.963.963-1.67-4.753-3.4-10.147-5.395-15.735-7-6.037-1.734-12.138-3.468-18.432-3.918-1.22-.128-1.22,1.8.064,1.927Z" transform="translate(-1163.587 -163.99)"/></g><g transform="translate(307.329 12.603)"><path class="a" d="M1250.633,160.024c2.826-.706,5.973-1.413,8.927-.835,4.367.9,5.266,4.753,5.459,8.67.321,7.9.449,15.735.642,23.634q.578,23.313.642,46.626a.965.965,0,0,0,1.927,0q-.1-27.841-.835-55.553c-.129-4.5-.257-8.927-.385-13.423-.128-2.954-.064-6.23-1.862-8.734-3.34-4.688-10.211-3.532-14.964-2.312a.989.989,0,0,0,.45,1.927Z" transform="translate(-1249.435 -157.016)"/></g><g transform="translate(322.592 4.549)"><path class="a" d="M1273.2,145.39v17.276a.965.965,0,0,0,1.927,0V145.39a.965.965,0,0,0-1.927,0Z" transform="translate(-1273.2 -144.475)"/></g><g transform="translate(323.669 3.734)"><path class="a" d="M1276.626,145.643c.514.193,1.092.385,1.605.578.064.45.129.9.193,1.413.129,1.028.129,2.119.257,3.211.128,1.67.257,3.4.385,5.074.257,3.6.449,7.257.642,10.854.449,7.45.771,14.9,1.028,22.35.578,14.707.771,29.414.771,44.121a.965.965,0,0,0,1.927,0c0-18.3-.385-36.671-1.22-54.975-.45-8.927-.963-17.854-1.606-26.781-.128-2.184.257-6.165-1.734-7.707a2.53,2.53,0,0,0-3.917.9c-.45,1.156,1.156,2.119,1.67.963Z" transform="translate(-1274.878 -143.207)"/></g><g transform="translate(230.609 102.388)"><path class="a" d="M1130.12,298.284c1.991,3.34,3.918,8.349,7.129,10.725,3.147,2.376,7,.257,10.468,1.477,1.156.385,1.67-1.477.514-1.862-3.083-1.092-6.679.642-9.441-1.092-3.147-1.927-5.138-7.129-7-10.276a.982.982,0,0,0-1.67,1.028Z" transform="translate(-1129.975 -296.819)"/></g><g transform="translate(247.82 103.773)"><path class="a" d="M1159.874,299.89a20.934,20.934,0,0,1-2.954,9.184.964.964,0,0,0,1.67.963,22.178,22.178,0,0,0,3.211-10.147c.129-1.22-1.8-1.22-1.927,0Z" transform="translate(-1156.775 -298.975)"/></g><g transform="translate(245.436 105.082)"><path class="a" d="M1153.086,302.225c.578,2.954,1.156,5.909,1.8,8.863.257,1.22,2.119.706,1.863-.514-.578-2.954-1.156-5.909-1.8-8.863-.257-1.22-2.119-.706-1.863.514Z" transform="translate(-1153.062 -301.014)"/></g><g transform="translate(245.949 104.368)"><path class="a" d="M1155.684,301.763a.912.912,0,0,1,.385.128,1.812,1.812,0,0,1,.129,1.156,10.654,10.654,0,0,1-.385,1.349,4.6,4.6,0,0,0-.064,2.633.966.966,0,0,0,1.863-.514,8.612,8.612,0,0,1,.642-5.074c-.642-.064-1.284-.193-1.862-.257-.193,1.991-.321,4.046-.514,6.037-.128,1.22,1.8,1.22,1.927,0,.193-1.991.321-4.046.514-6.037.128-1.156-1.541-1.156-1.863-.257a11.065,11.065,0,0,0-.642,6.1c.642-.193,1.22-.321,1.863-.514-.578-1.927,1.67-4.3-.257-6.037a2.118,2.118,0,0,0-3.468.835c-.514,1.156,1.349,1.67,1.734.449Z" transform="translate(-1153.861 -299.902)"/></g><g transform="translate(345.803 82.44)"><path class="a" d="M1311.948,275.483a22.226,22.226,0,0,1-.642-7.129l-.963.963c11.368-.578,22.735-1.284,34.1-1.541q8.574-.193,17.147,0c1.285,0,2.569.064,3.789.064,1.285.064,3.918-.385,5.074.193,2.569,1.22,1.477,6.165,1.477,8.413a.965.965,0,0,0,1.927,0c0-3.018,1.541-9.441-2.569-10.276-2.826-.578-6.165-.257-9.055-.321-3.6-.064-7.193-.128-10.789-.064-13.68.064-27.359.9-41.1,1.606a.988.988,0,0,0-.963.963,23.474,23.474,0,0,0,.771,7.643c.193,1.22,2.055.706,1.8-.514Z" transform="translate(-1309.342 -265.759)"/></g><g transform="translate(355.514 71.668)"><path class="a" d="M1324.486,250.151a74.948,74.948,0,0,1,1.605,10.661c.064,1.22,1.991,1.22,1.927,0a72.173,72.173,0,0,0-1.67-11.175c-.257-1.156-2.119-.642-1.862.514Z" transform="translate(-1324.462 -248.985)"/></g><g transform="translate(355.907 71.02)"><path class="a" d="M1325.99,251.01c7.771-.642,15.542-1.349,23.313-1.028,7.321.321,14.707,2.7,22.029,1.927l-.963-.963a24.691,24.691,0,0,0,1.22,9.89c.385,1.156,2.248.642,1.862-.514a23.156,23.156,0,0,1-1.156-9.377.91.91,0,0,0-.963-.963c-7.322.706-14.707-1.67-22.029-1.927-7.771-.321-15.606.385-23.313,1.028-1.22.064-1.22,1.991,0,1.927Z" transform="translate(-1325.075 -247.975)"/></g><g transform="translate(291.444 272.422)"><path class="a" d="M1224.7,562.49v8.028a.965.965,0,0,0,1.927,0V562.49a.965.965,0,0,0-1.927,0Z" transform="translate(-1224.7 -561.575)"/></g><g transform="translate(291.444 270.769)"><path class="a" d="M1225.663,560.927h149.9a.965.965,0,0,0,0-1.927h-149.9a.963.963,0,1,0,0,1.927Z" transform="translate(-1224.7 -559)"/></g><g transform="translate(293.033 279.631)"><path class="a" d="M1228.09,574.727h147.52a.965.965,0,0,0,0-1.927H1228.09a.965.965,0,0,0,0,1.927Z" transform="translate(-1227.175 -572.8)"/></g><g transform="translate(441.34 272.422)"><path class="a" d="M1458.1,562.49v5.587a.965.965,0,0,0,1.927,0V562.49a.965.965,0,0,0-1.927,0Z" transform="translate(-1458.1 -561.575)"/></g><g transform="translate(306.242 250.483)"><path class="a" d="M1247.779,528.625c1.67,6.615,3.211,13.294,4.5,19.973.257,1.22,2.119.706,1.863-.514-1.285-6.679-2.762-13.358-4.5-19.973a.966.966,0,0,0-1.862.514Z" transform="translate(-1247.742 -527.414)"/></g><g transform="translate(335.872 250.419)"><path class="a" d="M1297.681,528.011c-1.542,6.615-2.826,13.23-3.789,19.909-.193,1.22,1.67,1.734,1.863.514.963-6.679,2.248-13.358,3.789-19.909.257-1.22-1.606-1.734-1.863-.514Z" transform="translate(-1293.878 -527.314)"/></g><g transform="translate(301.013 245.411)"><path class="a" d="M1239.6,522.2c.128,3.34,5.138,3.083,7.578,3.211,5.523.257,11.111-.578,16.634-.9a50.974,50.974,0,0,1,8.285,0c2.248.193,4.688.963,6.872.514,2.441-.514,3.982-2.826,2.569-5.074-.642-1.028-2.312-.064-1.67.963,1.8,3.018-4.3,2.055-4.881,1.991-1.349-.193-2.762-.321-4.11-.385a67.144,67.144,0,0,0-9.505.257c-2.055.128-19.781,2.248-19.845-.578a.963.963,0,1,0-1.927,0Z" transform="translate(-1239.6 -519.516)"/></g><g transform="translate(301.192 241.662)"><path class="a" d="M1241.948,519.858c-1.156-3.6,8.8-3.211,10.468-3.275l8.927-.385c1.606-.064,18.3-.514,17.854.706-.385,1.156,1.477,1.67,1.862.514,1.927-5.716-18.946-3.211-21.643-3.083-5.009.193-10.6-.257-15.478.706-2.569.514-4.753,2.44-3.854,5.266.385,1.22,2.248.706,1.862-.45Z" transform="translate(-1239.879 -513.679)"/></g><g transform="translate(291.875 199.387)"><path class="a" d="M1245.3,490.977a21.753,21.753,0,0,1-7.643-5.716c-.835-1.028-6.743-9.569-3.275-10.083a.978.978,0,0,0,.578-1.413c-1.862-2.7-2.633-6.165-3.6-9.248-1.092-3.34-2.119-6.679-3.211-9.955-.193-.706-.514-1.349-.642-2.055-.321-1.349-.514-1.349,1.092-1.477,1.734-.128,2.633,1.22,3.789,2.376a50.954,50.954,0,0,1,5.844,7.065c6.486,9.377,10.083,20.423,12.78,31.405a.966.966,0,0,0,1.863-.514c-3.468-14-8.542-28.387-18.817-38.983-1.413-1.477-4.11-4.881-6.487-4.5-1.8.321-2.312,2.248-2.183,3.853.257,3.6,2.183,7.514,3.339,10.982,1.284,3.982,2.119,8.606,4.56,12.074.193-.45.385-.963.578-1.413-4.239.642-1.8,6.551-.642,8.863a23.87,23.87,0,0,0,11.111,10.533c1.092.385,2.055-1.284.963-1.8Z" transform="translate(-1225.371 -447.853)"/></g><g transform="translate(311.962 183.51)"><path class="a" d="M1258.672,464.535c-.193-8.156-.385-16.634,2.376-24.4a40.272,40.272,0,0,1,5.78-10.4c.578-.835,1.22-2.184,2.119-2.7.642-1.028,1.606-1.156,2.826-.321q2.312-.578,2.312,1.156c.771,1.734.514,4.688.514,6.487,0,4.3-1.028,8.285-2.055,12.4a12.435,12.435,0,0,0-.578,4.3c.129,1.67,1.028,2.954,1.477,4.5,1.285,4.367-.963,8.863-2.5,12.845-1.541,4.174-3.147,8.349-4.688,12.588-.45,1.156,1.413,1.67,1.863.514,2.055-5.523,4.239-10.982,6.165-16.57,1.349-3.918,1.991-7.321.45-11.175-2.055-5.2,1.22-11.046,1.67-16.377.257-3.468.835-9.377-1.413-12.459-4.881-6.743-12.652,7.643-14.193,10.854-4.367,8.991-4.3,19.074-4.046,28.836a.964.964,0,0,0,1.927-.064Z" transform="translate(-1256.649 -423.132)"/></g><g transform="translate(297.631 207.712)"><path class="a" d="M1234.5,462.219c6.358,8.927,10.147,19.652,14.578,29.607.514,1.156,2.184.128,1.67-.963-4.367-10.019-8.22-20.68-14.578-29.607-.706-1.028-2.376-.064-1.67.963Z" transform="translate(-1234.334 -460.816)"/></g><g transform="translate(315.526 203.64)"><path class="a" d="M1262.2,455.39a16.005,16.005,0,0,0,3.532,9.055c.771.963,2.12-.385,1.349-1.349a14.1,14.1,0,0,1-2.954-7.707c-.064-1.22-1.991-1.22-1.927,0Z" transform="translate(-1262.198 -454.475)"/></g><g transform="translate(322.447 195.767)"><path class="a" d="M1274.789,450.555c1.541-2.312,3.147-4.624,4.688-6.936.706-1.028-.963-1.991-1.67-.963-1.541,2.312-3.147,4.624-4.688,6.936-.642,1.028,1.028,1.991,1.67.963Z" transform="translate(-1272.975 -442.216)"/></g><g transform="translate(330.13 202.382)"><path class="a" d="M1298.208,452.955c-1.606,2.569-3.918,4.56-6.037,6.615-2.312,2.184-4.624,4.431-6.936,6.615-.9.835.449,2.248,1.349,1.349,4.432-4.239,10.019-8.349,13.294-13.615.642-1.028-1.028-1.991-1.67-.963Z" transform="translate(-1284.938 -452.516)"/></g><g transform="translate(334.098 204.49)"><path class="a" d="M1299.583,456.7c.128,3.4,5.78,9.7,1.413,11.753a1.01,1.01,0,0,0-.193,1.541c1.477,1.8.514,4.5.321,6.615-.193,2.376,0,4.752-.642,7.065-1.156,4.431-5.266,7.065-8.927,9.377-1.028.642-.064,2.312.963,1.67,4.431-2.826,8.991-6.037,10.019-11.56.514-2.954.514-6.037.771-8.991.257-2.119.193-3.789-1.22-5.459l-.193,1.541c6.1-2.89-.321-9.441-.45-13.423,0-1.349-1.927-1.349-1.862-.128Z" transform="translate(-1291.116 -455.799)"/></g><g transform="translate(328.046 214.35)"><path class="a" d="M1293.129,471.632a143.966,143.966,0,0,0-11.368,22.414c-.449,1.156,1.413,1.67,1.863.514A141.231,141.231,0,0,1,1294.8,472.6a.964.964,0,0,0-1.67-.963Z" transform="translate(-1281.692 -471.152)"/></g><g transform="translate(309.512 263.498)"><path class="a" d="M1253,549.041a17.152,17.152,0,0,0,10.34,6.743c1.22.257,1.734-1.606.514-1.862a14.911,14.911,0,0,1-9.184-5.844c-.706-.963-2.376,0-1.67.963Z" transform="translate(-1252.834 -547.679)"/></g><g transform="translate(308.192 255.093)"><path class="a" d="M1251.178,536.459c6.615,5.074,13.615,12.331,22.093,14.065,1.22.257,1.734-1.606.514-1.862-8.22-1.67-15.156-8.927-21.643-13.872-.963-.771-1.927.9-.963,1.67Z" transform="translate(-1250.779 -534.591)"/></g><g transform="translate(313.334 250.501)"><path class="a" d="M1259.116,529.02c3.982,3.275,7.835,6.615,11.881,9.762a23.04,23.04,0,0,0,5.652,3.468c1.991.835,4.11,1.22,5.909,2.5,1.027.706,1.991-.963.963-1.67a19.085,19.085,0,0,0-4.367-1.991,22.314,22.314,0,0,1-6.936-3.853c-3.982-3.083-7.835-6.358-11.688-9.569-1.028-.771-2.376.578-1.413,1.349Z" transform="translate(-1258.785 -527.442)"/></g><g transform="translate(323.909 249.506)"><path class="a" d="M1275.539,527.567a32.3,32.3,0,0,0,13.358,8.349c1.156.385,1.67-1.477.514-1.862a30.608,30.608,0,0,1-12.524-7.9c-.835-.835-2.248.514-1.349,1.413Z" transform="translate(-1275.25 -525.892)"/></g><g transform="translate(368.955 260.166)"><path class="a" d="M1347.9,552.194a9.563,9.563,0,0,1-.9-3.468c.257-2.826,2.184-3.083,4.046-3.4a44.564,44.564,0,0,1,8.285-.578c4.688-.064,9.441.321,14.129.514a127.537,127.537,0,0,0,14-.514c1.927-.193,5.331-.963,7.193-.321a3.239,3.239,0,0,1,2.5,3.468c.064,1.413.064,2.826.129,4.3.064,1.22,1.991,1.22,1.927,0-.064-2.184.578-6.037-.514-8.092-1.028-1.8-3.4-1.606-5.2-1.606-7.322,0-14.45,1.092-21.836.771-6.807-.257-13.679-.835-20.423.193-5.523.835-6.936,4.239-5.074,9.377.257,1.028,2.119.514,1.734-.642Z" transform="translate(-1345.391 -542.491)"/></g><g transform="translate(382.5 253.416)"><path class="a" d="M1369.062,538.094c.514-1.156.963-2.312,1.477-3.468a16.116,16.116,0,0,0,1.734-.257c.771-.064,1.477,0,2.248-.064,1.67,0,3.275-.064,4.945-.064,3.532-.064,7-.064,10.533-.128,3.275-.064,6.615-.064,9.89-.128.835,0,1.67,0,2.5-.064,1.027,0,1.349-.257,1.67.514.385.963-.321,3.661-.449,4.688-.128,1.22,1.8,1.22,1.927,0,.128-1.541,1.092-4.753.321-6.165-.642-1.156-1.606-.963-2.89-.963-6.165,0-12.4.193-18.56.257-2.89.064-5.78.064-8.67.128-2.184,0-4.881-.257-6.872.771-2.312,1.22-3.4,4.367-1.156,6.23.963.835,2.312-.514,1.349-1.284Z" transform="translate(-1366.481 -531.981)"/></g><g transform="translate(396.123 247.464)"><path class="a" d="M1389.881,526.943c-1.67-2.248,5.331-1.991,5.78-2.055,1.541-.128,6.807-1.092,5.78,2.376-.385,1.22,1.477,1.67,1.863.514a3.668,3.668,0,0,0-1.285-3.982c-2.119-1.734-4.753-.9-7.257-.771-1.991.064-4.367-.578-5.973.963a2.913,2.913,0,0,0-.578,3.918c.771.963,2.441,0,1.67-.963Z" transform="translate(-1387.693 -522.712)"/></g><g transform="translate(299.851 281.546)"><path class="a" d="M1237.989,577.206a35.072,35.072,0,0,0,8.734,8.413c1.027.706,1.991-.963.963-1.67a31.828,31.828,0,0,1-8.028-7.771c-.771-.963-2.44,0-1.67,1.028Z" transform="translate(-1237.791 -575.781)"/></g><g transform="translate(307.612 280.713)"><path class="a" d="M1250.79,584.513h6.358c1.22,0,3.211.321,4.3-.257.835-.45,1.092-1.477,1.477-2.248a37.041,37.041,0,0,1,3.661-5.844c.771-.963-.578-2.312-1.349-1.349-.706.835-1.349,1.734-1.991,2.633-.771,1.22-1.284,2.954-2.183,4.046-1.8,2.119-7.642,1.156-10.276,1.092a.965.965,0,0,0,0,1.927Z" transform="translate(-1249.875 -574.484)"/></g><g transform="translate(315.619 281.631)"><path class="a" d="M1262.379,577.125c.514,1.927,1.027,3.918,1.606,5.844a.966.966,0,0,0,1.862-.514c-.514-1.927-1.027-3.918-1.605-5.844a.966.966,0,0,0-1.862.514Z" transform="translate(-1262.342 -575.914)"/></g><g transform="translate(393.824 281.016)"><path class="a" d="M1384.233,576.461a43.919,43.919,0,0,0,3.468,6.1c.706,1.028,1.606,2.633,2.826,3.211,1.285.642,3.083.128,4.367,0,2.312-.257,4.624-.45,6.936-.706,1.22-.128,1.22-2.055,0-1.927-1.541.128-3.083.321-4.624.45-1.349.128-3.339.706-4.624.45-3.34-.642-5.395-5.908-6.679-8.606-.578-1.092-2.248-.128-1.67,1.028Z" transform="translate(-1384.113 -574.955)"/></g><g transform="translate(410.506 280.264)"><path class="a" d="M1411.188,574.437a28.849,28.849,0,0,0-1.092,8.413c.064,1.22,1.991,1.22,1.927,0a27.2,27.2,0,0,1,.963-7.9c.385-1.156-1.477-1.67-1.8-.514Z" transform="translate(-1410.089 -573.785)"/></g><g transform="translate(410.795 280.978)"><path class="a" d="M1412.183,584.211c2.569-2.44,5.009-5.009,7.386-7.643.835-.9-.514-2.312-1.349-1.349-2.376,2.633-4.817,5.2-7.386,7.643-.9.835.449,2.184,1.349,1.349Z" transform="translate(-1410.538 -574.897)"/></g><g transform="translate(0 93.497)"><path class="a" d="M770.9,283.89v54.268a.965.965,0,0,0,1.927,0V283.89a.965.965,0,0,0-1.927,0Z" transform="translate(-770.9 -282.975)"/></g><g transform="translate(0.578 148.231)"><path class="a" d="M772.763,370.127H841.61a.965.965,0,0,0,0-1.927H772.763a.963.963,0,0,0,0,1.927Z" transform="translate(-771.8 -368.2)"/></g><g transform="translate(0.578 93.449)"><path class="a" d="M772.763,284.827h66.792a.965.965,0,0,0,0-1.927H772.763a.963.963,0,0,0,0,1.927Z" transform="translate(-771.8 -282.9)"/></g><g transform="translate(68.333 93.497)"><path class="a" d="M877.3,283.89v54.268a.965.965,0,0,0,1.927,0V283.89a.965.965,0,0,0-1.927,0Z" transform="translate(-877.3 -282.975)"/></g><g transform="translate(33.901 87.009)"><path class="a" d="M825.622,278.67a4.382,4.382,0,0,1,.45-2.376c.193-.45.963-1.606,1.413-1.284.514.321.706,1.8.771,2.312a8.738,8.738,0,0,1,.064,2.89c-.128,1.22,1.8,1.22,1.927,0a11.784,11.784,0,0,0-.578-4.945c-.385-1.028-.9-2.248-2.119-2.376-2.633-.321-3.982,3.725-3.853,5.716.064,1.349,1.991,1.349,1.927.064Z" transform="translate(-823.687 -272.872)"/></g><g transform="translate(3.661 99.727)"><path class="a" d="M776.6,293.59v43.286a.965.965,0,0,0,1.927,0V293.59a.965.965,0,0,0-1.927,0Z" transform="translate(-776.6 -292.675)"/></g><g transform="translate(3.709 142.965)"><path class="a" d="M777.59,361.927h60.5a.965.965,0,0,0,0-1.927h-60.5a.965.965,0,0,0,0,1.927Z" transform="translate(-776.675 -360)"/></g><g transform="translate(64.737 99.213)"><path class="a" d="M873.627,336.076V292.79a.965.965,0,0,0-1.927,0v43.286a.963.963,0,0,0,1.927,0Z" transform="translate(-871.7 -291.875)"/></g><g transform="translate(4.223 100.193)"><path class="a" d="M778.39,295.327h58.443a.965.965,0,0,0,0-1.927H778.39a.965.965,0,0,0,0,1.927Z" transform="translate(-777.475 -293.4)"/></g><g transform="translate(4.294 129.998)"><path class="a" d="M778.751,344.492c7.514-2.248,15.157-4.239,22.606-.771,5.331,2.5,9.955,6.294,15.927,7.386,1.22.193,1.734-1.606.514-1.862-6.808-1.284-11.945-6.23-18.432-8.413-7-2.312-14.322-.257-21.129,1.8-1.156.385-.642,2.248.514,1.862Z" transform="translate(-777.585 -339.81)"/></g><g transform="translate(29.34 127.93)"><path class="a" d="M817.751,342.248a65.684,65.684,0,0,1,28.387-3.4c1.22.128,1.22-1.8,0-1.927a66.946,66.946,0,0,0-28.9,3.468c-1.156.45-.642,2.312.514,1.862Z" transform="translate(-816.585 -336.589)"/></g><g transform="translate(30.096 112.52)"><path class="a" d="M820.162,318.764a2.972,2.972,0,0,1,.706-3.853,2.764,2.764,0,0,1,3.6.578,2.48,2.48,0,0,1-.9,3.468,2.223,2.223,0,0,1-3.018-2.055.965.965,0,0,0-1.927,0,4.18,4.18,0,0,0,5.138,4.046,4.366,4.366,0,0,0,2.633-5.844,4.659,4.659,0,0,0-6.294-1.991,4.884,4.884,0,0,0-1.67,6.679,1.011,1.011,0,0,0,1.734-1.028Z" transform="translate(-817.761 -312.595)"/></g><g transform="translate(345.128 102.3)"><path class="a" d="M1308.489,298.106c2.312,3.083,2.762,7.257,5.587,9.955,2.633,2.569,5.78,2.184,8.991,1.028,1.156-.385.642-2.248-.514-1.862-1.734.578-3.725,1.22-5.523.514a7.161,7.161,0,0,1-3.34-3.532c-1.22-2.376-1.927-4.945-3.532-7.129-.771-.963-2.44,0-1.67,1.028Z" transform="translate(-1308.291 -296.681)"/></g><g transform="translate(357.968 103.542)"><path class="a" d="M1329.964,309.01a46.849,46.849,0,0,0,8.092-8.991c.706-1.028-.963-1.991-1.67-.963a43.061,43.061,0,0,1-7.771,8.606c-.963.771.385,2.184,1.349,1.349Z" transform="translate(-1328.284 -298.616)"/></g><g transform="translate(354.884 101.533)"><path class="a" d="M1323.558,296.973a15.432,15.432,0,0,1,1.22,6.551c-.064,1.22,1.863,1.22,1.927,0a17.65,17.65,0,0,0-1.477-7.514c-.45-1.156-2.119-.193-1.67.963Z" transform="translate(-1323.481 -295.487)"/></g><g transform="translate(303.518 353.343)"><path class="a" d="M1243.5,688.49v25.689a.965.965,0,0,0,1.927,0V688.49a.965.965,0,0,0-1.927,0Z" transform="translate(-1243.5 -687.575)"/></g><g transform="translate(279.161 381.553)"><path class="a" d="M1206.49,733.427h68.076a.965.965,0,0,0,0-1.927H1206.49a.965.965,0,0,0,0,1.927Z" transform="translate(-1205.575 -731.5)"/></g><g transform="translate(317.004 384.17)"><path class="a" d="M1264.5,736.49v16.056a.965.965,0,0,0,1.927,0V736.49a.965.965,0,0,0-1.927,0Z" transform="translate(-1264.5 -735.575)"/></g><g transform="translate(278.519 402.105)"><path class="a" d="M1205.49,765.427h60.37a.965.965,0,0,0,0-1.927h-60.37a.965.965,0,0,0,0,1.927Z" transform="translate(-1204.575 -763.5)"/></g><g transform="translate(294.526 404.722)"><path class="a" d="M1229.5,768.49v12.2a.965.965,0,0,0,1.927,0v-12.2a.965.965,0,0,0-1.927,0Z" transform="translate(-1229.5 -767.575)"/></g><g transform="translate(299.078 80.796)"><path class="a" d="M1238.458,277.071c0-2.7-.514-6.1,0-8.734.706-3.725,5.908-3.018,8.927-3.211,1.22-.064,1.22-1.991,0-1.927a72.6,72.6,0,0,0-7.45.514,3.7,3.7,0,0,0-2.7,1.477c-.771,1.156-.642,2.762-.642,4.11v7.771a.932.932,0,1,0,1.862,0Z" transform="translate(-1236.588 -263.198)"/></g><g transform="translate(288.434 20.024)"><path class="a" d="M1221.225,171.48a26.577,26.577,0,0,1,17.276,1.028c1.156.45,1.67-1.413.514-1.862a28.392,28.392,0,0,0-18.3-1.028.966.966,0,0,0,.514,1.862Z" transform="translate(-1220.014 -168.572)"/></g><g transform="translate(285.867 11.976)"><path class="a" d="M1217.418,161.217a17.845,17.845,0,0,1,17.083-1.862c1.156.45,1.67-1.413.514-1.862a19.541,19.541,0,0,0-18.561,2.055c-1.028.706-.064,2.376.963,1.67Z" transform="translate(-1216.016 -156.04)"/></g><g transform="translate(259.788 50.634)"><path class="a" d="M1182.018,216.4c-2.055,1.413-5.973,3.275-6.551,5.973-.257,1.413.385,2.7.9,3.982.9,2.248,1.8,4.5,2.762,6.743a272.122,272.122,0,0,0,12.523,25.753c.578,1.092,2.248.128,1.67-.963q-5.3-9.633-9.826-19.652c-1.606-3.532-3.147-7.129-4.56-10.725-.835-2.119-1.991-3.982-.449-6.165.9-1.284,3.211-2.376,4.56-3.275.963-.706,0-2.376-1.028-1.67Z" transform="translate(-1175.409 -216.234)"/></g></g><g transform="translate(434.087 408.708)"><path class="b" d="M706.347,706.6c-5.266,3.918-11.624,10.211-13.936,19.2-1.67,6.679-.064,10.6-.642,19.2a64.225,64.225,0,0,1-6.872,24.4,123.224,123.224,0,0,0-52.406.578,121.678,121.678,0,0,0-31.79,12.267,18.389,18.389,0,0,0,5.009,2.248c12.01,3.275,24.662-6.808,25.047-6.1.385.642-14.129,7.45-13.358,13.358.514,3.982,7.643,6.1,15.028,8.349,6.23,1.862,12.138,3.661,20.038,2.762a41.019,41.019,0,0,0,21.707-9.5,93.694,93.694,0,0,0,13.936,5.587c10.982,3.34,26.139,7.964,36.222,1.67,6.551-4.11,8.542-13.744,12.267-32.882,4.5-23.313,6.615-35,.578-44.571C729.274,710.389,713.026,707.435,706.347,706.6Z" transform="translate(-600.7 -627.542)"/><g transform="translate(81.471 140.643)"><path class="c" d="M728.227,804.424a37.286,37.286,0,0,1,18.625,15.157c.642,1.028,2.312.064,1.67-.963a39.572,39.572,0,0,0-19.781-16.056c-1.22-.45-1.67,1.413-.514,1.862Z" transform="translate(-727.557 -802.492)"/></g><g transform="translate(24.143 155.213)"><path class="c" d="M654.931,825.192a21.441,21.441,0,0,0-16.57,13.615c-.45,1.156,1.413,1.67,1.862.514a19.555,19.555,0,0,1,15.221-12.267c1.22-.193.706-2.055-.514-1.862Z" transform="translate(-638.292 -825.178)"/></g><g transform="translate(38.931 161.478)"><path class="c" d="M672.16,835.1a61.581,61.581,0,0,0-7.771,5.652c-1.606,1.413-3.4,3.083-3.019,5.395.963,6.1,8.285,4.753,12.267,3.211,1.156-.45.642-2.312-.514-1.863-1.734.642-3.661,1.477-5.523,1.413-3.018-.128-5.716-3.018-3.147-5.652a45.877,45.877,0,0,1,8.67-6.551c1.028-.642.064-2.312-.963-1.606Z" transform="translate(-661.318 -834.934)"/></g><path class="d" d="M813.1,583.5a98.405,98.405,0,0,0-12.138,5.074A77.489,77.489,0,0,0,778.1,605.464a189,189,0,0,0-19.2,21.964c-6.037,8.221-15.414,21.129-22.157,40.075a127.063,127.063,0,0,0-5.138,18.625,32.9,32.9,0,0,1,9.248-3.661c14.45-3.275,28.322,4.046,41.488,10.918,4.945,2.569,8.863,5.074,11.56,6.808,1.413-6.936,2.826-13.936,4.239-20.872,1.22-5.844,2.376-11.753,3.6-17.6a79.456,79.456,0,0,0,7.129-7.065c5.2-5.909,15.542-17.661,16.955-33.974C827.549,601.868,816.374,587.482,813.1,583.5Z" transform="translate(-647.532 -583.5)"/><g transform="translate(98.887 0.757)"><path class="c" d="M817.565,584.692c-6.872,1.028-12.78,4.688-18.111,8.927a161.67,161.67,0,0,0-17.34,15.8A185.825,185.825,0,0,0,754.82,645.7a.964.964,0,0,0,1.67.963,181.916,181.916,0,0,1,26.2-35.13A196.8,196.8,0,0,1,798.3,596.959c5.844-4.817,12.074-9.312,19.781-10.468,1.22-.128.707-1.991-.514-1.8Z" transform="translate(-754.675 -584.678)"/></g><g transform="translate(144.205 70.606)"><path class="c" d="M840.113,693.735c-4.753,4.817-9.633,9.505-14.579,14.065-.9.835.45,2.184,1.349,1.349,4.945-4.56,9.826-9.248,14.579-14.065.835-.9-.514-2.248-1.349-1.349Z" transform="translate(-825.238 -693.438)"/></g><g transform="translate(83.643 78.999)"><path class="c" d="M799.7,707.209c-2.248,12.331-4.431,24.726-6.679,37.057.45-.193.963-.385,1.413-.578a109.921,109.921,0,0,0-33.653-15.8c-9.441-2.569-21.45-5.074-29.543,2.055-.9.835.45,2.183,1.349,1.349,8.221-7.321,21.515-3.468,30.827-.642A108.38,108.38,0,0,1,793.4,745.293a.978.978,0,0,0,1.413-.578c2.248-12.331,4.431-24.726,6.679-37.057.257-1.156-1.606-1.67-1.8-.449Z" transform="translate(-730.938 -706.507)"/></g><g transform="translate(83.874 60.403)"><path class="c" d="M746.905,678.032c-6.679,13.037-15.028,26.46-15.606,41.552-.064,1.22,1.862,1.22,1.927,0,.578-14.707,8.8-27.809,15.349-40.589.514-1.092-1.156-2.055-1.67-.963Z" transform="translate(-731.297 -677.552)"/></g><path class="e" d="M778.183,640.5A294.22,294.22,0,0,0,756.8,696.117c-5.331,19.781-7.193,35.387-21,48.36a55.972,55.972,0,0,1-19.267,12.01c-21.836,7.9-38.02-2.762-51.764,8.542-1.541,1.284-6.1,4.5-5.587,8.156.514,3.468,5.266,5.266,5.973,5.587,5.652,2.184,11.5-.064,18.817-3.018,8.285-3.34,7.386-4.5,11.111-5.138,7.835-1.349,11.432,3.6,21.836,6.872,4.431,1.349,17.533,5.459,26.974,0,6.936-4.046,9.055-11.624,12.4-24.4a131.58,131.58,0,0,0,4.3-37.249l7.707,5.973Q773.3,681.153,778.183,640.5Z" transform="translate(-621.607 -603.893)"/><path class="f" d="M810.594,683.8A172.7,172.7,0,0,0,795.18,724c-4.624,19.074-3.147,28.065-9.441,41.488C779,780.07,768.078,789.318,760.5,794.584c4.239.963,14.45,2.762,21.836-3.018,5.2-4.046,6.551-9.826,8.542-19.267,2.5-11.624,5.138-24.854,7.707-39.369l5.973,3.853C806.612,719.187,808.6,701.461,810.594,683.8Z" transform="translate(-657.872 -619.384)"/></g><g transform="translate(568.779 393.078)"><path class="d" d="M840.408,574.622q-3.468,22.639-6.743,45.6Q820.948,709.137,811.7,795.035a17.506,17.506,0,0,0,2.569,8.092,17.874,17.874,0,0,0,5.716,5.587c11.689,8.349,17.533,12.588,23.441,15.414,28.322,13.68,59.663,12.074,59.663,12.074,6.615-.321,19.781-1.156,33.91-6.808.771-.321,6.165-2.826,16.955-7.9,9.762-4.56,11.5-5.459,13.872-7.643,5.652-5.2,7.835-11.624,9.312-16.184a55.816,55.816,0,0,0,2.7-19.909s-.642-15.992-1.092-109.372c-.064-19.01,1.8-46.947,11.817-81.435-10.4-5.074-20.166-9.762-31.919-15.413-8.092-3.918-15.606-7.514-26.4-8.8a66.518,66.518,0,0,0-9.955-.45,212.943,212.943,0,0,0-36.35,3.725C874.446,567.879,858.9,570.7,840.408,574.622Z" transform="translate(-810.881 -560.276)"/><g transform="translate(27.815 4.054)"><path class="c" d="M854.933,578.015c19.909-4.239,40.011-7.643,60.177-10.147.9-.128,1.413-1.284.514-1.8-.257-.128-.514-.321-.835-.45a.964.964,0,0,0-.963,1.67c.257.128.514.321.835.45.193-.578.321-1.22.514-1.8-20.359,2.5-40.653,5.909-60.691,10.211-1.284.257-.771,2.119.45,1.862Z" transform="translate(-853.735 -565.475)"/></g><g transform="translate(0 49.549)"><path class="c" d="M833.465,637.011q-10.6,75.526-19.267,151.309c-.706,6.358-1.413,12.652-2.119,19.01-.578,5.523-2.184,11.753-1.477,17.276.642,4.881,4.5,7.964,8.028,10.918a128.9,128.9,0,0,0,12.138,8.991,120.377,120.377,0,0,0,128.767,1.477c1.028-.642.064-2.312-.963-1.67a119.832,119.832,0,0,1-120.932,2.055,121.561,121.561,0,0,1-12.459-8.092c-4.046-3.018-10.6-7.129-12.267-12.074-.771-2.376-.385-5.009-.128-7.514.321-3.147.706-6.358,1.028-9.505.642-5.908,1.284-11.817,1.991-17.725,2.762-24.084,5.587-48.1,8.67-72.122q5.2-40.942,10.918-81.82c.128-1.22-1.734-1.734-1.927-.514Z" transform="translate(-810.425 -636.314)"/></g><g transform="translate(116.942)"><path class="c" d="M993.211,561.049c11.3,2.248,21.9,7.45,32.433,11.881,10.34,4.367,21.836,7.9,30.955,14.579,1.028.706,1.991-.963.963-1.67-8.927-6.551-20.166-10.019-30.249-14.258-10.918-4.56-21.9-10.019-33.589-12.4-1.22-.257-1.734,1.606-.514,1.862Z" transform="translate(-992.513 -559.162)"/></g><g transform="translate(147.494 109.845)"><path class="c" d="M1060.582,731.163c-1.028,27.038-2.055,54.076-1.092,81.049.45,13.1,2.5,26.717.064,39.754-2.055,10.725-8.092,21.451-18.818,25.432-1.156.45-.642,2.312.514,1.862,17.083-6.358,21.515-25.818,21.258-42.13-.129-11.046-1.092-22.093-1.349-33.2-.257-11.3-.128-22.542.064-33.846.257-12.973.771-25.946,1.22-38.919.129-1.284-1.8-1.284-1.862,0Z" transform="translate(-1040.085 -730.2)"/></g><path class="f" d="M980.536,703.367a141.06,141.06,0,0,1-16.955,37.185c-36.8,56.58-104.17,67.884-121.381,70.26q34.68,3.661,70.131,7.9,39.112,4.624,77.2,9.7c-1.606-28.708-1.606-52.342-1.22-69.232.706-34.937,3.211-63.2-1.349-64.095C985.867,694.826,983.94,696.046,980.536,703.367Z" transform="translate(-821.793 -607.779)"/><path class="g" d="M1009.007,740.7a267.4,267.4,0,0,1-11.046,27.552c-7.321,15.735-14.322,30.891-23.377,40.2-25.3,26.01-74.755,14.771-74.884,16.57-.064,1.028,18.047,3.918,109.5,12.331Q1009.2,789,1009.007,740.7Z" transform="translate(-842.365 -624.111)"/></g><g transform="translate(141.166 559.118)"><path class="b" d="M855.359,1033.04Q501.812,985.836,148.2,938.7q104.33-60.5,208.725-121Q675.888,849.1,994.915,880.574,925.073,956.775,855.359,1033.04Z" transform="translate(-145.888 -817.7)"/><path class="h" d="M144.6,1014.6q354.414,47.011,708.764,94.022" transform="translate(-144.6 -888.145)"/><path class="h" d="M1241.2,1075.689q74.274-78.513,148.484-157.089" transform="translate(-536.931 -853.799)"/><g transform="translate(554.242 84.101)"><path class="c" d="M1078.758,948.875Q1042.633,977.1,1007.92,1007c-.963.835.45,2.184,1.349,1.349q34.777-29.864,70.838-58.122c.963-.706-.385-2.119-1.349-1.349Z" transform="translate(-1007.597 -948.652)"/></g><g transform="translate(554.762 141.639)"><path class="c" d="M1009.109,1040.078c7.578,1.606,15.285,1.606,23.056,1.67a93.245,93.245,0,0,1,25.3,3.468c15.67,4.56,31.02,7.578,47.4,7.193a.965.965,0,0,0,0-1.927,137.887,137.887,0,0,1-25.175-1.67c-7.835-1.285-15.285-3.6-22.928-5.716a86.834,86.834,0,0,0-22.285-3.147c-8.349-.193-16.7.064-24.918-1.67a.927.927,0,0,0-.45,1.8Z" transform="translate(-1008.407 -1038.242)"/></g><g transform="translate(625.901 83.805)"><path class="c" d="M1120.09,950.123a483.562,483.562,0,0,1,75.462,12.138.966.966,0,0,0,.514-1.862,481.382,481.382,0,0,0-75.976-12.2c-1.22-.128-1.22,1.8,0,1.927Z" transform="translate(-1119.175 -948.19)"/></g><g transform="translate(651.053 97.48)"><path class="c" d="M1159.984,1026.653c17.918-17.726,35.13-36.222,51.443-55.489.771-.963-.578-2.312-1.349-1.349-16.313,19.2-33.524,37.7-51.443,55.489a.954.954,0,0,0,1.349,1.349Z" transform="translate(-1158.338 -969.484)"/></g><g transform="translate(576.963 132.913)"><path class="c" d="M1043.89,1027.574a134.343,134.343,0,0,1,65.186,8.156c1.156.45,1.67-1.413.514-1.862a136.437,136.437,0,0,0-65.7-8.221c-1.22.129-1.22,2.055,0,1.927Z" transform="translate(-1042.975 -1024.656)"/></g><g transform="translate(610.399 126.839)"><path class="c" d="M1095.977,1017.126a259.521,259.521,0,0,1,40.332,6.294.966.966,0,0,0,.514-1.862,257.354,257.354,0,0,0-40.846-6.358c-1.285-.064-1.22,1.862,0,1.927Z" transform="translate(-1095.037 -1015.197)"/></g><g transform="translate(600.212 112.647)"><path class="c" d="M1080.09,995.027a247.8,247.8,0,0,1,60.562,8.863.966.966,0,0,0,.514-1.862,251.527,251.527,0,0,0-61.076-8.927.965.965,0,0,0,0,1.927Z" transform="translate(-1079.175 -993.1)"/></g><g transform="translate(625.861 106.789)"><path class="c" d="M1119.811,985.855c11.046,1.541,21.964,3.468,32.882,5.78,1.22.257,1.734-1.606.514-1.862-10.918-2.312-21.836-4.239-32.882-5.78-1.22-.193-1.734,1.67-.514,1.862Z" transform="translate(-1119.114 -983.978)"/></g><g transform="translate(600.545 151.32)"><path class="c" d="M1091.643,1053.755c-3.917,6.037-7.835,12.074-11.817,18.047a1,1,0,0,0,.835,1.477,270.323,270.323,0,0,1,94.729,6.037.966.966,0,0,0,.514-1.862,273.273,273.273,0,0,0-95.243-6.165c.257.514.578.963.835,1.477,3.918-6.037,7.835-12.074,11.817-18.047.706-1.028-.963-1.991-1.67-.964Z" transform="translate(-1079.695 -1053.316)"/></g><g transform="translate(689.232 112.583)"><path class="c" d="M1218.695,995.7l37.121-.771a14.743,14.743,0,0,1-.9-1.22q-12.813,30.538-25.689,61.012c-.45,1.156,1.413,1.67,1.863.514q12.812-30.538,25.689-61.012c.257-.578-.385-1.22-.9-1.22l-37.121.771c-1.284.064-1.284,1.991-.064,1.927Z" transform="translate(-1217.787 -993)"/></g><g transform="translate(641.981 160.576)"><path class="c" d="M1145.425,1070.279a36.444,36.444,0,0,1,9.89-.514c1.22.064,1.22-1.863,0-1.927a40.328,40.328,0,0,0-10.4.578c-1.22.193-.707,2.055.514,1.863Z" transform="translate(-1144.214 -1067.728)"/></g><g transform="translate(660.517 161.391)"><path class="c" d="M1173.99,1070.926a265.15,265.15,0,0,1,30.185,2.89c1.22.193,1.734-1.67.514-1.862a258.64,258.64,0,0,0-30.7-2.954c-1.22-.064-1.22,1.862,0,1.927Z" transform="translate(-1173.075 -1068.998)"/></g><g transform="translate(661.095 149.318)"><path class="c" d="M1174.89,1052.127h7.193a.965.965,0,0,0,0-1.927h-7.193a.965.965,0,0,0,0,1.927Z" transform="translate(-1173.975 -1050.2)"/></g><g transform="translate(676.059 149.126)"><path class="c" d="M1198.19,1051.827a171.193,171.193,0,0,1,23.57,2.248c1.22.193,1.734-1.67.514-1.862a188.689,188.689,0,0,0-24.084-2.312.965.965,0,0,0,0,1.927Z" transform="translate(-1197.275 -1049.9)"/></g><g transform="translate(674.839 138.142)"><path class="c" d="M1196.29,1034.726a267.656,267.656,0,0,1,26.845,1.67c1.22.128,1.22-1.8,0-1.927a249.979,249.979,0,0,0-26.845-1.67c-1.22-.064-1.22,1.862,0,1.927Z" transform="translate(-1195.375 -1032.797)"/></g><g transform="translate(614.533 158.08)"><path class="c" d="M1102.39,1067.155a47.883,47.883,0,0,0,12.78-1.413.966.966,0,0,0-.514-1.862,43.861,43.861,0,0,1-12.267,1.349.965.965,0,0,0,0,1.927Z" transform="translate(-1101.475 -1063.842)"/></g><g transform="translate(643.502 60.397)"><path class="c" d="M1149.034,912.1c-1.67,2.055-3.6,6.23-1.605,8.734,1.22,1.541,3.532,1.22,5.266,1.284,3.147.128,6.294.321,9.441.45,12.781.578,25.5,1.22,38.277,1.8,1.22.064,1.22-1.862,0-1.927-9.441-.449-18.817-.9-28.258-1.349-4.624-.193-9.184-.449-13.808-.642-2.248-.128-4.624,0-6.872-.321-1.67-.257-2.89-.321-2.826-2.376a7.518,7.518,0,0,1,1.734-4.3c.771-.963-.578-2.376-1.349-1.349Z" transform="translate(-1146.581 -911.742)"/></g><g transform="translate(646.773 61.204)"><path class="c" d="M1152.59,914.991c10.79.385,21.579.706,32.368,1.092,5.266.193,10.6.321,15.863.514,4.753.193,9.762.514,13.166,4.174.835.9,2.183-.449,1.349-1.349-2.569-2.826-6.037-3.918-9.762-4.431-5.523-.706-11.239-.578-16.826-.771-12.074-.385-24.148-.835-36.158-1.22-1.22.064-1.22,1.991,0,1.991Z" transform="translate(-1151.675 -913)"/></g><g transform="translate(695.727 66.814)"><path class="c" d="M1228.863,928.006a22.163,22.163,0,0,0,13.615-4.432c.963-.706,0-2.376-.963-1.67a20.379,20.379,0,0,1-12.652,4.174.963.963,0,1,0,0,1.927Z" transform="translate(-1227.9 -921.734)"/></g><g transform="translate(694.921 63.024)"><path class="c" d="M1229.955,916a7.41,7.41,0,0,0-3.018,8.221.967.967,0,0,0,1.863-.514,5.519,5.519,0,0,1,2.119-6.1c1.027-.642.064-2.312-.964-1.606Z" transform="translate(-1226.645 -915.834)"/></g></g><g transform="translate(194.937 127.067)"><g transform="translate(163.59 248.933)"><path class="d" d="M495.284,553.574c-1.606-3.34-6.165-3.6-8.606-1.092-2.633,2.7-3.853,7.9-3.6,11.56.578,7.386,7.771,10.854,9.7,17.469.9,3.018,5.523,3.982,7.065.9,2.569-5.074,6.165-9.441,9.377-14.065,2.826-4.11,7.129-10.468,5.587-15.735a6.142,6.142,0,0,0-5.074-4.431c-2.954-.321-5.009,1.477-6.743,3.661a45.678,45.678,0,0,0-4.56,7.065c-1.156,2.184-2.055,4.753-4.3,5.973,1.862.771,3.789,1.541,5.652,2.312-.835-2.762-1.67-5.523-2.44-8.221-2.119,1.22-4.3,2.5-6.422,3.725a8.211,8.211,0,0,0,11.3.963,18.242,18.242,0,0,0,3.6-4.688,6.479,6.479,0,0,1,1.734-1.991,5.766,5.766,0,0,1,1.8-.835c1.284-.064,1.22-.193-.128-.385-.642-1.092-1.284-2.248-1.927-3.34v.45c.963-1.22,1.862-2.5,2.826-3.725-.128.064-.257.064-.385.128-4.688,1.477-2.7,8.927,2.055,7.45.128-.064.257-.064.385-.128A3.991,3.991,0,0,0,515,552.867v-.45a4,4,0,0,0-1.927-3.34c-3.211-2.055-7.964-.064-10.6,2.055a17.252,17.252,0,0,0-3.532,4.239c-.642,1.028-1.349,3.211-2.569,1.8-2.569-2.89-7.514.193-6.422,3.725.835,2.762,1.67,5.523,2.44,8.221a3.889,3.889,0,0,0,5.652,2.312c3.275-1.734,5.074-4.753,6.679-7.964a40.079,40.079,0,0,1,3.147-5.331c.193-.321,1.927-2.119,1.862-2.44-1.67-1.413-2.5-1.349-2.633.193a9.165,9.165,0,0,1-.514,1.413c-3.211,7.771-9.633,13.68-13.423,21.129,2.376.321,4.688.642,7.065.9-1.22-4.174-3.982-7.193-6.615-10.533a12.767,12.767,0,0,1-2.7-4.688,7.034,7.034,0,0,1,.193-3.468,12.567,12.567,0,0,1,.771-2.184c1.092-1.541,0-1.927-3.211-1.092,2.119,4.56,8.734.642,6.615-3.789Z" transform="translate(-483.048 -548.142)"/></g><g transform="translate(173.59 247.77)"><path class="d" d="M505.029,573.991a127.528,127.528,0,0,0,14.707-21.836c2.312-4.367-4.367-8.285-6.679-3.918a110.355,110.355,0,0,1-13.487,20.294c-3.147,3.789,2.248,9.248,5.459,5.459Z" transform="translate(-498.618 -546.332)"/></g><g transform="translate(194.621 164.351)"><path class="i" d="M531.965,418.534a47.667,47.667,0,0,0,1.028,19.973c.963,3.6,6.551,2.055,5.587-1.541a40.557,40.557,0,0,1-1.028-16.891c.514-3.661-5.074-5.2-5.587-1.541Z" transform="translate(-531.364 -416.441)"/></g><g transform="translate(195.912 150.233)"><path class="i" d="M534.868,413.624c7.065,3.018,12.716-2.89,12.973-9.826,0-.642-.385-2.376-.128-2.954h-.321a1.982,1.982,0,0,1,1.284,1.092c1.028,1.284,1.541,2.954,2.633,4.239,2.248,2.633,5.33,3.018,8.606,3.211,1.606.064,3.532-.128,4.5,1.413.963,1.477.45,3.982.321,5.652-.128,2.312-.321,4.688-.514,7-.064.578-.642,2.762.193,1.927-.514.578-2.633.706-3.34.9a46.034,46.034,0,0,1-12.909,1.092c-2.248-.128-5.652.128-6.936-1.863-1.156-1.862-1.22-4.688-.9-6.808-1.734.257-3.532.45-5.266.706,1.541,3.4,3.018,6.808,4.56,10.276,1.028,2.248,4.752,1.606,5.266-.706,1.541-6.936-.578-14.193,1.606-21-1.606.45-3.211.835-4.817,1.284,1.862,2.248,1.413,7.065,1.862,9.826a28.917,28.917,0,0,0,2.89,8.991c1.349,2.44,5.587,1.413,5.395-1.477-.514-7.707-1.028-15.478-1.477-23.184-1.862.257-3.789.514-5.652.771a35.31,35.31,0,0,1,.963,22.285l4.239-1.734a27.135,27.135,0,0,1-8.156-10.468c-1.22-2.633-5.523-1.284-5.395,1.477.128,2.569.193,5.138.321,7.707h5.78a39.265,39.265,0,0,1,.642-9.505c.257-1.092.514-2.248.835-3.34.193-.706.45-1.477.706-2.184q1.252-1.541-.385-1.156c3.083,4.367,3.468,10.918,2.954,15.992,1.8-.514,3.6-.963,5.395-1.477a29.375,29.375,0,0,1-2.826-9.569,28.178,28.178,0,0,1-.128-5.2,13.716,13.716,0,0,0,.193-2.184c-.45.064-.9.064-1.349.128.257.514.514.963.771,1.477a35.775,35.775,0,0,1,3.147,19.524c1.8-.514,3.6-.963,5.395-1.477a33.938,33.938,0,0,1-2.569-7.835,12.6,12.6,0,0,1-.193-3.468,10.243,10.243,0,0,1,.385-1.927c.706-.771.771-1.092.193-.9-.771-.128-1.477-.193-2.248-.321,1.028.514,1.67,5.587,1.862,6.743a30.764,30.764,0,0,1-.064,8.413h5.587a36,36,0,0,1-1.541-6.294c-.321-2.055-.128-4.174-.771-6.165a22.982,22.982,0,0,1-.128,13.487c1.734-.257,3.532-.45,5.266-.706a21.6,21.6,0,0,1-1.734-5.331,19.311,19.311,0,0,1-.321-2.7,6.95,6.95,0,0,1,0-1.156c.193-.9-.257-.963-1.284-.257l-1.734-1.349c3.661,6.294-3.661,13.294-9.89,12.4.706.9,1.413,1.862,2.119,2.762-.064-1.156-.45-2.826-.064-3.918l-1.349,1.734c-1.092.706,4.753-.128,2.312-.385-3.34-.321-3.853,4.817-.771,5.652s5.909,2.5,9.184,2.119a7.481,7.481,0,0,0,6.1-4.5,15.739,15.739,0,0,0,1.092-8.606,15.023,15.023,0,0,0-1.22-4.5c-.257-.642-.578-1.284-.9-1.927a11.169,11.169,0,0,0-.706-1.156c-.257-.578-.385-.45-.257.385,1.8.514,3.6.963,5.395,1.477.064-1.22.193-2.376.257-3.6-1.862.257-3.789.514-5.652.771a12.628,12.628,0,0,1-.385,9.312c-1.413,3.468,4.174,4.945,5.587,1.541a17.9,17.9,0,0,0,.385-12.4,2.889,2.889,0,0,0-5.652.771c-.064,1.22-.193,2.376-.257,3.6-.193,2.826,4.174,4.046,5.395,1.477,1.413-3.083,1.028-7.065-2.248-8.8a5.976,5.976,0,0,0-7.964,2.7c-1.862,3.982,2.312,7.514,2.7,11.367.193,1.8.193,5.395-1.8,6.294-1.927.835-5.587-1.413-7.386-1.927-.257,1.862-.514,3.789-.771,5.652,5.844.514,5.973-7.193,1.927-9.7-1.991-1.22-4.688-2.184-6.808-.9-2.633,1.606-1.862,4.817-1.8,7.386.064,1.156.835,2.633,2.119,2.762,10.276,1.477,19.652-6.743,17.661-17.469-.385-2.119-1.22-4.5-3.6-4.945a4.484,4.484,0,0,0-4.817,2.569c-2.119,4.56.385,11.3,2.312,15.478,1.092,2.376,4.624,1.541,5.266-.706a28.577,28.577,0,0,0,.9-13.166c-.578-3.34-1.606-7.707-5.78-7.835-9.312-.193-5.459,15.092-3.853,19.909.835,2.44,5.074,3.018,5.587,0a35.812,35.812,0,0,0-.578-14.771c-.771-2.89-2.312-8.542-6.487-7.064-3.34,1.22-4.367,6.037-4.367,9.184,0,4.624,1.67,9.184,3.6,13.23,1.349,2.89,5.138,1.092,5.395-1.477a41.09,41.09,0,0,0-1.413-16.056c-1.092-3.661-3.083-11.046-7.964-10.854-4.753.128-5.009,6.23-5.009,9.7a36.92,36.92,0,0,0,3.853,16.056c1.349,2.826,5.138,1.092,5.395-1.477a32.287,32.287,0,0,0-1.349-13.551c-1.027-3.211-2.7-7.835-6.551-8.285-4.239-.45-5.716,4.431-6.679,7.578A43.343,43.343,0,0,0,537.052,423c.193,3.725,5.909,3.725,5.78,0-.128-2.569-.193-5.138-.321-7.707-1.8.514-3.6.963-5.395,1.477a32.876,32.876,0,0,0,10.211,12.523c1.541,1.156,3.789-.128,4.239-1.734a39.908,39.908,0,0,0-.963-25.368c-1.092-2.826-5.909-2.7-5.652.771.514,7.707,1.028,15.478,1.477,23.185,1.8-.514,3.6-.963,5.395-1.477-3.34-6.23-1.092-14.514-5.652-20.038-1.477-1.8-4.239-.642-4.817,1.284-2.248,6.872-.064,14.065-1.606,21,1.734-.257,3.532-.45,5.266-.706-1.541-3.4-3.018-6.808-4.56-10.276-.963-2.184-4.881-1.67-5.266.706-.706,4.5-.385,10.789,3.532,13.872,1.8,1.413,4.174,1.541,6.422,1.8a54.7,54.7,0,0,0,9.184.257,57.3,57.3,0,0,0,8.734-1.284c1.927-.45,4.5-.771,5.844-2.312,1.734-1.862,1.413-4.881,1.606-7.257.193-2.826.514-5.587.578-8.413.064-4.624-1.8-8.67-6.551-9.826-1.927-.45-3.918-.193-5.909-.514-3.083-.45-3.4-3.083-5.074-5.266-2.119-2.826-6.679-4.624-9.569-1.862-1.862,1.8-1.477,4.11-1.413,6.422.064,2.055-.963,7.257-4.239,5.844-3.918-.9-6.872,4.11-3.468,5.523Z" transform="translate(-533.375 -394.458)"/></g><g transform="translate(26.297 177.185)"><path class="i" d="M270.189,460.621a98.136,98.136,0,0,1,12.4,13.423c2.44,3.211,4.945,9.633,9.312,10.533,2.569.514,4.624-.835,6.551-2.376,2.633-2.119,5.2-4.3,7.835-6.487s5.2-4.3,7.835-6.487c1.862-1.541,3.982-2.954,4.11-5.587.128-2.5-1.477-4.367-2.954-6.23-2.055-2.633-4.174-5.266-6.23-7.9s-4.174-5.266-6.23-7.9c-1.541-1.927-2.954-4.5-5.523-5.074-2.312-.514-4.431.835-6.358,1.862a79.059,79.059,0,0,0-7.45,4.5,84.973,84.973,0,0,0-13.037,10.982,2.962,2.962,0,0,0,.578,4.56A57.96,57.96,0,0,1,287.4,470.511c.706.771,1.413,1.541,2.119,2.376.45.514.9,1.092,1.349,1.606.578,1.541,1.413,1.477,2.44-.321.257,1.734.45,3.532.706,5.266A81.757,81.757,0,0,0,312.062,464.6a2.922,2.922,0,0,0-3.532-4.56,80.6,80.6,0,0,1-13.936,5.973l3.275,4.239a47.712,47.712,0,0,1,9.955-11.3c-1.541-1.156-3.019-2.312-4.56-3.532A56.156,56.156,0,0,1,290.226,469.1l4.239,3.275a27.952,27.952,0,0,1,10.147-15.157l-3.982-3.982a39.079,39.079,0,0,1-12.138,14.322h2.89c.193.193.321.45.514.642.128-.514.257-1.028.385-1.477.193-.642.385-1.284.642-1.991a34.006,34.006,0,0,1,2.184-4.945,35.184,35.184,0,0,1,5.973-8.092c-1.541-1.156-3.018-2.312-4.56-3.532a57.053,57.053,0,0,1-14,18.239c1.67.706,3.275,1.349,4.945,2.055a32.78,32.78,0,0,1,9.312-19.973c-1.541-1.156-3.019-2.312-4.56-3.532a28.937,28.937,0,0,1-11.5,12.074c1.477.835,2.89,1.67,4.367,2.5a13.053,13.053,0,0,1,1.349-6.615,10.931,10.931,0,0,1,1.67-2.44c1.028-1.22,2.954-1.541,1.156-2.7-.835-1.028-1.284-.963-1.349.321-.321.642-.578,1.284-.9,1.927-.514.963-1.028,1.862-1.541,2.762-.578.9-1.156,1.8-1.8,2.633-.514.642-.963,1.284-1.541,1.927-.9.514-.963.9-.193,1.092l1.349,1.734c-.642-2.055,1.477-5.909,2.44-7.643.578-.963,3.918-6.487,5.395-6.165.706.128,1.67,3.725,1.927,4.367a34.068,34.068,0,0,1,1.284,4.367,21.818,21.818,0,0,1,.706,4.5c0,1.734,0,1.8-1.413.578-4.046-3.468-4.5-12.267,1.477-14.258,3.018-1.028,3.918,2.826,4.624,5.009,1.028,3.147,1.991,6.358,3.018,9.569,1.606-.963,3.211-1.862,4.817-2.826a18.594,18.594,0,0,1-5.652-13.1c-1.22.9-2.44,1.862-3.661,2.762,6.743,2.569,7.835,11.046,8.734,17.212.514,3.661,6.1,2.119,5.587-1.541-1.284-8.734-3.661-17.854-12.78-21.258a2.911,2.911,0,0,0-3.661,2.762,24.61,24.61,0,0,0,7.321,17.148c1.991,1.991,5.716,0,4.817-2.826-1.156-3.661-2.184-7.321-3.468-10.918-.9-2.569-2.055-5.266-4.431-6.808-5.138-3.4-11.175.45-13.808,5.138a14.757,14.757,0,0,0,1.862,16.891c3.4,3.789,10.019,5.844,11.881-.514,1.67-5.652-1.22-14-4.046-18.882-3.853-6.551-10.211-1.606-13.487,2.633a27.254,27.254,0,0,0-4.046,7.321c-.9,2.44-2.376,6.422-.578,8.8,4.239,5.523,10.34-3.853,12.2-6.936,1.606-2.569,3.918-6.1,3.532-9.312a4.083,4.083,0,0,0-5.909-3.275c-5.909,2.569-8.927,10.468-8.67,16.441a2.936,2.936,0,0,0,4.367,2.5,35,35,0,0,0,13.551-14.129c1.477-2.826-2.184-5.909-4.56-3.532a38.962,38.962,0,0,0-10.982,24.019c-.257,2.7,3.211,3.532,4.945,2.055a61.023,61.023,0,0,0,14.9-19.4c1.349-2.826-2.119-5.973-4.56-3.532a42.366,42.366,0,0,0-8.734,13.23c-1.349,3.275-4.174,9.5.193,11.753a2.9,2.9,0,0,0,2.89,0A44.9,44.9,0,0,0,305.576,456c1.156-2.312-1.413-5.844-3.982-3.982a34.343,34.343,0,0,0-12.78,18.625c-.642,2.248,2.119,4.817,4.239,3.275a63.048,63.048,0,0,0,15.157-15.735c1.927-2.89-2.184-5.459-4.56-3.532A50.392,50.392,0,0,0,292.8,467.107a2.913,2.913,0,0,0,3.275,4.239A82.983,82.983,0,0,0,311.42,464.8c-1.156-1.541-2.312-3.018-3.532-4.56A74.872,74.872,0,0,1,291,474.172c-2.312,1.413-1.541,4.367.706,5.266a4.289,4.289,0,0,0,5.716-3.853c.193-3.34-3.275-6.487-5.33-8.67a63.26,63.26,0,0,0-18.239-13.68c.193,1.541.385,3.018.578,4.56a85.856,85.856,0,0,1,9.633-8.477c3.083-2.312,6.936-5.395,10.6-6.615,1.092-.385,1.028-.578,1.927.321a24.554,24.554,0,0,1,2.312,2.954c1.413,1.8,2.89,3.661,4.3,5.459,1.541,1.991,3.147,3.982,4.688,5.973.835,1.092,4.239,4.367,3.982,5.587-.257,1.413-3.789,3.468-4.945,4.431l-5.395,4.431-5.395,4.431c-.771.642-2.44,2.5-3.789,1.8-.514-.257-1.413-2.184-1.734-2.633a104.338,104.338,0,0,0-16.505-19.138c-2.569-2.248-6.679,1.8-3.918,4.3Z" transform="translate(-269.271 -436.424)"/></g><g transform="translate(29.961 191.884)"><path class="i" d="M275.313,463.672c2.312,4.5,16.826,29.543,22.992,21,2.184-3.019-2.826-5.909-5.009-2.89-.128.128-.193.321-.321.45.835-.45,1.67-.963,2.5-1.413-1.092.128-3.725-3.532-4.431-4.367-1.413-1.606-2.826-3.211-4.11-4.945a80.254,80.254,0,0,1-6.615-10.725c-1.67-3.34-6.679-.385-5.009,2.89Z" transform="translate(-274.977 -459.312)"/></g><g transform="translate(130.325 80.077)"><path class="d" d="M446.118,322.071c-6.872-5.009-9.5-15.285-5.2-22.8,2.119-3.725,5.973-6.743,10.468-6.23,4.624.514,6.872,3.853,7.193,8.221a70.858,70.858,0,0,1-.128,7.386c-.128,2.312.128,5.009-.514,7.257s-2.954,3.468-3.853,5.716c-.771,1.927.064,3.6-2.184,4.239-.642.193-1.541.128-2.119.321-1.028-.128-1.028.064,0,.514-.257-.835-.45-1.606-.706-2.44-.835-2.826-1.67-5.716-2.5-8.542-1.413-4.752-4.367-11.753-.642-16.184-1.541.193-3.083.385-4.688.578,2.248,1.67,1.413,8.477,1.541,10.789l.578,14.45c.193,5.074,7.193,4.881,7.707,0,.514-5.074-.193-10.083-.385-15.221a32.571,32.571,0,0,1,.193-6.615,17.2,17.2,0,0,1,.706-3.147,11.482,11.482,0,0,1,.835-2.055c.706-1.092.706-1.22.064-.385-.963.128-1.991.257-2.954.385a19.561,19.561,0,0,0,.835,2.826,23.7,23.7,0,0,1,.514,2.954,57.64,57.64,0,0,1,.128,8.156c-.064,1.22-.193,2.44-.385,3.725l-.385,2.312c-.642,1.541.45,1.927,3.275.963.257-.514-.45-2.569-.514-3.147a29.309,29.309,0,0,1-.128-4.11,34.764,34.764,0,0,1,1.028-7.707c.193-.771.385-1.477.642-2.248.963-1.67-.064-2.248-3.083-1.67-.257.45.771,2.89.9,3.34a27.145,27.145,0,0,1,.45,8.221c-.128,1.284-.257,5.459-1.734,5.78-4.817,1.156-2.762,8.606,2.055,7.45,5.074-1.22,6.487-6.358,7.129-10.918.706-5.395.45-11.5-1.606-16.569-1.991-4.881-7.835-4.945-10.4-.45s-3.147,10.854-3.083,15.927c.064,4.11.128,11.175,5.074,12.652,5.459,1.606,7.386-4.3,7.964-8.413a53.435,53.435,0,0,0,.064-16.313c-.642-3.982-3.211-11.624-8.67-10.147-5.266,1.349-6.294,10.533-6.551,14.9-.321,6.551,1.092,13.037.45,19.588h7.707c-.257-6.486-.514-12.973-.835-19.46-.193-4.945-.963-9.312-5.138-12.395a3.9,3.9,0,0,0-4.688.578c-4.239,5.009-4.56,11.175-3.083,17.34.771,3.34,1.862,6.679,2.826,9.955.9,3.083,1.413,6.808,3.083,9.505,2.633,4.367,9.955,3.34,13.744,1.092a8.2,8.2,0,0,0,3.853-5.331c.321-1.413.193-1.991,1.092-3.147a16.016,16.016,0,0,0,2.7-3.853c1.092-2.44,1.156-5.138,1.284-7.707.128-3.211.45-6.486.385-9.762-.128-5.716-1.991-11.111-6.936-14.386-9.5-6.294-21.45-.45-25.946,9.055-5.266,11.239-1.028,24.533,8.8,31.726,3.918,3.018,7.771-3.661,3.789-6.551Z" transform="translate(-431.25 -285.22)"/></g><g transform="translate(144.269 126.322)"><path class="d" d="M453.5,364.852a5.01,5.01,0,0,0,5.909,2.119,7.188,7.188,0,0,0,2.7-1.606,6.053,6.053,0,0,0,.642-.642c.193-.193.128-.193-.128.064,1.22-.642.257-.835-2.826-.706,1.541,1.284,3.982,1.606,5.459,0a3.916,3.916,0,0,0,0-5.459,5.312,5.312,0,0,0-6.422-.578,6.6,6.6,0,0,0-1.927,1.606c-.45.578.578-.385-.128.128a.913.913,0,0,1,.385-.128q-2.023.482,2.89,1.349a3.889,3.889,0,0,0-5.266-1.413,3.971,3.971,0,0,0-1.284,5.266Z" transform="translate(-452.962 -357.227)"/></g><g transform="translate(146.605 135.167)"><path class="d" d="M456.6,374.853v.578a3.846,3.846,0,0,0,1.156,2.7,4.139,4.139,0,0,0,2.7,1.156,3.732,3.732,0,0,0,2.7-1.156,3.965,3.965,0,0,0,1.156-2.7v-.578a3.846,3.846,0,0,0-1.156-2.7,4.139,4.139,0,0,0-2.7-1.156,3.951,3.951,0,0,0-3.853,3.853Z" transform="translate(-456.6 -371)"/></g><g transform="translate(102.084)"><path class="d" d="M393.65,228.524q25.336-30.153,48.617-62.039c-1.477.578-2.89,1.156-4.367,1.8a8.486,8.486,0,0,1,3.661,2.312c-.193-1.541-.385-3.083-.578-4.688q-22.253,31.79-44.442,63.516c1.734-.45,3.532-.9,5.266-1.413-1.284-.771-2.569-1.541-3.853-2.376.45,1.734.9,3.532,1.413,5.266a263.605,263.605,0,0,0,18.5-27.487c2.5-4.3-4.174-8.156-6.679-3.918a270.586,270.586,0,0,1-18.5,27.487c-1.284,1.67-.193,4.3,1.413,5.266,1.284.771,2.569,1.541,3.853,2.376a3.889,3.889,0,0,0,5.266-1.413q22.253-31.79,44.442-63.516a3.98,3.98,0,0,0-.578-4.688,16.444,16.444,0,0,0-7.065-4.3c-1.734-.578-3.34.385-4.367,1.8q-22.639,31.02-47.4,60.434c-3.211,3.918,2.248,9.441,5.395,5.587Z" transform="translate(-387.277 -160.534)"/></g><g transform="translate(57.528 282.061)"><path class="d" d="M325.607,604.012v-.578c0-4.945-7.707-4.945-7.707,0v.578c0,5.009,7.707,5.009,7.707,0v-.578c0-4.945-7.707-4.945-7.707,0v.578c0,5.009,7.707,5.009,7.707,0Z" transform="translate(-317.9 -599.725)"/></g><g transform="translate(0 224.887)"><path class="d" d="M232.034,518.407c4.945,0,4.945-7.707,0-7.707s-4.945,7.707,0,7.707Z" transform="translate(-228.325 -510.7)"/></g><g transform="translate(18.32 230.217)"><path class="i" d="M259.644,524.78c3.725,0,3.725-5.78,0-5.78s-3.725,5.78,0,5.78Z" transform="translate(-256.85 -519)"/></g><g transform="translate(254.339 83.404)"><path class="i" d="M627.144,296.18c3.725,0,3.725-5.78,0-5.78s-3.725,5.78,0,5.78Z" transform="translate(-624.35 -290.4)"/></g><g transform="translate(293.354 173.63)"><path class="i" d="M685.1,433.786v1.092a2.971,2.971,0,0,0,.835,2.055,2.811,2.811,0,0,0,2.055.835,2.971,2.971,0,0,0,2.055-.835,3.093,3.093,0,0,0,.835-2.055v-1.092a2.971,2.971,0,0,0-.835-2.055,2.811,2.811,0,0,0-2.055-.835,2.971,2.971,0,0,0-2.055.835,3.093,3.093,0,0,0-.835,2.055Z" transform="translate(-685.1 -430.889)"/></g></g><g transform="translate(135.001 102.893)"><g transform="translate(306.134 153.075)"><g transform="translate(0)"><path class="c" d="M635.518,363.013c10.918,1.734,26.2,6.808,22.157,21.065-1.862,6.551-7,11.239-12.074,15.414a180.337,180.337,0,0,0-14.514,12.588,120.3,120.3,0,0,0-12.01,14.129c-2.89,3.982-6.872,8.927-6.422,14.258.385,4.753,4.56,5.909,8.349,7.386,5.459,2.119,11.239,5.844,13.358,11.56,2.826,7.707-3.083,14.514-8.67,19.074-5.009,4.11-10.468,7.643-13.872,13.294a.964.964,0,0,0,1.67.963c6.1-10.276,21.643-14.386,23.377-27.359.706-5.074-1.606-9.826-5.266-13.23a29.347,29.347,0,0,0-6.1-4.367c-2.633-1.413-5.716-1.991-8.285-3.468-7.193-4.174,1.8-14.836,4.881-18.882a113.853,113.853,0,0,1,14.836-16.12c8.734-7.964,22.414-15.028,23.377-28.322.963-13.487-13.487-18.047-24.148-19.716-1.349-.321-1.862,1.541-.642,1.734Z" transform="translate(-611.675 -361.242)"/></g></g><g transform="translate(0 152.459)"><path class="c" d="M275.263,360.615a242.832,242.832,0,0,1-38.6,38.02c-14,10.982-29.221,19.716-44.7,28.387-14.257,8.028-28.643,16.248-40.846,27.359-5.459,4.945-11.5,10.725-14.579,17.6-2.376,5.331-2.569,12.267,3.532,15.028,3.34,1.477,7.257.963,10.725.385,5.652-.963,11.239-2.184,16.826-3.275,5.716-1.092,11.432-2.248,17.148-3.34,5.459-1.028,15.67-1.991,15.927,6.165.064,1.22,1.991,1.22,1.927,0-.257-7.578-8.349-9.5-14.579-8.734-9.505,1.22-18.882,3.6-28.322,5.395-6.615,1.284-24.276,6.615-22.992-6.037.835-8.156,8.542-15.221,14.129-20.551,11.817-11.175,26.01-19.46,40.139-27.423,14.835-8.349,29.607-16.569,43.222-26.845A247.028,247.028,0,0,0,276.484,361.9c.9-.9-.45-2.248-1.22-1.284Z" transform="translate(-135.001 -360.282)"/></g><g transform="translate(26.738 284.373)"><path class="c" d="M187.98,566.015c-5.652,6.808-12.267,14.836-11.239,24.276.771,7.257,5.973,14.065,13.808,13.551,5.009-.321,9.441-3.083,13.808-5.2a114.982,114.982,0,0,1,16.826-6.743,68.615,68.615,0,0,1,17.661-2.89c4.752-.064,10.147.257,14.129,3.211,6.037,4.367,2.312,10.918-.9,15.8a117.087,117.087,0,0,0-8.349,14.579,114.362,114.362,0,0,0-5.652,14.322c-1.156,3.661-2.5,7.964.321,11.175,6.037,7,15.221,1.028,20.294-3.725a98.275,98.275,0,0,1,25.882-17.79,95.054,95.054,0,0,1,34.552-8.606,85.435,85.435,0,0,1,18.111.835c5.331.835,11.3,2.5,13.808,7.835.514,1.092,2.184.128,1.67-.963-3.468-7.514-12.973-8.67-20.294-9.377a93.737,93.737,0,0,0-28.708,1.862A96.358,96.358,0,0,0,276.8,628.44a95.14,95.14,0,0,0-11.689,7.835c-4.174,3.275-7.707,7.321-11.945,10.34-3.789,2.7-11.881,4.688-14.129-1.22-1.092-2.89.321-6.23,1.22-9.055q1.445-4.431,3.275-8.67a109.669,109.669,0,0,1,7.45-14.45c2.5-4.046,6.23-8.156,7.129-12.973,1.477-7.835-6.23-11.881-12.845-12.845-9.826-1.349-20.23.9-29.478,4.239a169.72,169.72,0,0,0-16.377,7.321c-5.587,2.762-12.523,4.881-17.276-.578-8.863-10.147.45-22.928,7.193-31.084.835-.9-.514-2.248-1.349-1.284Z" transform="translate(-176.634 -565.682)"/></g><g transform="translate(73.828 314.904)"><path class="c" d="M251.141,615.52c6.037-1.927,11.367,3.982,11.5,9.7.128,6.037-3.853,11.239-7.835,15.349-.9.9.514,2.248,1.349,1.349,4.881-5.009,9.955-12.138,8.028-19.588-1.541-5.844-7.45-10.6-13.551-8.67-1.156.385-.706,2.248.514,1.863Z" transform="translate(-249.957 -613.222)"/></g><g transform="translate(299.011 149.928)"><g transform="translate(0)"><path class="c" d="M600.915,357.92c2.954,2.44,6.422,2.954,10.083,3.725A17.953,17.953,0,0,1,621.21,367.1c5.2,5.844,6.808,14.643,2.954,21.579a.964.964,0,0,0,1.67.963c3.725-6.679,2.954-14.9-1.156-21.194a19.542,19.542,0,0,0-7.9-7.065c-4.624-2.184-10.4-1.477-14.514-4.817-.963-.771-2.312.578-1.349,1.349Z" transform="translate(-600.584 -356.342)"/></g></g><g transform="translate(63.767 260.926)"><path class="c" d="M234.361,556.55c3.661,9.826,15.285,7.321,22.414,3.468a56.649,56.649,0,0,0,12.523-9.184c3.982-3.918,7.193-8.542,11.111-12.523,4.3-4.367,10.34-8.349,16.826-7.257,5.844.963,9.377,6.165,13.1,10.147,4.881,5.138,14.707,10.4,19.652,2.248a.964.964,0,0,0-1.67-.963c-3.147,5.138-9.826,3.34-13.68.257-3.468-2.826-5.973-6.679-9.377-9.569-6.422-5.523-14.45-5.009-21.258-.385-7.514,5.074-12.074,13.487-18.946,19.331a47.963,47.963,0,0,1-13.744,8.413c-5.331,1.991-12.78,1.862-15.092-4.431-.45-1.22-2.312-.706-1.862.45Z" transform="translate(-234.292 -529.175)"/></g><g transform="translate(79.569 226.841)"><path class="c" d="M259.22,477.706a94.04,94.04,0,0,1,20.423,25.111c.578,1.092,2.248.128,1.67-.963a93.506,93.506,0,0,0-20.744-25.5c-.9-.835-2.312.578-1.349,1.349Z" transform="translate(-258.897 -476.102)"/></g><g transform="translate(79.684 200.872)"><path class="c" d="M260.954,461.184c6.936-9.184,16.762-18.56,27.68-22.735a9.855,9.855,0,0,1,5.587-.771c2.312.514,3.661,2.5,5.009,4.3,1.927,2.5,3.789,5.074,5.652,7.643,3.661,5.138,7.129,10.468,10.4,15.863.642,1.028,2.312.064,1.67-.963-4.11-6.743-8.542-13.358-13.23-19.716-3.532-4.817-6.743-10.468-13.615-8.863-5.973,1.413-11.689,5.78-16.377,9.441a83.535,83.535,0,0,0-14.514,14.836c-.642.963,1.028,1.927,1.734.963Z" transform="translate(-259.075 -435.666)"/></g><g transform="translate(100.306 228.727)"><path class="c" d="M292.351,504.7a100.06,100.06,0,0,0,34.488-24.019c.835-.9-.514-2.248-1.349-1.349a96.928,96.928,0,0,1-33.653,23.506c-1.156.514-.642,2.376.514,1.863Z" transform="translate(-291.185 -479.038)"/></g><g transform="translate(87.34 209.66)"><path class="c" d="M272.669,467.364a97.817,97.817,0,0,1,24.469-16.248c1.092-.514.128-2.184-.963-1.67a99.369,99.369,0,0,0-24.854,16.57c-.963.771.45,2.184,1.349,1.349Z" transform="translate(-270.997 -449.349)"/></g><g transform="translate(92.94 220.44)"><path class="c" d="M281.119,476.581c3.982-2.89,7.964-5.716,11.945-8.606,1.028-.706.064-2.376-.963-1.67-3.982,2.89-7.964,5.716-11.945,8.606-1.028.771-.064,2.44.963,1.67Z" transform="translate(-279.716 -466.134)"/></g><g transform="translate(95.637 219.348)"><path class="c" d="M285.319,480.4c6.679-4.688,13.358-9.441,20.038-14.129,1.028-.706.064-2.376-.963-1.67-6.679,4.688-13.358,9.441-20.038,14.129-1.028.706-.064,2.376.963,1.67Z" transform="translate(-283.916 -464.434)"/></g><g transform="translate(101.012 229.714)"><path class="c" d="M293.964,491.445a119.474,119.474,0,0,1,12.909-9.055c1.092-.642.064-2.312-.963-1.67a107.141,107.141,0,0,0-13.294,9.312c-.963.835.385,2.184,1.349,1.413Z" transform="translate(-292.284 -480.575)"/></g><g transform="translate(103.966 231.624)"><path class="c" d="M298.564,497.775a99.174,99.174,0,0,1,19.588-12.459c1.092-.514.128-2.184-.963-1.67a101.539,101.539,0,0,0-19.973,12.78c-.963.771.385,2.119,1.349,1.349Z" transform="translate(-296.884 -483.549)"/></g><g transform="translate(218.128 275.757)"><path class="c" d="M494.2,562.692c3.147-3.982-.578-8.863-4.752-10.019a11.843,11.843,0,0,0-13.23,5.459c-2.826,5.009-1.67,11.56,1.991,15.8,4.688,5.523,16.891,8.863,14.707,17.982a.966.966,0,0,0,1.862.514c2.5-10.4-10.019-13.615-15.221-19.845-3.661-4.431-4.3-11.881.321-15.927a10.2,10.2,0,0,1,6.936-2.44c2.89.128,9.12,3.275,6.1,7.193-.835.9.514,2.248,1.284,1.284Z" transform="translate(-474.644 -552.267)"/></g><g transform="translate(236.081 271.093)"><path class="c" d="M505.232,559.709a15,15,0,0,1,4.688-8.927,15.227,15.227,0,0,1,4.174-2.762,15.6,15.6,0,0,1,2.44-.835c1.8-.385,2.184-.385,3.661.9,1.477,1.349,1.541,1.734,1.477,3.6a20.315,20.315,0,0,1-.193,2.055,18.849,18.849,0,0,1-1.028,3.725,35.617,35.617,0,0,1-3.982,7.386c-5.523,8.221-13.423,15.735-13.872,26.2-.064,1.22,1.862,1.22,1.927,0,.578-14.065,15.157-22.157,18.5-35.258.642-2.5,1.156-5.716.064-8.156-1.349-2.826-4.3-2.954-7-2.312A17,17,0,0,0,503.5,559.2c-.321,1.22,1.541,1.8,1.734.514Z" transform="translate(-502.598 -545.005)"/></g><g transform="translate(248.668 188.126)"><path class="c" d="M523.162,416.514a47.374,47.374,0,0,0,0,19.01c1.349,5.973,5.652,4.688,10.6,5.009,11.239.771,26.139,7.9,33.524-4.817a.964.964,0,0,0-1.67-.963c-6.294,10.854-19.524,5.523-29.157,4.174a38.01,38.01,0,0,0-6.615-.257c-3.468,0-4.5-1.67-5.009-4.753a46.322,46.322,0,0,1,.257-16.826c.128-1.284-1.734-1.8-1.927-.578Z" transform="translate(-522.196 -415.82)"/></g><g transform="translate(248.488 169.935)"><g transform="translate(0)"><path class="c" d="M523.319,409.462c3.468-2.119,6.486-2.5,10.4-3.147,1.67-.257,2.762-.9,3.018-2.633.706-4.367-1.156-8.863,2.312-12.588,3.853-4.174,9.055-.45,10.661,3.789.771,1.991,1.22,4.3,2.762,5.909,1.991,2.119,4.624,1.541,7.129,2.248,9.7,2.633,6.808,15.157,4.753,21.9-.385,1.156,1.477,1.67,1.862.514,2.184-7,4.367-15.735-1.477-21.579a10.288,10.288,0,0,0-3.275-2.248c-1.863-.771-3.918-.385-5.844-1.092-3.725-1.349-3.661-6.872-5.909-9.7-4.046-5.009-10.982-4.3-13.744,1.541a13.58,13.58,0,0,0-1.156,5.009c-.128,2.055.835,6.165-1.349,7-1.541.642-3.918.385-5.587.9a23.876,23.876,0,0,0-5.523,2.5c-1.028.706-.064,2.376.963,1.67Z" transform="translate(-521.916 -387.495)"/></g></g><g transform="translate(257.222 188.997)"><g transform="translate(0)"><path class="c" d="M535.826,418.09a38.721,38.721,0,0,0,3.661,21.964c.514,1.092,2.184.128,1.67-.963a36.43,36.43,0,0,1-3.4-21c.193-1.22-1.734-1.22-1.927,0Z" transform="translate(-535.515 -417.175)"/></g></g><g transform="translate(181.006 98.701)"><path class="c" d="M431.586,325.081c-8.285-3.853-13.23-12.78-12.78-21.9.514-9.312,6.808-17.79,14.836-22.221,5.009-2.762,10.34-3.6,15.413-.642a23.235,23.235,0,0,1,9.762,12.074,29.746,29.746,0,0,1-3.147,26.845c-.706,1.028.963,1.991,1.67.963,8.734-13.037,6.743-35.708-9.248-42.451-8.028-3.4-16.57,1.156-22.35,6.808-5.652,5.523-9.312,13.423-8.863,21.386a24.681,24.681,0,0,0,13.679,20.872c1.156.45,2.119-1.22,1.028-1.734Z" transform="translate(-416.842 -276.579)"/></g><g transform="translate(193.831 142.863)"><path class="c" d="M437.831,351.994a3.867,3.867,0,0,0,.835,5.909c3.34,2.184,9.12.193,12.652-.642,3.789-.9,9.505-1.734,12.074-5.074a4.8,4.8,0,0,0-.45-6.615c-.963-.771-2.312.578-1.349,1.349,2.954,2.5-.9,5.395-3.211,6.294-1.927.706-3.918,1.284-5.909,1.8-1.862.45-3.725.9-5.587,1.22a34.906,34.906,0,0,1-3.6.578c-1.67.064-6.487-.835-4.046-3.4.835-.963-.514-2.312-1.413-1.413Z" transform="translate(-436.811 -345.342)"/></g><g transform="translate(198.575 153.68)"><path class="c" d="M444.2,364.892c.257,3.789,3.468,6.23,7.193,6.487,5.138.321,8.991-3.982,12.01-7.514.771-.963-.578-2.312-1.349-1.349-2.119,2.5-4.5,5.395-7.642,6.487-3.211,1.156-7.964-.128-8.221-4.11-.128-1.22-2.055-1.22-1.991,0Z" transform="translate(-444.198 -362.184)"/></g><g transform="translate(203.683 162.883)"><path class="c" d="M452.247,377.211a4.673,4.673,0,1,0,9.184,1.092.965.965,0,0,0-1.927,0,2.858,2.858,0,0,1-3.275,2.826,2.942,2.942,0,0,1-2.119-3.4c.257-1.22-1.606-1.734-1.862-.514Z" transform="translate(-452.152 -376.514)"/></g><g transform="translate(190.133 121.113)"><g transform="translate(0 0)"><path class="c" d="M431.532,313.289a33.2,33.2,0,0,1,12.459,14.45c.514,1.156,2.184.128,1.67-.963A34.641,34.641,0,0,0,432.5,311.62a.964.964,0,0,0-.963,1.67Z" transform="translate(-431.052 -311.475)"/></g></g><g transform="translate(200.497 117.027)"><path class="c" d="M447.2,306.325c1.22,9.248,2.5,18.5,3.725,27.68.193,1.22,1.991.706,1.862-.514-1.22-9.248-2.5-18.5-3.725-27.68-.193-1.22-1.991-.706-1.862.514Z" transform="translate(-447.19 -305.114)"/></g><g transform="translate(201.943 118.183)"><g transform="translate(0 0)"><path class="c" d="M451.342,322.7a22.867,22.867,0,0,1,10.982-14c1.092-.578.128-2.248-.963-1.67a24.9,24.9,0,0,0-11.881,15.157.966.966,0,0,0,1.862.514Z" transform="translate(-449.442 -306.913)"/></g></g><g transform="translate(133.743 297.606)"><path class="c" d="M343.346,587.773c2.569,5.587,5.33,11.111,8.413,16.441,1.541,2.633,3.6,7.643,7.386,6.037,1.156-.514.128-2.119-.963-1.67-2.44,1.028-6.808-8.927-7.643-10.533-1.991-3.661-3.789-7.45-5.523-11.239-.514-1.156-2.184-.193-1.67.963Z" transform="translate(-343.249 -586.287)"/></g><g transform="translate(133.865 275.878)"><path class="c" d="M345.148,576.825c5.459-4.239,10.789-8.606,16.313-12.716,4.817-3.661,10.019-7.193,15.927-8.863,6.358-1.862,11.881-.385,16.12,4.753,3.6,4.367,5.78,9.762,8.221,14.771.514,1.092,2.184.128,1.67-.963-4.688-9.633-10.211-23.249-23.377-21.129-6.551,1.028-12.459,4.624-17.79,8.477-6.294,4.624-12.331,9.569-18.5,14.386-.9.706.45,2.055,1.413,1.284Z" transform="translate(-343.44 -552.457)"/></g><g transform="translate(145.794 297.479)"><path class="c" d="M363.225,610.373A103.712,103.712,0,0,0,408.566,587.7c.963-.835-.45-2.184-1.349-1.349a102.306,102.306,0,0,1-44.507,22.221c-1.22.257-.706,2.119.514,1.8Z" transform="translate(-362.014 -586.091)"/></g><g transform="translate(155.164 288.909)"><path class="c" d="M384.051,587.488c-3.4-.835-6.23-4.174-5.395-7.835.771-3.532,5.074-6.1,8.477-4.431,6.872,3.468,2.184,13.358-4.881,10.854-1.156-.385-1.67,1.477-.514,1.862a8.24,8.24,0,0,0,10.34-4.56c1.541-3.982-.963-8.8-4.881-10.211-4.239-1.541-9.055,1.349-10.276,5.587-1.413,4.753,2.055,9.441,6.615,10.6a.966.966,0,0,0,.514-1.862Z" transform="translate(-376.603 -572.746)"/></g><g transform="translate(194.527 207.774)"><path class="c" d="M440.21,493.544c-.771-6.872-.835-14.707,7.321-16.57,4.11-.963,7.514-2.184,9.89-5.973,2.44-3.853,2.119-7.45,1.156-11.689-.706-3.34-.642-6.23,2.055-8.734a7.972,7.972,0,0,1,7.9-1.862c1.156.385,1.67-1.477.514-1.862A10.139,10.139,0,0,0,458,450.579c-4.046,5.331.706,10.725-.9,16.441a11.122,11.122,0,0,1-7,7.45c-2.762.9-5.716.835-8.028,2.762-4.881,3.982-4.431,10.725-3.789,16.313.128,1.22,2.055,1.22,1.927,0Z" transform="translate(-437.894 -446.413)"/></g><g transform="translate(178.33 212.939)"><path class="c" d="M415.517,460.457c-1.991-1.606-.385-5.2,2.184-3.853a2.113,2.113,0,0,1,1.092,2.826,2.445,2.445,0,0,1-3.147,1.092c-1.092-.578-2.055,1.092-.963,1.67a4.527,4.527,0,0,0,5.652-1.541,3.951,3.951,0,0,0-1.413-5.523,4.021,4.021,0,0,0-5.587,1.092,4.413,4.413,0,0,0,.835,5.652c.963.706,2.312-.642,1.349-1.413Z" transform="translate(-412.674 -454.455)"/></g><g transform="translate(265.65 108.395)"><g transform="translate(0 0)"><path class="c" d="M552.018,302.672a7.762,7.762,0,0,1-1.156-6.358,4,4,0,0,1,4.239-2.7,2.509,2.509,0,0,1,2.055,3.918,4.828,4.828,0,0,1-4.817,2.248c-1.22-.128-1.22,1.8,0,1.927a6.7,6.7,0,0,0,6.808-3.982,4.309,4.309,0,0,0-2.7-5.78,5.985,5.985,0,0,0-6.551,2.119c-2.119,2.89-1.284,6.808.45,9.7.642.9,2.312-.064,1.67-1.092Z" transform="translate(-548.639 -291.673)"/></g></g><g transform="translate(165.317 138.638)"><path class="c" d="M392.533,398.257a17.389,17.389,0,0,0,17.661,8.8c8.734-1.284,13.423-7.964,16.891-15.413,4.046-8.606,9.633-15.67,18.56-19.46,8.092-3.4,18.56-1.67,25.24-8.028,2.569-2.44,4.3-5.844,3.725-9.441-.45-2.762-2.119-5.074-1.477-7.964a8.155,8.155,0,0,1,6.294-6.1c1.22-.257.706-2.119-.514-1.862a10.055,10.055,0,0,0-7.643,7.45,10.349,10.349,0,0,0,.514,5.909c1.028,3.211,1.413,5.844-.706,8.8-3.725,5.2-10.276,5.909-16.12,6.743a38.793,38.793,0,0,0-14.579,4.881A35.586,35.586,0,0,0,430.1,381.88c-3.018,4.11-4.688,8.927-7.129,13.358-3.083,5.459-8.156,9.633-14.643,10.019a15.456,15.456,0,0,1-14.322-8.028c-.385-1.028-2.055-.064-1.477,1.028Z" transform="translate(-392.413 -338.762)"/></g><g transform="translate(148.79 92.109)"><path class="c" d="M369.9,267.011c-1.092,8.028-2.184,16.056-3.211,24.084-.193,1.22,1.67,1.734,1.862.514,1.092-8.028,2.184-16.056,3.211-24.084.193-1.22-1.67-1.734-1.862-.514Z" transform="translate(-366.678 -266.314)"/></g><g transform="translate(150.291 99.765)"><path class="c" d="M370.419,296.452l22.735-16.377c1.028-.706.064-2.376-.963-1.67l-22.735,16.377c-1.028.706-.064,2.376.963,1.67Z" transform="translate(-369.016 -278.234)"/></g><g transform="translate(151.395 15.364)"><path class="c" d="M372.575,225.35q28.515-38.245,56.067-77.132c.706-1.028-.963-1.991-1.67-.963Q399.42,186.174,370.9,224.387c-.706.963.963,1.927,1.67.963Z" transform="translate(-370.734 -146.816)"/></g><g transform="translate(174.937 26.796)"><path class="c" d="M409.259,236.535q26.2-34.68,50.865-70.517c.706-1.028-.963-1.991-1.67-.963q-24.662,35.74-50.865,70.517c-.771.963.9,1.927,1.67.963Z" transform="translate(-407.391 -164.616)"/></g><g transform="translate(206.934)"><path class="c" d="M459,139.66c3.018-5.652,6.551-12.523,13.23-14.386a10.478,10.478,0,0,1,13.23,10.019.965.965,0,0,0,1.927,0c-.064-6.615-5.652-12.588-12.459-12.4-8.927.257-13.936,8.8-17.6,15.8-.578,1.092,1.092,2.055,1.67.963Z" transform="translate(-457.213 -122.893)"/></g><g transform="translate(226.241 11.405)"><g transform="translate(0)"><path class="c" d="M489.089,157.252a137.349,137.349,0,0,0,8.863-15.157c.578-1.092-1.092-2.055-1.67-.963a137.358,137.358,0,0,1-8.863,15.157c-.642.963,1.028,1.991,1.67.963Z" transform="translate(-487.275 -140.652)"/></g></g><g transform="translate(205.908 15.428)"><path class="c" d="M457.019,151.4a13.772,13.772,0,0,1,20.616,5.78c.514,1.156,2.184.128,1.67-.963a15.631,15.631,0,0,0-23.249-6.487c-1.028.706-.064,2.376.963,1.67Z" transform="translate(-455.616 -146.916)"/></g><g transform="translate(202.504 21.842)"><path class="c" d="M451.719,160.754c6.422-4.11,15.863-1.413,18.817,5.78.45,1.156,2.312.642,1.862-.514-3.468-8.221-14.065-11.753-21.643-6.936-1.028.706-.064,2.376.963,1.67Z" transform="translate(-450.316 -156.903)"/></g><g transform="translate(151.642 90.463)"><path class="c" d="M371.556,268.085c3.532,2.119,7.065-2.5,10.725-2.44a8.586,8.586,0,0,1,6.936,3.661c1.156,1.67,1.734,3.275,3.6,4.239,1.092.578,2.055-1.092.963-1.67-2.184-1.156-2.826-3.982-4.688-5.587a10.622,10.622,0,0,0-4.5-2.248,11,11,0,0,0-5.009,0c-2.055.514-5.074,3.532-7,2.376a.982.982,0,0,0-1.028,1.67Z" transform="translate(-371.119 -263.75)"/></g><g transform="translate(160.771 38.653)"><path class="c" d="M387.175,235.755q19.46-25.625,38.983-51.314c.771-.963-.9-1.927-1.67-.963Q405.029,209.1,385.5,234.792c-.706.963.963,1.927,1.67.963Z" transform="translate(-385.334 -183.079)"/></g><g transform="translate(181.156 25.298)"><path class="c" d="M418.889,215.471Q437,188.883,457.295,163.964c.771-.963-.578-2.312-1.349-1.349-13.615,16.762-26.588,34.038-38.726,51.892-.642,1.028,1.028,1.991,1.67.963Z" transform="translate(-417.075 -162.284)"/></g><g transform="translate(149.6 109.542)"><path class="c" d="M369.648,295.8a1.649,1.649,0,0,1,2.7,1.606c-.257,1.22,1.606,1.734,1.862.514a3.591,3.591,0,0,0-5.973-3.468c-.9.771.45,2.119,1.413,1.349Z" transform="translate(-367.94 -293.459)"/></g><g transform="translate(149.925 109.621)"><path class="c" d="M370.407,295.584a9.631,9.631,0,0,1-1.734,3.661c.514.321,1.092.642,1.606.963a7.8,7.8,0,0,1,2.248-3.661l-1.541-.193a1.439,1.439,0,0,1-.578,1.862c.45.193.963.385,1.413.578a2.581,2.581,0,0,1,.514-2.44,7.076,7.076,0,0,1-1.156.128.677.677,0,0,1-.064,1.22,7.079,7.079,0,0,0,1.156.128,3.139,3.139,0,0,1-.9-1.156c-.064-.193-.128-.385-.193-.642,0-.128-.128-1.477-.321-1.092-.578,1.092,1.092,2.055,1.67.963.9-1.67-1.413-3.147-2.7-1.8-1.349,1.477-.128,3.918,1.156,5.009a.885.885,0,0,0,1.156.128,2.625,2.625,0,0,0,.064-4.56.968.968,0,0,0-1.156.128,4.774,4.774,0,0,0-1.028,4.3.978.978,0,0,0,1.413.578,3.422,3.422,0,0,0,1.284-4.5,1,1,0,0,0-1.541-.193,9.044,9.044,0,0,0-2.7,4.5c-.257.835.963,1.734,1.606.963a12.872,12.872,0,0,0,2.248-4.5c.257-1.092-1.606-1.606-1.927-.385Z" transform="translate(-368.445 -293.581)"/></g><g transform="translate(139.325 121.005)"><path class="c" d="M360.906,312.009a39.865,39.865,0,0,1-8.734,18.689c-.771.963.578,2.312,1.349,1.349a42.264,42.264,0,0,0,9.248-19.588c.193-1.156-1.67-1.67-1.862-.45Z" transform="translate(-351.942 -311.307)"/></g><g transform="translate(113.322 129.536)"><path class="c" d="M333,324.789a170.913,170.913,0,0,1-21.065,13.294c-1.092.578-.128,2.248.963,1.67a170.913,170.913,0,0,0,21.065-13.294c1.028-.771.064-2.44-.963-1.67Z" transform="translate(-311.452 -324.591)"/></g><g transform="translate(277.69 275.062)"><g transform="translate(0)"><path class="c" d="M581.331,552.672c-1.734-2.7-4.624-1.284-6.165.771a70.6,70.6,0,0,0-4.431,6.936c-1.092,1.8-2.376,3.789-2.569,6.037-.385,4.5,3.018,5.009,6.422,6.1,4.046,1.349,3.789,6.1,1.22,8.734-2.055,2.119-5.074,3.018-7.771,3.918-1.156.385-.642,2.248.514,1.862,5.395-1.734,13.423-5.652,10.661-12.844a5.615,5.615,0,0,0-2.248-2.762,9.481,9.481,0,0,0-1.862-.771c-1.862-.578-2.376-.385-3.853-1.991a2.081,2.081,0,0,1-1.028-2.954,10.806,10.806,0,0,1,1.028-2.5,27.892,27.892,0,0,1,1.8-2.954c.642-.963,5.138-9.055,6.615-6.679.642,1.092,2.312.128,1.67-.9Z" transform="translate(-567.385 -551.186)"/></g></g><g transform="translate(180.167 349.99)"><path class="c" d="M416.733,670a6.372,6.372,0,0,1,7.45,8.863c-.514,1.092,1.156,2.119,1.67.963a8.288,8.288,0,0,0-9.569-11.689.958.958,0,1,0,.45,1.862Z" transform="translate(-415.535 -667.854)"/></g><g transform="translate(276.078 237.821)"><g transform="translate(0)"><path class="c" d="M568.552,501.741c-2.44-1.8-2.44-6.487,1.284-6.615,1.349-.064,2.762.706,2.7,2.184,0,1.22-1.092,2.7-2.441,2.5-1.22-.193-1.734,1.67-.514,1.862a4.268,4.268,0,0,0,4.817-3.661,4.085,4.085,0,0,0-3.6-4.753,5.161,5.161,0,0,0-5.652,3.275,6.254,6.254,0,0,0,2.44,6.872c.963.706,1.927-.963.963-1.67Z" transform="translate(-564.875 -493.198)"/></g></g><g transform="translate(9.403 209.65)"><path class="c" d="M151.542,478.084c.9-3.6,3.982-5.652,6.872-7.643,3.018-2.119,6.1-4.3,9.184-6.422,6.1-4.3,12.2-8.542,18.3-12.845,1.028-.706.064-2.376-.963-1.67-7.129,5.009-14.258,9.955-21.386,14.964-4.817,3.34-12.331,6.872-13.872,13.1a.966.966,0,0,0,1.862.514Z" transform="translate(-149.642 -449.334)"/></g></g><g transform="translate(298.724 480.124)"><path class="b" d="M693.093,965.526,459,925.451q71.095-28.708,142.19-57.351,111.17,24.758,222.276,49.516Q758.343,941.6,693.093,965.526Z" transform="translate(-424.641 -756.737)"/><g transform="translate(265.147 208.065)"><path class="c" d="M818.447,1020.36c.257.771.45,1.605.706,2.376a.952.952,0,0,0,1.862-.257v-1.862a.965.965,0,0,0-1.927,0,5.121,5.121,0,0,1-.45,2.184H820.5a4.721,4.721,0,0,1-.128-2.5,16.136,16.136,0,0,0-1.734.257.34.34,0,0,1,.064.514,16.111,16.111,0,0,1,1.734.257,1.376,1.376,0,0,1,.193-1.22c-.578-.193-1.22-.321-1.8-.514-.128,1.028-.257,1.991-.385,3.018-.064.514.514.963.963.963a.988.988,0,0,0,.963-.963c.128-1.027.257-1.991.385-3.018.128-.963-1.349-1.22-1.8-.514a3.465,3.465,0,0,0-.385,2.762.967.967,0,0,0,1.734.257,2.022,2.022,0,0,0-.064-2.44c-.45-.578-1.606-.642-1.734.257a7.317,7.317,0,0,0,.128,3.532.98.98,0,0,0,1.862,0,8.025,8.025,0,0,0,.514-2.7H819.09v1.862c.642-.064,1.284-.193,1.862-.257-.257-.771-.45-1.606-.706-2.376a.922.922,0,1,0-1.8.385Z" transform="translate(-818.353 -1018.674)"/></g><g transform="translate(265.253 164.68)"><path class="c" d="M819.984,1000.815c10.34-5.331,21.643-8.156,32.754-11.3a138.613,138.613,0,0,0,16.056-5.395c5.009-2.055,9.826-4.624,14.771-6.936,10.982-5.138,22.863-8.477,34.359-12.267,11.945-3.982,23.827-7.964,35.772-11.881,1.156-.385.642-2.248-.514-1.863-11.945,3.982-23.827,7.964-35.772,11.881-11.3,3.725-22.928,7.065-33.781,12.01-5.652,2.569-11.175,5.587-16.955,7.835-5.266,2.055-10.661,3.661-16.12,5.2-10.725,3.083-21.579,5.909-31.6,11.046-1.028.578-.064,2.248,1.028,1.67Z" transform="translate(-818.519 -951.119)"/></g><g transform="translate(264.103 161.54)"><path class="c" d="M820.242,998.681q66.567-23.024,132.877-46.69c3.468-1.22,1.991-6.808-1.541-5.587Q885.3,970.1,818.7,993.094c-3.468,1.22-1.991,6.808,1.541,5.587Z" transform="translate(-816.728 -946.23)"/></g><g transform="translate(261.692 150.023)"><path class="c" d="M813.89,930.226c8.349.835,15.478,5.909,23.7,7.514,1.22.257,1.734-1.606.514-1.862-8.349-1.67-15.606-6.743-24.212-7.578-1.22-.064-1.22,1.862,0,1.927Z" transform="translate(-812.975 -928.297)"/></g><g transform="translate(285.44 147.065)"><path class="c" d="M851.4,935.193a74.446,74.446,0,0,0,14.129-9.89c.9-.835-.45-2.184-1.349-1.349a72.174,72.174,0,0,1-13.744,9.569.964.964,0,0,0,.963,1.67Z" transform="translate(-849.952 -923.691)"/></g><g transform="translate(263.196 138.256)"><path class="c" d="M816.719,920.01c4.046-2.89,8.221-5.652,12.523-8.221,1.092-.642.064-2.312-.963-1.67-4.3,2.569-8.477,5.266-12.523,8.221-1.028.771-.064,2.44.963,1.67Z" transform="translate(-815.316 -909.975)"/></g><g transform="translate(276.792 138.477)"><path class="c" d="M837.137,912.233c7.321,2.762,14.643,5.459,22.028,8.221,1.156.45,1.67-1.413.514-1.863-7.321-2.762-14.643-5.459-22.028-8.221-1.156-.385-1.67,1.477-.514,1.863Z" transform="translate(-836.485 -910.319)"/></g><g transform="translate(256.13 157.358)"><path class="c" d="M805.011,941.633q29,8.959,57.094,20.616c1.156.45,1.67-1.413.514-1.862q-28.033-11.656-57.094-20.616a.966.966,0,0,0-.514,1.862Z" transform="translate(-804.314 -939.719)"/></g><g transform="translate(258.21 172.47)"><path class="c" d="M808.032,965.016c12.01,5.78,24.148,11.239,36.414,16.57,1.156.514,2.119-1.156.963-1.67q-18.4-7.9-36.414-16.57c-1.092-.514-2.055,1.156-.963,1.67Z" transform="translate(-807.552 -963.249)"/></g><g transform="translate(259.944 188.953)"><path class="c" d="M810.732,990.7c6.551,3.34,13.1,6.743,19.652,10.083,1.092.578,2.055-1.092.963-1.67-6.551-3.34-13.1-6.743-19.652-10.083-1.092-.578-2.055,1.092-.963,1.67Z" transform="translate(-810.252 -988.913)"/></g><g transform="translate(262.469 168.158)"><path class="c" d="M815.864,979.7a295.782,295.782,0,0,1,28.451-21.322c1.028-.706.064-2.376-.963-1.67a304.2,304.2,0,0,0-28.836,21.643c-.963.835.385,2.184,1.349,1.349Z" transform="translate(-814.184 -956.534)"/></g><g transform="translate(260.41 165.46)"><path class="c" d="M812.341,965.028c5.138-3.6,10.276-7.193,15.414-10.854,1.028-.706.064-2.376-.963-1.67-5.138,3.6-10.276,7.193-15.413,10.854-.963.706,0,2.376.963,1.67Z" transform="translate(-810.979 -952.334)"/></g><path class="b" d="M670.484,907.92,428.3,866.689Q416.932,780.662,405.5,694.7q130.341,17.533,260.617,35.13Q668.332,818.843,670.484,907.92Z" transform="translate(-405.5 -694.7)"/><g transform="translate(107.721 76.821)"><path class="c" d="M586.633,851.491c-7-2.184-10.789-8.092-11.367-15.221-.578-7.257.835-14.258,7.578-18.047a16.791,16.791,0,0,1,18.432,1.67c5.331,4.046,10.083,12.331,5.78,18.689-.706,1.028.963,1.991,1.67.963,4.624-6.808.257-15.8-5.395-20.487-5.844-4.817-13.744-6.294-20.616-2.89-7.964,3.918-10.019,11.881-9.377,20.166.642,8.028,4.881,14.643,12.78,17.083,1.156.321,1.67-1.541.514-1.927Z" transform="translate(-573.229 -814.317)"/></g><g transform="translate(119.288 95.818)"><path class="c" d="M594.875,862.78c-2.954-4.881-1.991-11.689,2.762-15.092s11.56-1.991,15.157,2.376c.771.963,2.119-.385,1.349-1.349-4.239-5.074-12.2-6.487-17.725-2.569-5.523,3.982-6.679,11.945-3.211,17.6.642,1.027,2.312.064,1.67-.964Z" transform="translate(-591.241 -843.896)"/></g><g transform="translate(125.707 103.174)"><path class="c" d="M605.066,869.575c-3.018-3.211-2.569-9.184,1.477-11.5,3.982-2.312,9.377.321,10.661,4.56.385,1.156,2.248.706,1.862-.514-1.67-5.395-8.413-8.606-13.487-5.652s-5.716,10.4-1.862,14.514c.835.835,2.184-.514,1.349-1.413Z" transform="translate(-601.235 -855.35)"/></g><g transform="translate(131.456 112.475)"><path class="c" d="M613.214,879.252a5.205,5.205,0,0,0,6.358-2.954,4.9,4.9,0,0,0-8.734-4.239,5.291,5.291,0,0,0,1.156,6.551c.963.771,2.312-.578,1.349-1.349-2.569-1.991-.771-6.679,2.633-5.266a2.816,2.816,0,0,1,1.8,3.725,3.263,3.263,0,0,1-4.046,1.734c-1.156-.45-1.67,1.413-.514,1.8Z" transform="translate(-610.188 -869.832)"/></g><line class="j" x2="5.652" y2="176.934" transform="translate(260.617 35.066)"/><path class="j" d="M811.9,749.1q2.6,87.279,5.2,174.558" transform="translate(-550.898 -714.163)"/><path class="k" d="M592.4,730.7c4.174,2.184,40.011,21.707,42.516,56.388,1.413,19.138-7.964,33.653-13.872,42.516-31.855,47.91-94.857,56.388-111.941,58.186,24.854,16.505,111.684,70.9,206.605,67.691,21.129-.706,53.883-2.184,89.4-21.707a177.831,177.831,0,0,0,53.819-45.984c-6.1-3.789-12.138-7.514-18.239-11.3Q773.442,899.51,706.136,922.47q-3.468-89.013-6.936-177.962Q645.734,737.765,592.4,730.7Z" transform="translate(-442.565 -707.58)"/><path class="l" d="M559.3,952.427a274.223,274.223,0,0,0,37.956,21c20.808,9.505,82.4,37.635,149.126,22.029,48.488-11.367,85.995-42.516,83.554-47.653-1.541-3.211-20.359.128-104.17,33.46q-2.023-40.75-3.982-81.563c-2.312,22.863-4.688,45.727-7,68.526Q637.042,960.423,559.3,952.427Z" transform="translate(-460.525 -768.043)"/></g><g transform="translate(409.797 561.101)"><path class="i" d="M583.427,850.98a18.361,18.361,0,0,1-3.918-18.625c2.376-6.358,8.67-11.817,16.184-11.56a16.448,16.448,0,0,1,13.872,9.248,14.392,14.392,0,0,1,1.092,6.422,10.822,10.822,0,0,1-1.22,3.918,13.292,13.292,0,0,0-12.973-4.431,13.514,13.514,0,0,0-8.542,6.743,12.818,12.818,0,0,0,0,10.982C586.381,852.714,584.9,851.815,583.427,850.98Z" transform="translate(-578.449 -820.786)"/></g><g transform="translate(644.931 415.966)"><path class="b" d="M1033.812,740.861a51.552,51.552,0,0,0-10.6,10.6c-12.652,17.019-10.918,36.992-10.019,43.479a123.225,123.225,0,0,0-52.406.578A121.678,121.678,0,0,0,929,807.781a18.388,18.388,0,0,0,5.009,2.248c12.01,3.275,24.662-6.808,25.047-6.1.385.642-14.129,7.45-13.358,13.358.514,3.982,7.643,6.1,15.028,8.349,6.23,1.862,12.138,3.661,20.038,2.762a41.019,41.019,0,0,0,21.707-9.505,93.691,93.691,0,0,0,13.936,5.587c10.982,3.34,26.139,7.964,36.222,1.67,6.551-4.11,8.542-13.744,12.266-32.882,4.753-24.533,7.129-36.8.578-44.571C1056.8,738.356,1039.4,740.09,1033.812,740.861Z" transform="translate(-929 -646.838)"/><g transform="translate(81.361 146.826)"><path class="c" d="M1056.337,825.333a37.284,37.284,0,0,1,18.625,15.157c.642,1.028,2.312.064,1.67-.963a39.572,39.572,0,0,0-19.781-16.056c-1.156-.385-1.67,1.477-.514,1.862Z" transform="translate(-1055.685 -823.419)"/></g><g transform="translate(24.078 161.443)"><path class="c" d="M983.131,846.192a21.441,21.441,0,0,0-16.57,13.615c-.45,1.156,1.413,1.67,1.862.514a19.556,19.556,0,0,1,15.221-12.267c1.22-.193.706-2.055-.514-1.862Z" transform="translate(-966.492 -846.178)"/></g><g transform="translate(24.75 174.647)"><path class="c" d="M967.835,868.383a14.629,14.629,0,0,0,14.707,3.4c1.156-.385.642-2.248-.514-1.862a12.625,12.625,0,0,1-12.845-2.89.954.954,0,0,0-1.349,1.349Z" transform="translate(-967.538 -866.738)"/></g><g transform="translate(38.802 167.67)"><path class="c" d="M1000.26,856.019a61.586,61.586,0,0,0-7.771,5.652c-1.606,1.413-3.4,3.083-3.018,5.395.963,6.1,8.285,4.753,12.267,3.211,1.156-.45.642-2.312-.514-1.862-1.734.642-3.661,1.477-5.523,1.413-3.019-.128-5.716-3.018-3.147-5.652a45.886,45.886,0,0,1,8.67-6.551c1.092-.578.128-2.248-.963-1.606Z" transform="translate(-989.418 -855.875)"/></g><path class="d" d="M1073.954,598.5a97.322,97.322,0,0,1,9.634,8.542,83.732,83.732,0,0,1,6.294,7.065,78.983,78.983,0,0,1,9.633,15.992,189.9,189.9,0,0,1,11.175,26.717c3.147,9.633,7.964,24.79,8.542,44.956a136.532,136.532,0,0,1-.771,19.331,30.457,30.457,0,0,0-7.45-6.294c-12.267-7.514-27.167-4.817-41.231-2.248-5.266.963-9.633,2.119-12.652,2.954.771-7.065,1.477-14.129,2.248-21.194.642-5.909,1.22-11.881,1.862-17.854a71.806,71.806,0,0,1-4.431-8.927c-3.018-7.257-9.055-21.515-5.587-37.506C1055.329,611.666,1069.779,601.262,1073.954,598.5Z" transform="translate(-972.353 -596.124)"/><g transform="translate(103.37 4.078)"><path class="c" d="M1090.433,602.98c6.422,3.34,10.725,9.12,14.45,15.092a182.86,182.86,0,0,1,10.4,19.074,189.2,189.2,0,0,1,13.936,41.938c.257,1.22,2.119.706,1.863-.514a186.453,186.453,0,0,0-14.643-43.479,180.14,180.14,0,0,0-10.982-19.781c-3.661-5.652-7.964-10.918-14-14.065-1.156-.514-2.119,1.156-1.027,1.734Z" transform="translate(-1089.955 -601.149)"/></g><g transform="translate(83.691 69.738)"><path class="c" d="M1059.433,704.873c2.954,6.037,6.037,11.945,9.248,17.854.578,1.092,2.248.128,1.67-.963-3.211-5.909-6.294-11.817-9.248-17.854-.578-1.156-2.248-.193-1.67.963Z" transform="translate(-1059.313 -703.387)"/></g><g transform="translate(83.614 81.346)"><path class="c" d="M1063.95,722.386q-2.408,18.689-4.752,37.378a.945.945,0,0,0,1.22.9,100.146,100.146,0,0,1,33.717-4.752c9.055.321,21.065,1.156,26.139,10.019a.964.964,0,0,0,1.67-.963c-4.817-8.478-15.349-10.212-24.212-10.79a101.514,101.514,0,0,0-37.763,4.624,14.8,14.8,0,0,0,1.22.9q2.408-18.689,4.753-37.378c.128-1.156-1.8-1.156-1.991.064Z" transform="translate(-1059.194 -721.462)"/></g><g transform="translate(142.497 79.838)"><path class="c" d="M1150.892,720.325c2.248,14.129,5.908,29.093,2.119,43.286a.966.966,0,0,0,1.862.514c3.854-14.514.193-29.8-2.119-44.314-.193-1.22-2.055-.706-1.863.514Z" transform="translate(-1150.878 -719.114)"/></g><path class="m" d="M1044.467,594.8a246.66,246.66,0,0,1,16.634,38.919,251.142,251.142,0,0,1,12.459,75.911l-19.652,1.156c2.119,15.221,4.3,30.506,6.422,45.727a65.466,65.466,0,0,0-18.5-7.193,62.985,62.985,0,0,0-22.671-.771C997.456,752.21,984.354,770,981.4,774.239a34.46,34.46,0,0,0,11.3,2.633c14,.835,24.212-7.257,27.23-9.826a92.682,92.682,0,0,0,23.827,8.285c10.34,2.119,22.414,4.56,29.093-1.863.514-.514,1.67-1.734,4.175-7.964,3.918-9.89,5.973-19.138,8.67-35.9.578-3.725,1.413-8.734,2.248-14.707l4.881,4.881a77.863,77.863,0,0,0,2.248-12.459c1.349-13.68-1.284-24.469-3.789-33.267-10.083-35.58-16.12-57.03-36.286-72.572A89.263,89.263,0,0,0,1044.467,594.8Z" transform="translate(-947.747 -594.8)"/><path class="n" d="M1101.41,663.3a226.783,226.783,0,0,1,4.56,51.571,230.994,230.994,0,0,1-2.826,29.478c-3.789,26.524-5.716,39.754-13.037,45.919-13.872,11.689-38.6,2.826-44.506.578,5.587,3.725,25.689,16.377,45.341,9.377a33.242,33.242,0,0,0,6.486-3.147,67.469,67.469,0,0,0,7.386-17.854,84.881,84.881,0,0,0,1.927-12.074c.706-6.422,1.927-15.8,3.982-27.552,1.862,1.605,3.789,3.211,5.652,4.817a88.85,88.85,0,0,0,1.67-14.45c.578-14.9-2.7-26.2-6.486-39.112A218.528,218.528,0,0,0,1101.41,663.3Z" transform="translate(-970.716 -619.307)"/></g><g transform="translate(574.767 227.85)"><path class="o" d="M857.6,379.424a216.446,216.446,0,0,0,4.367,27.873c1.67,7.386,2.7,12.074,4.881,17.918,3.275,8.8,9.5,25.625,25.753,36.607a57.192,57.192,0,0,0,19.524,8.413c1.477.128,2.954.321,4.431.45.514,2.7,1.156,6.679,1.8,11.5,1.541,12.4.771,16.184,3.982,19.524,3.918,4.046,10.147,3.661,11.5,3.532,10.725-.706,16.12-11.367,16.377-11.945a63.073,63.073,0,0,1-4.881-11.5,65.345,65.345,0,0,1-2.633-24.854,74.586,74.586,0,0,1,15.927-16.826c2.119-1.606,3.918-3.789,7.065-4.881,4.5-1.541,6.808,0,10.147-1.028,5.523-1.734,7.9-8.863,8.927-11.817,3.918-11.689-.9-23.249-3.982-30.121a79.07,79.07,0,0,0-27.487-34.1c-18.047-12.588-54.14-26.588-78.031-8.413C871.151,352.9,861.774,361.313,857.6,379.424Z" transform="translate(-833.292 -315.901)"/><path class="p" d="M846.756,391.873c-4.11-.706-14.514-3.147-21.258-12.074-10.276-13.551-4.753-32.5.963-42.516,8.991-15.735,25.368-21.194,45.919-28.065,12.2-4.046,23.827-7.9,39.625-7.257,8.734.385,38.341,1.67,56.067,23.7,10.533,13.037,11.689,27.038,14,54.654,1.092,12.652.257,19.524-1.927,26.075-1.606,4.753-6.808,19.973-21.772,26.075a35.258,35.258,0,0,1-19.074,1.927c3.6-5.33,7.193-10.6,10.854-15.927,2.055.128,9.377.257,14.964-4.817,7.643-7,8.991-20.937,3.4-24.662-4.11-2.762-12.266-.064-19.331,6.294a65.367,65.367,0,0,0-3.4-13.037c-8.092-21.772-25.689-33.717-34.3-38.662A63.255,63.255,0,0,1,878.161,365.8a62.166,62.166,0,0,1-33.332-.514Q845.793,378.579,846.756,391.873Z" transform="translate(-819.751 -301.89)"/><g transform="translate(23.781 64.277)"><path class="c" d="M856.792,402.89c2.633,19.845,5.395,40.46,15.092,58.314,7.964,14.643,20.808,27.166,37.314,31.341a.966.966,0,0,0,.514-1.862c-16.313-4.174-28.9-16.762-36.607-31.341-9.184-17.34-11.817-37.249-14.386-56.452-.193-1.22-2.119-1.22-1.927,0Z" transform="translate(-856.779 -401.975)"/></g><g transform="translate(75.237 115.32)"><path class="c" d="M937.863,521.237c11.624,0,23.827-6.23,32.946-12.909A76.471,76.471,0,0,0,992.9,482.9c.578-1.092-1.092-2.055-1.67-.963a72.755,72.755,0,0,1-21.386,24.726c-8.927,6.551-20.744,12.652-31.983,12.652a.963.963,0,1,0,0,1.927Z" transform="translate(-936.9 -481.452)"/></g><g transform="translate(108.754 139.739)"><path class="c" d="M989.417,520.39a67.979,67.979,0,0,0,7.129,37.57c.578,1.092,2.248.128,1.67-.963a66.309,66.309,0,0,1-6.872-36.607c.128-1.22-1.8-1.22-1.927,0Z" transform="translate(-989.088 -519.475)"/></g><g transform="translate(81.108 153.618)"><path class="c" d="M946.079,542.251a203.633,203.633,0,0,1,5.138,22.285c.835,5.009,1.156,10.661,6.743,12.523,8.349,2.826,20.68-2.184,23.891-10.468.45-1.156-1.413-1.67-1.862-.514-1.8,4.688-6.294,7.257-10.918,8.606-3.853,1.092-9.7,2.248-12.973-.9-1.927-1.863-2.184-4.817-2.569-7.321-.45-2.633-.9-5.266-1.413-7.9-1.156-5.652-2.5-11.3-4.11-16.826-.385-1.156-2.248-.642-1.927.514Z" transform="translate(-946.042 -541.085)"/></g><g transform="translate(82.992 141.716)"><path class="c" d="M949.89,543.584c11.432-1.477,18.946-10.211,24.469-19.588a.964.964,0,0,0-1.67-.963c-5.074,8.734-12.138,17.276-22.8,18.625-1.22.193-1.22,2.119,0,1.927Z" transform="translate(-948.975 -522.552)"/></g><g transform="translate(82.566 142.579)"><path class="c" d="M949.2,537.514a35.832,35.832,0,0,0,22.928-11.945c.835-.9-.514-2.312-1.349-1.349A33.7,33.7,0,0,1,949.2,535.588c-1.156.128-1.22,2.055,0,1.927Z" transform="translate(-948.312 -523.897)"/></g><g transform="translate(82.567 144.502)"><path class="c" d="M949.525,537.172a37.532,37.532,0,0,0,19.2-8.67c.963-.835-.45-2.184-1.349-1.349a35.517,35.517,0,0,1-18.368,8.221c-1.22.128-.707,1.991.514,1.8Z" transform="translate(-948.314 -526.891)"/></g><g transform="translate(83.369 145.417)"><path class="c" d="M949.586,539.288c.321,1.541.257,4.624,2.184,5.138,1.862.514,4.688-1.67,6.165-2.569a41.486,41.486,0,0,0,12.652-12.138c.706-1.028-.963-1.991-1.67-.963a38.292,38.292,0,0,1-8.67,9.248,41.362,41.362,0,0,1-5.009,3.211c-.706.385-2.312,1.477-3.018,1.028-.449-.257-.642-3.018-.706-3.468a1,1,0,0,0-1.927.514Z" transform="translate(-949.562 -528.316)"/></g><g transform="translate(83.127 147.869)"><path class="c" d="M950.351,542.452a79.751,79.751,0,0,0,15.606-8.477c1.028-.706.064-2.376-.963-1.67a75.456,75.456,0,0,1-15.157,8.285c-1.156.449-.642,2.312.514,1.862Z" transform="translate(-949.185 -532.134)"/></g><g transform="translate(84.09 148.129)"><path class="c" d="M951.851,544.523a40.252,40.252,0,0,0,16.056-10.34c.835-.9-.514-2.248-1.349-1.349a39.158,39.158,0,0,1-15.221,9.826c-1.156.45-.642,2.312.514,1.862Z" transform="translate(-950.685 -532.538)"/></g><g transform="translate(84.798 149.319)"><path class="c" d="M953.273,544.159A41.646,41.646,0,0,0,965.6,536c.9-.835-.45-2.184-1.349-1.349a40.939,40.939,0,0,1-11.945,7.835c-1.156.514-.193,2.184.963,1.67Z" transform="translate(-951.787 -534.391)"/></g><g transform="translate(18.907 66.074)"><path class="c" d="M864.1,452.7c-10.468-3.725-13.936-17.4-12.909-27.295,1.092-10.854,10.854-22.671,22.8-17.6,5.716,2.44,7.835,8.734,9.376,14.322,1.606,5.909,2.312,12.459.771,18.5-1.349,5.331-4.624,10.4-9.762,12.716a12.238,12.238,0,0,1-14.707-3.4c-.771-.963-2.119.385-1.349,1.349,5.844,7.514,16.826,6.037,22.735-.578,7.514-8.413,6.744-21.194,3.532-31.277-1.477-4.688-3.4-9.569-7.707-12.267a16.246,16.246,0,0,0-12.652-1.862c-9.762,2.633-14.836,12.973-15.028,22.414-.193,10.34,3.853,23.12,14.514,26.845,1.028.385,1.541-1.477.385-1.862Z" transform="translate(-849.19 -404.773)"/></g><g transform="translate(54.609 89.748)"><path class="c" d="M906.206,446.686a21.155,21.155,0,0,1,20.487-.9c1.092.578,2.055-1.092.963-1.67a23.154,23.154,0,0,0-22.478.9c-.963.642,0,2.312,1.028,1.67Z" transform="translate(-904.781 -441.635)"/></g><g transform="translate(76.199 62.81)"><path class="c" d="M948.932,445.359a28.046,28.046,0,0,1-7.45-27.616c2.954-10.147,13.1-18.882,24.019-15.285,12.074,3.982,12.716,21.258,9.569,31.4-1.863,5.973-5.587,11.945-11.753,14.129s-11.5-1.092-16.441-4.56c-1.028-.706-1.991.963-.963,1.67,4.046,2.89,8.413,5.78,13.551,5.587a17.247,17.247,0,0,0,12.331-6.551c6.808-8.221,8.156-20.744,5.331-30.763-2.569-9.12-10.147-15.028-19.845-13.423-9.248,1.477-16.056,9.826-18.111,18.56a30.024,30.024,0,0,0,8.285,28.194c1.027.9,2.376-.514,1.477-1.349Z" transform="translate(-938.399 -399.691)"/></g><g transform="translate(39.015 85.478)"><path class="c" d="M881.142,436.858a16.228,16.228,0,0,0,2.248,11.432.951.951,0,0,0,1.734-.257c1.541-4.431-.642-8.8-2.826-12.588a.977.977,0,0,0-1.8.514,27.51,27.51,0,0,0,2.055,9.89c.45,1.156,2.312.642,1.862-.514a26.087,26.087,0,0,1-1.991-9.377c-.578.193-1.22.321-1.8.514,1.991,3.4,4.046,7.129,2.633,11.111a16.147,16.147,0,0,0,1.734-.257,13.949,13.949,0,0,1-2.055-9.955c.257-1.22-1.606-1.734-1.8-.514Z" transform="translate(-880.5 -434.986)"/></g><g transform="translate(93.904 81.523)"><path class="c" d="M968.557,432.856a2.715,2.715,0,0,0-.45-1.734.977.977,0,0,0-1.8.514c.064,3.982.385,8.285,3.468,11.111a1.011,1.011,0,0,0,1.67-.706,17.4,17.4,0,0,0-3.853-12.909c-.642-.771-1.8.064-1.606.963a72.724,72.724,0,0,0,2.89,9.184c.45,1.156,2.312.642,1.863-.514a58.547,58.547,0,0,1-2.89-9.184c-.514.321-1.092.642-1.606.963a15.589,15.589,0,0,1,3.275,11.56c.578-.257,1.092-.45,1.67-.706-2.761-2.5-2.89-6.294-2.954-9.762-.578.193-1.22.321-1.8.514l.193.771c0,1.156,1.927,1.156,1.927-.064Z" transform="translate(-965.967 -428.827)"/></g><g transform="translate(58.263 97.548)"><path class="c" d="M914.664,454.435a83.3,83.3,0,0,0-3.083,11.753c-.385,2.119-1.734,6.1-.771,8.221,1.927,4.3,10.468,1.67,13.423.257,1.092-.514.128-2.184-.963-1.67a14.779,14.779,0,0,1-7.578,1.541c-1.541-.128-2.762-.385-3.083-2.119-.193-.963.45-3.468.642-4.56a89.393,89.393,0,0,1,3.34-12.973c.321-1.092-1.542-1.606-1.927-.45Z" transform="translate(-910.47 -453.779)"/></g><g transform="translate(70.961 125.631)"><path class="c" d="M931.435,507.136a14.488,14.488,0,0,0,11.111-8.156c.514-1.092-1.156-2.119-1.67-.963a12.627,12.627,0,0,1-9.955,7.257c-1.22.193-.642,2.055.514,1.862Z" transform="translate(-930.242 -497.508)"/></g><g transform="translate(34 78.68)"><path class="c" d="M874.3,427.547a3.555,3.555,0,0,1,5.009-.45c.963.835,2.312-.578,1.349-1.349a5.534,5.534,0,0,0-7.707.45c-.835.9.514,2.248,1.349,1.349Z" transform="translate(-872.691 -424.401)"/></g><g transform="translate(89.014 75.018)"><path class="c" d="M960.052,421.911a5.438,5.438,0,0,1,7-.064c.963.771,2.312-.578,1.349-1.349a7.424,7.424,0,0,0-9.762.064c-.9.835.514,2.184,1.413,1.349Z" transform="translate(-958.352 -418.699)"/></g><g transform="translate(114.835 80.861)"><path class="c" d="M999.741,434.029a76.246,76.246,0,0,1,21.45-4.3c1.22-.064,1.22-1.991,0-1.927a78.019,78.019,0,0,0-21.964,4.367c-1.156.45-.707,2.312.514,1.862Z" transform="translate(-998.557 -427.798)"/></g><path class="e" d="M1012.295,312.9c3.853,4.945,18.689,25.24,15.927,53.112a72.336,72.336,0,0,1-12.01,33.011,46.767,46.767,0,0,1,5.78-3.853c3.918-2.184,6.422-3.532,9.634-3.34a8.963,8.963,0,0,1,4.945,1.606c4.881,4.11,3.211,18.689-5.459,25.5a20.759,20.759,0,0,1-13.166,4.046c-3.661,5.2-7.386,10.4-11.046,15.67a34.741,34.741,0,0,0,10.468.064,35.293,35.293,0,0,0,16.377-7.257c6.936-5.587,9.762-12.4,11.624-17.019,5.138-12.845,4.11-24.148,2.312-44.506-.771-9.055-1.22-13.679-3.019-19.781-1.927-6.615-4.945-16.377-13.551-25.111A49.8,49.8,0,0,0,1012.295,312.9Z" transform="translate(-886.707 -305.829)"/><path class="q" d="M918.7,377.041a156.657,156.657,0,0,0,20.551-22.157A158.375,158.375,0,0,0,950.1,338.7c-1.092,5.78-2.184,11.56-3.211,17.34a54.565,54.565,0,0,1-28.194,21Z" transform="translate(-855.152 -315.06)"/><path class="r" d="M977.6,387a114.434,114.434,0,0,1,4.817,38.855c-.321,6.679-2.119,41.681-20.551,53.755-1.8,1.156-6.358,3.853-6.165,4.239.257.45,8.8-3.34,13.487-5.909,7.386-3.982,18.753-12.01,29.286-28.965,1.734.193,10.211.771,16.313-5.074,7.386-7,8.67-20.744,2.826-24.79-4.174-2.89-12.138-.45-19.138,5.331a79.2,79.2,0,0,0-2.826-9.312A82.423,82.423,0,0,0,977.6,387Z" transform="translate(-868.386 -332.34)"/><path class="s" d="M965.7,531.776c1.67,5.138,3.34,10.276,5.009,15.478,2.312,7.065,4.56,14.193,6.808,21.258a14.237,14.237,0,0,0,7.193-3.982,15.65,15.65,0,0,0,3.982-7.193,64,64,0,0,1-6.487-21.964,62.234,62.234,0,0,1,0-12.973C976.746,525.547,971.223,528.694,965.7,531.776Z" transform="translate(-871.967 -380.782)"/><path class="t" d="M910.433,458.3c-3.211,6.872-6.422,13.68-9.633,20.551,5.266-.128,10.468-.193,15.735-.321-3.083-.963-6.23-1.927-9.312-2.89C908.25,469.86,909.342,464.08,910.433,458.3Z" transform="translate(-848.748 -357.849)"/></g></g></svg>